G04 #@! TF.GenerationSoftware,KiCad,Pcbnew,7.0.6-0*
G04 #@! TF.CreationDate,2023-08-16T18:08:33-03:00*
G04 #@! TF.ProjectId,macunaima_rev2.2,6d616375-6e61-4696-9d61-5f726576322e,rev?*
G04 #@! TF.SameCoordinates,Original*
G04 #@! TF.FileFunction,Soldermask,Bot*
G04 #@! TF.FilePolarity,Negative*
%FSLAX46Y46*%
G04 Gerber Fmt 4.6, Leading zero omitted, Abs format (unit mm)*
G04 Created by KiCad (PCBNEW 7.0.6-0) date 2023-08-16 18:08:33*
%MOMM*%
%LPD*%
G01*
G04 APERTURE LIST*
G04 Aperture macros list*
%AMFreePoly0*
4,1,19,0.500000,-0.750000,0.000000,-0.750000,0.000000,-0.744911,-0.071157,-0.744911,-0.207708,-0.704816,-0.327430,-0.627875,-0.420627,-0.520320,-0.479746,-0.390866,-0.500000,-0.250000,-0.500000,0.250000,-0.479746,0.390866,-0.420627,0.520320,-0.327430,0.627875,-0.207708,0.704816,-0.071157,0.744911,0.000000,0.744911,0.000000,0.750000,0.500000,0.750000,0.500000,-0.750000,0.500000,-0.750000,
$1*%
%AMFreePoly1*
4,1,19,0.000000,0.744911,0.071157,0.744911,0.207708,0.704816,0.327430,0.627875,0.420627,0.520320,0.479746,0.390866,0.500000,0.250000,0.500000,-0.250000,0.479746,-0.390866,0.420627,-0.520320,0.327430,-0.627875,0.207708,-0.704816,0.071157,-0.744911,0.000000,-0.744911,0.000000,-0.750000,-0.500000,-0.750000,-0.500000,0.750000,0.000000,0.750000,0.000000,0.744911,0.000000,0.744911,
$1*%
G04 Aperture macros list end*
%ADD10R,1.700000X1.700000*%
%ADD11O,1.700000X1.700000*%
%ADD12C,2.000000*%
%ADD13C,2.500000*%
%ADD14C,4.000000*%
%ADD15C,4.300000*%
%ADD16C,3.200000*%
%ADD17C,1.200000*%
%ADD18C,1.651000*%
%ADD19C,1.143000*%
%ADD20C,1.498600*%
%ADD21C,1.524000*%
%ADD22R,2.000000X2.000000*%
%ADD23C,3.000000*%
%ADD24C,3.250000*%
%ADD25R,1.520000X1.520000*%
%ADD26C,1.520000*%
%ADD27C,1.800000*%
%ADD28FreePoly0,180.000000*%
%ADD29FreePoly1,180.000000*%
%ADD30C,1.000000*%
G04 APERTURE END LIST*
D10*
X53118573Y-132941702D03*
D11*
X50578573Y-132941702D03*
X53118573Y-130401702D03*
X50578573Y-130401702D03*
X53118573Y-127861702D03*
X50578573Y-127861702D03*
X53118573Y-125321702D03*
X50578573Y-125321702D03*
D12*
X34078573Y-132496773D03*
X22678573Y-132496773D03*
D13*
X23495964Y-116861773D03*
X30245964Y-116861773D03*
D14*
X59245964Y-40861773D03*
X64745964Y-40861773D03*
D15*
X122093573Y-6696773D03*
X14245573Y-29542573D03*
D10*
X114370465Y-110091773D03*
D11*
X114370465Y-107551773D03*
X114370465Y-105011773D03*
X114370465Y-102471773D03*
D16*
X107318573Y-146836773D03*
X120018573Y-146836773D03*
D17*
X117238573Y-144486773D03*
X116218573Y-142706773D03*
X115198573Y-144486773D03*
X114178573Y-142706773D03*
X113158573Y-144486773D03*
X112138573Y-142706773D03*
X111118573Y-144486773D03*
X110098573Y-142706773D03*
D16*
X54818573Y-146836773D03*
X67518573Y-146836773D03*
D17*
X64738573Y-144486773D03*
X63718573Y-142706773D03*
X62698573Y-144486773D03*
X61678573Y-142706773D03*
X60658573Y-144486773D03*
X59638573Y-142706773D03*
X58618573Y-144486773D03*
X57598573Y-142706773D03*
D18*
X88900020Y-56121174D03*
D19*
X113900022Y-56121174D03*
D20*
X122672619Y-126240296D03*
X122672619Y-118240296D03*
D21*
X8088573Y-43908573D03*
X3088573Y-43908573D03*
X8088573Y-48908573D03*
X3088573Y-48908573D03*
D22*
X6490573Y-27106573D03*
X1440573Y-27106573D03*
X6490573Y-32156573D03*
X1440573Y-32156573D03*
D21*
X8624573Y-117614573D03*
X3624573Y-117614573D03*
X8624573Y-122614573D03*
X3624573Y-122614573D03*
X8570573Y-104968573D03*
X3570573Y-104968573D03*
X8570573Y-109968573D03*
X3570573Y-109968573D03*
D23*
X23968573Y-141391773D03*
X29048573Y-141391773D03*
D24*
X73193573Y-146436773D03*
X101643573Y-146436773D03*
D17*
X98868573Y-143896773D03*
X97848573Y-142116773D03*
X96828573Y-143896773D03*
X95808573Y-142116773D03*
X94788573Y-143896773D03*
X93768573Y-142116773D03*
X92748573Y-143896773D03*
X91728573Y-142116773D03*
X83108573Y-143896773D03*
X82088573Y-142116773D03*
X81068573Y-143896773D03*
X80048573Y-142116773D03*
X79028573Y-143896773D03*
X78008573Y-142116773D03*
X76988573Y-143896773D03*
X75968573Y-142116773D03*
D23*
X103418573Y-142636773D03*
X71418573Y-142636773D03*
X5771573Y-79955823D03*
X5771573Y-84635823D03*
D25*
X10091573Y-86795823D03*
D26*
X10091573Y-83795823D03*
X10091573Y-80795823D03*
X10091573Y-77795823D03*
X13091573Y-86795823D03*
X13091573Y-83795823D03*
X13091573Y-80795823D03*
X13091573Y-77795823D03*
D23*
X37943573Y-141411773D03*
X42643573Y-141411773D03*
X47343573Y-141411773D03*
D15*
X125838573Y-134166773D03*
D27*
X24858573Y-124516773D03*
X32358573Y-127416773D03*
D21*
X8143573Y-56728573D03*
X3143573Y-56728573D03*
X8143573Y-61728573D03*
X3143573Y-61728573D03*
D15*
X5739573Y-145608573D03*
D28*
X64690573Y-87592773D03*
D29*
X63390573Y-87592773D03*
D12*
X123088573Y-141056773D03*
D28*
X64690573Y-92842105D03*
D29*
X63390573Y-92842105D03*
D12*
X21008573Y-4256773D03*
D30*
X107013573Y-98666773D03*
D12*
X18548573Y-124136773D03*
X115418573Y-3106773D03*
D28*
X64690573Y-95466773D03*
D29*
X63390573Y-95466773D03*
D28*
X64690573Y-90217439D03*
D29*
X63390573Y-90217439D03*
M02*
