M48
; DRILL file {KiCad 7.0.6-0} date 2023 August 16, Wednesday 18:08:35
; FORMAT={-:-/ absolute / inch / decimal}
; #@! TF.CreationDate,2023-08-16T18:08:35-03:00
; #@! TF.GenerationSoftware,Kicad,Pcbnew,7.0.6-0
; #@! TF.FileFunction,Plated,1,4,PTH
FMAT,2
INCH
; #@! TA.AperFunction,Plated,PTH,ViaDrill
T1C0.0118
; #@! TA.AperFunction,Plated,PTH,ComponentDrill
T2C0.0300
; #@! TA.AperFunction,Plated,PTH,ComponentDrill
T3C0.0315
; #@! TA.AperFunction,Plated,PTH,ComponentDrill
T4C0.0390
; #@! TA.AperFunction,Plated,PTH,ComponentDrill
T5C0.0394
; #@! TA.AperFunction,Plated,PTH,ComponentDrill
T6C0.0402
; #@! TA.AperFunction,Plated,PTH,ComponentDrill
T7C0.0433
; #@! TA.AperFunction,Plated,PTH,ComponentDrill
T8C0.0630
; #@! TA.AperFunction,Plated,PTH,ComponentDrill
T9C0.0650
; #@! TA.AperFunction,Plated,PTH,ComponentDrill
T10C0.0787
; #@! TA.AperFunction,Plated,PTH,ComponentDrill
T11C0.0827
; #@! TA.AperFunction,Plated,PTH,ComponentDrill
T12C0.1654
%
G90
G05
T1
X0.5538Y-0.2847
X0.5767Y-0.2847
X0.5996Y-0.2847
X0.7159Y-3.2398
X0.7886Y-1.7654
X0.8116Y-3.3008
X0.9134Y-2.1212
X0.9339Y-2.1442
X0.9344Y-2.122
X0.9349Y-2.1003
X0.9549Y-2.1217
X1.1294Y-1.4107
X1.1498Y-1.4336
X1.1503Y-1.4114
X1.1508Y-1.3897
X1.164Y-2.3735
X1.1708Y-1.4111
X1.1845Y-2.3964
X1.185Y-2.3742
X1.1855Y-2.3525
X1.2055Y-2.374
X1.279Y-0.2611
X1.279Y-0.2828
X1.279Y-0.3044
X1.3007Y-0.2611
X1.3007Y-0.2828
X1.3007Y-0.3044
X1.3223Y-0.2611
X1.3223Y-0.2828
X1.3223Y-0.3044
X1.344Y-0.2611
X1.344Y-0.2828
X1.344Y-0.3044
X1.7934Y-2.1882
X2.2734Y-0.2828
X2.2893Y-5.4099
X2.3838Y-5.4103
X2.398Y-4.8963
X2.5019Y-5.393
X2.5454Y-5.0339
X2.609Y-5.4436
X2.6186Y-4.9607
X2.6313Y-3.4485
X2.6313Y-3.5485
X2.6313Y-3.6485
X2.6313Y-3.7585
X2.6688Y-5.3806
X2.6801Y-3.1367
X2.6801Y-3.1894
X2.807Y-4.5327
X2.8633Y-3.3209
X2.8836Y-4.5656
X2.8836Y-5.1029
X2.8868Y-2.6298
X2.8917Y-3.0127
X2.9131Y-4.5656
X2.9131Y-5.1029
X2.9259Y-2.6223
X2.9289Y-4.5335
X2.93Y-2.5614
X2.9336Y-2.7589
X2.9476Y-2.8885
X2.9582Y-4.5457
X2.9602Y-4.4327
X2.9938Y-3.4506
X2.9962Y-2.876
X2.9992Y-5.4186
X3.0005Y-4.5711
X3.0005Y-5.1206
X3.0234Y-3.4506
X3.0237Y-2.8698
X3.0301Y-4.5711
X3.0301Y-5.1206
X3.0391Y-3.0286
X3.0476Y-4.5453
X3.0499Y-3.111
X3.0499Y-4.4331
X3.0504Y-3.1431
X3.0513Y-2.8699
X3.0635Y-3.0504
X3.0643Y-3.0802
X3.0807Y-2.5207
X3.0809Y-3.4233
X3.081Y-5.4213
X3.0902Y-3.0152
X3.0907Y-4.5471
X3.1068Y-2.8432
X3.1084Y-3.4278
X3.1113Y-2.8991
X3.1175Y-4.5716
X3.1175Y-4.9014
X3.1231Y-0.9471
X3.1253Y-2.493
X3.1328Y-2.7467
X3.1436Y-0.9701
X3.1441Y-0.9479
X3.1446Y-0.9262
X3.147Y-4.5716
X3.147Y-4.9014
X3.1646Y-0.9476
X3.1688Y-1.5003
X3.1802Y-2.8189
X3.1858Y-4.43
X3.189Y-4.5474
X3.2027Y-2.8438
X3.2082Y-2.2853
X3.2106Y-2.3357
X3.2133Y-5.3814
X3.2133Y-5.5028
X3.2153Y-3.4369
X3.2167Y-4.5404
X3.2324Y-2.7806
X3.2344Y-4.5723
X3.2344Y-5.1072
X3.2353Y-3.3822
X3.241Y-2.4934
X3.2507Y-2.1857
X3.2576Y-2.7294
X3.2639Y-4.5723
X3.2639Y-5.1072
X3.285Y-1.5003
X3.2927Y-2.5763
X3.3098Y-5.4985
X3.3125Y-5.4341
X3.3246Y-3.6675
X3.337Y-4.5489
X3.3486Y-2.8449
X3.3541Y-3.6675
X3.3576Y-3.0455
X3.3593Y-2.7019
X3.361Y-4.428
X3.3641Y-2.5527
X3.3819Y-2.7566
X3.3871Y-2.9168
X3.3934Y-3.4117
X3.4007Y-1.4999
X3.4037Y-3.0688
X3.41Y-2.5519
X3.4192Y-2.881
X3.4246Y-4.2144
X3.4348Y-3.6648
X3.4362Y-2.9672
X3.4395Y-3.1722
X3.4405Y-2.7246
X3.4512Y-4.5198
X3.4513Y-4.557
X3.4547Y-3.3043
X3.458Y-2.5441
X3.4643Y-3.6648
X3.4671Y-5.1524
X3.4671Y-5.5556
X3.4679Y-3.0898
X3.4682Y-3.7522
X3.4714Y-1.5
X3.4793Y-4.2097
X3.4891Y-3.7731
X3.4927Y-3.1467
X3.4966Y-5.1524
X3.4966Y-5.5556
X3.5228Y-2.5039
X3.5289Y-4.2034
X3.5314Y-3.4847
X3.545Y-3.6666
X3.5574Y-2.7246
X3.5738Y-2.923
X3.5746Y-3.6666
X3.5759Y-4.5766
X3.5759Y-5.1068
X3.5779Y-4.1995
X3.5923Y-3.2278
X3.5938Y-3.2794
X3.6055Y-4.5766
X3.6055Y-5.1068
X3.6084Y-1.8216
X3.6216Y-4.5406
X3.6287Y-5.4107
X3.6373Y-2.5441
X3.6378Y-2.1004
X3.6431Y-4.37
X3.646Y-3.0348
X3.6484Y-2.9904
X3.6492Y-4.5635
X3.6499Y-4.4335
X3.6596Y-2.8849
X3.6693Y-2.1004
X3.6929Y-4.5766
X3.6929Y-5.1057
X3.7008Y-2.1004
X3.7044Y-4.1592
X3.7078Y-1.9455
X3.714Y-2.6953
X3.7163Y-3.2282
X3.7167Y-5.411
X3.7224Y-4.5766
X3.7224Y-5.1057
X3.732Y-4.1594
X3.7323Y-2.1004
X3.7375Y-2.8038
X3.7415Y-3.4648
X3.7511Y-4.5418
X3.7621Y-4.4241
X3.7655Y-3.6659
X3.7684Y-3.0912
X3.7744Y-4.5686
X3.7856Y-2.1936
X3.795Y-3.6659
X3.8098Y-4.5682
X3.8098Y-5.1041
X3.811Y-2.7326
X3.8326Y-3.3306
X3.8366Y-5.382
X3.8377Y-5.5138
X3.8393Y-4.5682
X3.8393Y-5.1041
X3.8654Y-2.6899
X3.8716Y-2.5633
X3.8728Y-4.4233
X3.8757Y-3.6589
X3.8779Y-3.3562
X3.8826Y-4.552
X3.8877Y-2.1526
X3.9053Y-3.6589
X3.91Y-4.5322
X3.9267Y-4.5697
X3.9267Y-5.1073
X3.9283Y-5.4542
X3.9283Y-5.4837
X3.9293Y-3.9402
X3.9507Y-2.2653
X3.9562Y-4.5697
X3.9562Y-5.1073
X3.9588Y-3.9402
X3.96Y-3.0416
X3.9708Y-2.5601
X3.9746Y-2.8798
X3.9805Y-2.7166
X3.986Y-3.6587
X4.0027Y-5.1072
X4.0064Y-2.942
X4.0155Y-3.6587
X4.0263Y-4.5513
X4.0472Y-1.9424
X4.0499Y-4.4284
X4.0648Y-5.1372
X4.0728Y-2.6581
X4.0729Y-2.6809
X4.1041Y-5.517
X4.1295Y-1.9857
X4.1336Y-5.517
X4.1399Y-4.5479
X4.1416Y-1.9421
X4.1427Y-4.378
X4.1431Y-4.4247
X4.1604Y-2.6809
X4.1623Y-2.7944
X4.165Y-1.9275
X4.165Y-1.957
X4.1696Y-2.1471
X4.1716Y-2.6072
X4.1852Y-2.6809
X4.1931Y-4.3774
X4.1992Y-2.5201
X4.1994Y-3.4967
X4.2259Y-4.8066
X4.2312Y-3.2951
X4.2316Y-4.4361
X4.2482Y-3.2692
X4.2535Y-4.1172
X4.2543Y-4.6822
X4.2574Y-4.4219
X4.26Y-4.305
X4.2666Y-1.8318
X4.2671Y-2.9416
X4.2686Y-3.8798
X4.2716Y-3.4064
X4.2728Y-3.7489
X4.2767Y-3.3717
X4.2789Y-4.7239
X4.2827Y-2.6502
X4.3066Y-2.6262
X4.3106Y-1.5814
X4.3204Y-2.2629
X4.3255Y-5.4144
X4.3259Y-1.1861
X4.331Y-4.8322
X4.3336Y-2.8176
X4.3417Y-2.6585
X4.3419Y-4.6818
X4.3476Y-1.9418
X4.3531Y-5.52
X4.3558Y-4.8066
X4.36Y-4.9415
X4.3626Y-3.3919
X4.3638Y-3.3002
X4.3691Y-1.3596
X4.3712Y-4.4229
X4.3783Y-4.7239
X4.3822Y-1.8853
X4.3909Y-5.4144
X4.411Y-3.5119
X4.4196Y-0.8306
X4.4296Y-1.0292
X4.4316Y-2.6217
X4.4356Y-0.9131
X4.4452Y-2.7085
X4.4497Y-3.3462
X4.4625Y-2.4932
X4.4661Y-1.6438
X4.4726Y-2.5712
X4.4759Y-1.2518
X4.4787Y-0.8432
X4.4795Y-0.8743
X4.4883Y-3.1794
X4.489Y-3.3325
X4.489Y-3.3584
X4.4897Y-1.4121
X4.5105Y-5.386
X4.5137Y-5.8318
X4.562Y-1.0117
X4.5651Y-3.9715
X4.5738Y-0.9499
X4.5803Y-5.3828
X4.587Y-0.6733
X4.5873Y-0.7733
X4.5877Y-0.7233
X4.5946Y-2.6222
X4.605Y-1.2968
X4.6094Y-0.8652
X4.6238Y-2.9987
X4.6238Y-3.0255
X4.6238Y-3.6668
X4.6238Y-3.6959
X4.6809Y-0.6448
X4.6809Y-0.6723
X4.6809Y-0.6999
X4.6809Y-0.7275
X4.6809Y-0.755
X4.6958Y-0.9196
X4.697Y-1.3284
X4.6994Y-0.9497
X4.7279Y-0.8396
X4.7315Y-0.6448
X4.7315Y-0.6735
X4.7315Y-0.6991
X4.7315Y-0.7271
X4.7315Y-0.755
X4.7336Y-0.9993
X4.7571Y-1.1807
X4.7594Y-0.8251
X4.7669Y-1.0006
X4.7686Y-3.7636
X4.7686Y-3.7915
X4.7777Y-0.931
X4.7781Y-0.8873
X4.7803Y-1.0869
X4.7821Y-0.6448
X4.7821Y-0.6735
X4.7821Y-0.7003
X4.7821Y-0.7271
X4.7821Y-0.755
X4.7994Y-0.9097
X4.8136Y-2.6818
X4.8199Y-0.9314
X4.8203Y-1.018
X4.8207Y-0.8873
X4.824Y-0.8231
X4.8707Y-3.326
X4.8707Y-3.3587
X4.8707Y-3.3933
X4.8707Y-3.4283
X4.8732Y-1.0759
X4.8763Y-0.5617
X4.8803Y-1.3526
X4.8848Y-0.607
X4.8877Y-1.0239
X4.8909Y-0.7451
X4.9058Y-0.9637
X4.9118Y-0.9369
X4.9571Y-0.908
X4.9688Y-0.844
X4.9833Y-0.6517
X4.9978Y-0.7468
T2
X0.1216Y-1.7287
X0.1216Y-1.9255
X0.1238Y-2.2334
X0.1238Y-2.4303
X0.1406Y-4.1326
X0.1406Y-4.3295
X0.1427Y-4.6305
X0.1427Y-4.8273
X0.3184Y-1.7287
X0.3184Y-1.9255
X0.3206Y-2.2334
X0.3206Y-2.4303
X0.3374Y-4.1326
X0.3374Y-4.3295
X0.3396Y-4.6305
X0.3396Y-4.8273
X2.2677Y-5.6184
X2.3078Y-5.6885
X2.348Y-5.6184
X2.3881Y-5.6885
X2.4283Y-5.6184
X2.4684Y-5.6885
X2.5086Y-5.6184
X2.5488Y-5.6885
X2.9909Y-5.5951
X3.031Y-5.6652
X3.0712Y-5.5951
X3.1114Y-5.6652
X3.1515Y-5.5951
X3.1917Y-5.6652
X3.2318Y-5.5951
X3.272Y-5.6652
X3.6114Y-5.5951
X3.6515Y-5.6652
X3.6917Y-5.5951
X3.7318Y-5.6652
X3.772Y-5.5951
X3.8121Y-5.6652
X3.8523Y-5.5951
X3.8925Y-5.6652
X4.3346Y-5.6184
X4.3747Y-5.6885
X4.4149Y-5.6184
X4.4551Y-5.6885
X4.4952Y-5.6184
X4.5354Y-5.6885
X4.5755Y-5.6184
X4.6157Y-5.6885
T3
X0.9787Y-4.9022
X1.274Y-5.0164
T4
X4.8296Y-4.6551
X4.8296Y-4.9701
T5
X0.8929Y-5.2164
X1.3417Y-5.2164
X1.9913Y-4.9339
X1.9913Y-5.0339
X1.9913Y-5.1339
X1.9913Y-5.2339
X2.0913Y-4.9339
X2.0913Y-5.0339
X2.0913Y-5.1339
X2.0913Y-5.2339
X4.5028Y-4.0343
X4.5028Y-4.1343
X4.5028Y-4.2343
X4.5028Y-4.3343
T6
X0.3973Y-3.0628
X0.3973Y-3.1809
X0.3973Y-3.299
X0.3973Y-3.4172
X0.5154Y-3.0628
X0.5154Y-3.1809
X0.5154Y-3.299
X0.5154Y-3.4172
T7
X0.925Y-4.6009
X1.1908Y-4.6009
T8
X0.0567Y-1.0672
X0.0567Y-1.266
X0.2555Y-1.0672
X0.2555Y-1.266
T9
X0.9436Y-5.5666
X1.1436Y-5.5666
X1.4938Y-5.5674
X1.6789Y-5.5674
X1.8639Y-5.5674
T10
X2.8118Y-5.6156
X4.0716Y-5.6156
T11
X2.3325Y-1.6087
X2.5491Y-1.6087
T12
X3.519Y-0.3249
X4.476Y-0.3249
T0
M30
