G04 #@! TF.GenerationSoftware,KiCad,Pcbnew,7.0.6-0*
G04 #@! TF.CreationDate,2023-08-16T18:08:33-03:00*
G04 #@! TF.ProjectId,macunaima_rev2.2,6d616375-6e61-4696-9d61-5f726576322e,rev?*
G04 #@! TF.SameCoordinates,Original*
G04 #@! TF.FileFunction,Legend,Bot*
G04 #@! TF.FilePolarity,Positive*
%FSLAX46Y46*%
G04 Gerber Fmt 4.6, Leading zero omitted, Abs format (unit mm)*
G04 Created by KiCad (PCBNEW 7.0.6-0) date 2023-08-16 18:08:33*
%MOMM*%
%LPD*%
G01*
G04 APERTURE LIST*
G04 Aperture macros list*
%AMFreePoly0*
4,1,19,0.500000,-0.750000,0.000000,-0.750000,0.000000,-0.744911,-0.071157,-0.744911,-0.207708,-0.704816,-0.327430,-0.627875,-0.420627,-0.520320,-0.479746,-0.390866,-0.500000,-0.250000,-0.500000,0.250000,-0.479746,0.390866,-0.420627,0.520320,-0.327430,0.627875,-0.207708,0.704816,-0.071157,0.744911,0.000000,0.744911,0.000000,0.750000,0.500000,0.750000,0.500000,-0.750000,0.500000,-0.750000,
$1*%
%AMFreePoly1*
4,1,19,0.000000,0.744911,0.071157,0.744911,0.207708,0.704816,0.327430,0.627875,0.420627,0.520320,0.479746,0.390866,0.500000,0.250000,0.500000,-0.250000,0.479746,-0.390866,0.420627,-0.520320,0.327430,-0.627875,0.207708,-0.704816,0.071157,-0.744911,0.000000,-0.744911,0.000000,-0.750000,-0.500000,-0.750000,-0.500000,0.750000,0.000000,0.750000,0.000000,0.744911,0.000000,0.744911,
$1*%
G04 Aperture macros list end*
%ADD10C,0.150000*%
%ADD11C,0.120000*%
%ADD12C,0.508000*%
%ADD13R,1.700000X1.700000*%
%ADD14O,1.700000X1.700000*%
%ADD15C,2.000000*%
%ADD16C,2.500000*%
%ADD17C,4.000000*%
%ADD18C,4.300000*%
%ADD19C,3.200000*%
%ADD20C,1.200000*%
%ADD21C,1.651000*%
%ADD22C,1.143000*%
%ADD23C,1.498600*%
%ADD24C,1.524000*%
%ADD25R,2.000000X2.000000*%
%ADD26C,3.000000*%
%ADD27C,3.250000*%
%ADD28R,1.520000X1.520000*%
%ADD29C,1.520000*%
%ADD30C,1.800000*%
%ADD31FreePoly0,180.000000*%
%ADD32FreePoly1,180.000000*%
%ADD33C,1.000000*%
G04 APERTURE END LIST*
D10*
X113938098Y-32933592D02*
X114176193Y-32933592D01*
X114080955Y-33171687D02*
X114176193Y-32933592D01*
X114176193Y-32933592D02*
X114080955Y-32695497D01*
X114366669Y-33076449D02*
X114176193Y-32933592D01*
X114176193Y-32933592D02*
X114366669Y-32790735D01*
D11*
X61713239Y-87022628D02*
X61713239Y-87594056D01*
X61713239Y-87594056D02*
X61751334Y-87708342D01*
X61751334Y-87708342D02*
X61827525Y-87784533D01*
X61827525Y-87784533D02*
X61941810Y-87822628D01*
X61941810Y-87822628D02*
X62018001Y-87822628D01*
X61332286Y-87822628D02*
X61332286Y-87022628D01*
X61332286Y-87022628D02*
X61027524Y-87022628D01*
X61027524Y-87022628D02*
X60951334Y-87060723D01*
X60951334Y-87060723D02*
X60913239Y-87098818D01*
X60913239Y-87098818D02*
X60875143Y-87175009D01*
X60875143Y-87175009D02*
X60875143Y-87289294D01*
X60875143Y-87289294D02*
X60913239Y-87365485D01*
X60913239Y-87365485D02*
X60951334Y-87403580D01*
X60951334Y-87403580D02*
X61027524Y-87441675D01*
X61027524Y-87441675D02*
X61332286Y-87441675D01*
X60151334Y-87022628D02*
X60532286Y-87022628D01*
X60532286Y-87022628D02*
X60570382Y-87403580D01*
X60570382Y-87403580D02*
X60532286Y-87365485D01*
X60532286Y-87365485D02*
X60456096Y-87327390D01*
X60456096Y-87327390D02*
X60265620Y-87327390D01*
X60265620Y-87327390D02*
X60189429Y-87365485D01*
X60189429Y-87365485D02*
X60151334Y-87403580D01*
X60151334Y-87403580D02*
X60113239Y-87479771D01*
X60113239Y-87479771D02*
X60113239Y-87670247D01*
X60113239Y-87670247D02*
X60151334Y-87746437D01*
X60151334Y-87746437D02*
X60189429Y-87784533D01*
X60189429Y-87784533D02*
X60265620Y-87822628D01*
X60265620Y-87822628D02*
X60456096Y-87822628D01*
X60456096Y-87822628D02*
X60532286Y-87784533D01*
X60532286Y-87784533D02*
X60570382Y-87746437D01*
X123945715Y-139001580D02*
X124212381Y-139001580D01*
X124212381Y-139420628D02*
X124212381Y-138620628D01*
X124212381Y-138620628D02*
X123831429Y-138620628D01*
X123526667Y-139420628D02*
X123526667Y-138620628D01*
X123145715Y-139420628D02*
X123145715Y-138620628D01*
X123145715Y-138620628D02*
X122955239Y-138620628D01*
X122955239Y-138620628D02*
X122840953Y-138658723D01*
X122840953Y-138658723D02*
X122764763Y-138734913D01*
X122764763Y-138734913D02*
X122726668Y-138811104D01*
X122726668Y-138811104D02*
X122688572Y-138963485D01*
X122688572Y-138963485D02*
X122688572Y-139077771D01*
X122688572Y-139077771D02*
X122726668Y-139230152D01*
X122726668Y-139230152D02*
X122764763Y-139306342D01*
X122764763Y-139306342D02*
X122840953Y-139382533D01*
X122840953Y-139382533D02*
X122955239Y-139420628D01*
X122955239Y-139420628D02*
X123145715Y-139420628D01*
X122002858Y-138620628D02*
X122155239Y-138620628D01*
X122155239Y-138620628D02*
X122231430Y-138658723D01*
X122231430Y-138658723D02*
X122269525Y-138696818D01*
X122269525Y-138696818D02*
X122345715Y-138811104D01*
X122345715Y-138811104D02*
X122383811Y-138963485D01*
X122383811Y-138963485D02*
X122383811Y-139268247D01*
X122383811Y-139268247D02*
X122345715Y-139344437D01*
X122345715Y-139344437D02*
X122307620Y-139382533D01*
X122307620Y-139382533D02*
X122231430Y-139420628D01*
X122231430Y-139420628D02*
X122079049Y-139420628D01*
X122079049Y-139420628D02*
X122002858Y-139382533D01*
X122002858Y-139382533D02*
X121964763Y-139344437D01*
X121964763Y-139344437D02*
X121926668Y-139268247D01*
X121926668Y-139268247D02*
X121926668Y-139077771D01*
X121926668Y-139077771D02*
X121964763Y-139001580D01*
X121964763Y-139001580D02*
X122002858Y-138963485D01*
X122002858Y-138963485D02*
X122079049Y-138925390D01*
X122079049Y-138925390D02*
X122231430Y-138925390D01*
X122231430Y-138925390D02*
X122307620Y-138963485D01*
X122307620Y-138963485D02*
X122345715Y-139001580D01*
X122345715Y-139001580D02*
X122383811Y-139077771D01*
X61713239Y-92271960D02*
X61713239Y-92843388D01*
X61713239Y-92843388D02*
X61751334Y-92957674D01*
X61751334Y-92957674D02*
X61827525Y-93033865D01*
X61827525Y-93033865D02*
X61941810Y-93071960D01*
X61941810Y-93071960D02*
X62018001Y-93071960D01*
X61332286Y-93071960D02*
X61332286Y-92271960D01*
X61332286Y-92271960D02*
X61027524Y-92271960D01*
X61027524Y-92271960D02*
X60951334Y-92310055D01*
X60951334Y-92310055D02*
X60913239Y-92348150D01*
X60913239Y-92348150D02*
X60875143Y-92424341D01*
X60875143Y-92424341D02*
X60875143Y-92538626D01*
X60875143Y-92538626D02*
X60913239Y-92614817D01*
X60913239Y-92614817D02*
X60951334Y-92652912D01*
X60951334Y-92652912D02*
X61027524Y-92691007D01*
X61027524Y-92691007D02*
X61332286Y-92691007D01*
X60418001Y-92614817D02*
X60494191Y-92576722D01*
X60494191Y-92576722D02*
X60532286Y-92538626D01*
X60532286Y-92538626D02*
X60570382Y-92462436D01*
X60570382Y-92462436D02*
X60570382Y-92424341D01*
X60570382Y-92424341D02*
X60532286Y-92348150D01*
X60532286Y-92348150D02*
X60494191Y-92310055D01*
X60494191Y-92310055D02*
X60418001Y-92271960D01*
X60418001Y-92271960D02*
X60265620Y-92271960D01*
X60265620Y-92271960D02*
X60189429Y-92310055D01*
X60189429Y-92310055D02*
X60151334Y-92348150D01*
X60151334Y-92348150D02*
X60113239Y-92424341D01*
X60113239Y-92424341D02*
X60113239Y-92462436D01*
X60113239Y-92462436D02*
X60151334Y-92538626D01*
X60151334Y-92538626D02*
X60189429Y-92576722D01*
X60189429Y-92576722D02*
X60265620Y-92614817D01*
X60265620Y-92614817D02*
X60418001Y-92614817D01*
X60418001Y-92614817D02*
X60494191Y-92652912D01*
X60494191Y-92652912D02*
X60532286Y-92691007D01*
X60532286Y-92691007D02*
X60570382Y-92767198D01*
X60570382Y-92767198D02*
X60570382Y-92919579D01*
X60570382Y-92919579D02*
X60532286Y-92995769D01*
X60532286Y-92995769D02*
X60494191Y-93033865D01*
X60494191Y-93033865D02*
X60418001Y-93071960D01*
X60418001Y-93071960D02*
X60265620Y-93071960D01*
X60265620Y-93071960D02*
X60189429Y-93033865D01*
X60189429Y-93033865D02*
X60151334Y-92995769D01*
X60151334Y-92995769D02*
X60113239Y-92919579D01*
X60113239Y-92919579D02*
X60113239Y-92767198D01*
X60113239Y-92767198D02*
X60151334Y-92691007D01*
X60151334Y-92691007D02*
X60189429Y-92652912D01*
X60189429Y-92652912D02*
X60265620Y-92614817D01*
X21865715Y-2201580D02*
X22132381Y-2201580D01*
X22132381Y-2620628D02*
X22132381Y-1820628D01*
X22132381Y-1820628D02*
X21751429Y-1820628D01*
X21446667Y-2620628D02*
X21446667Y-1820628D01*
X21065715Y-2620628D02*
X21065715Y-1820628D01*
X21065715Y-1820628D02*
X20875239Y-1820628D01*
X20875239Y-1820628D02*
X20760953Y-1858723D01*
X20760953Y-1858723D02*
X20684763Y-1934913D01*
X20684763Y-1934913D02*
X20646668Y-2011104D01*
X20646668Y-2011104D02*
X20608572Y-2163485D01*
X20608572Y-2163485D02*
X20608572Y-2277771D01*
X20608572Y-2277771D02*
X20646668Y-2430152D01*
X20646668Y-2430152D02*
X20684763Y-2506342D01*
X20684763Y-2506342D02*
X20760953Y-2582533D01*
X20760953Y-2582533D02*
X20875239Y-2620628D01*
X20875239Y-2620628D02*
X21065715Y-2620628D01*
X20151430Y-2163485D02*
X20227620Y-2125390D01*
X20227620Y-2125390D02*
X20265715Y-2087294D01*
X20265715Y-2087294D02*
X20303811Y-2011104D01*
X20303811Y-2011104D02*
X20303811Y-1973009D01*
X20303811Y-1973009D02*
X20265715Y-1896818D01*
X20265715Y-1896818D02*
X20227620Y-1858723D01*
X20227620Y-1858723D02*
X20151430Y-1820628D01*
X20151430Y-1820628D02*
X19999049Y-1820628D01*
X19999049Y-1820628D02*
X19922858Y-1858723D01*
X19922858Y-1858723D02*
X19884763Y-1896818D01*
X19884763Y-1896818D02*
X19846668Y-1973009D01*
X19846668Y-1973009D02*
X19846668Y-2011104D01*
X19846668Y-2011104D02*
X19884763Y-2087294D01*
X19884763Y-2087294D02*
X19922858Y-2125390D01*
X19922858Y-2125390D02*
X19999049Y-2163485D01*
X19999049Y-2163485D02*
X20151430Y-2163485D01*
X20151430Y-2163485D02*
X20227620Y-2201580D01*
X20227620Y-2201580D02*
X20265715Y-2239675D01*
X20265715Y-2239675D02*
X20303811Y-2315866D01*
X20303811Y-2315866D02*
X20303811Y-2468247D01*
X20303811Y-2468247D02*
X20265715Y-2544437D01*
X20265715Y-2544437D02*
X20227620Y-2582533D01*
X20227620Y-2582533D02*
X20151430Y-2620628D01*
X20151430Y-2620628D02*
X19999049Y-2620628D01*
X19999049Y-2620628D02*
X19922858Y-2582533D01*
X19922858Y-2582533D02*
X19884763Y-2544437D01*
X19884763Y-2544437D02*
X19846668Y-2468247D01*
X19846668Y-2468247D02*
X19846668Y-2315866D01*
X19846668Y-2315866D02*
X19884763Y-2239675D01*
X19884763Y-2239675D02*
X19922858Y-2201580D01*
X19922858Y-2201580D02*
X19999049Y-2163485D01*
X108023096Y-96782628D02*
X107565953Y-96782628D01*
X107794525Y-97582628D02*
X107794525Y-96782628D01*
X107299286Y-97582628D02*
X107299286Y-96782628D01*
X107299286Y-96782628D02*
X106994524Y-96782628D01*
X106994524Y-96782628D02*
X106918334Y-96820723D01*
X106918334Y-96820723D02*
X106880239Y-96858818D01*
X106880239Y-96858818D02*
X106842143Y-96935009D01*
X106842143Y-96935009D02*
X106842143Y-97049294D01*
X106842143Y-97049294D02*
X106880239Y-97125485D01*
X106880239Y-97125485D02*
X106918334Y-97163580D01*
X106918334Y-97163580D02*
X106994524Y-97201675D01*
X106994524Y-97201675D02*
X107299286Y-97201675D01*
X106156429Y-97049294D02*
X106156429Y-97582628D01*
X106346905Y-96744533D02*
X106537382Y-97315961D01*
X106537382Y-97315961D02*
X106042143Y-97315961D01*
X19405715Y-122081580D02*
X19672381Y-122081580D01*
X19672381Y-122500628D02*
X19672381Y-121700628D01*
X19672381Y-121700628D02*
X19291429Y-121700628D01*
X18986667Y-122500628D02*
X18986667Y-121700628D01*
X18605715Y-122500628D02*
X18605715Y-121700628D01*
X18605715Y-121700628D02*
X18415239Y-121700628D01*
X18415239Y-121700628D02*
X18300953Y-121738723D01*
X18300953Y-121738723D02*
X18224763Y-121814913D01*
X18224763Y-121814913D02*
X18186668Y-121891104D01*
X18186668Y-121891104D02*
X18148572Y-122043485D01*
X18148572Y-122043485D02*
X18148572Y-122157771D01*
X18148572Y-122157771D02*
X18186668Y-122310152D01*
X18186668Y-122310152D02*
X18224763Y-122386342D01*
X18224763Y-122386342D02*
X18300953Y-122462533D01*
X18300953Y-122462533D02*
X18415239Y-122500628D01*
X18415239Y-122500628D02*
X18605715Y-122500628D01*
X17881906Y-121700628D02*
X17348572Y-121700628D01*
X17348572Y-121700628D02*
X17691430Y-122500628D01*
X116275715Y-1051580D02*
X116542381Y-1051580D01*
X116542381Y-1470628D02*
X116542381Y-670628D01*
X116542381Y-670628D02*
X116161429Y-670628D01*
X115856667Y-1470628D02*
X115856667Y-670628D01*
X115475715Y-1470628D02*
X115475715Y-670628D01*
X115475715Y-670628D02*
X115285239Y-670628D01*
X115285239Y-670628D02*
X115170953Y-708723D01*
X115170953Y-708723D02*
X115094763Y-784913D01*
X115094763Y-784913D02*
X115056668Y-861104D01*
X115056668Y-861104D02*
X115018572Y-1013485D01*
X115018572Y-1013485D02*
X115018572Y-1127771D01*
X115018572Y-1127771D02*
X115056668Y-1280152D01*
X115056668Y-1280152D02*
X115094763Y-1356342D01*
X115094763Y-1356342D02*
X115170953Y-1432533D01*
X115170953Y-1432533D02*
X115285239Y-1470628D01*
X115285239Y-1470628D02*
X115475715Y-1470628D01*
X114294763Y-670628D02*
X114675715Y-670628D01*
X114675715Y-670628D02*
X114713811Y-1051580D01*
X114713811Y-1051580D02*
X114675715Y-1013485D01*
X114675715Y-1013485D02*
X114599525Y-975390D01*
X114599525Y-975390D02*
X114409049Y-975390D01*
X114409049Y-975390D02*
X114332858Y-1013485D01*
X114332858Y-1013485D02*
X114294763Y-1051580D01*
X114294763Y-1051580D02*
X114256668Y-1127771D01*
X114256668Y-1127771D02*
X114256668Y-1318247D01*
X114256668Y-1318247D02*
X114294763Y-1394437D01*
X114294763Y-1394437D02*
X114332858Y-1432533D01*
X114332858Y-1432533D02*
X114409049Y-1470628D01*
X114409049Y-1470628D02*
X114599525Y-1470628D01*
X114599525Y-1470628D02*
X114675715Y-1432533D01*
X114675715Y-1432533D02*
X114713811Y-1394437D01*
X61713239Y-94896628D02*
X61713239Y-95468056D01*
X61713239Y-95468056D02*
X61751334Y-95582342D01*
X61751334Y-95582342D02*
X61827525Y-95658533D01*
X61827525Y-95658533D02*
X61941810Y-95696628D01*
X61941810Y-95696628D02*
X62018001Y-95696628D01*
X61332286Y-95696628D02*
X61332286Y-94896628D01*
X61332286Y-94896628D02*
X61027524Y-94896628D01*
X61027524Y-94896628D02*
X60951334Y-94934723D01*
X60951334Y-94934723D02*
X60913239Y-94972818D01*
X60913239Y-94972818D02*
X60875143Y-95049009D01*
X60875143Y-95049009D02*
X60875143Y-95163294D01*
X60875143Y-95163294D02*
X60913239Y-95239485D01*
X60913239Y-95239485D02*
X60951334Y-95277580D01*
X60951334Y-95277580D02*
X61027524Y-95315675D01*
X61027524Y-95315675D02*
X61332286Y-95315675D01*
X60494191Y-95696628D02*
X60341810Y-95696628D01*
X60341810Y-95696628D02*
X60265620Y-95658533D01*
X60265620Y-95658533D02*
X60227524Y-95620437D01*
X60227524Y-95620437D02*
X60151334Y-95506152D01*
X60151334Y-95506152D02*
X60113239Y-95353771D01*
X60113239Y-95353771D02*
X60113239Y-95049009D01*
X60113239Y-95049009D02*
X60151334Y-94972818D01*
X60151334Y-94972818D02*
X60189429Y-94934723D01*
X60189429Y-94934723D02*
X60265620Y-94896628D01*
X60265620Y-94896628D02*
X60418001Y-94896628D01*
X60418001Y-94896628D02*
X60494191Y-94934723D01*
X60494191Y-94934723D02*
X60532286Y-94972818D01*
X60532286Y-94972818D02*
X60570382Y-95049009D01*
X60570382Y-95049009D02*
X60570382Y-95239485D01*
X60570382Y-95239485D02*
X60532286Y-95315675D01*
X60532286Y-95315675D02*
X60494191Y-95353771D01*
X60494191Y-95353771D02*
X60418001Y-95391866D01*
X60418001Y-95391866D02*
X60265620Y-95391866D01*
X60265620Y-95391866D02*
X60189429Y-95353771D01*
X60189429Y-95353771D02*
X60151334Y-95315675D01*
X60151334Y-95315675D02*
X60113239Y-95239485D01*
X61713239Y-89647294D02*
X61713239Y-90218722D01*
X61713239Y-90218722D02*
X61751334Y-90333008D01*
X61751334Y-90333008D02*
X61827525Y-90409199D01*
X61827525Y-90409199D02*
X61941810Y-90447294D01*
X61941810Y-90447294D02*
X62018001Y-90447294D01*
X61332286Y-90447294D02*
X61332286Y-89647294D01*
X61332286Y-89647294D02*
X61027524Y-89647294D01*
X61027524Y-89647294D02*
X60951334Y-89685389D01*
X60951334Y-89685389D02*
X60913239Y-89723484D01*
X60913239Y-89723484D02*
X60875143Y-89799675D01*
X60875143Y-89799675D02*
X60875143Y-89913960D01*
X60875143Y-89913960D02*
X60913239Y-89990151D01*
X60913239Y-89990151D02*
X60951334Y-90028246D01*
X60951334Y-90028246D02*
X61027524Y-90066341D01*
X61027524Y-90066341D02*
X61332286Y-90066341D01*
X60608477Y-89647294D02*
X60075143Y-89647294D01*
X60075143Y-89647294D02*
X60418001Y-90447294D01*
X84928121Y-60221173D02*
G75*
G03*
X84928121Y-60221173I-381000J0D01*
G01*
D12*
X111029619Y-117299296D02*
G75*
G03*
X111029619Y-117299296I-381000J0D01*
G01*
D11*
X65440573Y-87892773D02*
X65440573Y-87292773D01*
X64740573Y-86592773D02*
X63340573Y-86592773D01*
X63340573Y-88592773D02*
X64740573Y-88592773D01*
X62640573Y-87292773D02*
X62640573Y-87892773D01*
X64740573Y-88592773D02*
G75*
G03*
X65440573Y-87892773I1J699999D01*
G01*
X65440573Y-87292773D02*
G75*
G03*
X64740573Y-86592773I-699999J1D01*
G01*
X62640573Y-87892773D02*
G75*
G03*
X63340573Y-88592773I700000J0D01*
G01*
X63340573Y-86592773D02*
G75*
G03*
X62640573Y-87292773I0J-700000D01*
G01*
X65440573Y-93142105D02*
X65440573Y-92542105D01*
X64740573Y-91842105D02*
X63340573Y-91842105D01*
X63340573Y-93842105D02*
X64740573Y-93842105D01*
X62640573Y-92542105D02*
X62640573Y-93142105D01*
X64740573Y-93842105D02*
G75*
G03*
X65440573Y-93142105I1J699999D01*
G01*
X65440573Y-92542105D02*
G75*
G03*
X64740573Y-91842105I-699999J1D01*
G01*
X62640573Y-93142105D02*
G75*
G03*
X63340573Y-93842105I700000J0D01*
G01*
X63340573Y-91842105D02*
G75*
G03*
X62640573Y-92542105I0J-700000D01*
G01*
X107713573Y-98666773D02*
G75*
G03*
X107713573Y-98666773I-700000J0D01*
G01*
X65440573Y-95766773D02*
X65440573Y-95166773D01*
X64740573Y-94466773D02*
X63340573Y-94466773D01*
X63340573Y-96466773D02*
X64740573Y-96466773D01*
X62640573Y-95166773D02*
X62640573Y-95766773D01*
X64740573Y-96466773D02*
G75*
G03*
X65440573Y-95766773I1J699999D01*
G01*
X65440573Y-95166773D02*
G75*
G03*
X64740573Y-94466773I-699999J1D01*
G01*
X62640573Y-95766773D02*
G75*
G03*
X63340573Y-96466773I700000J0D01*
G01*
X63340573Y-94466773D02*
G75*
G03*
X62640573Y-95166773I0J-700000D01*
G01*
X65440573Y-90517439D02*
X65440573Y-89917439D01*
X64740573Y-89217439D02*
X63340573Y-89217439D01*
X63340573Y-91217439D02*
X64740573Y-91217439D01*
X62640573Y-89917439D02*
X62640573Y-90517439D01*
X64740573Y-91217439D02*
G75*
G03*
X65440573Y-90517439I1J699999D01*
G01*
X65440573Y-89917439D02*
G75*
G03*
X64740573Y-89217439I-699999J1D01*
G01*
X62640573Y-90517439D02*
G75*
G03*
X63340573Y-91217439I700000J0D01*
G01*
X63340573Y-89217439D02*
G75*
G03*
X62640573Y-89917439I0J-700000D01*
G01*
%LPC*%
D13*
X53118573Y-132941702D03*
D14*
X50578573Y-132941702D03*
X53118573Y-130401702D03*
X50578573Y-130401702D03*
X53118573Y-127861702D03*
X50578573Y-127861702D03*
X53118573Y-125321702D03*
X50578573Y-125321702D03*
D15*
X34078573Y-132496773D03*
X22678573Y-132496773D03*
D16*
X23495964Y-116861773D03*
X30245964Y-116861773D03*
D17*
X59245964Y-40861773D03*
X64745964Y-40861773D03*
D18*
X122093573Y-6696773D03*
X14245573Y-29542573D03*
D13*
X114370465Y-110091773D03*
D14*
X114370465Y-107551773D03*
X114370465Y-105011773D03*
X114370465Y-102471773D03*
D19*
X107318573Y-146836773D03*
X120018573Y-146836773D03*
D20*
X117238573Y-144486773D03*
X116218573Y-142706773D03*
X115198573Y-144486773D03*
X114178573Y-142706773D03*
X113158573Y-144486773D03*
X112138573Y-142706773D03*
X111118573Y-144486773D03*
X110098573Y-142706773D03*
D19*
X54818573Y-146836773D03*
X67518573Y-146836773D03*
D20*
X64738573Y-144486773D03*
X63718573Y-142706773D03*
X62698573Y-144486773D03*
X61678573Y-142706773D03*
X60658573Y-144486773D03*
X59638573Y-142706773D03*
X58618573Y-144486773D03*
X57598573Y-142706773D03*
D21*
X88900020Y-56121174D03*
D22*
X113900022Y-56121174D03*
D23*
X122672619Y-126240296D03*
X122672619Y-118240296D03*
D24*
X8088573Y-43908573D03*
X3088573Y-43908573D03*
X8088573Y-48908573D03*
X3088573Y-48908573D03*
D25*
X6490573Y-27106573D03*
X1440573Y-27106573D03*
X6490573Y-32156573D03*
X1440573Y-32156573D03*
D24*
X8624573Y-117614573D03*
X3624573Y-117614573D03*
X8624573Y-122614573D03*
X3624573Y-122614573D03*
X8570573Y-104968573D03*
X3570573Y-104968573D03*
X8570573Y-109968573D03*
X3570573Y-109968573D03*
D26*
X23968573Y-141391773D03*
X29048573Y-141391773D03*
D27*
X73193573Y-146436773D03*
X101643573Y-146436773D03*
D20*
X98868573Y-143896773D03*
X97848573Y-142116773D03*
X96828573Y-143896773D03*
X95808573Y-142116773D03*
X94788573Y-143896773D03*
X93768573Y-142116773D03*
X92748573Y-143896773D03*
X91728573Y-142116773D03*
X83108573Y-143896773D03*
X82088573Y-142116773D03*
X81068573Y-143896773D03*
X80048573Y-142116773D03*
X79028573Y-143896773D03*
X78008573Y-142116773D03*
X76988573Y-143896773D03*
X75968573Y-142116773D03*
D26*
X103418573Y-142636773D03*
X71418573Y-142636773D03*
X5771573Y-79955823D03*
X5771573Y-84635823D03*
D28*
X10091573Y-86795823D03*
D29*
X10091573Y-83795823D03*
X10091573Y-80795823D03*
X10091573Y-77795823D03*
X13091573Y-86795823D03*
X13091573Y-83795823D03*
X13091573Y-80795823D03*
X13091573Y-77795823D03*
D26*
X37943573Y-141411773D03*
X42643573Y-141411773D03*
X47343573Y-141411773D03*
D18*
X125838573Y-134166773D03*
D30*
X24858573Y-124516773D03*
X32358573Y-127416773D03*
D24*
X8143573Y-56728573D03*
X3143573Y-56728573D03*
X8143573Y-61728573D03*
X3143573Y-61728573D03*
D18*
X5739573Y-145608573D03*
D31*
X64690573Y-87592773D03*
D32*
X63390573Y-87592773D03*
D15*
X123088573Y-141056773D03*
D31*
X64690573Y-92842105D03*
D32*
X63390573Y-92842105D03*
D15*
X21008573Y-4256773D03*
D33*
X107013573Y-98666773D03*
D15*
X18548573Y-124136773D03*
X115418573Y-3106773D03*
D31*
X64690573Y-95466773D03*
D32*
X63390573Y-95466773D03*
D31*
X64690573Y-90217439D03*
D32*
X63390573Y-90217439D03*
%LPD*%
M02*
