M48
; DRILL file {KiCad 7.0.6-0} date 2023 September 08, Friday 10:14:03
; FORMAT={-:-/ absolute / metric / decimal}
; #@! TF.CreationDate,2023-09-08T10:14:03-03:00
; #@! TF.GenerationSoftware,Kicad,Pcbnew,7.0.6-0
; #@! TF.FileFunction,Plated,1,2,PTH
FMAT,2
METRIC
; #@! TA.AperFunction,Plated,PTH,ViaDrill
T1C0.300
; #@! TA.AperFunction,Plated,PTH,ComponentDrill
T2C0.300
; #@! TA.AperFunction,Plated,PTH,ViaDrill
T3C0.400
; #@! TA.AperFunction,Plated,PTH,ComponentDrill
T4C1.020
; #@! TA.AperFunction,Plated,PTH,ComponentDrill
T5C1.200
%
G90
G05
T1
X1.011Y-11.55
X2.617Y-57.573
X5.948Y-61.907
X6.586Y-26.714
X9.351Y-31.877
X9.416Y-34.343
X9.435Y-36.809
X9.445Y-46.673
X9.481Y-41.741
X9.532Y-44.207
X9.535Y-39.275
X10.29Y-11.998
X11.844Y-6.346
X13.294Y-78.47
X14.906Y-7.485
X15.462Y-6.943
X15.462Y-7.485
X15.462Y-8.027
X16.019Y-7.485
X19.407Y-73.679
X20.963Y-31.491
X23.029Y-19.885
X24.089Y-1.212
X24.889Y-27.058
X26.472Y-29.697
X26.524Y-12.487
X27.168Y-37.687
X27.375Y-36.351
X27.461Y-11.784
X27.623Y-6.578
X28.586Y-40.695
X29.696Y-39.514
X30.285Y-38.711
X30.812Y-49.052
X30.841Y-50.804
X31.689Y-43.06
X32.526Y-42.978
X32.62Y-47.316
X32.91Y-35.171
X33.11Y-30.934
X33.628Y-48.233
X34.211Y-43.136
X34.697Y-33.897
X34.981Y-43.502
X35.186Y-46.766
X35.613Y-43.202
X35.981Y-49.264
X36.285Y-47.144
X36.453Y-43.442
X36.831Y-42.854
X37.25Y-30.409
X37.626Y-35.701
X38.057Y-49.01
X38.365Y-40.265
X38.779Y-38.363
X39.187Y-39.73
X39.717Y-39.2
X40.492Y-31.661
X44.113Y-51.326
X44.376Y-23.887
X44.616Y-51.812
X44.648Y-40.918
X48.732Y-3.701
X49.253Y-26.754
X50.785Y-61.419
X55.682Y-25.381
X56.91Y-23.789
X59.896Y-79.551
X61.93Y-23.905
X62.841Y-65.184
X68.027Y-72.966
X68.043Y-66.411
X68.21Y-7.209
X68.477Y-40.526
X69.613Y-55.101
X71.084Y-26.073
X72.728Y-41.476
X74.065Y-29.596
T2
X34.086Y-37.589
X34.086Y-38.689
X34.086Y-39.789
X35.186Y-37.589
X35.186Y-38.689
X35.186Y-39.789
X36.286Y-37.589
X36.286Y-38.689
X36.286Y-39.789
X44.292Y-63.0
X44.292Y-64.3
X45.392Y-63.0
X45.392Y-64.3
T3
X17.102Y-22.226
X20.659Y-20.767
X27.379Y-18.72
X38.599Y-66.682
X38.858Y-59.194
X40.508Y-66.405
X40.537Y-59.909
X41.145Y-63.65
X42.169Y-61.202
X45.976Y-41.424
X47.499Y-49.337
X49.396Y-37.169
X49.398Y-36.332
X49.405Y-55.721
X49.409Y-38.022
X54.183Y-38.059
X54.253Y-52.028
X54.291Y-44.898
X54.309Y-30.98
X66.202Y-44.891
X66.21Y-52.026
X66.231Y-30.98
X66.502Y-37.996
T4
X8.799Y-16.288
X8.799Y-19.288
X8.799Y-22.288
X8.799Y-25.288
X11.799Y-16.288
X11.799Y-19.288
X11.799Y-22.288
X11.799Y-25.288
T5
X69.227Y-14.501
X69.227Y-19.501
X69.227Y-29.023
X69.227Y-34.023
X69.227Y-43.545
X69.227Y-48.545
X69.227Y-58.067
X69.227Y-63.067
X74.227Y-17.001
X74.227Y-22.001
X74.227Y-31.523
X74.227Y-36.523
X74.227Y-46.045
X74.227Y-51.045
X74.227Y-60.567
X74.227Y-65.567
T0
M30
