G04 #@! TF.GenerationSoftware,KiCad,Pcbnew,7.0.6-0*
G04 #@! TF.CreationDate,2023-09-08T10:13:38-03:00*
G04 #@! TF.ProjectId,expansao_bateria_rev1.1,65787061-6e73-4616-9f5f-626174657269,rev?*
G04 #@! TF.SameCoordinates,Original*
G04 #@! TF.FileFunction,Copper,L2,Bot*
G04 #@! TF.FilePolarity,Positive*
%FSLAX46Y46*%
G04 Gerber Fmt 4.6, Leading zero omitted, Abs format (unit mm)*
G04 Created by KiCad (PCBNEW 7.0.6-0) date 2023-09-08 10:13:38*
%MOMM*%
%LPD*%
G01*
G04 APERTURE LIST*
G04 Aperture macros list*
%AMFreePoly0*
4,1,19,0.500000,-0.750000,0.000000,-0.750000,0.000000,-0.744911,-0.071157,-0.744911,-0.207708,-0.704816,-0.327430,-0.627875,-0.420627,-0.520320,-0.479746,-0.390866,-0.500000,-0.250000,-0.500000,0.250000,-0.479746,0.390866,-0.420627,0.520320,-0.327430,0.627875,-0.207708,0.704816,-0.071157,0.744911,0.000000,0.744911,0.000000,0.750000,0.500000,0.750000,0.500000,-0.750000,0.500000,-0.750000,
$1*%
%AMFreePoly1*
4,1,19,0.000000,0.744911,0.071157,0.744911,0.207708,0.704816,0.327430,0.627875,0.420627,0.520320,0.479746,0.390866,0.500000,0.250000,0.500000,-0.250000,0.479746,-0.390866,0.420627,-0.520320,0.327430,-0.627875,0.207708,-0.704816,0.071157,-0.744911,0.000000,-0.744911,0.000000,-0.750000,-0.500000,-0.750000,-0.500000,0.750000,0.000000,0.750000,0.000000,0.744911,0.000000,0.744911,
$1*%
G04 Aperture macros list end*
G04 #@! TA.AperFunction,ComponentPad*
%ADD10C,0.500000*%
G04 #@! TD*
G04 #@! TA.AperFunction,SMDPad,CuDef*
%ADD11R,1.600000X1.800000*%
G04 #@! TD*
G04 #@! TA.AperFunction,ComponentPad*
%ADD12C,2.000000*%
G04 #@! TD*
G04 #@! TA.AperFunction,ComponentPad*
%ADD13C,0.600000*%
G04 #@! TD*
G04 #@! TA.AperFunction,SMDPad,CuDef*
%ADD14R,2.800000X2.800000*%
G04 #@! TD*
G04 #@! TA.AperFunction,ComponentPad*
%ADD15R,1.520000X1.520000*%
G04 #@! TD*
G04 #@! TA.AperFunction,ComponentPad*
%ADD16C,1.520000*%
G04 #@! TD*
G04 #@! TA.AperFunction,SMDPad,CuDef*
%ADD17FreePoly0,0.000000*%
G04 #@! TD*
G04 #@! TA.AperFunction,SMDPad,CuDef*
%ADD18FreePoly1,0.000000*%
G04 #@! TD*
G04 #@! TA.AperFunction,ViaPad*
%ADD19C,0.800000*%
G04 #@! TD*
G04 #@! TA.AperFunction,ViaPad*
%ADD20C,0.500000*%
G04 #@! TD*
G04 #@! TA.AperFunction,Conductor*
%ADD21C,2.000000*%
G04 #@! TD*
G04 #@! TA.AperFunction,Conductor*
%ADD22C,0.600000*%
G04 #@! TD*
G04 #@! TA.AperFunction,Conductor*
%ADD23C,1.000000*%
G04 #@! TD*
G04 #@! TA.AperFunction,Conductor*
%ADD24C,0.200000*%
G04 #@! TD*
G04 #@! TA.AperFunction,Conductor*
%ADD25C,0.250000*%
G04 #@! TD*
G04 #@! TA.AperFunction,Conductor*
%ADD26C,0.150000*%
G04 #@! TD*
G04 APERTURE END LIST*
D10*
X45392000Y-64300000D03*
X45392000Y-63000000D03*
D11*
X44842000Y-63650000D03*
D10*
X44292000Y-64300000D03*
X44292000Y-63000000D03*
D12*
X74227000Y-51045000D03*
X69227000Y-48545000D03*
X74227000Y-46045000D03*
X69227000Y-43545000D03*
D13*
X34086000Y-37589000D03*
X34086000Y-38689000D03*
X34086000Y-39789000D03*
X35186000Y-37589000D03*
X35186000Y-38689000D03*
D14*
X35186000Y-38689000D03*
D13*
X35186000Y-39789000D03*
X36286000Y-37589000D03*
X36286000Y-38689000D03*
X36286000Y-39789000D03*
D12*
X74227000Y-36523000D03*
X69227000Y-34023000D03*
X74227000Y-31523000D03*
X69227000Y-29023000D03*
D15*
X8799000Y-25288000D03*
D16*
X8799000Y-22288000D03*
X8799000Y-19288000D03*
X8799000Y-16288000D03*
X11799000Y-25288000D03*
X11799000Y-22288000D03*
X11799000Y-19288000D03*
X11799000Y-16288000D03*
D12*
X74227000Y-22001000D03*
X69227000Y-19501000D03*
X74227000Y-17001000D03*
X69227000Y-14501000D03*
X74227000Y-65567000D03*
X69227000Y-63067000D03*
X74227000Y-60567000D03*
X69227000Y-58067000D03*
D17*
X59311000Y-52028000D03*
D18*
X60611000Y-52028000D03*
D17*
X59264000Y-38059000D03*
D18*
X60564000Y-38059000D03*
D17*
X59311000Y-44898000D03*
D18*
X60611000Y-44898000D03*
D17*
X59231000Y-30980000D03*
D18*
X60531000Y-30980000D03*
D19*
X49398000Y-36332000D03*
X49405000Y-55721000D03*
X49409000Y-38022000D03*
X49396000Y-37169000D03*
D20*
X68210000Y-7209000D03*
D19*
X40537000Y-59909000D03*
D20*
X30812000Y-49052000D03*
D19*
X20659000Y-20767000D03*
D20*
X55682000Y-25381000D03*
X61930000Y-23905000D03*
D19*
X38599000Y-66682000D03*
D20*
X24089000Y-1212000D03*
D19*
X17102000Y-22226000D03*
D20*
X27461000Y-11784000D03*
X11844000Y-6346000D03*
D19*
X45976000Y-41424000D03*
D20*
X19407000Y-73679000D03*
X27623000Y-6578000D03*
X13294000Y-78470000D03*
X1011000Y-11550000D03*
X48732000Y-3701000D03*
D19*
X27379000Y-18720000D03*
D20*
X26524000Y-12487000D03*
X2617000Y-57573000D03*
X59896000Y-79551000D03*
X5948000Y-61907000D03*
X62841000Y-65184000D03*
D19*
X47499000Y-49337000D03*
D20*
X68027000Y-72966000D03*
X10290000Y-11998000D03*
X74065000Y-29596000D03*
X50785000Y-61419000D03*
X72728000Y-41476000D03*
X27168000Y-37687000D03*
X20963000Y-31491000D03*
X27375000Y-36351000D03*
X71084000Y-26073000D03*
X68477000Y-40526000D03*
D19*
X54291000Y-44898000D03*
D20*
X68043000Y-66411000D03*
D19*
X54253000Y-52028000D03*
D20*
X69613000Y-55101000D03*
D19*
X54183000Y-38059000D03*
X54309000Y-30980000D03*
D20*
X34697000Y-33897000D03*
X28586000Y-40694548D03*
X35981144Y-49264256D03*
X31689000Y-43060000D03*
D19*
X42169500Y-61202000D03*
X40508500Y-66405000D03*
D20*
X23029000Y-19885000D03*
X56910000Y-23789000D03*
X14906000Y-7485000D03*
X16019000Y-7485000D03*
X15462500Y-7485000D03*
X15462500Y-8027000D03*
X15462500Y-6943000D03*
D19*
X66231000Y-30980000D03*
X66502334Y-37995666D03*
X66202000Y-44891000D03*
X66210000Y-52026000D03*
D20*
X26472000Y-29697000D03*
X32910000Y-35171000D03*
X40492000Y-31661000D03*
X37626000Y-35701000D03*
X44648000Y-40917998D03*
X38779000Y-38363000D03*
X44376000Y-23887000D03*
X37250000Y-30409000D03*
X24889000Y-27057998D03*
X33110000Y-30934000D03*
X38365000Y-40265000D03*
X30841000Y-50804000D03*
X34211454Y-43136246D03*
X9481000Y-41741000D03*
X32526000Y-42978000D03*
X38057000Y-49010000D03*
X6586000Y-26714000D03*
X32620000Y-47316000D03*
X35186000Y-46766000D03*
X34981000Y-43502500D03*
X9532000Y-44207000D03*
X33628000Y-48233000D03*
X9445000Y-46673000D03*
X35612896Y-43202482D03*
X36285000Y-47144000D03*
X9351000Y-31877000D03*
X30285500Y-38711291D03*
X49253000Y-26754000D03*
X36831000Y-42854000D03*
X9435000Y-36809000D03*
D19*
X41145500Y-63650000D03*
X38858500Y-59194000D03*
D20*
X29696103Y-39514103D03*
X9416000Y-34343000D03*
X39717166Y-39199834D03*
X44113001Y-51326000D03*
X39186834Y-39730166D03*
X44616484Y-51811601D03*
X36452625Y-43442334D03*
X9535000Y-39275000D03*
D21*
X49458000Y-55668000D02*
X49458000Y-36392000D01*
X49458000Y-36392000D02*
X49398000Y-36332000D01*
X49405000Y-55721000D02*
X49458000Y-55668000D01*
D22*
X27375000Y-36351000D02*
X25777000Y-36351000D01*
X20963000Y-31537000D02*
X20963000Y-31491000D01*
X25777000Y-36351000D02*
X20963000Y-31537000D01*
D23*
X54253000Y-52621000D02*
X54253000Y-52028000D01*
X57076000Y-47683000D02*
X54291000Y-44898000D01*
X71084000Y-26073000D02*
X71068000Y-26057000D01*
X59311000Y-44898000D02*
X54291000Y-44898000D01*
X59311000Y-52028000D02*
X54253000Y-52028000D01*
X68477000Y-40526000D02*
X56650000Y-40526000D01*
X68043000Y-66411000D02*
X54253000Y-52621000D01*
X63698503Y-26057000D02*
X62758503Y-26997000D01*
X69613000Y-55101000D02*
X69613000Y-52763000D01*
X56650000Y-40526000D02*
X54183000Y-38059000D01*
X58292000Y-26997000D02*
X54309000Y-30980000D01*
X59264000Y-38059000D02*
X54183000Y-38059000D01*
X62758503Y-26997000D02*
X58292000Y-26997000D01*
X64533000Y-47683000D02*
X57076000Y-47683000D01*
X71068000Y-26057000D02*
X63698503Y-26057000D01*
X69613000Y-52763000D02*
X64533000Y-47683000D01*
X59231000Y-30980000D02*
X54309000Y-30980000D01*
D24*
X30320452Y-40694548D02*
X33010000Y-38005000D01*
X33010000Y-36977318D02*
X34697000Y-35290318D01*
X28586000Y-40694548D02*
X30320452Y-40694548D01*
X33010000Y-38005000D02*
X33010000Y-36977318D01*
X34697000Y-35290318D02*
X34697000Y-33897000D01*
X33066000Y-46349112D02*
X33066000Y-44437000D01*
X35981144Y-49264256D02*
X33066000Y-46349112D01*
X33066000Y-44437000D02*
X31689000Y-43060000D01*
D25*
X42169500Y-64744000D02*
X40508500Y-66405000D01*
X42169500Y-61202000D02*
X42169500Y-64744000D01*
X55073000Y-23789000D02*
X56910000Y-23789000D01*
X23029000Y-19885000D02*
X25864000Y-17050000D01*
X25864000Y-17050000D02*
X48334000Y-17050000D01*
X48334000Y-17050000D02*
X55073000Y-23789000D01*
D21*
X15434000Y-7506000D02*
X15458000Y-7482000D01*
X15458000Y-7482000D02*
X15434000Y-7458000D01*
X8799000Y-27551000D02*
X11027500Y-29779500D01*
X15434000Y-7458000D02*
X15434000Y-7392000D01*
X8799000Y-25288000D02*
X8799000Y-27551000D01*
X15434000Y-28323000D02*
X15434000Y-7506000D01*
X11027500Y-29779500D02*
X11042000Y-29765000D01*
X13992000Y-29765000D02*
X15434000Y-28323000D01*
X11042000Y-29765000D02*
X13992000Y-29765000D01*
D23*
X66231000Y-30980000D02*
X60531000Y-30980000D01*
X66502334Y-37995666D02*
X66439000Y-38059000D01*
X66439000Y-38059000D02*
X60564000Y-38059000D01*
X60611000Y-44898000D02*
X66195000Y-44898000D01*
X66195000Y-44898000D02*
X66202000Y-44891000D01*
X66210000Y-52026000D02*
X60613000Y-52026000D01*
X60613000Y-52026000D02*
X60611000Y-52028000D01*
D26*
X31904000Y-35171000D02*
X26472000Y-29739000D01*
X32910000Y-35171000D02*
X31904000Y-35171000D01*
X26472000Y-29739000D02*
X26472000Y-29697000D01*
D24*
X37626000Y-35701000D02*
X40492000Y-32835000D01*
X40492000Y-32835000D02*
X40492000Y-31661000D01*
D26*
X42792000Y-38405000D02*
X42792000Y-38363000D01*
X42792000Y-38363000D02*
X38779000Y-38363000D01*
X44648000Y-40917998D02*
X44648000Y-40261000D01*
X44648000Y-40261000D02*
X42792000Y-38405000D01*
X37250000Y-30409000D02*
X43772000Y-23887000D01*
X43772000Y-23887000D02*
X44376000Y-23887000D01*
X33110000Y-30934000D02*
X28696000Y-30934000D01*
X28696000Y-30934000D02*
X24889000Y-27127000D01*
X24889000Y-27127000D02*
X24889000Y-27057998D01*
D24*
X37040818Y-50804000D02*
X30841000Y-50804000D01*
X39011000Y-48833818D02*
X37040818Y-50804000D01*
X39011000Y-40911000D02*
X39011000Y-48833818D01*
X38365000Y-40265000D02*
X39011000Y-40911000D01*
X33251264Y-42176056D02*
X34211454Y-43136246D01*
X9916056Y-42176056D02*
X33251264Y-42176056D01*
X9481000Y-41741000D02*
X9916056Y-42176056D01*
X33466000Y-45972000D02*
X36504000Y-49010000D01*
X32526000Y-42978000D02*
X33466000Y-43918000D01*
X36504000Y-49010000D02*
X38057000Y-49010000D01*
X33466000Y-43918000D02*
X33466000Y-45972000D01*
X35186000Y-43707500D02*
X34981000Y-43502500D01*
X29534000Y-44230000D02*
X32620000Y-47316000D01*
D25*
X9532000Y-44123000D02*
X4723000Y-39314000D01*
X5760000Y-27540000D02*
X6586000Y-26714000D01*
D24*
X9532000Y-44207000D02*
X29534000Y-44207000D01*
X35186000Y-46766000D02*
X35186000Y-43707500D01*
D25*
X4723000Y-28574000D02*
X5757000Y-27540000D01*
X9532000Y-44207000D02*
X9532000Y-44123000D01*
X5757000Y-27540000D02*
X5760000Y-27540000D01*
X4723000Y-39314000D02*
X4723000Y-28574000D01*
D24*
X29534000Y-44207000D02*
X29534000Y-44230000D01*
X33628000Y-48233000D02*
X31137000Y-48233000D01*
X29577000Y-46673000D02*
X9445000Y-46673000D01*
D25*
X9434000Y-46673000D02*
X9445000Y-46673000D01*
D24*
X31137000Y-48233000D02*
X29577000Y-46673000D01*
D25*
X8799000Y-22796000D02*
X3687000Y-27908000D01*
D24*
X35736000Y-46435000D02*
X35736000Y-46595000D01*
D25*
X3687000Y-27908000D02*
X3687000Y-40926000D01*
D24*
X35612896Y-43202482D02*
X35736000Y-43325586D01*
D25*
X8799000Y-22288000D02*
X8799000Y-22796000D01*
D24*
X35736000Y-46595000D02*
X36285000Y-47144000D01*
X35736000Y-43325586D02*
X35736000Y-46435000D01*
D25*
X3687000Y-40926000D02*
X9434000Y-46673000D01*
D24*
X30285500Y-38711291D02*
X25222291Y-38711291D01*
X41674000Y-26754000D02*
X41580000Y-26848000D01*
X9351000Y-31877000D02*
X9342000Y-31886000D01*
X25222291Y-38711291D02*
X18388000Y-31877000D01*
X36924818Y-31512000D02*
X35741000Y-31512000D01*
X41580000Y-26856818D02*
X36924818Y-31512000D01*
X35741000Y-31512000D02*
X33676000Y-33577000D01*
X18388000Y-31877000D02*
X9351000Y-31877000D01*
X49253000Y-26754000D02*
X41674000Y-26754000D01*
X33676000Y-35320791D02*
X30285500Y-38711291D01*
X41580000Y-26848000D02*
X41580000Y-26856818D01*
X33676000Y-33577000D02*
X33676000Y-35320791D01*
X36071952Y-41244048D02*
X36831000Y-42003096D01*
X9435000Y-36809000D02*
X17870000Y-36809000D01*
X22286048Y-41244048D02*
X36071952Y-41244048D01*
X21982866Y-40921866D02*
X21982866Y-40940866D01*
X36831000Y-42003096D02*
X36831000Y-42854000D01*
X17870000Y-36809000D02*
X21982866Y-40921866D01*
X21982866Y-40940866D02*
X22286048Y-41244048D01*
D25*
X41145500Y-63650000D02*
X38858500Y-61363000D01*
X38858500Y-61363000D02*
X38858500Y-59194000D01*
D24*
X16441000Y-34343000D02*
X9416000Y-34343000D01*
X29696103Y-39514103D02*
X21612103Y-39514103D01*
X9416000Y-34343000D02*
X9333000Y-34426000D01*
D25*
X21612103Y-39514103D02*
X16441000Y-34343000D01*
D24*
X42289200Y-51326000D02*
X39883000Y-48919800D01*
X44113001Y-51326000D02*
X42289200Y-51326000D01*
X39717166Y-39411967D02*
X39717166Y-39199834D01*
X39883000Y-48919800D02*
X39883000Y-39577801D01*
X39883000Y-39577801D02*
X39717166Y-39411967D01*
X39398967Y-39730166D02*
X39186834Y-39730166D01*
X39433000Y-39764199D02*
X39398967Y-39730166D01*
X44616484Y-51811601D02*
X44207652Y-52220433D01*
X39433000Y-49106200D02*
X39433000Y-39764199D01*
X42547233Y-52220433D02*
X39433000Y-49106200D01*
X44207652Y-52220433D02*
X42547233Y-52220433D01*
X36281000Y-42083000D02*
X36281000Y-43270709D01*
X9477000Y-39275000D02*
X18648000Y-39275000D01*
X21149056Y-41776056D02*
X35974056Y-41776056D01*
X18648000Y-39275000D02*
X21149056Y-41776056D01*
X9496000Y-39256000D02*
X9477000Y-39275000D01*
X35974056Y-41776056D02*
X36281000Y-42083000D01*
X36281000Y-43270709D02*
X36452625Y-43442334D01*
G04 #@! TA.AperFunction,Conductor*
G36*
X75479423Y-64566D02*
G01*
X75518986Y-66394D01*
X75650950Y-72495D01*
X75850549Y-82302D01*
X75856048Y-82819D01*
X76041357Y-108668D01*
X76227828Y-136329D01*
X76232871Y-137294D01*
X76417341Y-180681D01*
X76598221Y-225989D01*
X76602797Y-227327D01*
X76783568Y-287916D01*
X76958339Y-350450D01*
X76962471Y-352100D01*
X77020986Y-377936D01*
X77137474Y-429370D01*
X77304973Y-508592D01*
X77308601Y-510457D01*
X77476128Y-603770D01*
X77476142Y-603778D01*
X77634964Y-698972D01*
X77638119Y-700996D01*
X77796603Y-809559D01*
X77945377Y-919897D01*
X77948001Y-921957D01*
X78096027Y-1044876D01*
X78233321Y-1169314D01*
X78235514Y-1171402D01*
X78370596Y-1306484D01*
X78372695Y-1308688D01*
X78497129Y-1445980D01*
X78620034Y-1593989D01*
X78622109Y-1596632D01*
X78732443Y-1745400D01*
X78841002Y-1903879D01*
X78843032Y-1907044D01*
X78938221Y-2065857D01*
X79031527Y-2233371D01*
X79033410Y-2237034D01*
X79112638Y-2404547D01*
X79189899Y-2579527D01*
X79191558Y-2583685D01*
X79254093Y-2758459D01*
X79314662Y-2939173D01*
X79316018Y-2943812D01*
X79361317Y-3124654D01*
X79404696Y-3309090D01*
X79405672Y-3314189D01*
X79433337Y-3500689D01*
X79459177Y-3685933D01*
X79459697Y-3691459D01*
X79469512Y-3891238D01*
X79477434Y-4062578D01*
X79477500Y-4065436D01*
X79483499Y-77256560D01*
X79483433Y-77259427D01*
X79475513Y-77430837D01*
X79465707Y-77630539D01*
X79465187Y-77636066D01*
X79439346Y-77821341D01*
X79411689Y-78007807D01*
X79410713Y-78012906D01*
X79367328Y-78197388D01*
X79322044Y-78378180D01*
X79320688Y-78382820D01*
X79260113Y-78563564D01*
X79197580Y-78738338D01*
X79195921Y-78742496D01*
X79118654Y-78917494D01*
X79039452Y-79084958D01*
X79037569Y-79088619D01*
X78944247Y-79256171D01*
X78849053Y-79414994D01*
X78847023Y-79418159D01*
X78738471Y-79576626D01*
X78628146Y-79725384D01*
X78626045Y-79728059D01*
X78503167Y-79876037D01*
X78378720Y-80013343D01*
X78376621Y-80015547D01*
X78241547Y-80150621D01*
X78239343Y-80152720D01*
X78102037Y-80277167D01*
X77954059Y-80400045D01*
X77951384Y-80402146D01*
X77802626Y-80512471D01*
X77644159Y-80621023D01*
X77640994Y-80623053D01*
X77482171Y-80718247D01*
X77314619Y-80811569D01*
X77310958Y-80813452D01*
X77143494Y-80892654D01*
X76968496Y-80969921D01*
X76964338Y-80971580D01*
X76789564Y-81034113D01*
X76608820Y-81094688D01*
X76604180Y-81096044D01*
X76423388Y-81141328D01*
X76238905Y-81184714D01*
X76233805Y-81185690D01*
X76177607Y-81194025D01*
X76159392Y-81195367D01*
X3474516Y-81181647D01*
X3456345Y-81180305D01*
X3334631Y-81162251D01*
X3329532Y-81161275D01*
X3145026Y-81117882D01*
X3009191Y-81083858D01*
X2964240Y-81072598D01*
X2959605Y-81071243D01*
X2778877Y-81010670D01*
X2604097Y-80948133D01*
X2599940Y-80946474D01*
X2424962Y-80869215D01*
X2257460Y-80789992D01*
X2253798Y-80788109D01*
X2086283Y-80694805D01*
X1927457Y-80599609D01*
X1924292Y-80597579D01*
X1765809Y-80489016D01*
X1617072Y-80378704D01*
X1614397Y-80376604D01*
X1466400Y-80253710D01*
X1329114Y-80129282D01*
X1326910Y-80127183D01*
X1191815Y-79992088D01*
X1189716Y-79989884D01*
X1065289Y-79852599D01*
X942394Y-79704601D01*
X940294Y-79701926D01*
X829983Y-79553190D01*
X721419Y-79394706D01*
X719397Y-79391553D01*
X624193Y-79232714D01*
X530889Y-79065200D01*
X529014Y-79061555D01*
X449786Y-78894042D01*
X372524Y-78719058D01*
X370865Y-78714901D01*
X308329Y-78540122D01*
X247748Y-78359369D01*
X246409Y-78354793D01*
X201110Y-78173944D01*
X157716Y-77989441D01*
X156750Y-77984392D01*
X129089Y-77797903D01*
X106514Y-77636066D01*
X103246Y-77612639D01*
X102727Y-77607136D01*
X92890Y-77406854D01*
X84991Y-77235983D01*
X84926Y-77233196D01*
X84842Y-75439903D01*
X2948793Y-75439903D01*
X2958672Y-75747970D01*
X2958672Y-75747975D01*
X2958673Y-75747978D01*
X3007867Y-76052261D01*
X3052137Y-76201419D01*
X3095571Y-76347763D01*
X3220333Y-76629601D01*
X3220337Y-76629609D01*
X3380123Y-76893193D01*
X3380127Y-76893198D01*
X3380133Y-76893207D01*
X3572297Y-77134174D01*
X3572299Y-77134176D01*
X3572303Y-77134180D01*
X3572304Y-77134181D01*
X3793724Y-77348614D01*
X3960862Y-77473352D01*
X4040741Y-77532968D01*
X4040743Y-77532969D01*
X4040747Y-77532972D01*
X4309318Y-77684228D01*
X4450057Y-77741207D01*
X4595018Y-77799897D01*
X4595023Y-77799898D01*
X4595025Y-77799899D01*
X4893179Y-77878084D01*
X5198883Y-77917500D01*
X5198890Y-77917500D01*
X5429980Y-77917500D01*
X5528814Y-77911154D01*
X5660601Y-77902693D01*
X5963151Y-77843772D01*
X6255683Y-77746644D01*
X6255689Y-77746640D01*
X6255693Y-77746640D01*
X6504066Y-77627030D01*
X6533393Y-77612907D01*
X6791720Y-77444754D01*
X7026424Y-77244948D01*
X7233650Y-77016769D01*
X7409996Y-76763963D01*
X7552567Y-76490683D01*
X7659020Y-76201415D01*
X7727609Y-75900908D01*
X7757206Y-75594098D01*
X7752261Y-75439903D01*
X71557793Y-75439903D01*
X71567672Y-75747970D01*
X71567672Y-75747975D01*
X71567673Y-75747978D01*
X71616867Y-76052261D01*
X71661137Y-76201419D01*
X71704571Y-76347763D01*
X71829333Y-76629601D01*
X71829337Y-76629609D01*
X71989123Y-76893193D01*
X71989127Y-76893198D01*
X71989133Y-76893207D01*
X72181297Y-77134174D01*
X72181299Y-77134176D01*
X72181303Y-77134180D01*
X72181304Y-77134181D01*
X72402724Y-77348614D01*
X72569862Y-77473352D01*
X72649741Y-77532968D01*
X72649743Y-77532969D01*
X72649747Y-77532972D01*
X72918318Y-77684228D01*
X73059057Y-77741207D01*
X73204018Y-77799897D01*
X73204023Y-77799898D01*
X73204025Y-77799899D01*
X73502179Y-77878084D01*
X73807883Y-77917500D01*
X73807890Y-77917500D01*
X74038980Y-77917500D01*
X74137814Y-77911154D01*
X74269601Y-77902693D01*
X74572151Y-77843772D01*
X74864683Y-77746644D01*
X74864689Y-77746640D01*
X74864693Y-77746640D01*
X75113066Y-77627030D01*
X75142393Y-77612907D01*
X75400720Y-77444754D01*
X75635424Y-77244948D01*
X75842650Y-77016769D01*
X76018996Y-76763963D01*
X76161567Y-76490683D01*
X76268020Y-76201415D01*
X76336609Y-75900908D01*
X76366206Y-75594098D01*
X76356327Y-75286022D01*
X76307133Y-74981739D01*
X76219431Y-74686244D01*
X76219429Y-74686239D01*
X76219428Y-74686236D01*
X76094666Y-74404398D01*
X76094663Y-74404391D01*
X75934877Y-74140807D01*
X75934870Y-74140799D01*
X75934866Y-74140792D01*
X75742702Y-73899825D01*
X75742700Y-73899823D01*
X75521279Y-73685389D01*
X75521276Y-73685386D01*
X75392450Y-73589241D01*
X75274258Y-73501031D01*
X75274253Y-73501028D01*
X75005682Y-73349772D01*
X74968383Y-73334671D01*
X74719981Y-73234102D01*
X74552660Y-73190226D01*
X74421821Y-73155916D01*
X74116117Y-73116500D01*
X73885026Y-73116500D01*
X73885020Y-73116500D01*
X73654406Y-73131306D01*
X73654389Y-73131308D01*
X73351854Y-73190226D01*
X73351849Y-73190228D01*
X73059310Y-73287358D01*
X73059306Y-73287359D01*
X72781613Y-73421089D01*
X72781605Y-73421094D01*
X72523286Y-73589241D01*
X72523276Y-73589248D01*
X72288581Y-73789046D01*
X72288571Y-73789056D01*
X72081354Y-74017225D01*
X72081350Y-74017229D01*
X71905005Y-74270033D01*
X71905003Y-74270037D01*
X71762432Y-74543319D01*
X71762429Y-74543326D01*
X71655981Y-74832580D01*
X71655979Y-74832590D01*
X71587391Y-75133089D01*
X71557794Y-75439902D01*
X71557793Y-75439903D01*
X7752261Y-75439903D01*
X7747327Y-75286022D01*
X7698133Y-74981739D01*
X7610431Y-74686244D01*
X7610429Y-74686239D01*
X7610428Y-74686236D01*
X7485666Y-74404398D01*
X7485663Y-74404391D01*
X7325877Y-74140807D01*
X7325870Y-74140799D01*
X7325866Y-74140792D01*
X7133702Y-73899825D01*
X7133700Y-73899823D01*
X6912279Y-73685389D01*
X6912276Y-73685386D01*
X6783450Y-73589241D01*
X6665258Y-73501031D01*
X6665253Y-73501028D01*
X6396682Y-73349772D01*
X6359383Y-73334671D01*
X6110981Y-73234102D01*
X5943660Y-73190226D01*
X5812821Y-73155916D01*
X5507117Y-73116500D01*
X5276026Y-73116500D01*
X5276020Y-73116500D01*
X5045406Y-73131306D01*
X5045389Y-73131308D01*
X4742854Y-73190226D01*
X4742849Y-73190228D01*
X4450310Y-73287358D01*
X4450306Y-73287359D01*
X4172613Y-73421089D01*
X4172605Y-73421094D01*
X3914286Y-73589241D01*
X3914276Y-73589248D01*
X3679581Y-73789046D01*
X3679571Y-73789056D01*
X3472354Y-74017225D01*
X3472350Y-74017229D01*
X3296005Y-74270033D01*
X3296003Y-74270037D01*
X3153432Y-74543319D01*
X3153429Y-74543326D01*
X3046981Y-74832580D01*
X3046979Y-74832590D01*
X2978391Y-75133089D01*
X2948794Y-75439902D01*
X2948793Y-75439903D01*
X84842Y-75439903D01*
X84081Y-59194000D01*
X37953040Y-59194000D01*
X37972826Y-59382256D01*
X37972827Y-59382259D01*
X38031318Y-59562277D01*
X38031321Y-59562284D01*
X38125967Y-59726216D01*
X38169272Y-59774310D01*
X38201150Y-59809715D01*
X38231380Y-59872706D01*
X38233000Y-59892687D01*
X38233000Y-61280255D01*
X38231275Y-61295872D01*
X38231561Y-61295899D01*
X38230826Y-61303665D01*
X38233000Y-61372814D01*
X38233000Y-61402343D01*
X38233001Y-61402360D01*
X38233868Y-61409231D01*
X38234326Y-61415050D01*
X38235790Y-61461624D01*
X38235791Y-61461627D01*
X38241380Y-61480867D01*
X38245324Y-61499911D01*
X38247836Y-61519791D01*
X38264990Y-61563119D01*
X38266882Y-61568647D01*
X38279881Y-61613388D01*
X38290080Y-61630634D01*
X38298638Y-61648103D01*
X38306014Y-61666732D01*
X38333398Y-61704423D01*
X38336606Y-61709307D01*
X38360327Y-61749416D01*
X38360333Y-61749424D01*
X38374490Y-61763580D01*
X38387128Y-61778376D01*
X38398905Y-61794586D01*
X38398906Y-61794587D01*
X38434809Y-61824288D01*
X38439120Y-61828210D01*
X39925721Y-63314812D01*
X40206538Y-63595629D01*
X40240023Y-63656952D01*
X40242178Y-63670348D01*
X40250468Y-63749227D01*
X40259826Y-63838256D01*
X40259827Y-63838259D01*
X40318318Y-64018277D01*
X40318321Y-64018284D01*
X40412967Y-64182216D01*
X40524895Y-64306524D01*
X40539629Y-64322888D01*
X40692765Y-64434148D01*
X40692770Y-64434151D01*
X40865692Y-64511142D01*
X40865697Y-64511144D01*
X41050854Y-64550500D01*
X41050855Y-64550500D01*
X41179047Y-64550500D01*
X41246086Y-64570185D01*
X41291841Y-64622989D01*
X41301785Y-64692147D01*
X41272760Y-64755703D01*
X41266728Y-64762181D01*
X40560728Y-65468181D01*
X40499405Y-65501666D01*
X40473047Y-65504500D01*
X40413854Y-65504500D01*
X40381397Y-65511398D01*
X40228697Y-65543855D01*
X40228692Y-65543857D01*
X40055770Y-65620848D01*
X40055765Y-65620851D01*
X39902629Y-65732111D01*
X39775966Y-65872785D01*
X39681321Y-66036715D01*
X39681318Y-66036722D01*
X39649597Y-66134351D01*
X39622826Y-66216744D01*
X39603040Y-66405000D01*
X39622826Y-66593256D01*
X39622827Y-66593259D01*
X39681318Y-66773277D01*
X39681321Y-66773284D01*
X39775967Y-66937216D01*
X39856422Y-67026570D01*
X39902629Y-67077888D01*
X40055765Y-67189148D01*
X40055770Y-67189151D01*
X40228692Y-67266142D01*
X40228697Y-67266144D01*
X40413854Y-67305500D01*
X40413855Y-67305500D01*
X40603144Y-67305500D01*
X40603146Y-67305500D01*
X40788303Y-67266144D01*
X40961230Y-67189151D01*
X41114371Y-67077888D01*
X41241033Y-66937216D01*
X41335679Y-66773284D01*
X41394174Y-66593256D01*
X41411821Y-66425345D01*
X41438405Y-66360732D01*
X41447452Y-66350636D01*
X42553286Y-65244802D01*
X42565548Y-65234980D01*
X42565365Y-65234759D01*
X42571367Y-65229792D01*
X42571377Y-65229786D01*
X42618741Y-65179348D01*
X42639620Y-65158470D01*
X42643873Y-65152986D01*
X42647650Y-65148563D01*
X42679562Y-65114582D01*
X42689214Y-65097023D01*
X42699889Y-65080772D01*
X42712174Y-65064936D01*
X42730686Y-65022152D01*
X42733242Y-65016935D01*
X42755697Y-64976092D01*
X42760680Y-64956680D01*
X42766977Y-64938291D01*
X42774938Y-64919895D01*
X42782229Y-64873853D01*
X42783408Y-64868162D01*
X42795000Y-64823019D01*
X42795000Y-64802982D01*
X42796527Y-64783582D01*
X42799660Y-64763803D01*
X42799660Y-64763800D01*
X42798522Y-64751768D01*
X42795272Y-64717394D01*
X42795000Y-64711599D01*
X42795000Y-64300000D01*
X43537254Y-64300000D01*
X43541610Y-64338656D01*
X43542000Y-64345604D01*
X43542000Y-64597844D01*
X43548401Y-64657372D01*
X43548403Y-64657379D01*
X43598645Y-64792086D01*
X43598649Y-64792093D01*
X43684809Y-64907187D01*
X43684812Y-64907190D01*
X43799906Y-64993350D01*
X43799913Y-64993354D01*
X43934620Y-65043596D01*
X43934627Y-65043598D01*
X43994155Y-65049999D01*
X43994172Y-65050000D01*
X44246395Y-65050000D01*
X44253343Y-65050390D01*
X44291998Y-65054746D01*
X44292002Y-65054746D01*
X44330657Y-65050390D01*
X44337605Y-65050000D01*
X44592000Y-65050000D01*
X45092000Y-65050000D01*
X45346395Y-65050000D01*
X45353343Y-65050390D01*
X45391998Y-65054746D01*
X45392002Y-65054746D01*
X45430657Y-65050390D01*
X45437605Y-65050000D01*
X45689828Y-65050000D01*
X45689844Y-65049999D01*
X45749372Y-65043598D01*
X45749379Y-65043596D01*
X45884086Y-64993354D01*
X45884093Y-64993350D01*
X45999187Y-64907190D01*
X45999190Y-64907187D01*
X46085350Y-64792093D01*
X46085354Y-64792086D01*
X46135596Y-64657379D01*
X46135598Y-64657372D01*
X46141999Y-64597844D01*
X46142000Y-64597827D01*
X46142000Y-64345604D01*
X46142390Y-64338656D01*
X46146746Y-64300000D01*
X46146746Y-64299999D01*
X46142390Y-64261343D01*
X46142000Y-64254395D01*
X46142000Y-63900000D01*
X45345553Y-63900000D01*
X45392000Y-63946447D01*
X45657871Y-64212319D01*
X45691356Y-64273642D01*
X45686372Y-64343334D01*
X45657871Y-64387681D01*
X45092000Y-64953552D01*
X45092000Y-65050000D01*
X44592000Y-65050000D01*
X44592000Y-64953553D01*
X44026128Y-64387681D01*
X43992643Y-64326358D01*
X43994528Y-64300000D01*
X44136709Y-64300000D01*
X44157514Y-64377645D01*
X44214355Y-64434486D01*
X44272254Y-64450000D01*
X44311746Y-64450000D01*
X44369645Y-64434486D01*
X44426486Y-64377646D01*
X44447291Y-64300000D01*
X45236709Y-64300000D01*
X45257514Y-64377645D01*
X45314355Y-64434486D01*
X45372254Y-64450000D01*
X45411746Y-64450000D01*
X45469645Y-64434486D01*
X45526486Y-64377646D01*
X45547291Y-64300000D01*
X45526486Y-64222355D01*
X45469645Y-64165514D01*
X45411746Y-64150000D01*
X45372254Y-64150000D01*
X45314355Y-64165514D01*
X45257514Y-64222354D01*
X45236709Y-64300000D01*
X44447291Y-64300000D01*
X44426486Y-64222355D01*
X44369645Y-64165514D01*
X44311746Y-64150000D01*
X44272254Y-64150000D01*
X44214355Y-64165514D01*
X44157514Y-64222354D01*
X44136709Y-64300000D01*
X43994528Y-64300000D01*
X43997627Y-64256666D01*
X44026128Y-64212319D01*
X44338447Y-63900000D01*
X43542000Y-63900000D01*
X43542000Y-64254395D01*
X43541610Y-64261343D01*
X43537254Y-64299999D01*
X43537254Y-64300000D01*
X42795000Y-64300000D01*
X42795000Y-63000000D01*
X43537254Y-63000000D01*
X43541610Y-63038656D01*
X43542000Y-63045604D01*
X43542000Y-63400000D01*
X44338447Y-63400000D01*
X44338447Y-63399999D01*
X44026128Y-63087680D01*
X43992643Y-63026357D01*
X43994528Y-63000000D01*
X44136709Y-63000000D01*
X44157514Y-63077645D01*
X44214355Y-63134486D01*
X44272254Y-63150000D01*
X44311746Y-63150000D01*
X44369645Y-63134486D01*
X44426486Y-63077646D01*
X44447291Y-63000000D01*
X45236709Y-63000000D01*
X45257514Y-63077645D01*
X45314355Y-63134486D01*
X45372254Y-63150000D01*
X45411746Y-63150000D01*
X45469645Y-63134486D01*
X45526486Y-63077646D01*
X45547291Y-63000000D01*
X45526486Y-62922355D01*
X45469645Y-62865514D01*
X45411746Y-62850000D01*
X45372254Y-62850000D01*
X45314355Y-62865514D01*
X45257514Y-62922354D01*
X45236709Y-63000000D01*
X44447291Y-63000000D01*
X44426486Y-62922355D01*
X44369645Y-62865514D01*
X44311746Y-62850000D01*
X44272254Y-62850000D01*
X44214355Y-62865514D01*
X44157514Y-62922354D01*
X44136709Y-63000000D01*
X43994528Y-63000000D01*
X43997627Y-62956665D01*
X44026128Y-62912318D01*
X44292000Y-62646447D01*
X44591999Y-62346447D01*
X45092000Y-62346447D01*
X45657871Y-62912318D01*
X45691356Y-62973641D01*
X45686372Y-63043333D01*
X45657871Y-63087680D01*
X45345552Y-63399999D01*
X45345553Y-63400000D01*
X46142000Y-63400000D01*
X46142000Y-63045604D01*
X46142390Y-63038656D01*
X46146746Y-63000000D01*
X46146746Y-62999999D01*
X46142390Y-62961343D01*
X46142000Y-62954395D01*
X46142000Y-62702172D01*
X46141999Y-62702155D01*
X46135598Y-62642627D01*
X46135596Y-62642620D01*
X46085354Y-62507913D01*
X46085350Y-62507906D01*
X45999190Y-62392812D01*
X45999187Y-62392809D01*
X45884093Y-62306649D01*
X45884086Y-62306645D01*
X45749379Y-62256403D01*
X45749372Y-62256401D01*
X45689844Y-62250000D01*
X45437605Y-62250000D01*
X45430657Y-62249610D01*
X45392002Y-62245254D01*
X45391998Y-62245254D01*
X45353343Y-62249610D01*
X45346395Y-62250000D01*
X45092000Y-62250000D01*
X45092000Y-62346447D01*
X44591999Y-62346447D01*
X44592000Y-62346446D01*
X44592000Y-62250000D01*
X44337605Y-62250000D01*
X44330657Y-62249610D01*
X44292002Y-62245254D01*
X44291998Y-62245254D01*
X44253343Y-62249610D01*
X44246395Y-62250000D01*
X43994155Y-62250000D01*
X43934627Y-62256401D01*
X43934620Y-62256403D01*
X43799913Y-62306645D01*
X43799906Y-62306649D01*
X43684812Y-62392809D01*
X43684809Y-62392812D01*
X43598649Y-62507906D01*
X43598645Y-62507913D01*
X43548403Y-62642620D01*
X43548401Y-62642627D01*
X43542000Y-62702155D01*
X43542000Y-62954395D01*
X43541610Y-62961343D01*
X43537254Y-62999999D01*
X43537254Y-63000000D01*
X42795000Y-63000000D01*
X42795000Y-61900687D01*
X42814685Y-61833648D01*
X42826850Y-61817715D01*
X42851256Y-61790609D01*
X42902033Y-61734216D01*
X42996679Y-61570284D01*
X43055174Y-61390256D01*
X43074960Y-61202000D01*
X43055174Y-61013744D01*
X42996679Y-60833716D01*
X42902033Y-60669784D01*
X42775371Y-60529112D01*
X42775370Y-60529111D01*
X42622234Y-60417851D01*
X42622229Y-60417848D01*
X42449307Y-60340857D01*
X42449302Y-60340855D01*
X42303501Y-60309865D01*
X42264146Y-60301500D01*
X42074854Y-60301500D01*
X42042397Y-60308398D01*
X41889697Y-60340855D01*
X41889692Y-60340857D01*
X41716770Y-60417848D01*
X41716765Y-60417851D01*
X41563629Y-60529111D01*
X41436966Y-60669785D01*
X41342321Y-60833715D01*
X41342318Y-60833722D01*
X41283827Y-61013740D01*
X41283826Y-61013744D01*
X41264040Y-61202000D01*
X41283826Y-61390256D01*
X41283827Y-61390259D01*
X41342318Y-61570277D01*
X41342321Y-61570284D01*
X41436967Y-61734216D01*
X41463407Y-61763580D01*
X41512150Y-61817715D01*
X41542380Y-61880706D01*
X41544000Y-61900687D01*
X41544000Y-62660958D01*
X41524315Y-62727997D01*
X41471511Y-62773752D01*
X41402353Y-62783696D01*
X41394220Y-62782249D01*
X41369729Y-62777043D01*
X41240146Y-62749500D01*
X41240142Y-62749500D01*
X41180953Y-62749500D01*
X41113914Y-62729815D01*
X41093272Y-62713181D01*
X39520319Y-61140228D01*
X39486834Y-61078905D01*
X39484000Y-61052547D01*
X39484000Y-59892687D01*
X39503685Y-59825648D01*
X39515850Y-59809715D01*
X39534391Y-59789122D01*
X39591033Y-59726216D01*
X39685679Y-59562284D01*
X39744174Y-59382256D01*
X39763960Y-59194000D01*
X39744174Y-59005744D01*
X39685679Y-58825716D01*
X39591033Y-58661784D01*
X39464371Y-58521112D01*
X39428328Y-58494925D01*
X39311234Y-58409851D01*
X39311229Y-58409848D01*
X39138307Y-58332857D01*
X39138302Y-58332855D01*
X38992500Y-58301865D01*
X38953146Y-58293500D01*
X38763854Y-58293500D01*
X38731397Y-58300398D01*
X38578697Y-58332855D01*
X38578692Y-58332857D01*
X38405770Y-58409848D01*
X38405765Y-58409851D01*
X38252629Y-58521111D01*
X38125966Y-58661785D01*
X38031321Y-58825715D01*
X38031318Y-58825722D01*
X37972827Y-59005740D01*
X37972826Y-59005744D01*
X37953040Y-59194000D01*
X84081Y-59194000D01*
X82616Y-27888195D01*
X3056840Y-27888195D01*
X3061225Y-27934583D01*
X3061500Y-27940421D01*
X3061500Y-40843255D01*
X3059775Y-40858872D01*
X3060061Y-40858899D01*
X3059326Y-40866665D01*
X3061500Y-40935814D01*
X3061500Y-40965343D01*
X3061501Y-40965360D01*
X3062368Y-40972231D01*
X3062826Y-40978050D01*
X3064290Y-41024624D01*
X3064291Y-41024627D01*
X3069880Y-41043867D01*
X3073824Y-41062911D01*
X3076336Y-41082792D01*
X3077629Y-41086057D01*
X3093490Y-41126119D01*
X3095382Y-41131647D01*
X3100866Y-41150523D01*
X3108382Y-41176390D01*
X3113319Y-41184739D01*
X3118580Y-41193634D01*
X3127138Y-41211103D01*
X3134514Y-41229732D01*
X3161898Y-41267423D01*
X3165106Y-41272307D01*
X3188827Y-41312416D01*
X3188833Y-41312424D01*
X3202990Y-41326580D01*
X3215627Y-41341375D01*
X3227406Y-41357587D01*
X3261355Y-41385672D01*
X3263309Y-41387288D01*
X3267620Y-41391210D01*
X7336853Y-45460444D01*
X8683946Y-46807537D01*
X8713306Y-46854263D01*
X8764542Y-47000686D01*
X8764547Y-47000697D01*
X8854518Y-47143884D01*
X8854523Y-47143890D01*
X8974109Y-47263476D01*
X8974115Y-47263481D01*
X9117302Y-47353452D01*
X9117305Y-47353454D01*
X9117309Y-47353455D01*
X9117310Y-47353456D01*
X9189913Y-47378860D01*
X9276943Y-47409314D01*
X9444997Y-47428249D01*
X9445000Y-47428249D01*
X9445003Y-47428249D01*
X9613056Y-47409314D01*
X9613059Y-47409313D01*
X9772690Y-47353456D01*
X9869691Y-47292505D01*
X9935663Y-47273500D01*
X29276903Y-47273500D01*
X29343942Y-47293185D01*
X29364584Y-47309819D01*
X30681669Y-48626904D01*
X30687022Y-48633007D01*
X30704672Y-48656010D01*
X30708718Y-48661282D01*
X30791722Y-48724973D01*
X30834159Y-48757536D01*
X30980238Y-48818044D01*
X31058619Y-48828363D01*
X31136999Y-48838682D01*
X31137000Y-48838682D01*
X31172329Y-48834030D01*
X31180428Y-48833500D01*
X33137337Y-48833500D01*
X33203308Y-48852505D01*
X33300310Y-48913456D01*
X33421621Y-48955904D01*
X33459943Y-48969314D01*
X33627997Y-48988249D01*
X33628000Y-48988249D01*
X33628003Y-48988249D01*
X33796056Y-48969314D01*
X33796059Y-48969313D01*
X33955690Y-48913456D01*
X33955692Y-48913454D01*
X33955694Y-48913454D01*
X33955697Y-48913452D01*
X34098884Y-48823481D01*
X34098885Y-48823480D01*
X34098890Y-48823477D01*
X34218477Y-48703890D01*
X34271992Y-48618720D01*
X34324325Y-48572431D01*
X34393379Y-48561782D01*
X34457227Y-48590157D01*
X34464666Y-48597013D01*
X35207148Y-49339495D01*
X35240633Y-49400818D01*
X35242687Y-49413288D01*
X35244831Y-49432314D01*
X35300688Y-49591948D01*
X35300691Y-49591953D01*
X35390662Y-49735140D01*
X35390667Y-49735146D01*
X35510253Y-49854732D01*
X35510259Y-49854737D01*
X35653446Y-49944708D01*
X35653451Y-49944710D01*
X35653454Y-49944712D01*
X35653457Y-49944713D01*
X35704170Y-49962459D01*
X35760946Y-50003180D01*
X35786693Y-50068133D01*
X35773237Y-50136695D01*
X35724849Y-50187097D01*
X35663215Y-50203500D01*
X31331663Y-50203500D01*
X31265691Y-50184494D01*
X31264610Y-50183815D01*
X31168690Y-50123544D01*
X31130370Y-50110135D01*
X31009056Y-50067685D01*
X30841003Y-50048751D01*
X30840997Y-50048751D01*
X30672943Y-50067685D01*
X30513305Y-50123545D01*
X30513302Y-50123547D01*
X30370115Y-50213518D01*
X30370109Y-50213523D01*
X30250523Y-50333109D01*
X30250518Y-50333115D01*
X30160547Y-50476302D01*
X30160545Y-50476305D01*
X30104685Y-50635943D01*
X30085751Y-50803997D01*
X30085751Y-50804002D01*
X30104685Y-50972056D01*
X30160545Y-51131694D01*
X30160547Y-51131697D01*
X30250518Y-51274884D01*
X30250523Y-51274890D01*
X30370109Y-51394476D01*
X30370115Y-51394481D01*
X30513302Y-51484452D01*
X30513305Y-51484454D01*
X30513309Y-51484455D01*
X30513310Y-51484456D01*
X30546421Y-51496042D01*
X30672943Y-51540314D01*
X30840997Y-51559249D01*
X30841000Y-51559249D01*
X30841003Y-51559249D01*
X31009056Y-51540314D01*
X31009059Y-51540313D01*
X31168690Y-51484456D01*
X31265691Y-51423505D01*
X31331663Y-51404500D01*
X36997390Y-51404500D01*
X37005488Y-51405030D01*
X37040818Y-51409682D01*
X37040819Y-51409682D01*
X37093071Y-51402802D01*
X37197580Y-51389044D01*
X37343659Y-51328536D01*
X37413572Y-51274890D01*
X37469100Y-51232282D01*
X37490802Y-51203998D01*
X37496128Y-51197923D01*
X38998131Y-49695921D01*
X39059450Y-49662439D01*
X39129142Y-49667423D01*
X39173489Y-49695924D01*
X42091902Y-52614337D01*
X42097253Y-52620438D01*
X42118951Y-52648715D01*
X42201762Y-52712258D01*
X42244392Y-52744969D01*
X42390470Y-52805476D01*
X42390471Y-52805477D01*
X42547232Y-52826116D01*
X42547233Y-52826116D01*
X42582567Y-52821463D01*
X42590667Y-52820933D01*
X44164224Y-52820933D01*
X44172322Y-52821463D01*
X44207652Y-52826115D01*
X44207653Y-52826115D01*
X44259905Y-52819235D01*
X44364414Y-52805477D01*
X44510493Y-52744969D01*
X44553123Y-52712258D01*
X44635934Y-52648715D01*
X44657635Y-52620432D01*
X44662963Y-52614355D01*
X44691724Y-52585594D01*
X44753045Y-52552111D01*
X44765508Y-52550058D01*
X44784543Y-52547914D01*
X44944174Y-52492057D01*
X44944177Y-52492054D01*
X44944181Y-52492053D01*
X45087368Y-52402082D01*
X45087369Y-52402081D01*
X45087374Y-52402078D01*
X45206961Y-52282491D01*
X45229787Y-52246164D01*
X45296936Y-52139298D01*
X45296938Y-52139295D01*
X45296938Y-52139293D01*
X45296940Y-52139291D01*
X45352797Y-51979660D01*
X45352797Y-51979659D01*
X45352798Y-51979657D01*
X45371733Y-51811603D01*
X45371733Y-51811598D01*
X45352798Y-51643544D01*
X45301185Y-51496042D01*
X45296940Y-51483911D01*
X45296939Y-51483910D01*
X45296938Y-51483906D01*
X45296936Y-51483903D01*
X45206965Y-51340716D01*
X45206960Y-51340710D01*
X45087374Y-51221124D01*
X45087368Y-51221119D01*
X44944175Y-51131144D01*
X44881757Y-51109303D01*
X44824982Y-51068581D01*
X44805671Y-51033216D01*
X44796083Y-51005815D01*
X44793457Y-50998310D01*
X44793456Y-50998308D01*
X44793453Y-50998302D01*
X44703482Y-50855115D01*
X44703477Y-50855109D01*
X44583891Y-50735523D01*
X44583885Y-50735518D01*
X44440698Y-50645547D01*
X44440695Y-50645545D01*
X44281057Y-50589685D01*
X44113004Y-50570751D01*
X44112998Y-50570751D01*
X43944944Y-50589685D01*
X43785308Y-50645545D01*
X43715863Y-50689181D01*
X43689391Y-50705815D01*
X43688310Y-50706494D01*
X43622338Y-50725500D01*
X42589297Y-50725500D01*
X42522258Y-50705815D01*
X42501616Y-50689181D01*
X40519819Y-48707384D01*
X40486334Y-48646061D01*
X40483500Y-48619703D01*
X40483500Y-39621229D01*
X40484031Y-39613127D01*
X40488682Y-39577800D01*
X40488682Y-39577799D01*
X40477015Y-39489181D01*
X40468044Y-39421039D01*
X40464127Y-39411585D01*
X40455467Y-39350246D01*
X40472415Y-39199834D01*
X40472415Y-39199830D01*
X40458506Y-39076383D01*
X40470561Y-39007562D01*
X40517910Y-38956182D01*
X40581726Y-38938500D01*
X42460258Y-38938500D01*
X42527297Y-38958185D01*
X42547939Y-38974819D01*
X43973207Y-40400087D01*
X44006692Y-40461410D01*
X44001708Y-40531102D01*
X43990522Y-40553737D01*
X43967544Y-40590307D01*
X43911685Y-40749941D01*
X43892751Y-40917995D01*
X43892751Y-40918000D01*
X43911685Y-41086054D01*
X43967545Y-41245692D01*
X43967547Y-41245695D01*
X44057518Y-41388882D01*
X44057523Y-41388888D01*
X44177109Y-41508474D01*
X44177115Y-41508479D01*
X44320302Y-41598450D01*
X44320305Y-41598452D01*
X44320309Y-41598453D01*
X44320310Y-41598454D01*
X44392913Y-41623858D01*
X44479943Y-41654312D01*
X44647997Y-41673247D01*
X44648000Y-41673247D01*
X44648003Y-41673247D01*
X44816056Y-41654312D01*
X44854577Y-41640833D01*
X44975690Y-41598454D01*
X44975692Y-41598452D01*
X44975694Y-41598452D01*
X44975697Y-41598450D01*
X45118884Y-41508479D01*
X45118885Y-41508478D01*
X45118890Y-41508475D01*
X45238477Y-41388888D01*
X45238481Y-41388882D01*
X45328452Y-41245695D01*
X45328454Y-41245692D01*
X45328454Y-41245690D01*
X45328456Y-41245688D01*
X45384313Y-41086057D01*
X45384313Y-41086056D01*
X45384314Y-41086054D01*
X45403249Y-40918000D01*
X45403249Y-40917995D01*
X45384314Y-40749941D01*
X45367968Y-40703228D01*
X45328456Y-40590308D01*
X45242506Y-40453520D01*
X45223500Y-40387548D01*
X45223500Y-40302780D01*
X45224031Y-40294678D01*
X45226764Y-40273924D01*
X45228465Y-40261000D01*
X45223766Y-40225313D01*
X45223765Y-40225294D01*
X45219812Y-40195269D01*
X45208687Y-40110764D01*
X45150698Y-39970767D01*
X45150697Y-39970766D01*
X45150697Y-39970765D01*
X45141082Y-39958235D01*
X45080660Y-39879491D01*
X45080656Y-39879486D01*
X45058449Y-39850547D01*
X45041324Y-39837407D01*
X45031490Y-39829861D01*
X45025400Y-39824520D01*
X43327024Y-38126144D01*
X43300144Y-38085916D01*
X43294698Y-38072767D01*
X43202451Y-37952549D01*
X43082233Y-37860302D01*
X43082229Y-37860300D01*
X42942236Y-37802313D01*
X42942234Y-37802312D01*
X42846777Y-37789745D01*
X42829720Y-37787500D01*
X42792000Y-37782534D01*
X42758311Y-37786969D01*
X42750214Y-37787500D01*
X39309450Y-37787500D01*
X39243478Y-37768494D01*
X39106692Y-37682545D01*
X39106691Y-37682544D01*
X39106690Y-37682544D01*
X39061253Y-37666645D01*
X38947056Y-37626685D01*
X38779003Y-37607751D01*
X38778997Y-37607751D01*
X38610943Y-37626685D01*
X38451305Y-37682545D01*
X38451302Y-37682547D01*
X38308115Y-37772518D01*
X38308109Y-37772523D01*
X38188523Y-37892109D01*
X38188518Y-37892115D01*
X38098547Y-38035302D01*
X38098545Y-38035305D01*
X38042685Y-38194943D01*
X38023751Y-38362997D01*
X38023751Y-38363002D01*
X38042685Y-38531056D01*
X38098545Y-38690694D01*
X38098547Y-38690697D01*
X38188518Y-38833884D01*
X38188523Y-38833890D01*
X38308109Y-38953476D01*
X38308115Y-38953481D01*
X38451302Y-39043452D01*
X38451308Y-39043455D01*
X38451310Y-39043456D01*
X38534614Y-39072605D01*
X38591390Y-39113327D01*
X38617138Y-39178279D01*
X38603682Y-39246841D01*
X38598654Y-39255619D01*
X38506379Y-39402473D01*
X38506377Y-39402477D01*
X38497562Y-39427670D01*
X38456840Y-39484446D01*
X38391887Y-39510193D01*
X38366642Y-39509936D01*
X38365000Y-39509751D01*
X38364999Y-39509751D01*
X38364997Y-39509751D01*
X38196943Y-39528685D01*
X38037305Y-39584545D01*
X38037302Y-39584547D01*
X37894115Y-39674518D01*
X37894109Y-39674523D01*
X37774523Y-39794109D01*
X37774518Y-39794115D01*
X37684547Y-39937302D01*
X37684545Y-39937305D01*
X37628685Y-40096943D01*
X37609751Y-40264997D01*
X37609751Y-40265002D01*
X37628685Y-40433056D01*
X37684545Y-40592694D01*
X37684547Y-40592697D01*
X37774518Y-40735884D01*
X37774523Y-40735890D01*
X37894109Y-40855476D01*
X37894115Y-40855481D01*
X38037302Y-40945452D01*
X38037308Y-40945455D01*
X38037310Y-40945456D01*
X38196941Y-41001313D01*
X38215961Y-41003455D01*
X38280373Y-41030520D01*
X38289760Y-41038995D01*
X38374181Y-41123416D01*
X38407666Y-41184739D01*
X38410500Y-41211097D01*
X38410500Y-48163813D01*
X38390815Y-48230852D01*
X38338011Y-48276607D01*
X38268853Y-48286551D01*
X38245547Y-48280855D01*
X38225059Y-48273686D01*
X38057003Y-48254751D01*
X38056997Y-48254751D01*
X37888943Y-48273685D01*
X37729307Y-48329545D01*
X37659862Y-48373181D01*
X37633390Y-48389815D01*
X37632309Y-48390494D01*
X37566337Y-48409500D01*
X36804097Y-48409500D01*
X36737058Y-48389815D01*
X36716416Y-48373181D01*
X36422584Y-48079349D01*
X36389099Y-48018026D01*
X36394083Y-47948334D01*
X36435955Y-47892401D01*
X36469309Y-47874626D01*
X36612690Y-47824456D01*
X36612693Y-47824453D01*
X36612697Y-47824452D01*
X36755884Y-47734481D01*
X36755885Y-47734480D01*
X36755890Y-47734477D01*
X36875477Y-47614890D01*
X36953188Y-47491215D01*
X36965452Y-47471697D01*
X36965454Y-47471694D01*
X36965454Y-47471692D01*
X36965456Y-47471690D01*
X37021313Y-47312059D01*
X37021313Y-47312058D01*
X37021314Y-47312056D01*
X37040249Y-47144002D01*
X37040249Y-47143997D01*
X37021314Y-46975943D01*
X36965454Y-46816305D01*
X36965452Y-46816302D01*
X36875481Y-46673115D01*
X36875476Y-46673109D01*
X36755890Y-46553523D01*
X36755884Y-46553518D01*
X36612697Y-46463547D01*
X36612692Y-46463544D01*
X36506269Y-46426305D01*
X36453059Y-46407687D01*
X36446611Y-46406960D01*
X36382200Y-46379892D01*
X36342646Y-46322297D01*
X36336500Y-46283741D01*
X36336500Y-44321480D01*
X36356185Y-44254441D01*
X36408989Y-44208686D01*
X36446617Y-44198260D01*
X36620680Y-44178648D01*
X36620682Y-44178647D01*
X36620684Y-44178647D01*
X36780315Y-44122790D01*
X36780317Y-44122788D01*
X36780319Y-44122788D01*
X36780322Y-44122786D01*
X36923509Y-44032815D01*
X36923510Y-44032814D01*
X36923515Y-44032811D01*
X37043102Y-43913224D01*
X37043906Y-43911945D01*
X37133077Y-43770031D01*
X37133080Y-43770025D01*
X37133081Y-43770024D01*
X37188938Y-43610393D01*
X37193764Y-43567554D01*
X37220828Y-43503143D01*
X37251010Y-43476446D01*
X37301890Y-43444477D01*
X37421477Y-43324890D01*
X37473302Y-43242412D01*
X37511452Y-43181697D01*
X37511454Y-43181694D01*
X37511454Y-43181692D01*
X37511456Y-43181690D01*
X37567313Y-43022059D01*
X37567313Y-43022058D01*
X37567314Y-43022056D01*
X37586249Y-42854002D01*
X37586249Y-42853997D01*
X37567314Y-42685943D01*
X37541441Y-42612004D01*
X37511456Y-42526310D01*
X37480669Y-42477313D01*
X37450506Y-42429308D01*
X37431500Y-42363336D01*
X37431500Y-42046524D01*
X37432031Y-42038422D01*
X37436682Y-42003095D01*
X37436682Y-42003094D01*
X37416044Y-41846335D01*
X37416044Y-41846334D01*
X37355536Y-41700255D01*
X37309940Y-41640833D01*
X37259282Y-41574814D01*
X37231005Y-41553116D01*
X37224904Y-41547765D01*
X36527280Y-40850141D01*
X36521926Y-40844036D01*
X36500236Y-40815767D01*
X36500234Y-40815765D01*
X36494511Y-40811374D01*
X36453309Y-40754946D01*
X36449156Y-40685199D01*
X36483369Y-40624280D01*
X36545087Y-40591528D01*
X36569999Y-40589000D01*
X36633828Y-40589000D01*
X36633844Y-40588999D01*
X36693372Y-40582598D01*
X36693379Y-40582596D01*
X36828086Y-40532354D01*
X36828093Y-40532350D01*
X36943187Y-40446190D01*
X36943190Y-40446187D01*
X37029350Y-40331093D01*
X37029354Y-40331086D01*
X37079596Y-40196379D01*
X37079598Y-40196372D01*
X37085999Y-40136844D01*
X37086000Y-40136827D01*
X37086000Y-39837407D01*
X37086390Y-39830459D01*
X37091062Y-39789000D01*
X37091062Y-39788998D01*
X37086390Y-39747539D01*
X37086000Y-39740591D01*
X37086000Y-38939000D01*
X36889552Y-38939000D01*
X36969064Y-39018512D01*
X37002549Y-39079835D01*
X36997565Y-39149527D01*
X36969065Y-39193874D01*
X36923939Y-39239000D01*
X36969065Y-39284126D01*
X37002550Y-39345449D01*
X36997566Y-39415141D01*
X36969065Y-39459488D01*
X35956488Y-40472065D01*
X35895165Y-40505550D01*
X35825473Y-40500566D01*
X35781126Y-40472065D01*
X35736000Y-40426939D01*
X35690874Y-40472065D01*
X35629551Y-40505550D01*
X35559859Y-40500566D01*
X35515512Y-40472065D01*
X35186000Y-40142553D01*
X34856487Y-40472065D01*
X34795164Y-40505550D01*
X34725472Y-40500566D01*
X34681125Y-40472065D01*
X34635999Y-40426939D01*
X34635998Y-40426939D01*
X34590873Y-40472064D01*
X34529550Y-40505549D01*
X34459858Y-40500565D01*
X34415511Y-40472064D01*
X33732447Y-39789000D01*
X33930709Y-39789000D01*
X33951514Y-39866645D01*
X34008355Y-39923486D01*
X34066254Y-39939000D01*
X34105746Y-39939000D01*
X34163645Y-39923486D01*
X34220486Y-39866646D01*
X34241291Y-39789000D01*
X34439553Y-39789000D01*
X34636000Y-39985447D01*
X34832447Y-39789000D01*
X35030709Y-39789000D01*
X35051514Y-39866645D01*
X35108355Y-39923486D01*
X35166254Y-39939000D01*
X35205746Y-39939000D01*
X35263645Y-39923486D01*
X35320486Y-39866646D01*
X35341291Y-39789000D01*
X35539553Y-39789000D01*
X35736000Y-39985447D01*
X35932447Y-39789000D01*
X36130709Y-39789000D01*
X36151514Y-39866645D01*
X36208355Y-39923486D01*
X36266254Y-39939000D01*
X36305746Y-39939000D01*
X36363645Y-39923486D01*
X36420486Y-39866646D01*
X36441291Y-39789000D01*
X36420486Y-39711355D01*
X36363645Y-39654514D01*
X36305746Y-39639000D01*
X36266254Y-39639000D01*
X36208355Y-39654514D01*
X36151514Y-39711354D01*
X36130709Y-39789000D01*
X35932447Y-39789000D01*
X35736000Y-39592553D01*
X35539553Y-39789000D01*
X35341291Y-39789000D01*
X35320486Y-39711355D01*
X35263645Y-39654514D01*
X35205746Y-39639000D01*
X35166254Y-39639000D01*
X35108355Y-39654514D01*
X35051514Y-39711354D01*
X35030709Y-39789000D01*
X34832447Y-39789000D01*
X34636000Y-39592553D01*
X34439553Y-39789000D01*
X34241291Y-39789000D01*
X34220486Y-39711355D01*
X34163645Y-39654514D01*
X34105746Y-39639000D01*
X34066254Y-39639000D01*
X34008355Y-39654514D01*
X33951514Y-39711354D01*
X33930709Y-39789000D01*
X33732447Y-39789000D01*
X33402934Y-39459487D01*
X33369449Y-39398164D01*
X33374433Y-39328472D01*
X33402934Y-39284124D01*
X33448058Y-39239000D01*
X33889553Y-39239000D01*
X34086000Y-39435447D01*
X34282447Y-39239000D01*
X34989553Y-39239000D01*
X35186000Y-39435447D01*
X35382447Y-39239000D01*
X36089553Y-39239000D01*
X36286000Y-39435447D01*
X36482447Y-39239000D01*
X36286000Y-39042553D01*
X36089553Y-39239000D01*
X35382447Y-39239000D01*
X35186000Y-39042553D01*
X34989553Y-39239000D01*
X34282447Y-39239000D01*
X34086000Y-39042553D01*
X33889553Y-39239000D01*
X33448058Y-39239000D01*
X33448059Y-39238999D01*
X33402934Y-39193874D01*
X33369449Y-39132551D01*
X33374433Y-39062859D01*
X33402934Y-39018512D01*
X33732445Y-38689000D01*
X33930709Y-38689000D01*
X33951514Y-38766645D01*
X34008355Y-38823486D01*
X34066254Y-38839000D01*
X34105746Y-38839000D01*
X34163645Y-38823486D01*
X34220486Y-38766646D01*
X34241291Y-38689000D01*
X34439553Y-38689000D01*
X34636000Y-38885447D01*
X34832447Y-38689000D01*
X35030709Y-38689000D01*
X35051514Y-38766645D01*
X35108355Y-38823486D01*
X35166254Y-38839000D01*
X35205746Y-38839000D01*
X35263645Y-38823486D01*
X35320486Y-38766646D01*
X35341291Y-38689000D01*
X36130709Y-38689000D01*
X36151514Y-38766645D01*
X36208355Y-38823486D01*
X36266254Y-38839000D01*
X36305746Y-38839000D01*
X36363645Y-38823486D01*
X36420486Y-38766646D01*
X36441291Y-38689000D01*
X36420486Y-38611355D01*
X36363645Y-38554514D01*
X36305746Y-38539000D01*
X36266254Y-38539000D01*
X36208355Y-38554514D01*
X36151514Y-38611354D01*
X36130709Y-38689000D01*
X35341291Y-38689000D01*
X35320486Y-38611355D01*
X35263645Y-38554514D01*
X35205746Y-38539000D01*
X35166254Y-38539000D01*
X35108355Y-38554514D01*
X35051514Y-38611354D01*
X35030709Y-38689000D01*
X34832447Y-38689000D01*
X34636000Y-38492553D01*
X34439553Y-38689000D01*
X34241291Y-38689000D01*
X34220486Y-38611355D01*
X34163645Y-38554514D01*
X34105746Y-38539000D01*
X34066254Y-38539000D01*
X34008355Y-38554514D01*
X33951514Y-38611354D01*
X33930709Y-38689000D01*
X33732445Y-38689000D01*
X33732446Y-38688999D01*
X33531868Y-38488421D01*
X33498383Y-38427098D01*
X33503367Y-38357406D01*
X33521169Y-38325260D01*
X33534536Y-38307841D01*
X33595044Y-38161762D01*
X33598041Y-38139000D01*
X33889553Y-38139000D01*
X34086000Y-38335447D01*
X34282447Y-38139000D01*
X36089553Y-38139000D01*
X36286000Y-38335447D01*
X36482447Y-38139000D01*
X36286000Y-37942553D01*
X36089553Y-38139000D01*
X34282447Y-38139000D01*
X34086000Y-37942553D01*
X33889553Y-38139000D01*
X33598041Y-38139000D01*
X33610500Y-38044361D01*
X33615682Y-38005000D01*
X33611030Y-37969669D01*
X33610500Y-37961571D01*
X33610500Y-37762309D01*
X33630185Y-37695270D01*
X33646819Y-37674628D01*
X33732447Y-37589000D01*
X33930709Y-37589000D01*
X33951514Y-37666645D01*
X34008355Y-37723486D01*
X34066254Y-37739000D01*
X34105746Y-37739000D01*
X34163645Y-37723486D01*
X34220486Y-37666646D01*
X34241291Y-37589000D01*
X34439553Y-37589000D01*
X34636000Y-37785447D01*
X34832447Y-37589000D01*
X35030709Y-37589000D01*
X35051514Y-37666645D01*
X35108355Y-37723486D01*
X35166254Y-37739000D01*
X35205746Y-37739000D01*
X35263645Y-37723486D01*
X35320486Y-37666646D01*
X35341291Y-37589000D01*
X35539553Y-37589000D01*
X35736000Y-37785447D01*
X35932447Y-37589000D01*
X36130709Y-37589000D01*
X36151514Y-37666645D01*
X36208355Y-37723486D01*
X36266254Y-37739000D01*
X36305746Y-37739000D01*
X36363645Y-37723486D01*
X36420486Y-37666646D01*
X36441291Y-37589000D01*
X36420486Y-37511355D01*
X36363645Y-37454514D01*
X36305746Y-37439000D01*
X36266254Y-37439000D01*
X36208355Y-37454514D01*
X36151514Y-37511354D01*
X36130709Y-37589000D01*
X35932447Y-37589000D01*
X35736000Y-37392553D01*
X35539553Y-37589000D01*
X35341291Y-37589000D01*
X35320486Y-37511355D01*
X35263645Y-37454514D01*
X35205746Y-37439000D01*
X35166254Y-37439000D01*
X35108355Y-37454514D01*
X35051514Y-37511354D01*
X35030709Y-37589000D01*
X34832447Y-37589000D01*
X34636000Y-37392553D01*
X34439553Y-37589000D01*
X34241291Y-37589000D01*
X34220486Y-37511355D01*
X34163645Y-37454514D01*
X34105746Y-37439000D01*
X34066254Y-37439000D01*
X34008355Y-37454514D01*
X33951514Y-37511354D01*
X33930709Y-37589000D01*
X33732447Y-37589000D01*
X34086000Y-37235447D01*
X34415512Y-36905934D01*
X34476835Y-36872449D01*
X34546526Y-36877433D01*
X34590874Y-36905934D01*
X34636000Y-36951060D01*
X34681125Y-36905935D01*
X34742448Y-36872450D01*
X34812140Y-36877434D01*
X34856487Y-36905935D01*
X34935999Y-36985447D01*
X34936000Y-36985446D01*
X34936000Y-36985445D01*
X35436000Y-36985445D01*
X35515511Y-36905935D01*
X35576834Y-36872450D01*
X35646526Y-36877434D01*
X35690874Y-36905934D01*
X35735999Y-36951058D01*
X35781124Y-36905934D01*
X35842447Y-36872449D01*
X35912139Y-36877433D01*
X35956487Y-36905934D01*
X36969065Y-37918512D01*
X37002550Y-37979835D01*
X36997566Y-38049527D01*
X36969065Y-38093874D01*
X36923939Y-38139000D01*
X36969064Y-38184125D01*
X37002549Y-38245448D01*
X36997565Y-38315140D01*
X36969065Y-38359487D01*
X36889553Y-38438999D01*
X36889553Y-38439000D01*
X37086000Y-38439000D01*
X37086000Y-37637407D01*
X37086390Y-37630459D01*
X37091062Y-37589000D01*
X37091062Y-37588998D01*
X37086390Y-37547539D01*
X37086000Y-37540591D01*
X37086000Y-37241172D01*
X37085999Y-37241155D01*
X37079598Y-37181627D01*
X37079596Y-37181620D01*
X37029354Y-37046913D01*
X37029350Y-37046906D01*
X36943190Y-36931812D01*
X36943187Y-36931809D01*
X36828093Y-36845649D01*
X36828086Y-36845645D01*
X36693379Y-36795403D01*
X36693372Y-36795401D01*
X36633844Y-36789000D01*
X36334409Y-36789000D01*
X36327461Y-36788610D01*
X36286002Y-36783938D01*
X36285998Y-36783938D01*
X36244539Y-36788610D01*
X36237591Y-36789000D01*
X35436000Y-36789000D01*
X35436000Y-36985445D01*
X34936000Y-36985445D01*
X34936000Y-36789000D01*
X34346914Y-36789000D01*
X34279875Y-36769315D01*
X34234120Y-36716511D01*
X34224176Y-36647353D01*
X34253201Y-36583797D01*
X34259225Y-36577327D01*
X35090914Y-35745637D01*
X35096999Y-35740301D01*
X35125282Y-35718600D01*
X35138785Y-35701002D01*
X36870751Y-35701002D01*
X36889685Y-35869056D01*
X36945545Y-36028694D01*
X36945547Y-36028697D01*
X37035518Y-36171884D01*
X37035523Y-36171890D01*
X37155109Y-36291476D01*
X37155115Y-36291481D01*
X37298302Y-36381452D01*
X37298305Y-36381454D01*
X37298309Y-36381455D01*
X37298310Y-36381456D01*
X37370913Y-36406860D01*
X37457943Y-36437314D01*
X37625997Y-36456249D01*
X37626000Y-36456249D01*
X37626003Y-36456249D01*
X37794056Y-36437314D01*
X37794059Y-36437313D01*
X37953690Y-36381456D01*
X37953692Y-36381454D01*
X37953694Y-36381454D01*
X37953697Y-36381452D01*
X38096884Y-36291481D01*
X38096885Y-36291480D01*
X38096890Y-36291477D01*
X38118588Y-36269779D01*
X47893643Y-36269779D01*
X47903918Y-36518234D01*
X47906439Y-36530255D01*
X47954861Y-36761187D01*
X47957500Y-36786629D01*
X47957500Y-55299751D01*
X47954861Y-55325198D01*
X47910918Y-55534765D01*
X47905098Y-55675499D01*
X47900643Y-55783221D01*
X47921986Y-55954445D01*
X47931401Y-56029981D01*
X48002356Y-56268315D01*
X48111566Y-56491708D01*
X48111570Y-56491715D01*
X48256069Y-56694098D01*
X48431901Y-56869930D01*
X48634284Y-57014429D01*
X48634291Y-57014433D01*
X48857684Y-57123643D01*
X48857686Y-57123643D01*
X48857687Y-57123644D01*
X49096019Y-57194599D01*
X49342779Y-57225357D01*
X49591237Y-57215081D01*
X49834614Y-57164049D01*
X49834618Y-57164047D01*
X49834623Y-57164046D01*
X49945153Y-57120916D01*
X50066274Y-57073656D01*
X50279894Y-56946366D01*
X50422126Y-56825902D01*
X50450413Y-56797613D01*
X50456179Y-56792522D01*
X50477739Y-56775742D01*
X50477739Y-56775741D01*
X50477744Y-56775738D01*
X50504653Y-56746506D01*
X50540959Y-56707069D01*
X50553931Y-56694096D01*
X50562901Y-56685126D01*
X50582955Y-56661447D01*
X50646164Y-56592785D01*
X50661117Y-56569894D01*
X50665697Y-56563754D01*
X50683366Y-56542894D01*
X50731134Y-56462727D01*
X50782173Y-56384607D01*
X50793148Y-56359584D01*
X50796668Y-56352747D01*
X50810655Y-56329274D01*
X50834442Y-56268313D01*
X50844574Y-56242348D01*
X50863318Y-56199614D01*
X50882063Y-56156881D01*
X50888774Y-56130374D01*
X50891112Y-56123077D01*
X50901049Y-56097614D01*
X50920196Y-56006297D01*
X50943108Y-55915821D01*
X50945364Y-55888583D01*
X50946471Y-55880980D01*
X50952080Y-55854237D01*
X50955936Y-55761005D01*
X50958500Y-55730067D01*
X50958500Y-55699026D01*
X50962357Y-55605779D01*
X50958975Y-55578653D01*
X50958500Y-55570981D01*
X50958500Y-52078935D01*
X53248631Y-52078935D01*
X53251070Y-52094861D01*
X53252499Y-52113634D01*
X53252500Y-52608283D01*
X53250243Y-52697362D01*
X53250243Y-52697370D01*
X53261064Y-52757739D01*
X53261718Y-52762404D01*
X53267925Y-52823430D01*
X53267927Y-52823444D01*
X53278208Y-52856213D01*
X53280079Y-52863837D01*
X53286142Y-52897652D01*
X53286142Y-52897655D01*
X53301710Y-52936629D01*
X53307113Y-52950155D01*
X53308894Y-52954612D01*
X53310474Y-52959051D01*
X53328841Y-53017588D01*
X53328844Y-53017595D01*
X53345509Y-53047619D01*
X53348879Y-53054714D01*
X53361031Y-53085136D01*
X53361622Y-53086614D01*
X53361627Y-53086624D01*
X53395377Y-53137833D01*
X53397818Y-53141863D01*
X53427588Y-53195498D01*
X53427589Y-53195499D01*
X53427591Y-53195502D01*
X53449968Y-53221567D01*
X53454693Y-53227835D01*
X53462830Y-53240181D01*
X53473598Y-53256519D01*
X53516978Y-53299899D01*
X53520169Y-53303343D01*
X53560131Y-53349892D01*
X53560130Y-53349892D01*
X53587299Y-53370923D01*
X53593186Y-53376107D01*
X67371420Y-67154340D01*
X67489593Y-67250698D01*
X67669951Y-67344909D01*
X67865582Y-67400887D01*
X67933213Y-67406036D01*
X68068474Y-67416337D01*
X68068476Y-67416337D01*
X68068477Y-67416337D01*
X68270321Y-67390631D01*
X68270321Y-67390630D01*
X68270328Y-67390630D01*
X68462872Y-67324816D01*
X68638227Y-67221590D01*
X68789213Y-67085179D01*
X68909649Y-66921167D01*
X68994605Y-66736268D01*
X69008884Y-66674738D01*
X69040602Y-66538054D01*
X69045757Y-66334642D01*
X69045756Y-66334641D01*
X69045757Y-66334637D01*
X69009858Y-66134347D01*
X68934377Y-65945383D01*
X68934372Y-65945376D01*
X68934370Y-65945371D01*
X68822403Y-65775482D01*
X68822400Y-65775478D01*
X68613927Y-65567005D01*
X72721357Y-65567005D01*
X72741890Y-65814812D01*
X72741892Y-65814824D01*
X72802936Y-66055881D01*
X72902826Y-66283606D01*
X73038833Y-66491782D01*
X73038836Y-66491785D01*
X73207256Y-66674738D01*
X73403491Y-66827474D01*
X73622190Y-66945828D01*
X73857386Y-67026571D01*
X74102665Y-67067500D01*
X74351335Y-67067500D01*
X74596614Y-67026571D01*
X74831810Y-66945828D01*
X75050509Y-66827474D01*
X75246744Y-66674738D01*
X75415164Y-66491785D01*
X75551173Y-66283607D01*
X75651063Y-66055881D01*
X75712108Y-65814821D01*
X75715368Y-65775478D01*
X75732643Y-65567005D01*
X75732643Y-65566994D01*
X75712109Y-65319187D01*
X75712107Y-65319175D01*
X75651063Y-65078118D01*
X75551173Y-64850393D01*
X75415166Y-64642217D01*
X75374302Y-64597827D01*
X75246744Y-64459262D01*
X75050509Y-64306526D01*
X75050507Y-64306525D01*
X75050506Y-64306524D01*
X74831811Y-64188172D01*
X74831802Y-64188169D01*
X74596616Y-64107429D01*
X74351335Y-64066500D01*
X74102665Y-64066500D01*
X73857383Y-64107429D01*
X73622197Y-64188169D01*
X73622188Y-64188172D01*
X73403493Y-64306524D01*
X73207257Y-64459261D01*
X73038833Y-64642217D01*
X72902826Y-64850393D01*
X72802936Y-65078118D01*
X72741892Y-65319175D01*
X72741890Y-65319187D01*
X72721357Y-65566994D01*
X72721357Y-65567005D01*
X68613927Y-65567005D01*
X66113927Y-63067005D01*
X67721357Y-63067005D01*
X67741890Y-63314812D01*
X67741892Y-63314824D01*
X67802936Y-63555881D01*
X67902826Y-63783606D01*
X68038833Y-63991782D01*
X68038836Y-63991785D01*
X68207256Y-64174738D01*
X68403491Y-64327474D01*
X68622190Y-64445828D01*
X68857386Y-64526571D01*
X69102665Y-64567500D01*
X69351335Y-64567500D01*
X69596614Y-64526571D01*
X69831810Y-64445828D01*
X70050509Y-64327474D01*
X70246744Y-64174738D01*
X70415164Y-63991785D01*
X70551173Y-63783607D01*
X70651063Y-63555881D01*
X70712108Y-63314821D01*
X70712109Y-63314812D01*
X70732643Y-63067005D01*
X70732643Y-63066994D01*
X70712109Y-62819187D01*
X70712107Y-62819175D01*
X70651063Y-62578118D01*
X70551173Y-62350393D01*
X70415166Y-62142217D01*
X70393557Y-62118744D01*
X70246744Y-61959262D01*
X70050509Y-61806526D01*
X70050507Y-61806525D01*
X70050506Y-61806524D01*
X69831811Y-61688172D01*
X69831802Y-61688169D01*
X69596616Y-61607429D01*
X69351335Y-61566500D01*
X69102665Y-61566500D01*
X68857383Y-61607429D01*
X68622197Y-61688169D01*
X68622188Y-61688172D01*
X68403493Y-61806524D01*
X68207257Y-61959261D01*
X68038833Y-62142217D01*
X67902826Y-62350393D01*
X67802936Y-62578118D01*
X67741892Y-62819175D01*
X67741890Y-62819187D01*
X67721357Y-63066994D01*
X67721357Y-63067005D01*
X66113927Y-63067005D01*
X63613926Y-60567005D01*
X72721859Y-60567005D01*
X72742385Y-60814729D01*
X72742387Y-60814738D01*
X72803412Y-61055717D01*
X72903266Y-61283364D01*
X73003564Y-61436882D01*
X73664226Y-60776219D01*
X73702901Y-60869588D01*
X73799075Y-60994925D01*
X73924412Y-61091099D01*
X74017779Y-61129772D01*
X73356942Y-61790609D01*
X73403768Y-61827055D01*
X73403770Y-61827056D01*
X73622385Y-61945364D01*
X73622396Y-61945369D01*
X73857506Y-62026083D01*
X74102707Y-62067000D01*
X74351293Y-62067000D01*
X74596493Y-62026083D01*
X74831603Y-61945369D01*
X74831614Y-61945364D01*
X75050228Y-61827057D01*
X75050231Y-61827055D01*
X75097056Y-61790609D01*
X74436220Y-61129773D01*
X74529588Y-61091099D01*
X74654925Y-60994925D01*
X74751099Y-60869589D01*
X74789773Y-60776220D01*
X75450434Y-61436882D01*
X75550731Y-61283369D01*
X75650587Y-61055717D01*
X75711612Y-60814738D01*
X75711614Y-60814729D01*
X75732141Y-60567005D01*
X75732141Y-60566994D01*
X75711614Y-60319270D01*
X75711612Y-60319261D01*
X75650587Y-60078282D01*
X75550731Y-59850630D01*
X75450434Y-59697116D01*
X74789772Y-60357778D01*
X74751099Y-60264412D01*
X74654925Y-60139075D01*
X74529588Y-60042901D01*
X74436220Y-60004227D01*
X75097057Y-59343390D01*
X75097056Y-59343389D01*
X75050229Y-59306943D01*
X74831614Y-59188635D01*
X74831603Y-59188630D01*
X74596493Y-59107916D01*
X74351293Y-59067000D01*
X74102707Y-59067000D01*
X73857506Y-59107916D01*
X73622396Y-59188630D01*
X73622390Y-59188632D01*
X73403761Y-59306949D01*
X73356942Y-59343388D01*
X73356942Y-59343390D01*
X74017779Y-60004227D01*
X73924412Y-60042901D01*
X73799075Y-60139075D01*
X73702901Y-60264411D01*
X73664227Y-60357779D01*
X73003564Y-59697116D01*
X72903267Y-59850632D01*
X72803412Y-60078282D01*
X72742387Y-60319261D01*
X72742385Y-60319270D01*
X72721859Y-60566994D01*
X72721859Y-60567005D01*
X63613926Y-60567005D01*
X61113926Y-58067005D01*
X67721859Y-58067005D01*
X67742385Y-58314729D01*
X67742387Y-58314738D01*
X67803412Y-58555717D01*
X67903266Y-58783364D01*
X68003564Y-58936882D01*
X68664226Y-58276219D01*
X68702901Y-58369588D01*
X68799075Y-58494925D01*
X68924412Y-58591099D01*
X69017779Y-58629772D01*
X68356942Y-59290609D01*
X68403768Y-59327055D01*
X68403770Y-59327056D01*
X68622385Y-59445364D01*
X68622396Y-59445369D01*
X68857506Y-59526083D01*
X69102707Y-59567000D01*
X69351293Y-59567000D01*
X69596493Y-59526083D01*
X69831603Y-59445369D01*
X69831614Y-59445364D01*
X70050228Y-59327057D01*
X70050231Y-59327055D01*
X70097056Y-59290609D01*
X69436220Y-58629773D01*
X69529588Y-58591099D01*
X69654925Y-58494925D01*
X69751099Y-58369589D01*
X69789773Y-58276220D01*
X70450434Y-58936882D01*
X70550731Y-58783369D01*
X70650587Y-58555717D01*
X70711612Y-58314738D01*
X70711614Y-58314729D01*
X70732141Y-58067005D01*
X70732141Y-58066994D01*
X70711614Y-57819270D01*
X70711612Y-57819261D01*
X70650587Y-57578282D01*
X70550731Y-57350630D01*
X70450434Y-57197116D01*
X69789772Y-57857778D01*
X69751099Y-57764412D01*
X69654925Y-57639075D01*
X69529588Y-57542901D01*
X69436220Y-57504227D01*
X70097057Y-56843390D01*
X70097056Y-56843389D01*
X70050229Y-56806943D01*
X69831614Y-56688635D01*
X69831603Y-56688630D01*
X69596493Y-56607916D01*
X69351293Y-56567000D01*
X69102707Y-56567000D01*
X68857506Y-56607916D01*
X68622396Y-56688630D01*
X68622390Y-56688632D01*
X68403761Y-56806949D01*
X68356942Y-56843388D01*
X68356942Y-56843390D01*
X69017779Y-57504227D01*
X68924412Y-57542901D01*
X68799075Y-57639075D01*
X68702901Y-57764411D01*
X68664227Y-57857779D01*
X68003564Y-57197116D01*
X67903267Y-57350632D01*
X67803412Y-57578282D01*
X67742387Y-57819261D01*
X67742385Y-57819270D01*
X67721859Y-58066994D01*
X67721859Y-58067005D01*
X61113926Y-58067005D01*
X56287101Y-53240181D01*
X56253616Y-53178858D01*
X56258600Y-53109166D01*
X56300472Y-53053233D01*
X56365936Y-53028816D01*
X56374782Y-53028500D01*
X58595215Y-53028500D01*
X58662254Y-53048185D01*
X58676417Y-53058787D01*
X58706822Y-53085133D01*
X58706830Y-53085139D01*
X58827778Y-53162868D01*
X58827780Y-53162868D01*
X58827784Y-53162871D01*
X58958700Y-53222658D01*
X59096655Y-53263165D01*
X59239111Y-53283647D01*
X59239114Y-53283647D01*
X59811000Y-53283647D01*
X59882961Y-53278500D01*
X59920270Y-53267544D01*
X59972848Y-53263784D01*
X60111000Y-53283647D01*
X60111003Y-53283647D01*
X60682886Y-53283647D01*
X60682889Y-53283647D01*
X60825345Y-53263165D01*
X60963300Y-53222658D01*
X61094216Y-53162871D01*
X61177783Y-53109166D01*
X61215169Y-53085140D01*
X61215166Y-53085143D01*
X61247890Y-53056787D01*
X61311446Y-53027762D01*
X61329093Y-53026500D01*
X66260743Y-53026500D01*
X66412439Y-53011074D01*
X66606579Y-52950162D01*
X66606580Y-52950161D01*
X66606588Y-52950159D01*
X66784502Y-52851409D01*
X66938895Y-52718866D01*
X67063448Y-52557958D01*
X67153060Y-52375271D01*
X67204063Y-52178285D01*
X67209680Y-52067519D01*
X67232733Y-52001567D01*
X67287787Y-51958545D01*
X67357360Y-51952116D01*
X67419364Y-51984323D01*
X67421201Y-51986122D01*
X68576181Y-53141101D01*
X68609666Y-53202424D01*
X68612500Y-53228782D01*
X68612500Y-55151743D01*
X68627925Y-55303439D01*
X68688837Y-55497579D01*
X68688844Y-55497594D01*
X68787589Y-55675499D01*
X68787592Y-55675504D01*
X68920132Y-55829893D01*
X68920134Y-55829895D01*
X69081037Y-55954445D01*
X69081038Y-55954445D01*
X69081042Y-55954448D01*
X69263729Y-56044060D01*
X69460715Y-56095063D01*
X69663936Y-56105369D01*
X69865071Y-56074556D01*
X70055887Y-56003886D01*
X70228571Y-55896252D01*
X70376053Y-55756059D01*
X70492295Y-55589049D01*
X70572540Y-55402058D01*
X70613500Y-55202741D01*
X70613500Y-52775715D01*
X70615757Y-52686637D01*
X70604933Y-52626249D01*
X70604280Y-52621587D01*
X70598074Y-52560563D01*
X70595422Y-52552111D01*
X70587784Y-52527768D01*
X70585917Y-52520155D01*
X70579858Y-52486347D01*
X70579857Y-52486345D01*
X70557102Y-52429379D01*
X70555521Y-52424938D01*
X70555173Y-52423830D01*
X70537159Y-52366412D01*
X70537158Y-52366410D01*
X70537157Y-52366407D01*
X70520488Y-52336378D01*
X70517117Y-52329278D01*
X70504378Y-52297386D01*
X70504377Y-52297383D01*
X70470620Y-52246163D01*
X70468180Y-52242134D01*
X70457379Y-52222675D01*
X70438409Y-52188498D01*
X70438407Y-52188495D01*
X70416033Y-52162434D01*
X70411302Y-52156159D01*
X70409047Y-52152738D01*
X70392402Y-52127481D01*
X70349012Y-52084091D01*
X70345822Y-52080648D01*
X70305867Y-52034106D01*
X70305863Y-52034102D01*
X70278698Y-52013074D01*
X70272803Y-52007882D01*
X69309926Y-51045005D01*
X72721357Y-51045005D01*
X72741890Y-51292812D01*
X72741892Y-51292824D01*
X72802936Y-51533881D01*
X72902826Y-51761606D01*
X73038833Y-51969782D01*
X73052219Y-51984323D01*
X73207256Y-52152738D01*
X73403491Y-52305474D01*
X73403493Y-52305475D01*
X73581999Y-52402078D01*
X73622190Y-52423828D01*
X73857386Y-52504571D01*
X74102665Y-52545500D01*
X74351335Y-52545500D01*
X74596614Y-52504571D01*
X74831810Y-52423828D01*
X75050509Y-52305474D01*
X75246744Y-52152738D01*
X75415164Y-51969785D01*
X75551173Y-51761607D01*
X75651063Y-51533881D01*
X75712108Y-51292821D01*
X75712640Y-51286400D01*
X75732643Y-51045005D01*
X75732643Y-51044994D01*
X75712109Y-50797187D01*
X75712107Y-50797175D01*
X75651063Y-50556118D01*
X75551173Y-50328393D01*
X75415166Y-50120217D01*
X75367219Y-50068133D01*
X75246744Y-49937262D01*
X75050509Y-49784526D01*
X75050507Y-49784525D01*
X75050506Y-49784524D01*
X74831811Y-49666172D01*
X74831802Y-49666169D01*
X74596616Y-49585429D01*
X74351335Y-49544500D01*
X74102665Y-49544500D01*
X73857383Y-49585429D01*
X73622197Y-49666169D01*
X73622188Y-49666172D01*
X73403493Y-49784524D01*
X73313290Y-49854732D01*
X73207256Y-49937262D01*
X73200398Y-49944712D01*
X73038833Y-50120217D01*
X72902826Y-50328393D01*
X72802936Y-50556118D01*
X72741892Y-50797175D01*
X72741890Y-50797187D01*
X72721357Y-51044994D01*
X72721357Y-51045005D01*
X69309926Y-51045005D01*
X68279324Y-50014403D01*
X68245839Y-49953080D01*
X68250823Y-49883388D01*
X68292695Y-49827455D01*
X68358159Y-49803038D01*
X68426020Y-49817666D01*
X68622190Y-49923828D01*
X68857386Y-50004571D01*
X69102665Y-50045500D01*
X69351335Y-50045500D01*
X69596614Y-50004571D01*
X69831810Y-49923828D01*
X70050509Y-49805474D01*
X70246744Y-49652738D01*
X70415164Y-49469785D01*
X70551173Y-49261607D01*
X70651063Y-49033881D01*
X70712108Y-48792821D01*
X70719477Y-48703890D01*
X70732643Y-48545005D01*
X70732643Y-48544994D01*
X70712109Y-48297187D01*
X70712107Y-48297175D01*
X70651063Y-48056118D01*
X70551173Y-47828393D01*
X70415166Y-47620217D01*
X70351125Y-47550650D01*
X70246744Y-47437262D01*
X70050509Y-47284526D01*
X70050507Y-47284525D01*
X70050506Y-47284524D01*
X69831811Y-47166172D01*
X69831802Y-47166169D01*
X69596616Y-47085429D01*
X69351335Y-47044500D01*
X69102665Y-47044500D01*
X68857383Y-47085429D01*
X68622197Y-47166169D01*
X68622188Y-47166172D01*
X68403493Y-47284524D01*
X68207257Y-47437261D01*
X68038833Y-47620217D01*
X67902826Y-47828393D01*
X67802936Y-48056118D01*
X67741892Y-48297175D01*
X67741890Y-48297187D01*
X67721357Y-48544994D01*
X67721357Y-48545005D01*
X67741890Y-48792812D01*
X67741892Y-48792824D01*
X67802936Y-49033881D01*
X67902826Y-49261606D01*
X67958057Y-49346144D01*
X67978245Y-49413034D01*
X67959064Y-49480219D01*
X67906605Y-49526369D01*
X67837523Y-49536832D01*
X67773751Y-49508285D01*
X67766567Y-49501646D01*
X65249452Y-46984532D01*
X65188061Y-46919949D01*
X65188060Y-46919948D01*
X65188059Y-46919947D01*
X65160204Y-46900559D01*
X65137709Y-46884902D01*
X65133946Y-46882064D01*
X65086413Y-46843305D01*
X65086406Y-46843300D01*
X65055959Y-46827397D01*
X65049251Y-46823334D01*
X65021049Y-46803705D01*
X65021046Y-46803703D01*
X65021045Y-46803703D01*
X65021041Y-46803701D01*
X64964680Y-46779514D01*
X64960424Y-46777493D01*
X64906057Y-46749094D01*
X64906050Y-46749091D01*
X64906049Y-46749091D01*
X64900008Y-46747362D01*
X64873030Y-46739642D01*
X64865630Y-46737008D01*
X64834057Y-46723459D01*
X64834058Y-46723459D01*
X64773966Y-46711109D01*
X64769391Y-46709986D01*
X64710420Y-46693113D01*
X64710425Y-46693113D01*
X64676158Y-46690503D01*
X64668380Y-46689412D01*
X64634742Y-46682500D01*
X64634741Y-46682500D01*
X64573402Y-46682500D01*
X64568695Y-46682321D01*
X64563121Y-46681896D01*
X64507524Y-46677662D01*
X64487589Y-46680201D01*
X64473440Y-46682003D01*
X64465611Y-46682500D01*
X57541782Y-46682500D01*
X57474743Y-46662815D01*
X57454101Y-46646181D01*
X56918101Y-46110181D01*
X56884616Y-46048858D01*
X56889600Y-45979166D01*
X56931472Y-45923233D01*
X56996936Y-45898816D01*
X57005782Y-45898500D01*
X58595215Y-45898500D01*
X58662254Y-45918185D01*
X58676417Y-45928787D01*
X58706822Y-45955133D01*
X58706830Y-45955139D01*
X58827778Y-46032868D01*
X58827780Y-46032868D01*
X58827784Y-46032871D01*
X58958700Y-46092658D01*
X59096655Y-46133165D01*
X59239111Y-46153647D01*
X59239114Y-46153647D01*
X59811000Y-46153647D01*
X59882961Y-46148500D01*
X59920270Y-46137544D01*
X59972848Y-46133784D01*
X60111000Y-46153647D01*
X60111003Y-46153647D01*
X60682886Y-46153647D01*
X60682889Y-46153647D01*
X60825345Y-46133165D01*
X60963300Y-46092658D01*
X61067646Y-46045005D01*
X72721859Y-46045005D01*
X72742385Y-46292729D01*
X72742387Y-46292738D01*
X72803412Y-46533717D01*
X72903266Y-46761364D01*
X73003564Y-46914882D01*
X73664226Y-46254219D01*
X73702901Y-46347588D01*
X73799075Y-46472925D01*
X73924412Y-46569099D01*
X74017779Y-46607772D01*
X73356942Y-47268609D01*
X73403768Y-47305055D01*
X73403770Y-47305056D01*
X73622385Y-47423364D01*
X73622396Y-47423369D01*
X73857506Y-47504083D01*
X74102707Y-47545000D01*
X74351293Y-47545000D01*
X74596493Y-47504083D01*
X74831603Y-47423369D01*
X74831614Y-47423364D01*
X75050228Y-47305057D01*
X75050231Y-47305055D01*
X75097056Y-47268609D01*
X74436220Y-46607773D01*
X74529588Y-46569099D01*
X74654925Y-46472925D01*
X74751099Y-46347589D01*
X74789773Y-46254220D01*
X75450434Y-46914882D01*
X75550731Y-46761369D01*
X75650587Y-46533717D01*
X75711612Y-46292738D01*
X75711614Y-46292729D01*
X75732141Y-46045005D01*
X75732141Y-46044994D01*
X75711614Y-45797270D01*
X75711612Y-45797261D01*
X75650587Y-45556282D01*
X75550731Y-45328630D01*
X75450434Y-45175116D01*
X74789772Y-45835778D01*
X74751099Y-45742412D01*
X74654925Y-45617075D01*
X74529588Y-45520901D01*
X74436220Y-45482227D01*
X75097057Y-44821390D01*
X75097056Y-44821389D01*
X75050229Y-44784943D01*
X74831614Y-44666635D01*
X74831603Y-44666630D01*
X74596493Y-44585916D01*
X74351293Y-44545000D01*
X74102707Y-44545000D01*
X73857506Y-44585916D01*
X73622396Y-44666630D01*
X73622390Y-44666632D01*
X73403761Y-44784949D01*
X73356942Y-44821388D01*
X73356942Y-44821390D01*
X74017779Y-45482227D01*
X73924412Y-45520901D01*
X73799075Y-45617075D01*
X73702901Y-45742411D01*
X73664227Y-45835779D01*
X73003564Y-45175116D01*
X72903267Y-45328632D01*
X72803412Y-45556282D01*
X72742387Y-45797261D01*
X72742385Y-45797270D01*
X72721859Y-46044994D01*
X72721859Y-46045005D01*
X61067646Y-46045005D01*
X61094216Y-46032871D01*
X61215164Y-45955143D01*
X61215169Y-45955140D01*
X61215166Y-45955143D01*
X61245583Y-45928787D01*
X61309138Y-45899762D01*
X61326785Y-45898500D01*
X66182284Y-45898500D01*
X66271358Y-45900757D01*
X66271358Y-45900756D01*
X66271363Y-45900757D01*
X66331753Y-45889932D01*
X66336412Y-45889280D01*
X66378607Y-45884988D01*
X66397438Y-45883074D01*
X66430227Y-45872786D01*
X66437840Y-45870918D01*
X66471653Y-45864858D01*
X66528621Y-45842101D01*
X66533053Y-45840524D01*
X66591588Y-45822159D01*
X66621627Y-45805484D01*
X66628708Y-45802122D01*
X66660617Y-45789377D01*
X66711854Y-45755608D01*
X66715851Y-45753187D01*
X66769502Y-45723409D01*
X66795568Y-45701030D01*
X66801843Y-45696300D01*
X66809207Y-45691447D01*
X66830519Y-45677402D01*
X66873917Y-45634002D01*
X66877336Y-45630834D01*
X66923895Y-45590866D01*
X66954206Y-45551706D01*
X67041697Y-45444408D01*
X67135909Y-45264049D01*
X67191886Y-45068418D01*
X67207336Y-44865524D01*
X67181630Y-44663673D01*
X67115816Y-44471128D01*
X67114407Y-44468735D01*
X67012593Y-44295778D01*
X67012592Y-44295777D01*
X67012590Y-44295773D01*
X66876179Y-44144787D01*
X66846223Y-44122790D01*
X66712171Y-44024353D01*
X66712164Y-44024349D01*
X66527274Y-43939397D01*
X66527261Y-43939392D01*
X66329053Y-43893397D01*
X66125638Y-43888244D01*
X66125633Y-43888244D01*
X66084844Y-43895555D01*
X66062969Y-43897500D01*
X61326785Y-43897500D01*
X61259746Y-43877815D01*
X61245583Y-43867213D01*
X61215174Y-43840864D01*
X61215164Y-43840857D01*
X61094221Y-43763131D01*
X61094217Y-43763129D01*
X61094216Y-43763129D01*
X60963300Y-43703342D01*
X60865158Y-43674525D01*
X60825342Y-43662834D01*
X60682889Y-43642353D01*
X60111000Y-43642353D01*
X60039040Y-43647499D01*
X60001728Y-43658455D01*
X59949149Y-43662215D01*
X59811000Y-43642353D01*
X59239111Y-43642353D01*
X59239110Y-43642353D01*
X59096658Y-43662834D01*
X59096656Y-43662834D01*
X58958700Y-43703342D01*
X58827784Y-43763129D01*
X58827782Y-43763129D01*
X58706831Y-43840860D01*
X58676417Y-43867213D01*
X58612862Y-43896238D01*
X58595215Y-43897500D01*
X54331402Y-43897500D01*
X54326695Y-43897321D01*
X54265524Y-43892663D01*
X54177168Y-43903915D01*
X54088559Y-43912926D01*
X54086874Y-43913455D01*
X54065432Y-43918145D01*
X54064465Y-43918268D01*
X54063671Y-43918370D01*
X53979379Y-43947182D01*
X53894414Y-43973839D01*
X53892857Y-43974704D01*
X53872814Y-43983607D01*
X53871131Y-43984182D01*
X53871123Y-43984186D01*
X53794381Y-44029361D01*
X53716501Y-44072588D01*
X53716491Y-44072595D01*
X53715138Y-44073757D01*
X53697302Y-44086509D01*
X53695777Y-44087406D01*
X53695771Y-44087411D01*
X53629692Y-44147111D01*
X53562099Y-44205139D01*
X53561016Y-44206539D01*
X53546104Y-44222630D01*
X53544791Y-44223816D01*
X53492082Y-44295594D01*
X53437551Y-44366042D01*
X53437548Y-44366047D01*
X53436768Y-44367638D01*
X53425400Y-44386403D01*
X53424350Y-44387832D01*
X53387177Y-44468735D01*
X53347941Y-44548725D01*
X53347937Y-44548737D01*
X53347492Y-44550456D01*
X53340138Y-44571112D01*
X53339400Y-44572718D01*
X53339392Y-44572740D01*
X53319258Y-44659503D01*
X53296936Y-44745718D01*
X53296846Y-44747490D01*
X53293801Y-44769201D01*
X53293396Y-44770944D01*
X53291140Y-44860023D01*
X53286631Y-44948935D01*
X53286632Y-44948949D01*
X53286899Y-44950693D01*
X53288288Y-44972579D01*
X53288243Y-44974358D01*
X53288243Y-44974363D01*
X53303959Y-45062049D01*
X53317443Y-45150068D01*
X53317444Y-45150074D01*
X53318058Y-45151730D01*
X53323828Y-45172906D01*
X53324142Y-45174653D01*
X53343946Y-45224233D01*
X53357181Y-45257367D01*
X53388110Y-45340880D01*
X53388111Y-45340881D01*
X53388112Y-45340884D01*
X53388114Y-45340887D01*
X53389054Y-45342396D01*
X53398965Y-45361970D01*
X53399622Y-45363615D01*
X53448626Y-45437971D01*
X53495748Y-45513571D01*
X53495751Y-45513574D01*
X53496969Y-45514856D01*
X53510622Y-45532039D01*
X53511594Y-45533515D01*
X53511598Y-45533519D01*
X53574566Y-45596487D01*
X53635941Y-45661053D01*
X53637387Y-45662059D01*
X53654234Y-45676155D01*
X56359566Y-48381487D01*
X56420938Y-48446050D01*
X56420941Y-48446053D01*
X56471281Y-48481092D01*
X56475043Y-48483928D01*
X56522587Y-48522694D01*
X56522590Y-48522695D01*
X56522593Y-48522698D01*
X56553045Y-48538604D01*
X56559758Y-48542672D01*
X56587951Y-48562295D01*
X56644329Y-48586489D01*
X56648578Y-48588507D01*
X56702951Y-48616909D01*
X56730489Y-48624788D01*
X56735974Y-48626358D01*
X56743368Y-48628990D01*
X56774942Y-48642540D01*
X56774945Y-48642540D01*
X56774946Y-48642541D01*
X56835022Y-48654887D01*
X56839600Y-48656010D01*
X56853501Y-48659987D01*
X56898582Y-48672887D01*
X56932839Y-48675495D01*
X56940614Y-48676586D01*
X56974255Y-48683500D01*
X56974259Y-48683500D01*
X57035599Y-48683500D01*
X57040305Y-48683678D01*
X57075063Y-48686325D01*
X57101476Y-48688337D01*
X57101476Y-48688336D01*
X57101477Y-48688337D01*
X57135560Y-48683996D01*
X57143390Y-48683500D01*
X64067217Y-48683500D01*
X64134256Y-48703185D01*
X64154898Y-48719819D01*
X65289816Y-49854737D01*
X66248899Y-50813819D01*
X66282384Y-50875142D01*
X66277400Y-50944834D01*
X66235528Y-51000767D01*
X66170064Y-51025184D01*
X66161218Y-51025500D01*
X61324477Y-51025500D01*
X61257438Y-51005815D01*
X61243275Y-50995214D01*
X61242123Y-50994216D01*
X61215170Y-50970861D01*
X61215164Y-50970857D01*
X61094221Y-50893131D01*
X61094217Y-50893129D01*
X61094216Y-50893129D01*
X60963300Y-50833342D01*
X60863360Y-50803997D01*
X60825342Y-50792834D01*
X60682889Y-50772353D01*
X60111000Y-50772353D01*
X60039040Y-50777499D01*
X60001728Y-50788455D01*
X59949149Y-50792215D01*
X59811000Y-50772353D01*
X59239111Y-50772353D01*
X59239110Y-50772353D01*
X59096658Y-50792834D01*
X59096656Y-50792834D01*
X58958700Y-50833342D01*
X58827784Y-50893129D01*
X58827782Y-50893129D01*
X58706831Y-50970860D01*
X58706829Y-50970861D01*
X58706830Y-50970861D01*
X58706826Y-50970864D01*
X58705447Y-50972059D01*
X58676417Y-50997213D01*
X58612862Y-51026238D01*
X58595215Y-51027500D01*
X54279929Y-51027500D01*
X54276789Y-51027420D01*
X54202065Y-51023631D01*
X54202058Y-51023631D01*
X54128124Y-51034957D01*
X54125010Y-51035354D01*
X54050566Y-51042925D01*
X54050557Y-51042927D01*
X54035187Y-51047749D01*
X54016858Y-51052003D01*
X54000929Y-51054444D01*
X54000926Y-51054445D01*
X53930773Y-51080425D01*
X53927802Y-51081441D01*
X53856412Y-51103840D01*
X53842322Y-51111661D01*
X53825220Y-51119518D01*
X53810118Y-51125111D01*
X53810108Y-51125116D01*
X53746626Y-51164685D01*
X53743919Y-51166278D01*
X53678506Y-51202585D01*
X53678499Y-51202590D01*
X53666278Y-51213081D01*
X53651114Y-51224216D01*
X53637430Y-51232746D01*
X53637427Y-51232749D01*
X53583200Y-51284295D01*
X53580870Y-51286400D01*
X53524108Y-51335129D01*
X53524102Y-51335136D01*
X53514243Y-51347872D01*
X53501631Y-51361832D01*
X53489949Y-51372938D01*
X53489948Y-51372939D01*
X53447215Y-51434335D01*
X53445356Y-51436865D01*
X53399550Y-51496043D01*
X53392452Y-51510513D01*
X53382907Y-51526728D01*
X53373706Y-51539948D01*
X53373705Y-51539949D01*
X53344199Y-51608704D01*
X53342888Y-51611556D01*
X53309939Y-51678729D01*
X53309938Y-51678733D01*
X53305901Y-51694324D01*
X53299815Y-51712129D01*
X53293461Y-51726937D01*
X53278399Y-51800225D01*
X53277689Y-51803285D01*
X53258936Y-51875716D01*
X53258119Y-51891811D01*
X53255743Y-51910474D01*
X53252500Y-51926260D01*
X53252500Y-52001070D01*
X53252420Y-52004210D01*
X53248631Y-52078935D01*
X50958500Y-52078935D01*
X50958500Y-43545005D01*
X67721859Y-43545005D01*
X67742386Y-43792734D01*
X67803412Y-44033717D01*
X67903266Y-44261364D01*
X68003564Y-44414882D01*
X68664226Y-43754219D01*
X68702901Y-43847588D01*
X68799075Y-43972925D01*
X68924412Y-44069099D01*
X69017779Y-44107772D01*
X68356942Y-44768609D01*
X68403768Y-44805055D01*
X68403770Y-44805056D01*
X68622385Y-44923364D01*
X68622396Y-44923369D01*
X68857506Y-45004083D01*
X69102707Y-45045000D01*
X69351293Y-45045000D01*
X69596493Y-45004083D01*
X69831603Y-44923369D01*
X69831614Y-44923364D01*
X70050228Y-44805057D01*
X70050231Y-44805055D01*
X70097056Y-44768609D01*
X69436220Y-44107773D01*
X69529588Y-44069099D01*
X69654925Y-43972925D01*
X69751099Y-43847589D01*
X69789773Y-43754220D01*
X70450434Y-44414882D01*
X70550731Y-44261369D01*
X70650587Y-44033717D01*
X70711613Y-43792734D01*
X70732141Y-43545005D01*
X70732141Y-43544994D01*
X70711614Y-43297270D01*
X70711612Y-43297261D01*
X70650587Y-43056282D01*
X70550731Y-42828630D01*
X70450434Y-42675116D01*
X69789772Y-43335778D01*
X69751099Y-43242412D01*
X69654925Y-43117075D01*
X69529588Y-43020901D01*
X69436220Y-42982227D01*
X70097057Y-42321390D01*
X70097056Y-42321389D01*
X70050229Y-42284943D01*
X69831614Y-42166635D01*
X69831603Y-42166630D01*
X69596493Y-42085916D01*
X69351293Y-42045000D01*
X69102707Y-42045000D01*
X68857506Y-42085916D01*
X68622396Y-42166630D01*
X68622390Y-42166632D01*
X68403761Y-42284949D01*
X68356942Y-42321388D01*
X68356942Y-42321390D01*
X69017779Y-42982227D01*
X68924412Y-43020901D01*
X68799075Y-43117075D01*
X68702901Y-43242411D01*
X68664227Y-43335779D01*
X68003564Y-42675116D01*
X67903267Y-42828632D01*
X67803412Y-43056282D01*
X67742387Y-43297261D01*
X67742385Y-43297270D01*
X67721859Y-43544994D01*
X67721859Y-43545005D01*
X50958500Y-43545005D01*
X50958500Y-38109935D01*
X53178631Y-38109935D01*
X53178632Y-38109949D01*
X53178899Y-38111693D01*
X53180288Y-38133579D01*
X53180243Y-38135358D01*
X53180243Y-38135363D01*
X53195959Y-38223049D01*
X53209443Y-38311068D01*
X53209444Y-38311074D01*
X53210058Y-38312730D01*
X53215828Y-38333906D01*
X53216142Y-38335653D01*
X53235946Y-38385233D01*
X53249181Y-38418367D01*
X53280110Y-38501880D01*
X53280111Y-38501881D01*
X53280112Y-38501884D01*
X53280114Y-38501887D01*
X53281054Y-38503396D01*
X53290965Y-38522970D01*
X53291622Y-38524615D01*
X53340626Y-38598971D01*
X53387748Y-38674571D01*
X53387751Y-38674574D01*
X53388969Y-38675856D01*
X53402622Y-38693039D01*
X53403594Y-38694515D01*
X53403598Y-38694519D01*
X53466566Y-38757487D01*
X53527941Y-38822053D01*
X53529387Y-38823059D01*
X53546234Y-38837155D01*
X55933547Y-41224468D01*
X55994938Y-41289051D01*
X55994943Y-41289055D01*
X56025545Y-41310354D01*
X56045303Y-41324106D01*
X56049044Y-41326926D01*
X56096593Y-41365698D01*
X56127045Y-41381604D01*
X56133756Y-41385671D01*
X56138758Y-41389152D01*
X56161951Y-41405295D01*
X56218329Y-41429489D01*
X56222578Y-41431507D01*
X56276951Y-41459909D01*
X56304489Y-41467788D01*
X56309974Y-41469358D01*
X56317368Y-41471990D01*
X56348942Y-41485540D01*
X56348945Y-41485540D01*
X56348946Y-41485541D01*
X56409022Y-41497887D01*
X56413600Y-41499010D01*
X56427501Y-41502987D01*
X56472582Y-41515887D01*
X56506839Y-41518495D01*
X56514614Y-41519586D01*
X56548255Y-41526500D01*
X56548259Y-41526500D01*
X56609598Y-41526500D01*
X56614304Y-41526678D01*
X56649062Y-41529325D01*
X56675475Y-41531337D01*
X56675475Y-41531336D01*
X56675476Y-41531337D01*
X56709559Y-41526996D01*
X56717389Y-41526500D01*
X68527743Y-41526500D01*
X68679439Y-41511074D01*
X68873579Y-41450162D01*
X68873580Y-41450161D01*
X68873588Y-41450159D01*
X69051502Y-41351409D01*
X69205895Y-41218866D01*
X69328444Y-41060547D01*
X69330445Y-41057962D01*
X69330445Y-41057961D01*
X69330448Y-41057958D01*
X69420060Y-40875271D01*
X69471063Y-40678285D01*
X69481369Y-40475064D01*
X69450556Y-40273929D01*
X69379886Y-40083113D01*
X69280390Y-39923486D01*
X69272254Y-39910432D01*
X69272250Y-39910427D01*
X69132061Y-39762949D01*
X69132060Y-39762948D01*
X69132059Y-39762947D01*
X69015992Y-39682162D01*
X68965050Y-39646705D01*
X68778056Y-39566459D01*
X68578741Y-39525500D01*
X60852929Y-39525500D01*
X60785890Y-39505815D01*
X60740135Y-39453011D01*
X60730191Y-39383853D01*
X60759216Y-39320297D01*
X60817994Y-39282523D01*
X60916300Y-39253658D01*
X61047216Y-39193871D01*
X61130783Y-39140166D01*
X61168169Y-39116140D01*
X61168166Y-39116143D01*
X61198583Y-39089787D01*
X61262138Y-39060762D01*
X61279785Y-39059500D01*
X66426284Y-39059500D01*
X66515358Y-39061757D01*
X66515358Y-39061756D01*
X66515363Y-39061757D01*
X66575753Y-39050932D01*
X66580412Y-39050280D01*
X66622607Y-39045988D01*
X66641438Y-39044074D01*
X66674227Y-39033786D01*
X66681840Y-39031918D01*
X66715653Y-39025858D01*
X66772621Y-39003101D01*
X66777053Y-39001524D01*
X66835588Y-38983159D01*
X66865627Y-38966484D01*
X66872708Y-38963122D01*
X66904617Y-38950377D01*
X66955854Y-38916608D01*
X66959851Y-38914187D01*
X67013502Y-38884409D01*
X67039568Y-38862030D01*
X67045843Y-38857300D01*
X67074519Y-38838402D01*
X67117916Y-38795003D01*
X67121333Y-38791837D01*
X67167895Y-38751866D01*
X67188931Y-38724688D01*
X67194101Y-38718817D01*
X67245674Y-38667246D01*
X67342032Y-38549073D01*
X67436243Y-38368715D01*
X67492221Y-38173084D01*
X67507671Y-37970190D01*
X67507091Y-37965638D01*
X67481965Y-37768344D01*
X67481964Y-37768342D01*
X67481964Y-37768338D01*
X67416150Y-37575794D01*
X67400279Y-37548833D01*
X67312926Y-37400440D01*
X67312924Y-37400438D01*
X67176514Y-37249453D01*
X67176512Y-37249452D01*
X67012506Y-37129020D01*
X67012494Y-37129012D01*
X66827609Y-37044063D01*
X66827598Y-37044059D01*
X66629388Y-36998062D01*
X66425975Y-36992908D01*
X66225685Y-37028806D01*
X66225678Y-37028808D01*
X66173495Y-37049653D01*
X66127498Y-37058500D01*
X61279785Y-37058500D01*
X61212746Y-37038815D01*
X61198583Y-37028213D01*
X61168174Y-37001864D01*
X61168164Y-37001857D01*
X61047221Y-36924131D01*
X61047217Y-36924129D01*
X61047216Y-36924129D01*
X60916300Y-36864342D01*
X60818158Y-36835525D01*
X60778342Y-36823834D01*
X60635889Y-36803353D01*
X60064000Y-36803353D01*
X59992040Y-36808499D01*
X59954728Y-36819455D01*
X59902149Y-36823215D01*
X59764000Y-36803353D01*
X59192111Y-36803353D01*
X59192110Y-36803353D01*
X59049658Y-36823834D01*
X59049656Y-36823834D01*
X58911700Y-36864342D01*
X58780784Y-36924129D01*
X58780782Y-36924129D01*
X58659831Y-37001860D01*
X58629417Y-37028213D01*
X58565862Y-37057238D01*
X58548215Y-37058500D01*
X54223402Y-37058500D01*
X54218695Y-37058321D01*
X54157524Y-37053663D01*
X54069168Y-37064915D01*
X53980559Y-37073926D01*
X53978874Y-37074455D01*
X53957432Y-37079145D01*
X53956465Y-37079268D01*
X53955671Y-37079370D01*
X53871379Y-37108182D01*
X53786414Y-37134839D01*
X53784857Y-37135704D01*
X53764814Y-37144607D01*
X53763131Y-37145182D01*
X53763123Y-37145186D01*
X53686381Y-37190361D01*
X53608501Y-37233588D01*
X53608491Y-37233595D01*
X53607138Y-37234757D01*
X53589302Y-37247509D01*
X53587777Y-37248406D01*
X53587771Y-37248411D01*
X53521692Y-37308111D01*
X53454099Y-37366139D01*
X53453016Y-37367539D01*
X53438104Y-37383630D01*
X53436791Y-37384816D01*
X53436787Y-37384820D01*
X53436787Y-37384821D01*
X53425318Y-37400440D01*
X53384082Y-37456594D01*
X53329551Y-37527042D01*
X53329548Y-37527047D01*
X53328768Y-37528638D01*
X53317400Y-37547403D01*
X53316350Y-37548832D01*
X53279177Y-37629735D01*
X53239941Y-37709725D01*
X53239937Y-37709737D01*
X53239492Y-37711456D01*
X53232138Y-37732112D01*
X53231400Y-37733718D01*
X53231392Y-37733740D01*
X53211258Y-37820503D01*
X53188936Y-37906718D01*
X53188846Y-37908490D01*
X53185801Y-37930201D01*
X53185396Y-37931944D01*
X53183140Y-38021023D01*
X53178631Y-38109935D01*
X50958500Y-38109935D01*
X50958500Y-36523005D01*
X72721357Y-36523005D01*
X72741890Y-36770812D01*
X72741892Y-36770824D01*
X72802936Y-37011881D01*
X72902826Y-37239606D01*
X73038833Y-37447782D01*
X73038836Y-37447785D01*
X73207256Y-37630738D01*
X73403491Y-37783474D01*
X73622190Y-37901828D01*
X73857386Y-37982571D01*
X74102665Y-38023500D01*
X74351335Y-38023500D01*
X74596614Y-37982571D01*
X74831810Y-37901828D01*
X75050509Y-37783474D01*
X75246744Y-37630738D01*
X75415164Y-37447785D01*
X75551173Y-37239607D01*
X75651063Y-37011881D01*
X75712108Y-36770821D01*
X75712907Y-36761182D01*
X75732643Y-36523005D01*
X75732643Y-36522994D01*
X75712109Y-36275187D01*
X75712107Y-36275175D01*
X75651063Y-36034118D01*
X75551173Y-35806393D01*
X75415166Y-35598217D01*
X75321301Y-35496253D01*
X75246744Y-35415262D01*
X75050509Y-35262526D01*
X75050507Y-35262525D01*
X75050506Y-35262524D01*
X74831811Y-35144172D01*
X74831802Y-35144169D01*
X74596616Y-35063429D01*
X74351335Y-35022500D01*
X74102665Y-35022500D01*
X73857383Y-35063429D01*
X73622197Y-35144169D01*
X73622188Y-35144172D01*
X73403493Y-35262524D01*
X73207257Y-35415261D01*
X73038833Y-35598217D01*
X72902826Y-35806393D01*
X72802936Y-36034118D01*
X72741892Y-36275175D01*
X72741890Y-36275187D01*
X72721357Y-36522994D01*
X72721357Y-36523005D01*
X50958500Y-36523005D01*
X50958500Y-36489018D01*
X50958977Y-36481342D01*
X50962357Y-36454220D01*
X50962357Y-36454219D01*
X50958500Y-36360964D01*
X50958500Y-36329934D01*
X50955937Y-36299009D01*
X50954952Y-36275187D01*
X50952081Y-36205763D01*
X50946473Y-36179016D01*
X50945364Y-36171406D01*
X50943109Y-36144187D01*
X50943107Y-36144176D01*
X50939149Y-36128545D01*
X50920202Y-36053725D01*
X50901050Y-35962386D01*
X50891112Y-35936920D01*
X50888774Y-35929623D01*
X50882063Y-35903119D01*
X50844580Y-35817667D01*
X50810656Y-35730727D01*
X50796665Y-35707248D01*
X50793150Y-35700418D01*
X50782173Y-35675393D01*
X50778388Y-35669600D01*
X50731137Y-35597275D01*
X50702008Y-35548392D01*
X50683366Y-35517106D01*
X50665702Y-35496250D01*
X50661106Y-35490086D01*
X50646166Y-35467218D01*
X50646165Y-35467217D01*
X50646164Y-35467215D01*
X50582966Y-35398564D01*
X50562902Y-35374874D01*
X50561330Y-35373302D01*
X50540950Y-35352921D01*
X50477747Y-35284265D01*
X50477746Y-35284264D01*
X50477744Y-35284262D01*
X50456174Y-35267473D01*
X50450411Y-35262383D01*
X50415128Y-35227099D01*
X50317215Y-35144172D01*
X50272894Y-35106634D01*
X50059274Y-34979344D01*
X50059272Y-34979343D01*
X50059270Y-34979342D01*
X49827623Y-34888953D01*
X49827616Y-34888951D01*
X49584234Y-34837918D01*
X49335782Y-34827643D01*
X49335781Y-34827643D01*
X49335779Y-34827643D01*
X49150708Y-34850711D01*
X49089018Y-34858401D01*
X48850684Y-34929356D01*
X48627291Y-35038566D01*
X48627284Y-35038570D01*
X48424901Y-35183069D01*
X48249069Y-35358901D01*
X48104570Y-35561284D01*
X48104566Y-35561291D01*
X47995356Y-35784684D01*
X47924401Y-36023018D01*
X47893643Y-36269779D01*
X38118588Y-36269779D01*
X38216477Y-36171890D01*
X38233891Y-36144176D01*
X38306452Y-36028697D01*
X38306455Y-36028691D01*
X38306456Y-36028690D01*
X38362313Y-35869059D01*
X38364456Y-35850037D01*
X38391519Y-35785625D01*
X38399985Y-35776248D01*
X40153228Y-34023005D01*
X67721357Y-34023005D01*
X67741890Y-34270812D01*
X67741892Y-34270824D01*
X67802936Y-34511881D01*
X67902826Y-34739606D01*
X68038833Y-34947782D01*
X68052422Y-34962543D01*
X68207256Y-35130738D01*
X68403491Y-35283474D01*
X68512840Y-35342651D01*
X68616160Y-35398565D01*
X68622190Y-35401828D01*
X68857386Y-35482571D01*
X69102665Y-35523500D01*
X69351335Y-35523500D01*
X69596614Y-35482571D01*
X69831810Y-35401828D01*
X70050509Y-35283474D01*
X70246744Y-35130738D01*
X70415164Y-34947785D01*
X70551173Y-34739607D01*
X70651063Y-34511881D01*
X70712108Y-34270821D01*
X70732643Y-34023000D01*
X70732005Y-34015305D01*
X70712109Y-33775187D01*
X70712107Y-33775175D01*
X70651063Y-33534118D01*
X70551173Y-33306393D01*
X70415166Y-33098217D01*
X70373502Y-33052958D01*
X70246744Y-32915262D01*
X70050509Y-32762526D01*
X70050507Y-32762525D01*
X70050506Y-32762524D01*
X69831811Y-32644172D01*
X69831802Y-32644169D01*
X69596616Y-32563429D01*
X69351335Y-32522500D01*
X69102665Y-32522500D01*
X68857383Y-32563429D01*
X68622197Y-32644169D01*
X68622188Y-32644172D01*
X68403493Y-32762524D01*
X68207257Y-32915261D01*
X68038833Y-33098217D01*
X67902826Y-33306393D01*
X67802936Y-33534118D01*
X67741892Y-33775175D01*
X67741890Y-33775187D01*
X67721357Y-34022994D01*
X67721357Y-34023005D01*
X40153228Y-34023005D01*
X40885922Y-33290311D01*
X40891999Y-33284983D01*
X40920282Y-33263282D01*
X41016536Y-33137841D01*
X41077044Y-32991762D01*
X41092500Y-32874361D01*
X41097682Y-32835000D01*
X41093030Y-32799669D01*
X41092500Y-32791571D01*
X41092500Y-32151662D01*
X41111507Y-32085689D01*
X41135755Y-32047099D01*
X41172456Y-31988690D01*
X41228313Y-31829059D01*
X41245912Y-31672865D01*
X41247249Y-31661002D01*
X41247249Y-31660997D01*
X41228314Y-31492943D01*
X41172454Y-31333305D01*
X41172452Y-31333302D01*
X41082481Y-31190115D01*
X41082476Y-31190109D01*
X40962890Y-31070523D01*
X40962884Y-31070518D01*
X40859377Y-31005480D01*
X53303663Y-31005480D01*
X53303887Y-31007241D01*
X53304721Y-31029153D01*
X53304631Y-31030930D01*
X53304631Y-31030940D01*
X53318115Y-31118957D01*
X53329368Y-31207321D01*
X53329370Y-31207329D01*
X53329942Y-31209001D01*
X53335177Y-31230330D01*
X53335444Y-31232071D01*
X53366369Y-31315572D01*
X53395184Y-31399872D01*
X53395185Y-31399874D01*
X53395184Y-31399874D01*
X53396083Y-31401400D01*
X53405500Y-31421230D01*
X53406111Y-31422880D01*
X53406116Y-31422891D01*
X53422214Y-31448718D01*
X53453236Y-31498488D01*
X53498410Y-31575227D01*
X53499591Y-31576534D01*
X53512811Y-31594067D01*
X53513748Y-31595571D01*
X53574858Y-31659858D01*
X53575133Y-31660147D01*
X53634819Y-31726211D01*
X53634826Y-31726217D01*
X53636241Y-31727256D01*
X53652724Y-31741773D01*
X53653941Y-31743053D01*
X53727058Y-31793944D01*
X53798833Y-31846649D01*
X53800431Y-31847383D01*
X53819506Y-31858289D01*
X53820951Y-31859295D01*
X53902818Y-31894427D01*
X53983732Y-31931605D01*
X53985437Y-31932000D01*
X54006321Y-31938844D01*
X54007942Y-31939540D01*
X54095168Y-31957465D01*
X54181946Y-31977603D01*
X54183712Y-31977647D01*
X54205546Y-31980148D01*
X54207258Y-31980500D01*
X54207259Y-31980500D01*
X54296284Y-31980500D01*
X54385359Y-31982757D01*
X54385361Y-31982757D01*
X54385361Y-31982756D01*
X54385363Y-31982757D01*
X54386410Y-31982569D01*
X54387105Y-31982445D01*
X54408979Y-31980500D01*
X58515215Y-31980500D01*
X58582254Y-32000185D01*
X58596417Y-32010787D01*
X58626822Y-32037133D01*
X58626830Y-32037139D01*
X58747778Y-32114868D01*
X58747780Y-32114868D01*
X58747784Y-32114871D01*
X58878700Y-32174658D01*
X59016655Y-32215165D01*
X59159111Y-32235647D01*
X59159114Y-32235647D01*
X59731000Y-32235647D01*
X59802961Y-32230500D01*
X59840270Y-32219544D01*
X59892848Y-32215784D01*
X60031000Y-32235647D01*
X60031003Y-32235647D01*
X60602886Y-32235647D01*
X60602889Y-32235647D01*
X60745345Y-32215165D01*
X60883300Y-32174658D01*
X61014216Y-32114871D01*
X61119672Y-32047099D01*
X61135169Y-32037140D01*
X61135166Y-32037143D01*
X61165583Y-32010787D01*
X61229138Y-31981762D01*
X61246785Y-31980500D01*
X66281743Y-31980500D01*
X66433439Y-31965074D01*
X66627579Y-31904162D01*
X66627580Y-31904161D01*
X66627588Y-31904159D01*
X66805502Y-31805409D01*
X66959895Y-31672866D01*
X67074754Y-31524481D01*
X67075897Y-31523005D01*
X72721859Y-31523005D01*
X72742385Y-31770729D01*
X72742387Y-31770738D01*
X72803412Y-32011717D01*
X72903266Y-32239364D01*
X73003564Y-32392882D01*
X73664226Y-31732219D01*
X73702901Y-31825588D01*
X73799075Y-31950925D01*
X73924412Y-32047099D01*
X74017779Y-32085772D01*
X73356942Y-32746609D01*
X73403768Y-32783055D01*
X73403770Y-32783056D01*
X73622385Y-32901364D01*
X73622396Y-32901369D01*
X73857506Y-32982083D01*
X74102707Y-33023000D01*
X74351293Y-33023000D01*
X74596493Y-32982083D01*
X74831603Y-32901369D01*
X74831614Y-32901364D01*
X75050228Y-32783057D01*
X75050231Y-32783055D01*
X75097056Y-32746609D01*
X74436220Y-32085773D01*
X74529588Y-32047099D01*
X74654925Y-31950925D01*
X74751099Y-31825589D01*
X74789773Y-31732219D01*
X75450434Y-32392882D01*
X75550731Y-32239369D01*
X75650587Y-32011717D01*
X75711612Y-31770738D01*
X75711614Y-31770729D01*
X75732141Y-31523005D01*
X75732141Y-31522994D01*
X75711614Y-31275270D01*
X75711612Y-31275261D01*
X75650587Y-31034282D01*
X75550731Y-30806630D01*
X75450434Y-30653116D01*
X74789772Y-31313778D01*
X74751099Y-31220412D01*
X74654925Y-31095075D01*
X74529588Y-30998901D01*
X74436218Y-30960226D01*
X75097056Y-30299389D01*
X75050229Y-30262943D01*
X74831614Y-30144635D01*
X74831603Y-30144630D01*
X74596493Y-30063916D01*
X74351293Y-30023000D01*
X74102707Y-30023000D01*
X73857506Y-30063916D01*
X73622396Y-30144630D01*
X73622390Y-30144632D01*
X73403761Y-30262949D01*
X73356942Y-30299388D01*
X73356941Y-30299389D01*
X74017779Y-30960227D01*
X73924412Y-30998901D01*
X73799075Y-31095075D01*
X73702901Y-31220411D01*
X73664227Y-31313778D01*
X73003563Y-30653116D01*
X72903267Y-30806632D01*
X72803412Y-31034282D01*
X72742387Y-31275261D01*
X72742385Y-31275270D01*
X72721859Y-31522994D01*
X72721859Y-31523005D01*
X67075897Y-31523005D01*
X67084445Y-31511962D01*
X67084445Y-31511961D01*
X67084448Y-31511958D01*
X67174060Y-31329271D01*
X67225063Y-31132285D01*
X67235369Y-30929064D01*
X67204556Y-30727929D01*
X67164304Y-30619244D01*
X67133888Y-30537118D01*
X67133887Y-30537117D01*
X67133886Y-30537113D01*
X67026252Y-30364429D01*
X66886059Y-30216947D01*
X66782158Y-30144630D01*
X66719050Y-30100705D01*
X66532056Y-30020459D01*
X66332741Y-29979500D01*
X61246785Y-29979500D01*
X61179746Y-29959815D01*
X61165583Y-29949213D01*
X61135174Y-29922864D01*
X61135164Y-29922857D01*
X61014221Y-29845131D01*
X61014217Y-29845129D01*
X61014216Y-29845129D01*
X60883300Y-29785342D01*
X60785158Y-29756525D01*
X60745342Y-29744834D01*
X60602889Y-29724353D01*
X60031000Y-29724353D01*
X59959040Y-29729499D01*
X59921728Y-29740455D01*
X59869149Y-29744215D01*
X59731000Y-29724353D01*
X59159111Y-29724353D01*
X59159110Y-29724353D01*
X59016658Y-29744834D01*
X59016656Y-29744834D01*
X58878700Y-29785342D01*
X58747784Y-29845129D01*
X58747782Y-29845129D01*
X58626831Y-29922860D01*
X58596417Y-29949213D01*
X58532862Y-29978238D01*
X58515215Y-29979500D01*
X57023783Y-29979500D01*
X56956744Y-29959815D01*
X56910989Y-29907011D01*
X56901045Y-29837853D01*
X56930070Y-29774297D01*
X56936102Y-29767819D01*
X57680916Y-29023005D01*
X67721859Y-29023005D01*
X67742385Y-29270729D01*
X67742387Y-29270738D01*
X67803412Y-29511717D01*
X67903266Y-29739364D01*
X68003564Y-29892882D01*
X68664226Y-29232219D01*
X68702901Y-29325588D01*
X68799075Y-29450925D01*
X68924412Y-29547099D01*
X69017779Y-29585772D01*
X68356942Y-30246609D01*
X68403768Y-30283055D01*
X68403770Y-30283056D01*
X68622385Y-30401364D01*
X68622396Y-30401369D01*
X68857506Y-30482083D01*
X69102707Y-30523000D01*
X69351293Y-30523000D01*
X69596493Y-30482083D01*
X69831603Y-30401369D01*
X69831614Y-30401364D01*
X70050228Y-30283057D01*
X70050231Y-30283055D01*
X70097056Y-30246609D01*
X69436220Y-29585773D01*
X69529588Y-29547099D01*
X69654925Y-29450925D01*
X69751099Y-29325589D01*
X69789773Y-29232219D01*
X70450434Y-29892882D01*
X70550731Y-29739369D01*
X70650587Y-29511717D01*
X70711612Y-29270738D01*
X70711614Y-29270729D01*
X70732141Y-29023005D01*
X70732141Y-29022994D01*
X70711614Y-28775270D01*
X70711612Y-28775261D01*
X70650587Y-28534282D01*
X70550731Y-28306630D01*
X70450434Y-28153116D01*
X69789772Y-28813778D01*
X69751099Y-28720412D01*
X69654925Y-28595075D01*
X69529588Y-28498901D01*
X69436218Y-28460226D01*
X70097056Y-27799389D01*
X70050229Y-27762943D01*
X69831614Y-27644635D01*
X69831603Y-27644630D01*
X69596493Y-27563916D01*
X69351293Y-27523000D01*
X69102707Y-27523000D01*
X68857506Y-27563916D01*
X68622396Y-27644630D01*
X68622390Y-27644632D01*
X68403761Y-27762949D01*
X68356942Y-27799388D01*
X68356941Y-27799389D01*
X69017779Y-28460227D01*
X68924412Y-28498901D01*
X68799075Y-28595075D01*
X68702901Y-28720411D01*
X68664227Y-28813778D01*
X68003563Y-28153116D01*
X67903267Y-28306632D01*
X67803412Y-28534282D01*
X67742387Y-28775261D01*
X67742385Y-28775270D01*
X67721859Y-29022994D01*
X67721859Y-29023005D01*
X57680916Y-29023005D01*
X58670102Y-28033819D01*
X58731425Y-28000334D01*
X58757783Y-27997500D01*
X62745787Y-27997500D01*
X62834861Y-27999757D01*
X62834861Y-27999756D01*
X62834866Y-27999757D01*
X62895256Y-27988932D01*
X62899915Y-27988280D01*
X62942110Y-27983988D01*
X62960941Y-27982074D01*
X62993730Y-27971786D01*
X63001343Y-27969918D01*
X63035156Y-27963858D01*
X63092124Y-27941101D01*
X63096556Y-27939524D01*
X63155091Y-27921159D01*
X63185130Y-27904484D01*
X63192211Y-27901122D01*
X63224120Y-27888377D01*
X63275357Y-27854608D01*
X63279354Y-27852187D01*
X63333005Y-27822409D01*
X63359071Y-27800030D01*
X63365346Y-27795300D01*
X63366847Y-27794311D01*
X63394022Y-27776402D01*
X63437420Y-27733002D01*
X63440839Y-27729834D01*
X63487398Y-27689866D01*
X63508434Y-27662688D01*
X63513604Y-27656818D01*
X64076604Y-27093819D01*
X64137928Y-27060334D01*
X64164286Y-27057500D01*
X70870366Y-27057500D01*
X70904478Y-27062284D01*
X70906582Y-27062886D01*
X71095117Y-27077243D01*
X71109475Y-27078337D01*
X71109476Y-27078337D01*
X71109477Y-27078337D01*
X71311320Y-27052631D01*
X71311320Y-27052630D01*
X71311327Y-27052630D01*
X71503872Y-26986816D01*
X71679227Y-26883590D01*
X71830213Y-26747179D01*
X71950649Y-26583167D01*
X72035605Y-26398268D01*
X72040415Y-26377543D01*
X72081602Y-26200053D01*
X72082323Y-26171588D01*
X72086756Y-25996636D01*
X72063792Y-25868514D01*
X72050859Y-25796350D01*
X72050857Y-25796345D01*
X72020598Y-25720593D01*
X71975377Y-25607383D01*
X71975372Y-25607376D01*
X71975370Y-25607371D01*
X71863404Y-25437483D01*
X71784445Y-25358525D01*
X71723061Y-25293949D01*
X71723060Y-25293948D01*
X71714514Y-25288000D01*
X71699570Y-25277598D01*
X71672709Y-25258902D01*
X71668944Y-25256064D01*
X71621408Y-25217302D01*
X71621406Y-25217300D01*
X71590959Y-25201397D01*
X71584251Y-25197334D01*
X71556049Y-25177705D01*
X71556046Y-25177703D01*
X71556045Y-25177703D01*
X71556041Y-25177701D01*
X71499680Y-25153514D01*
X71495424Y-25151493D01*
X71441057Y-25123094D01*
X71441050Y-25123091D01*
X71441049Y-25123091D01*
X71435008Y-25121362D01*
X71408030Y-25113642D01*
X71400630Y-25111008D01*
X71369057Y-25097459D01*
X71369058Y-25097459D01*
X71308966Y-25085109D01*
X71304391Y-25083986D01*
X71245420Y-25067113D01*
X71245425Y-25067113D01*
X71211158Y-25064503D01*
X71203380Y-25063412D01*
X71169742Y-25056500D01*
X71169741Y-25056500D01*
X71108402Y-25056500D01*
X71103695Y-25056321D01*
X71098121Y-25055896D01*
X71042524Y-25051662D01*
X71022589Y-25054201D01*
X71008440Y-25056003D01*
X71000611Y-25056500D01*
X63711220Y-25056500D01*
X63622140Y-25054243D01*
X63622131Y-25054243D01*
X63570979Y-25063412D01*
X63561757Y-25065064D01*
X63557098Y-25065718D01*
X63496067Y-25071925D01*
X63496065Y-25071926D01*
X63463283Y-25082210D01*
X63455659Y-25084081D01*
X63452560Y-25084637D01*
X63421852Y-25090141D01*
X63421844Y-25090143D01*
X63364885Y-25112895D01*
X63360449Y-25114474D01*
X63301918Y-25132840D01*
X63301915Y-25132841D01*
X63301913Y-25132842D01*
X63301906Y-25132845D01*
X63271887Y-25149507D01*
X63264793Y-25152876D01*
X63232893Y-25165619D01*
X63232891Y-25165619D01*
X63232886Y-25165622D01*
X63232879Y-25165626D01*
X63232880Y-25165626D01*
X63181657Y-25199383D01*
X63177629Y-25201824D01*
X63124005Y-25231588D01*
X63124002Y-25231590D01*
X63097930Y-25253970D01*
X63091663Y-25258695D01*
X63062985Y-25277598D01*
X63062978Y-25277603D01*
X63019619Y-25320962D01*
X63016164Y-25324164D01*
X62969609Y-25364132D01*
X62969608Y-25364133D01*
X62948579Y-25391300D01*
X62943387Y-25397194D01*
X62380402Y-25960181D01*
X62319079Y-25993666D01*
X62292721Y-25996500D01*
X58304717Y-25996500D01*
X58215637Y-25994243D01*
X58215628Y-25994243D01*
X58155260Y-26005064D01*
X58150595Y-26005718D01*
X58089563Y-26011925D01*
X58089555Y-26011927D01*
X58056781Y-26022210D01*
X58049154Y-26024082D01*
X58015350Y-26030141D01*
X57958384Y-26052894D01*
X57953948Y-26054473D01*
X57895414Y-26072840D01*
X57895412Y-26072841D01*
X57865385Y-26089506D01*
X57858293Y-26092874D01*
X57826383Y-26105621D01*
X57775154Y-26139383D01*
X57771126Y-26141824D01*
X57717502Y-26171588D01*
X57717499Y-26171590D01*
X57691427Y-26193970D01*
X57685160Y-26198695D01*
X57656482Y-26217598D01*
X57656475Y-26217603D01*
X57613116Y-26260962D01*
X57609661Y-26264164D01*
X57563106Y-26304132D01*
X57563105Y-26304133D01*
X57542076Y-26331300D01*
X57536884Y-26337194D01*
X53630117Y-30243962D01*
X53626662Y-30247164D01*
X53580110Y-30287128D01*
X53580102Y-30287137D01*
X53525580Y-30357573D01*
X53469303Y-30426590D01*
X53469300Y-30426595D01*
X53468477Y-30428171D01*
X53456647Y-30446625D01*
X53455558Y-30448031D01*
X53455550Y-30448043D01*
X53416320Y-30528020D01*
X53375092Y-30606947D01*
X53375089Y-30606953D01*
X53374605Y-30608648D01*
X53366720Y-30629138D01*
X53365940Y-30630726D01*
X53346547Y-30705630D01*
X53343617Y-30716945D01*
X53340476Y-30727924D01*
X53319112Y-30802586D01*
X53319112Y-30802587D01*
X53318977Y-30804358D01*
X53315381Y-30825996D01*
X53314937Y-30827708D01*
X53311069Y-30903974D01*
X53310426Y-30916654D01*
X53303710Y-31004866D01*
X53303663Y-31005478D01*
X53303663Y-31005480D01*
X40859377Y-31005480D01*
X40819697Y-30980547D01*
X40819694Y-30980545D01*
X40660056Y-30924685D01*
X40492003Y-30905751D01*
X40491997Y-30905751D01*
X40323943Y-30924685D01*
X40164305Y-30980545D01*
X40164302Y-30980547D01*
X40021115Y-31070518D01*
X40021109Y-31070523D01*
X39901523Y-31190109D01*
X39901518Y-31190115D01*
X39811547Y-31333302D01*
X39811545Y-31333305D01*
X39755685Y-31492943D01*
X39736751Y-31660997D01*
X39736751Y-31661002D01*
X39755686Y-31829057D01*
X39811544Y-31988690D01*
X39872493Y-32085689D01*
X39891500Y-32151662D01*
X39891500Y-32534902D01*
X39871815Y-32601941D01*
X39855181Y-32622583D01*
X37550759Y-34927004D01*
X37489436Y-34960489D01*
X37476966Y-34962543D01*
X37471270Y-34963185D01*
X37457941Y-34964687D01*
X37457940Y-34964687D01*
X37298307Y-35020544D01*
X37298302Y-35020547D01*
X37155115Y-35110518D01*
X37155109Y-35110523D01*
X37035523Y-35230109D01*
X37035518Y-35230115D01*
X36945547Y-35373302D01*
X36945545Y-35373305D01*
X36889685Y-35532943D01*
X36870751Y-35700997D01*
X36870751Y-35701002D01*
X35138785Y-35701002D01*
X35221536Y-35593159D01*
X35282044Y-35447080D01*
X35286233Y-35415262D01*
X35302682Y-35290318D01*
X35298030Y-35254987D01*
X35297500Y-35246889D01*
X35297500Y-34387662D01*
X35316507Y-34321689D01*
X35332873Y-34295642D01*
X35377456Y-34224690D01*
X35433313Y-34065059D01*
X35452249Y-33897000D01*
X35452249Y-33896997D01*
X35433314Y-33728943D01*
X35393920Y-33616361D01*
X35377456Y-33569310D01*
X35377455Y-33569309D01*
X35377454Y-33569305D01*
X35377452Y-33569302D01*
X35287481Y-33426115D01*
X35287476Y-33426109D01*
X35167890Y-33306523D01*
X35099074Y-33263283D01*
X35070983Y-33245632D01*
X35024693Y-33193298D01*
X35014045Y-33124245D01*
X35042420Y-33060396D01*
X35049261Y-33052972D01*
X35953415Y-32148819D01*
X36014739Y-32115334D01*
X36041097Y-32112500D01*
X36881390Y-32112500D01*
X36889488Y-32113030D01*
X36924818Y-32117682D01*
X36924819Y-32117682D01*
X37001733Y-32107556D01*
X37081580Y-32097044D01*
X37227659Y-32036536D01*
X37297745Y-31982757D01*
X37353100Y-31940282D01*
X37374802Y-31911998D01*
X37380128Y-31905923D01*
X41895233Y-27390819D01*
X41956557Y-27357334D01*
X41982915Y-27354500D01*
X48762337Y-27354500D01*
X48828308Y-27373505D01*
X48925310Y-27434456D01*
X49034420Y-27472635D01*
X49084943Y-27490314D01*
X49252997Y-27509249D01*
X49253000Y-27509249D01*
X49253003Y-27509249D01*
X49421056Y-27490314D01*
X49471577Y-27472636D01*
X49580690Y-27434456D01*
X49580692Y-27434454D01*
X49580694Y-27434454D01*
X49580697Y-27434452D01*
X49723884Y-27344481D01*
X49723885Y-27344480D01*
X49723890Y-27344477D01*
X49843477Y-27224890D01*
X49933452Y-27081697D01*
X49933454Y-27081694D01*
X49933454Y-27081692D01*
X49933456Y-27081690D01*
X49989313Y-26922059D01*
X49989313Y-26922058D01*
X49989314Y-26922056D01*
X50008249Y-26754002D01*
X50008249Y-26753997D01*
X49989314Y-26585943D01*
X49947876Y-26467521D01*
X49933456Y-26426310D01*
X49933455Y-26426309D01*
X49933454Y-26426305D01*
X49933452Y-26426302D01*
X49843481Y-26283115D01*
X49843476Y-26283109D01*
X49723890Y-26163523D01*
X49723884Y-26163518D01*
X49580697Y-26073547D01*
X49580694Y-26073545D01*
X49421056Y-26017685D01*
X49253003Y-25998751D01*
X49252997Y-25998751D01*
X49084943Y-26017685D01*
X48925307Y-26073545D01*
X48874258Y-26105622D01*
X48829390Y-26133815D01*
X48828309Y-26134494D01*
X48762337Y-26153500D01*
X42618742Y-26153500D01*
X42551703Y-26133815D01*
X42505948Y-26081011D01*
X42496004Y-26011853D01*
X42525029Y-25948297D01*
X42531061Y-25941819D01*
X42865509Y-25607371D01*
X43890638Y-24582240D01*
X43951959Y-24548757D01*
X44021650Y-24553741D01*
X44044295Y-24564933D01*
X44048306Y-24567454D01*
X44048310Y-24567456D01*
X44116301Y-24591247D01*
X44207943Y-24623314D01*
X44375997Y-24642249D01*
X44376000Y-24642249D01*
X44376003Y-24642249D01*
X44544056Y-24623314D01*
X44544059Y-24623313D01*
X44703690Y-24567456D01*
X44703692Y-24567454D01*
X44703694Y-24567454D01*
X44703697Y-24567452D01*
X44846884Y-24477481D01*
X44846885Y-24477480D01*
X44846890Y-24477477D01*
X44966477Y-24357890D01*
X44969709Y-24352746D01*
X45056452Y-24214697D01*
X45056454Y-24214694D01*
X45056454Y-24214692D01*
X45056456Y-24214690D01*
X45112313Y-24055059D01*
X45112313Y-24055058D01*
X45112314Y-24055056D01*
X45131249Y-23887002D01*
X45131249Y-23886997D01*
X45112314Y-23718943D01*
X45078022Y-23620943D01*
X45056456Y-23559310D01*
X45056455Y-23559309D01*
X45056454Y-23559305D01*
X45056452Y-23559302D01*
X44966481Y-23416115D01*
X44966476Y-23416109D01*
X44846890Y-23296523D01*
X44846884Y-23296518D01*
X44703697Y-23206547D01*
X44703694Y-23206545D01*
X44544056Y-23150685D01*
X44376003Y-23131751D01*
X44375997Y-23131751D01*
X44207943Y-23150685D01*
X44048307Y-23206545D01*
X43911522Y-23292494D01*
X43845550Y-23311500D01*
X43813781Y-23311500D01*
X43805683Y-23310969D01*
X43781813Y-23307826D01*
X43772001Y-23306535D01*
X43772000Y-23306535D01*
X43767698Y-23307101D01*
X43738419Y-23310955D01*
X43738406Y-23310957D01*
X43734281Y-23311500D01*
X43734280Y-23311500D01*
X43688376Y-23317543D01*
X43621762Y-23326313D01*
X43594428Y-23337635D01*
X43580760Y-23343297D01*
X43539756Y-23360280D01*
X43481768Y-23384300D01*
X43481766Y-23384301D01*
X43392849Y-23452530D01*
X43392824Y-23452549D01*
X43361548Y-23476550D01*
X43340861Y-23503507D01*
X43335510Y-23509608D01*
X37214604Y-29630514D01*
X37153281Y-29663999D01*
X37140808Y-29666053D01*
X37081946Y-29672685D01*
X36922307Y-29728544D01*
X36922302Y-29728547D01*
X36779115Y-29818518D01*
X36779109Y-29818523D01*
X36659523Y-29938109D01*
X36659518Y-29938115D01*
X36569547Y-30081302D01*
X36569545Y-30081305D01*
X36513685Y-30240943D01*
X36494751Y-30408997D01*
X36494751Y-30409002D01*
X36513685Y-30577056D01*
X36540300Y-30653116D01*
X36566478Y-30727929D01*
X36571844Y-30743262D01*
X36569795Y-30743978D01*
X36579455Y-30802640D01*
X36551733Y-30866774D01*
X36493737Y-30905740D01*
X36456383Y-30911500D01*
X35784428Y-30911500D01*
X35776329Y-30910969D01*
X35741000Y-30906318D01*
X35701639Y-30911500D01*
X35584239Y-30926955D01*
X35584237Y-30926956D01*
X35438160Y-30987463D01*
X35312714Y-31083721D01*
X35291024Y-31111990D01*
X35285671Y-31118094D01*
X33282096Y-33121668D01*
X33275994Y-33127019D01*
X33247720Y-33148715D01*
X33247717Y-33148718D01*
X33247718Y-33148718D01*
X33159810Y-33263282D01*
X33153405Y-33271629D01*
X33151463Y-33274160D01*
X33090956Y-33420237D01*
X33090955Y-33420239D01*
X33070318Y-33576998D01*
X33074968Y-33612328D01*
X33075499Y-33620428D01*
X33075499Y-34295642D01*
X33055814Y-34362681D01*
X33003010Y-34408436D01*
X32937616Y-34418862D01*
X32910003Y-34415751D01*
X32909997Y-34415751D01*
X32741943Y-34434685D01*
X32582307Y-34490545D01*
X32445522Y-34576494D01*
X32379550Y-34595500D01*
X32193742Y-34595500D01*
X32126703Y-34575815D01*
X32106061Y-34559181D01*
X29268061Y-31721181D01*
X29234576Y-31659858D01*
X29239560Y-31590166D01*
X29281432Y-31534233D01*
X29346896Y-31509816D01*
X29355742Y-31509500D01*
X32579550Y-31509500D01*
X32645522Y-31528506D01*
X32678619Y-31549302D01*
X32782310Y-31614456D01*
X32903621Y-31656904D01*
X32941943Y-31670314D01*
X33109997Y-31689249D01*
X33110000Y-31689249D01*
X33110003Y-31689249D01*
X33278056Y-31670314D01*
X33304674Y-31661000D01*
X33437690Y-31614456D01*
X33437692Y-31614454D01*
X33437694Y-31614454D01*
X33437697Y-31614452D01*
X33580884Y-31524481D01*
X33580885Y-31524480D01*
X33580890Y-31524477D01*
X33700477Y-31404890D01*
X33703630Y-31399872D01*
X33790452Y-31261697D01*
X33790454Y-31261694D01*
X33790454Y-31261692D01*
X33790456Y-31261690D01*
X33846313Y-31102059D01*
X33846313Y-31102058D01*
X33846314Y-31102056D01*
X33865249Y-30934002D01*
X33865249Y-30933997D01*
X33846314Y-30765943D01*
X33806834Y-30653116D01*
X33790456Y-30606310D01*
X33790455Y-30606309D01*
X33790454Y-30606305D01*
X33790452Y-30606302D01*
X33700481Y-30463115D01*
X33700476Y-30463109D01*
X33580890Y-30343523D01*
X33580884Y-30343518D01*
X33437697Y-30253547D01*
X33437694Y-30253545D01*
X33278056Y-30197685D01*
X33110003Y-30178751D01*
X33109997Y-30178751D01*
X32941943Y-30197685D01*
X32782307Y-30253545D01*
X32645522Y-30339494D01*
X32579550Y-30358500D01*
X28985742Y-30358500D01*
X28918703Y-30338815D01*
X28898061Y-30322181D01*
X25676246Y-27100366D01*
X25642761Y-27039043D01*
X25640709Y-27026580D01*
X25632093Y-26950113D01*
X25625314Y-26889942D01*
X25569454Y-26730303D01*
X25569452Y-26730300D01*
X25479481Y-26587113D01*
X25479476Y-26587107D01*
X25359890Y-26467521D01*
X25359884Y-26467516D01*
X25216697Y-26377545D01*
X25216694Y-26377543D01*
X25057056Y-26321683D01*
X24889003Y-26302749D01*
X24888997Y-26302749D01*
X24720943Y-26321683D01*
X24561305Y-26377543D01*
X24561302Y-26377545D01*
X24418115Y-26467516D01*
X24418109Y-26467521D01*
X24298523Y-26587107D01*
X24298518Y-26587113D01*
X24208547Y-26730300D01*
X24208545Y-26730303D01*
X24152685Y-26889941D01*
X24133751Y-27057995D01*
X24133751Y-27058000D01*
X24152685Y-27226054D01*
X24208545Y-27385692D01*
X24208547Y-27385695D01*
X24298518Y-27528882D01*
X24298523Y-27528888D01*
X24418109Y-27648474D01*
X24418115Y-27648479D01*
X24561302Y-27738450D01*
X24561308Y-27738453D01*
X24561310Y-27738454D01*
X24720941Y-27794311D01*
X24720943Y-27794311D01*
X24727284Y-27796530D01*
X24774011Y-27825891D01*
X25940195Y-28992075D01*
X25973680Y-29053398D01*
X25968696Y-29123090D01*
X25940196Y-29167437D01*
X25881518Y-29226115D01*
X25791547Y-29369302D01*
X25791545Y-29369305D01*
X25735685Y-29528943D01*
X25716751Y-29696997D01*
X25716751Y-29697002D01*
X25735685Y-29865056D01*
X25791545Y-30024694D01*
X25791547Y-30024697D01*
X25881518Y-30167884D01*
X25881523Y-30167890D01*
X26001109Y-30287476D01*
X26001115Y-30287481D01*
X26144302Y-30377452D01*
X26144308Y-30377455D01*
X26144310Y-30377456D01*
X26303941Y-30433313D01*
X26315468Y-30434611D01*
X26379882Y-30461674D01*
X26389271Y-30470151D01*
X31467520Y-35548400D01*
X31472861Y-35554490D01*
X31493549Y-35581451D01*
X31504271Y-35589678D01*
X31522486Y-35603656D01*
X31522491Y-35603660D01*
X31572314Y-35641890D01*
X31613766Y-35673697D01*
X31613769Y-35673699D01*
X31617859Y-35675393D01*
X31753764Y-35731687D01*
X31866280Y-35746500D01*
X31866281Y-35746500D01*
X31868294Y-35746765D01*
X31868317Y-35746767D01*
X31904000Y-35751465D01*
X31904001Y-35751465D01*
X31917265Y-35749718D01*
X31937682Y-35747030D01*
X31945781Y-35746500D01*
X32101694Y-35746500D01*
X32168733Y-35766185D01*
X32214488Y-35818989D01*
X32224432Y-35888147D01*
X32195407Y-35951703D01*
X32189375Y-35958181D01*
X30210259Y-37937295D01*
X30148936Y-37970780D01*
X30136466Y-37972834D01*
X30128173Y-37973768D01*
X30117441Y-37974978D01*
X30117440Y-37974978D01*
X29957808Y-38030835D01*
X29891074Y-38072768D01*
X29861890Y-38091106D01*
X29860809Y-38091785D01*
X29794837Y-38110791D01*
X25522388Y-38110791D01*
X25455349Y-38091106D01*
X25434707Y-38074472D01*
X22174119Y-34813884D01*
X18987426Y-31627191D01*
X20162500Y-31627191D01*
X20162501Y-31627200D01*
X20171791Y-31667908D01*
X20172955Y-31674763D01*
X20177632Y-31716259D01*
X20191420Y-31755662D01*
X20193345Y-31762345D01*
X20202639Y-31803061D01*
X20220759Y-31840688D01*
X20223421Y-31847114D01*
X20237212Y-31886525D01*
X20259422Y-31921872D01*
X20262787Y-31927959D01*
X20280910Y-31965589D01*
X20306940Y-31998229D01*
X20310966Y-32003904D01*
X20333182Y-32039259D01*
X20333184Y-32039262D01*
X20365174Y-32071252D01*
X25147184Y-36853262D01*
X25274738Y-36980816D01*
X25310089Y-37003028D01*
X25315765Y-37007055D01*
X25348411Y-37033090D01*
X25348412Y-37033091D01*
X25360299Y-37038815D01*
X25386035Y-37051208D01*
X25392112Y-37054567D01*
X25408581Y-37064915D01*
X25427477Y-37076789D01*
X25466891Y-37090581D01*
X25473320Y-37093244D01*
X25510941Y-37111361D01*
X25551641Y-37120650D01*
X25558328Y-37122576D01*
X25593375Y-37134839D01*
X25597745Y-37136368D01*
X25639241Y-37141043D01*
X25646093Y-37142207D01*
X25686806Y-37151500D01*
X25686808Y-37151500D01*
X27419957Y-37151500D01*
X27419958Y-37151499D01*
X27487104Y-37143934D01*
X27554249Y-37136369D01*
X27554252Y-37136368D01*
X27554255Y-37136368D01*
X27724522Y-37076789D01*
X27877262Y-36980816D01*
X28004816Y-36853262D01*
X28100789Y-36700522D01*
X28160368Y-36530255D01*
X28161185Y-36523005D01*
X28180565Y-36351003D01*
X28180565Y-36350996D01*
X28160369Y-36171750D01*
X28160368Y-36171745D01*
X28125705Y-36072685D01*
X28100789Y-36001478D01*
X28004816Y-35848738D01*
X27877262Y-35721184D01*
X27845143Y-35701002D01*
X27724523Y-35625211D01*
X27554254Y-35565631D01*
X27554249Y-35565630D01*
X27419960Y-35550500D01*
X27419954Y-35550500D01*
X26159940Y-35550500D01*
X26092901Y-35530815D01*
X26072259Y-35514181D01*
X21680465Y-31122387D01*
X21663152Y-31100678D01*
X21662903Y-31100281D01*
X21592816Y-30988738D01*
X21465262Y-30861184D01*
X21444199Y-30847949D01*
X21312523Y-30765211D01*
X21142254Y-30705631D01*
X21142249Y-30705630D01*
X20963004Y-30685435D01*
X20962996Y-30685435D01*
X20783750Y-30705630D01*
X20783745Y-30705631D01*
X20613476Y-30765211D01*
X20460737Y-30861184D01*
X20333184Y-30988737D01*
X20237211Y-31141476D01*
X20177631Y-31311745D01*
X20177630Y-31311750D01*
X20162500Y-31446039D01*
X20162500Y-31627191D01*
X18987426Y-31627191D01*
X18843320Y-31483085D01*
X18837980Y-31476995D01*
X18816282Y-31448718D01*
X18690841Y-31352464D01*
X18544762Y-31291956D01*
X18503494Y-31286523D01*
X18503456Y-31286518D01*
X18388001Y-31271318D01*
X18388000Y-31271318D01*
X18352670Y-31275969D01*
X18344572Y-31276500D01*
X14838391Y-31276500D01*
X14771352Y-31256815D01*
X14725597Y-31204011D01*
X14715653Y-31134853D01*
X14744678Y-31071297D01*
X14770569Y-31048692D01*
X14786720Y-31038140D01*
X14841529Y-31005480D01*
X14866894Y-30990366D01*
X14887754Y-30972697D01*
X14893894Y-30968117D01*
X14916785Y-30953164D01*
X14985435Y-30889966D01*
X15009126Y-30869902D01*
X15031078Y-30847949D01*
X15099738Y-30784744D01*
X15116530Y-30763167D01*
X15121604Y-30757422D01*
X16426422Y-29452604D01*
X16432167Y-29447530D01*
X16453744Y-29430738D01*
X16516949Y-29362078D01*
X16538902Y-29340126D01*
X16558966Y-29316435D01*
X16622164Y-29247785D01*
X16637117Y-29224894D01*
X16641697Y-29218754D01*
X16659366Y-29197894D01*
X16707139Y-29117720D01*
X16758173Y-29039607D01*
X16769149Y-29014581D01*
X16772659Y-29007761D01*
X16786656Y-28984274D01*
X16820579Y-28897335D01*
X16858063Y-28811881D01*
X16864774Y-28785374D01*
X16867112Y-28778077D01*
X16877049Y-28752614D01*
X16896198Y-28661288D01*
X16919108Y-28570821D01*
X16921364Y-28543582D01*
X16922472Y-28535982D01*
X16928081Y-28509237D01*
X16931937Y-28415990D01*
X16934500Y-28385067D01*
X16934500Y-28354035D01*
X16938357Y-28260779D01*
X16934975Y-28233651D01*
X16934500Y-28225981D01*
X16934500Y-19885002D01*
X22273751Y-19885002D01*
X22292685Y-20053056D01*
X22348545Y-20212694D01*
X22348547Y-20212697D01*
X22438518Y-20355884D01*
X22438523Y-20355890D01*
X22558109Y-20475476D01*
X22558115Y-20475481D01*
X22701302Y-20565452D01*
X22701305Y-20565454D01*
X22701309Y-20565455D01*
X22701310Y-20565456D01*
X22773913Y-20590860D01*
X22860943Y-20621314D01*
X23028997Y-20640249D01*
X23029000Y-20640249D01*
X23029003Y-20640249D01*
X23197056Y-20621314D01*
X23232996Y-20608738D01*
X23356690Y-20565456D01*
X23356692Y-20565454D01*
X23356694Y-20565454D01*
X23356697Y-20565452D01*
X23499884Y-20475481D01*
X23499885Y-20475480D01*
X23499890Y-20475477D01*
X23619477Y-20355890D01*
X23681434Y-20257287D01*
X23709452Y-20212697D01*
X23709455Y-20212692D01*
X23719564Y-20183802D01*
X23765313Y-20053059D01*
X23765313Y-20053054D01*
X23766613Y-20049341D01*
X23795972Y-20002616D01*
X26086771Y-17711819D01*
X26148095Y-17678334D01*
X26174453Y-17675500D01*
X48023548Y-17675500D01*
X48090587Y-17695185D01*
X48111229Y-17711819D01*
X54572197Y-24172788D01*
X54582022Y-24185051D01*
X54582243Y-24184869D01*
X54587214Y-24190878D01*
X54612572Y-24214690D01*
X54637635Y-24238226D01*
X54658529Y-24259120D01*
X54664011Y-24263373D01*
X54668443Y-24267157D01*
X54702418Y-24299062D01*
X54719976Y-24308714D01*
X54736235Y-24319395D01*
X54752064Y-24331673D01*
X54794838Y-24350182D01*
X54800056Y-24352738D01*
X54840908Y-24375197D01*
X54860316Y-24380180D01*
X54878717Y-24386480D01*
X54897104Y-24394437D01*
X54940488Y-24401308D01*
X54943119Y-24401725D01*
X54948839Y-24402909D01*
X54993981Y-24414500D01*
X55014016Y-24414500D01*
X55033414Y-24416026D01*
X55053194Y-24419159D01*
X55053195Y-24419160D01*
X55053195Y-24419159D01*
X55053196Y-24419160D01*
X55093264Y-24415372D01*
X55099584Y-24414775D01*
X55105422Y-24414500D01*
X56459124Y-24414500D01*
X56525095Y-24433505D01*
X56582310Y-24469456D01*
X56703621Y-24511904D01*
X56741943Y-24525314D01*
X56909997Y-24544249D01*
X56910000Y-24544249D01*
X56910003Y-24544249D01*
X57078056Y-24525314D01*
X57078059Y-24525313D01*
X57237690Y-24469456D01*
X57237692Y-24469454D01*
X57237694Y-24469454D01*
X57237697Y-24469452D01*
X57380884Y-24379481D01*
X57380885Y-24379480D01*
X57380890Y-24379477D01*
X57500477Y-24259890D01*
X57500964Y-24259115D01*
X57590452Y-24116697D01*
X57590454Y-24116694D01*
X57590454Y-24116692D01*
X57590456Y-24116690D01*
X57646313Y-23957059D01*
X57646313Y-23957058D01*
X57646314Y-23957056D01*
X57665249Y-23789002D01*
X57665249Y-23788997D01*
X57646314Y-23620943D01*
X57595949Y-23477009D01*
X57590456Y-23461310D01*
X57590455Y-23461309D01*
X57590454Y-23461305D01*
X57590452Y-23461302D01*
X57500481Y-23318115D01*
X57500476Y-23318109D01*
X57380890Y-23198523D01*
X57380884Y-23198518D01*
X57237697Y-23108547D01*
X57237694Y-23108545D01*
X57078056Y-23052685D01*
X56910003Y-23033751D01*
X56909997Y-23033751D01*
X56741943Y-23052685D01*
X56582307Y-23108545D01*
X56525096Y-23144494D01*
X56459124Y-23163500D01*
X55383453Y-23163500D01*
X55316414Y-23143815D01*
X55295772Y-23127181D01*
X54169596Y-22001005D01*
X72721357Y-22001005D01*
X72741890Y-22248812D01*
X72741892Y-22248824D01*
X72802936Y-22489881D01*
X72902826Y-22717606D01*
X73038833Y-22925782D01*
X73038836Y-22925785D01*
X73207256Y-23108738D01*
X73403491Y-23261474D01*
X73622190Y-23379828D01*
X73857386Y-23460571D01*
X74102665Y-23501500D01*
X74351335Y-23501500D01*
X74596614Y-23460571D01*
X74831810Y-23379828D01*
X75050509Y-23261474D01*
X75246744Y-23108738D01*
X75415164Y-22925785D01*
X75551173Y-22717607D01*
X75651063Y-22489881D01*
X75712108Y-22248821D01*
X75714938Y-22214673D01*
X75732643Y-22001005D01*
X75732643Y-22000994D01*
X75712109Y-21753187D01*
X75712107Y-21753175D01*
X75651063Y-21512118D01*
X75551173Y-21284393D01*
X75415166Y-21076217D01*
X75308705Y-20960570D01*
X75246744Y-20893262D01*
X75050509Y-20740526D01*
X75050507Y-20740525D01*
X75050506Y-20740524D01*
X74831811Y-20622172D01*
X74831802Y-20622169D01*
X74596616Y-20541429D01*
X74351335Y-20500500D01*
X74102665Y-20500500D01*
X73857383Y-20541429D01*
X73622197Y-20622169D01*
X73622188Y-20622172D01*
X73403493Y-20740524D01*
X73207257Y-20893261D01*
X73038833Y-21076217D01*
X72902826Y-21284393D01*
X72802936Y-21512118D01*
X72741892Y-21753175D01*
X72741890Y-21753187D01*
X72721357Y-22000994D01*
X72721357Y-22001005D01*
X54169596Y-22001005D01*
X51669596Y-19501005D01*
X67721357Y-19501005D01*
X67741890Y-19748812D01*
X67741892Y-19748824D01*
X67802936Y-19989881D01*
X67902826Y-20217606D01*
X68038833Y-20425782D01*
X68038836Y-20425785D01*
X68207256Y-20608738D01*
X68403491Y-20761474D01*
X68622190Y-20879828D01*
X68857386Y-20960571D01*
X69102665Y-21001500D01*
X69351335Y-21001500D01*
X69596614Y-20960571D01*
X69831810Y-20879828D01*
X70050509Y-20761474D01*
X70246744Y-20608738D01*
X70415164Y-20425785D01*
X70551173Y-20217607D01*
X70651063Y-19989881D01*
X70712108Y-19748821D01*
X70712109Y-19748812D01*
X70732643Y-19501005D01*
X70732643Y-19500994D01*
X70712109Y-19253187D01*
X70712107Y-19253175D01*
X70651063Y-19012118D01*
X70551173Y-18784393D01*
X70415166Y-18576217D01*
X70393557Y-18552744D01*
X70246744Y-18393262D01*
X70050509Y-18240526D01*
X70050507Y-18240525D01*
X70050506Y-18240524D01*
X69831811Y-18122172D01*
X69831802Y-18122169D01*
X69596616Y-18041429D01*
X69351335Y-18000500D01*
X69102665Y-18000500D01*
X68857383Y-18041429D01*
X68622197Y-18122169D01*
X68622188Y-18122172D01*
X68403493Y-18240524D01*
X68207257Y-18393261D01*
X68038833Y-18576217D01*
X67902826Y-18784393D01*
X67802936Y-19012118D01*
X67741892Y-19253175D01*
X67741890Y-19253187D01*
X67721357Y-19500994D01*
X67721357Y-19501005D01*
X51669596Y-19501005D01*
X49169596Y-17001005D01*
X72721859Y-17001005D01*
X72742385Y-17248729D01*
X72742387Y-17248738D01*
X72803412Y-17489717D01*
X72903266Y-17717364D01*
X73003564Y-17870882D01*
X73664226Y-17210219D01*
X73702901Y-17303588D01*
X73799075Y-17428925D01*
X73924412Y-17525099D01*
X74017779Y-17563772D01*
X73356942Y-18224609D01*
X73403768Y-18261055D01*
X73403770Y-18261056D01*
X73622385Y-18379364D01*
X73622396Y-18379369D01*
X73857506Y-18460083D01*
X74102707Y-18501000D01*
X74351293Y-18501000D01*
X74596493Y-18460083D01*
X74831603Y-18379369D01*
X74831614Y-18379364D01*
X75050228Y-18261057D01*
X75050231Y-18261055D01*
X75097056Y-18224609D01*
X74436220Y-17563773D01*
X74529588Y-17525099D01*
X74654925Y-17428925D01*
X74751099Y-17303589D01*
X74789773Y-17210220D01*
X75450434Y-17870882D01*
X75550731Y-17717369D01*
X75650587Y-17489717D01*
X75711612Y-17248738D01*
X75711614Y-17248729D01*
X75732141Y-17001005D01*
X75732141Y-17000994D01*
X75711614Y-16753270D01*
X75711612Y-16753261D01*
X75650587Y-16512282D01*
X75550731Y-16284630D01*
X75450434Y-16131116D01*
X74789772Y-16791778D01*
X74751099Y-16698412D01*
X74654925Y-16573075D01*
X74529588Y-16476901D01*
X74436220Y-16438227D01*
X75097057Y-15777390D01*
X75097056Y-15777389D01*
X75050229Y-15740943D01*
X74831614Y-15622635D01*
X74831603Y-15622630D01*
X74596493Y-15541916D01*
X74351293Y-15501000D01*
X74102707Y-15501000D01*
X73857506Y-15541916D01*
X73622396Y-15622630D01*
X73622390Y-15622632D01*
X73403761Y-15740949D01*
X73356942Y-15777388D01*
X73356942Y-15777390D01*
X74017779Y-16438227D01*
X73924412Y-16476901D01*
X73799075Y-16573075D01*
X73702901Y-16698411D01*
X73664227Y-16791779D01*
X73003564Y-16131116D01*
X72903267Y-16284632D01*
X72803412Y-16512282D01*
X72742387Y-16753261D01*
X72742385Y-16753270D01*
X72721859Y-17000994D01*
X72721859Y-17001005D01*
X49169596Y-17001005D01*
X48834803Y-16666212D01*
X48824980Y-16653950D01*
X48824759Y-16654134D01*
X48819786Y-16648123D01*
X48801159Y-16630631D01*
X48769364Y-16600773D01*
X48758919Y-16590328D01*
X48748475Y-16579883D01*
X48742986Y-16575625D01*
X48738561Y-16571847D01*
X48704582Y-16539938D01*
X48704580Y-16539936D01*
X48704577Y-16539935D01*
X48687029Y-16530288D01*
X48670763Y-16519604D01*
X48661324Y-16512282D01*
X48654936Y-16507327D01*
X48654935Y-16507326D01*
X48654933Y-16507325D01*
X48612168Y-16488818D01*
X48606922Y-16486248D01*
X48566093Y-16463803D01*
X48566092Y-16463802D01*
X48546693Y-16458822D01*
X48528281Y-16452518D01*
X48509898Y-16444562D01*
X48509892Y-16444560D01*
X48463874Y-16437272D01*
X48458152Y-16436087D01*
X48413021Y-16424500D01*
X48413019Y-16424500D01*
X48392984Y-16424500D01*
X48373586Y-16422973D01*
X48366162Y-16421797D01*
X48353805Y-16419840D01*
X48353804Y-16419840D01*
X48307416Y-16424225D01*
X48301578Y-16424500D01*
X25946737Y-16424500D01*
X25931120Y-16422776D01*
X25931093Y-16423062D01*
X25923331Y-16422327D01*
X25854203Y-16424500D01*
X25824650Y-16424500D01*
X25823929Y-16424590D01*
X25817757Y-16425369D01*
X25811945Y-16425826D01*
X25765372Y-16427290D01*
X25765369Y-16427291D01*
X25746126Y-16432881D01*
X25727083Y-16436825D01*
X25707204Y-16439336D01*
X25707203Y-16439337D01*
X25663878Y-16456490D01*
X25658352Y-16458382D01*
X25613608Y-16471383D01*
X25613604Y-16471385D01*
X25596365Y-16481580D01*
X25578898Y-16490137D01*
X25560269Y-16497512D01*
X25560267Y-16497513D01*
X25522564Y-16524906D01*
X25517682Y-16528112D01*
X25477580Y-16551828D01*
X25463408Y-16566000D01*
X25448623Y-16578628D01*
X25432412Y-16590407D01*
X25402709Y-16626310D01*
X25398777Y-16630631D01*
X22911380Y-19118027D01*
X22864653Y-19147388D01*
X22701308Y-19204544D01*
X22701302Y-19204547D01*
X22558115Y-19294518D01*
X22558109Y-19294523D01*
X22438523Y-19414109D01*
X22438518Y-19414115D01*
X22348547Y-19557302D01*
X22348545Y-19557305D01*
X22292685Y-19716943D01*
X22273751Y-19884997D01*
X22273751Y-19885002D01*
X16934500Y-19885002D01*
X16934500Y-14501005D01*
X67721859Y-14501005D01*
X67742385Y-14748729D01*
X67742387Y-14748738D01*
X67803412Y-14989717D01*
X67903266Y-15217364D01*
X68003564Y-15370882D01*
X68664226Y-14710219D01*
X68702901Y-14803588D01*
X68799075Y-14928925D01*
X68924412Y-15025099D01*
X69017779Y-15063772D01*
X68356942Y-15724609D01*
X68403768Y-15761055D01*
X68403770Y-15761056D01*
X68622385Y-15879364D01*
X68622396Y-15879369D01*
X68857506Y-15960083D01*
X69102707Y-16001000D01*
X69351293Y-16001000D01*
X69596493Y-15960083D01*
X69831603Y-15879369D01*
X69831614Y-15879364D01*
X70050228Y-15761057D01*
X70050231Y-15761055D01*
X70097056Y-15724609D01*
X69436220Y-15063773D01*
X69529588Y-15025099D01*
X69654925Y-14928925D01*
X69751099Y-14803589D01*
X69789773Y-14710220D01*
X70450434Y-15370882D01*
X70550731Y-15217369D01*
X70650587Y-14989717D01*
X70711612Y-14748738D01*
X70711614Y-14748729D01*
X70732141Y-14501005D01*
X70732141Y-14500994D01*
X70711614Y-14253270D01*
X70711612Y-14253261D01*
X70650587Y-14012282D01*
X70550731Y-13784630D01*
X70450434Y-13631116D01*
X69789772Y-14291778D01*
X69751099Y-14198412D01*
X69654925Y-14073075D01*
X69529588Y-13976901D01*
X69436220Y-13938227D01*
X70097057Y-13277390D01*
X70097056Y-13277389D01*
X70050229Y-13240943D01*
X69831614Y-13122635D01*
X69831603Y-13122630D01*
X69596493Y-13041916D01*
X69351293Y-13001000D01*
X69102707Y-13001000D01*
X68857506Y-13041916D01*
X68622396Y-13122630D01*
X68622390Y-13122632D01*
X68403761Y-13240949D01*
X68356942Y-13277388D01*
X68356942Y-13277390D01*
X69017779Y-13938227D01*
X68924412Y-13976901D01*
X68799075Y-14073075D01*
X68702901Y-14198411D01*
X68664227Y-14291779D01*
X68003564Y-13631116D01*
X67903267Y-13784632D01*
X67803412Y-14012282D01*
X67742387Y-14253261D01*
X67742385Y-14253270D01*
X67721859Y-14500994D01*
X67721859Y-14501005D01*
X16934500Y-14501005D01*
X16934500Y-7771552D01*
X16934976Y-7763877D01*
X16938983Y-7731729D01*
X16939827Y-7726671D01*
X16941427Y-7719037D01*
X16952080Y-7668237D01*
X16954547Y-7608574D01*
X16954967Y-7603499D01*
X16962357Y-7544221D01*
X16959889Y-7484561D01*
X16959889Y-7479435D01*
X16962357Y-7419780D01*
X16955984Y-7368656D01*
X16954967Y-7360502D01*
X16954547Y-7355422D01*
X16952080Y-7295763D01*
X16939827Y-7237328D01*
X16938983Y-7232270D01*
X16931598Y-7173021D01*
X16931598Y-7173019D01*
X16914560Y-7115788D01*
X16913301Y-7110819D01*
X16901049Y-7052386D01*
X16887672Y-7018106D01*
X16885327Y-7010785D01*
X16858064Y-6903123D01*
X16858063Y-6903119D01*
X16758173Y-6675393D01*
X16696997Y-6581756D01*
X16622166Y-6467217D01*
X16592890Y-6435415D01*
X16453744Y-6284262D01*
X16257509Y-6131526D01*
X16257507Y-6131525D01*
X16257506Y-6131524D01*
X16038811Y-6013172D01*
X16038802Y-6013169D01*
X15803616Y-5932429D01*
X15558335Y-5891500D01*
X15309665Y-5891500D01*
X15064383Y-5932429D01*
X14829197Y-6013169D01*
X14829188Y-6013172D01*
X14610493Y-6131524D01*
X14414257Y-6284261D01*
X14245833Y-6467217D01*
X14109826Y-6675393D01*
X14009936Y-6903118D01*
X13948892Y-7144175D01*
X13948890Y-7144186D01*
X13933500Y-7329935D01*
X13933500Y-7360981D01*
X13933024Y-7368656D01*
X13929643Y-7395779D01*
X13933103Y-7479436D01*
X13933103Y-7484562D01*
X13929642Y-7568219D01*
X13929642Y-7568220D01*
X13933023Y-7595342D01*
X13933500Y-7603018D01*
X13933500Y-27650110D01*
X13913815Y-27717149D01*
X13897181Y-27737791D01*
X13406791Y-28228181D01*
X13345468Y-28261666D01*
X13319110Y-28264500D01*
X11685890Y-28264500D01*
X11618851Y-28244815D01*
X11598209Y-28228181D01*
X10335819Y-26965791D01*
X10302334Y-26904468D01*
X10299500Y-26878110D01*
X10299500Y-25445582D01*
X10319185Y-25378543D01*
X10371989Y-25332788D01*
X10441147Y-25322844D01*
X10504703Y-25351869D01*
X10542477Y-25410647D01*
X10547028Y-25434775D01*
X10553401Y-25507626D01*
X10553402Y-25507634D01*
X10610463Y-25720587D01*
X10610466Y-25720593D01*
X10703638Y-25920402D01*
X10748694Y-25984750D01*
X11307866Y-25425579D01*
X11330318Y-25502040D01*
X11409605Y-25625413D01*
X11520438Y-25721451D01*
X11653839Y-25782373D01*
X11657633Y-25782918D01*
X11102247Y-26338304D01*
X11166593Y-26383359D01*
X11366406Y-26476533D01*
X11366412Y-26476536D01*
X11579365Y-26533597D01*
X11579373Y-26533598D01*
X11798998Y-26552813D01*
X11799002Y-26552813D01*
X12018626Y-26533598D01*
X12018634Y-26533597D01*
X12231587Y-26476536D01*
X12231598Y-26476532D01*
X12431402Y-26383362D01*
X12431410Y-26383358D01*
X12495751Y-26338305D01*
X12495751Y-26338304D01*
X11940366Y-25782918D01*
X11944161Y-25782373D01*
X12077562Y-25721451D01*
X12188395Y-25625413D01*
X12267682Y-25502040D01*
X12290133Y-25425580D01*
X12849304Y-25984751D01*
X12849305Y-25984751D01*
X12894358Y-25920410D01*
X12894362Y-25920402D01*
X12987532Y-25720598D01*
X12987536Y-25720587D01*
X13044597Y-25507634D01*
X13044598Y-25507626D01*
X13063813Y-25288001D01*
X13063813Y-25287998D01*
X13044598Y-25068373D01*
X13044597Y-25068366D01*
X12987533Y-24855404D01*
X12894360Y-24655595D01*
X12894359Y-24655593D01*
X12849304Y-24591248D01*
X12849304Y-24591247D01*
X12290132Y-25150418D01*
X12267682Y-25073960D01*
X12188395Y-24950587D01*
X12077562Y-24854549D01*
X11944161Y-24793627D01*
X11940365Y-24793081D01*
X12495751Y-24237694D01*
X12431402Y-24192638D01*
X12231593Y-24099466D01*
X12231587Y-24099463D01*
X12018634Y-24042402D01*
X12018626Y-24042401D01*
X11799002Y-24023187D01*
X11798998Y-24023187D01*
X11579373Y-24042401D01*
X11579366Y-24042402D01*
X11366404Y-24099466D01*
X11166594Y-24192640D01*
X11102248Y-24237694D01*
X11657635Y-24793081D01*
X11653839Y-24793627D01*
X11520438Y-24854549D01*
X11409605Y-24950587D01*
X11330318Y-25073960D01*
X11307866Y-25150420D01*
X10748694Y-24591248D01*
X10703640Y-24655594D01*
X10610466Y-24855404D01*
X10553402Y-25068366D01*
X10553401Y-25068372D01*
X10543181Y-25185192D01*
X10517728Y-25250260D01*
X10461137Y-25291239D01*
X10391375Y-25295117D01*
X10330591Y-25260663D01*
X10298084Y-25198816D01*
X10296078Y-25184639D01*
X10284108Y-25040179D01*
X10239443Y-24863802D01*
X10223063Y-24799118D01*
X10123174Y-24571395D01*
X10123173Y-24571393D01*
X10074996Y-24497654D01*
X10055516Y-24443083D01*
X10053091Y-24420518D01*
X10050960Y-24414805D01*
X10002796Y-24285669D01*
X10002795Y-24285668D01*
X10002793Y-24285664D01*
X9916547Y-24170455D01*
X9916544Y-24170452D01*
X9801335Y-24084206D01*
X9801328Y-24084202D01*
X9666484Y-24033909D01*
X9650603Y-24032201D01*
X9604846Y-24017967D01*
X9536238Y-23980838D01*
X9403811Y-23909172D01*
X9403802Y-23909169D01*
X9168616Y-23828429D01*
X8962770Y-23794080D01*
X8899884Y-23763630D01*
X8863445Y-23704015D01*
X8865020Y-23634163D01*
X8895496Y-23584093D01*
X8906565Y-23573023D01*
X8967886Y-23539540D01*
X8983430Y-23537179D01*
X9018720Y-23534092D01*
X9231763Y-23477007D01*
X9431658Y-23383795D01*
X9612329Y-23257288D01*
X9768288Y-23101329D01*
X9894795Y-22920658D01*
X9988007Y-22720763D01*
X10045092Y-22507720D01*
X10064315Y-22288001D01*
X10534187Y-22288001D01*
X10553401Y-22507626D01*
X10553402Y-22507634D01*
X10610463Y-22720587D01*
X10610466Y-22720593D01*
X10703638Y-22920402D01*
X10748694Y-22984750D01*
X11307866Y-22425579D01*
X11330318Y-22502040D01*
X11409605Y-22625413D01*
X11520438Y-22721451D01*
X11653839Y-22782373D01*
X11657633Y-22782918D01*
X11102247Y-23338304D01*
X11166593Y-23383359D01*
X11366406Y-23476533D01*
X11366412Y-23476536D01*
X11579365Y-23533597D01*
X11579373Y-23533598D01*
X11798998Y-23552813D01*
X11799002Y-23552813D01*
X12018626Y-23533598D01*
X12018634Y-23533597D01*
X12231587Y-23476536D01*
X12231598Y-23476532D01*
X12431402Y-23383362D01*
X12431410Y-23383358D01*
X12495751Y-23338305D01*
X12495751Y-23338304D01*
X11940366Y-22782918D01*
X11944161Y-22782373D01*
X12077562Y-22721451D01*
X12188395Y-22625413D01*
X12267682Y-22502040D01*
X12290133Y-22425580D01*
X12849304Y-22984751D01*
X12849305Y-22984751D01*
X12894358Y-22920410D01*
X12894362Y-22920402D01*
X12987532Y-22720598D01*
X12987536Y-22720587D01*
X13044597Y-22507634D01*
X13044598Y-22507626D01*
X13063813Y-22288001D01*
X13063813Y-22287998D01*
X13044598Y-22068373D01*
X13044597Y-22068366D01*
X12987533Y-21855404D01*
X12894360Y-21655595D01*
X12894359Y-21655593D01*
X12849304Y-21591248D01*
X12849304Y-21591247D01*
X12290132Y-22150418D01*
X12267682Y-22073960D01*
X12188395Y-21950587D01*
X12077562Y-21854549D01*
X11944161Y-21793627D01*
X11940363Y-21793081D01*
X12495751Y-21237694D01*
X12431402Y-21192638D01*
X12231593Y-21099466D01*
X12231587Y-21099463D01*
X12018634Y-21042402D01*
X12018626Y-21042401D01*
X11799002Y-21023187D01*
X11798998Y-21023187D01*
X11579373Y-21042401D01*
X11579366Y-21042402D01*
X11366404Y-21099466D01*
X11166594Y-21192640D01*
X11102247Y-21237694D01*
X11657633Y-21793081D01*
X11653839Y-21793627D01*
X11520438Y-21854549D01*
X11409605Y-21950587D01*
X11330318Y-22073960D01*
X11307866Y-22150420D01*
X10748694Y-21591248D01*
X10703640Y-21655594D01*
X10610466Y-21855404D01*
X10553402Y-22068366D01*
X10553401Y-22068373D01*
X10534187Y-22287998D01*
X10534187Y-22288001D01*
X10064315Y-22288001D01*
X10064315Y-22288000D01*
X10060886Y-22248812D01*
X10045100Y-22068373D01*
X10045092Y-22068280D01*
X9988007Y-21855237D01*
X9894795Y-21655343D01*
X9794509Y-21512119D01*
X9768286Y-21474668D01*
X9612330Y-21318712D01*
X9431662Y-21192207D01*
X9431654Y-21192203D01*
X9231769Y-21098995D01*
X9231755Y-21098990D01*
X9018724Y-21041909D01*
X9018722Y-21041908D01*
X9018720Y-21041908D01*
X9018718Y-21041907D01*
X9018714Y-21041907D01*
X8799002Y-21022685D01*
X8798998Y-21022685D01*
X8579285Y-21041907D01*
X8579275Y-21041909D01*
X8366244Y-21098990D01*
X8366235Y-21098994D01*
X8166344Y-21192204D01*
X8166342Y-21192205D01*
X7985668Y-21318713D01*
X7829713Y-21474668D01*
X7703205Y-21655342D01*
X7703204Y-21655344D01*
X7646009Y-21778000D01*
X7616540Y-21841198D01*
X7609994Y-21855235D01*
X7609990Y-21855244D01*
X7552909Y-22068275D01*
X7552907Y-22068285D01*
X7533685Y-22287998D01*
X7533685Y-22288001D01*
X7552907Y-22507714D01*
X7552909Y-22507724D01*
X7609990Y-22720755D01*
X7609992Y-22720759D01*
X7609993Y-22720763D01*
X7694034Y-22900991D01*
X7704526Y-22970067D01*
X7676006Y-23033851D01*
X7669333Y-23041075D01*
X3303208Y-27407199D01*
X3290951Y-27417020D01*
X3291134Y-27417241D01*
X3285123Y-27422213D01*
X3237772Y-27472636D01*
X3216889Y-27493519D01*
X3216877Y-27493532D01*
X3212621Y-27499017D01*
X3208837Y-27503447D01*
X3176937Y-27537418D01*
X3176936Y-27537420D01*
X3167284Y-27554976D01*
X3156610Y-27571226D01*
X3144329Y-27587061D01*
X3144324Y-27587068D01*
X3125815Y-27629838D01*
X3123245Y-27635084D01*
X3100803Y-27675906D01*
X3095822Y-27695307D01*
X3089521Y-27713710D01*
X3081562Y-27732102D01*
X3081561Y-27732105D01*
X3074271Y-27778127D01*
X3073087Y-27783846D01*
X3061501Y-27828972D01*
X3061500Y-27828982D01*
X3061500Y-27849016D01*
X3059973Y-27868415D01*
X3056840Y-27888194D01*
X3056840Y-27888195D01*
X82616Y-27888195D01*
X82399Y-23259187D01*
X2728500Y-23259187D01*
X2746685Y-23379827D01*
X2767604Y-23518615D01*
X2767605Y-23518617D01*
X2767606Y-23518623D01*
X2844938Y-23769326D01*
X2958767Y-24005696D01*
X2958768Y-24005697D01*
X2958770Y-24005700D01*
X2958772Y-24005704D01*
X3034444Y-24116694D01*
X3106567Y-24222479D01*
X3285014Y-24414801D01*
X3285018Y-24414804D01*
X3285019Y-24414805D01*
X3490143Y-24578386D01*
X3717357Y-24709568D01*
X3961584Y-24805420D01*
X4217370Y-24863802D01*
X4217376Y-24863802D01*
X4217379Y-24863803D01*
X4413500Y-24878500D01*
X4413506Y-24878500D01*
X4544500Y-24878500D01*
X4740620Y-24863803D01*
X4740622Y-24863802D01*
X4740630Y-24863802D01*
X4996416Y-24805420D01*
X5240643Y-24709568D01*
X5467857Y-24578386D01*
X5672981Y-24414805D01*
X5684693Y-24402183D01*
X5761507Y-24319396D01*
X5851433Y-24222479D01*
X5999228Y-24005704D01*
X6113063Y-23769323D01*
X6190396Y-23518615D01*
X6229500Y-23259182D01*
X6229500Y-22996818D01*
X6190396Y-22737385D01*
X6113063Y-22486677D01*
X6017386Y-22288001D01*
X5999232Y-22250303D01*
X5999231Y-22250302D01*
X5999230Y-22250301D01*
X5999228Y-22250296D01*
X5851433Y-22033521D01*
X5821258Y-22001000D01*
X5672985Y-21841198D01*
X5593737Y-21778000D01*
X5467857Y-21677614D01*
X5240643Y-21546432D01*
X4996416Y-21450580D01*
X4996411Y-21450578D01*
X4996402Y-21450576D01*
X4778818Y-21400914D01*
X4740630Y-21392198D01*
X4740629Y-21392197D01*
X4740625Y-21392197D01*
X4740620Y-21392196D01*
X4544500Y-21377500D01*
X4544494Y-21377500D01*
X4413506Y-21377500D01*
X4413500Y-21377500D01*
X4217379Y-21392196D01*
X4217374Y-21392197D01*
X3961597Y-21450576D01*
X3961578Y-21450582D01*
X3717356Y-21546432D01*
X3490143Y-21677614D01*
X3285014Y-21841198D01*
X3106567Y-22033520D01*
X2958768Y-22250302D01*
X2958767Y-22250303D01*
X2844938Y-22486673D01*
X2767606Y-22737376D01*
X2767605Y-22737381D01*
X2767604Y-22737385D01*
X2760823Y-22782373D01*
X2728500Y-22996812D01*
X2728500Y-23259187D01*
X82399Y-23259187D01*
X82180Y-18579187D01*
X2728500Y-18579187D01*
X2748794Y-18713823D01*
X2767604Y-18838615D01*
X2767605Y-18838617D01*
X2767606Y-18838623D01*
X2844938Y-19089326D01*
X2958767Y-19325696D01*
X2958768Y-19325697D01*
X2958770Y-19325700D01*
X2958772Y-19325704D01*
X3106567Y-19542479D01*
X3285014Y-19734801D01*
X3285018Y-19734804D01*
X3285019Y-19734805D01*
X3490143Y-19898386D01*
X3717357Y-20029568D01*
X3961584Y-20125420D01*
X4217370Y-20183802D01*
X4217376Y-20183802D01*
X4217379Y-20183803D01*
X4413500Y-20198500D01*
X4413506Y-20198500D01*
X4544500Y-20198500D01*
X4740620Y-20183803D01*
X4740622Y-20183802D01*
X4740630Y-20183802D01*
X4996416Y-20125420D01*
X5240643Y-20029568D01*
X5467857Y-19898386D01*
X5672981Y-19734805D01*
X5686005Y-19720769D01*
X5712945Y-19691733D01*
X5851433Y-19542479D01*
X5999228Y-19325704D01*
X6017385Y-19288001D01*
X7533685Y-19288001D01*
X7552907Y-19507714D01*
X7552909Y-19507724D01*
X7609990Y-19720755D01*
X7609995Y-19720769D01*
X7703203Y-19920654D01*
X7703207Y-19920662D01*
X7829712Y-20101330D01*
X7985669Y-20257287D01*
X8166337Y-20383792D01*
X8166339Y-20383793D01*
X8166342Y-20383795D01*
X8286603Y-20439873D01*
X8366230Y-20477004D01*
X8366232Y-20477004D01*
X8366237Y-20477007D01*
X8579280Y-20534092D01*
X8736222Y-20547822D01*
X8798998Y-20553315D01*
X8799000Y-20553315D01*
X8799002Y-20553315D01*
X8853929Y-20548509D01*
X9018720Y-20534092D01*
X9231763Y-20477007D01*
X9431658Y-20383795D01*
X9612329Y-20257288D01*
X9768288Y-20101329D01*
X9894795Y-19920658D01*
X9988007Y-19720763D01*
X10045092Y-19507720D01*
X10064315Y-19288001D01*
X10533685Y-19288001D01*
X10552907Y-19507714D01*
X10552909Y-19507724D01*
X10609990Y-19720755D01*
X10609995Y-19720769D01*
X10703203Y-19920654D01*
X10703207Y-19920662D01*
X10829712Y-20101330D01*
X10985669Y-20257287D01*
X11166337Y-20383792D01*
X11166339Y-20383793D01*
X11166342Y-20383795D01*
X11286603Y-20439873D01*
X11366230Y-20477004D01*
X11366232Y-20477004D01*
X11366237Y-20477007D01*
X11579280Y-20534092D01*
X11736222Y-20547822D01*
X11798998Y-20553315D01*
X11799000Y-20553315D01*
X11799002Y-20553315D01*
X11853929Y-20548509D01*
X12018720Y-20534092D01*
X12231763Y-20477007D01*
X12431658Y-20383795D01*
X12612329Y-20257288D01*
X12768288Y-20101329D01*
X12894795Y-19920658D01*
X12988007Y-19720763D01*
X13045092Y-19507720D01*
X13064315Y-19288000D01*
X13045092Y-19068280D01*
X12988007Y-18855237D01*
X12894795Y-18655343D01*
X12768288Y-18474671D01*
X12768286Y-18474668D01*
X12612330Y-18318712D01*
X12431662Y-18192207D01*
X12431654Y-18192203D01*
X12231769Y-18098995D01*
X12231755Y-18098990D01*
X12018724Y-18041909D01*
X12018722Y-18041908D01*
X12018720Y-18041908D01*
X12018718Y-18041907D01*
X12018714Y-18041907D01*
X11799002Y-18022685D01*
X11798998Y-18022685D01*
X11579285Y-18041907D01*
X11579275Y-18041909D01*
X11366244Y-18098990D01*
X11366235Y-18098994D01*
X11166344Y-18192204D01*
X11166342Y-18192205D01*
X10985668Y-18318713D01*
X10829713Y-18474668D01*
X10703205Y-18655342D01*
X10703204Y-18655344D01*
X10609994Y-18855235D01*
X10609990Y-18855244D01*
X10552909Y-19068275D01*
X10552907Y-19068285D01*
X10533685Y-19287998D01*
X10533685Y-19288001D01*
X10064315Y-19288001D01*
X10064315Y-19288000D01*
X10045092Y-19068280D01*
X9988007Y-18855237D01*
X9894795Y-18655343D01*
X9768288Y-18474671D01*
X9768286Y-18474668D01*
X9612330Y-18318712D01*
X9431662Y-18192207D01*
X9431654Y-18192203D01*
X9231769Y-18098995D01*
X9231755Y-18098990D01*
X9018724Y-18041909D01*
X9018722Y-18041908D01*
X9018720Y-18041908D01*
X9018718Y-18041907D01*
X9018714Y-18041907D01*
X8799002Y-18022685D01*
X8798998Y-18022685D01*
X8579285Y-18041907D01*
X8579275Y-18041909D01*
X8366244Y-18098990D01*
X8366235Y-18098994D01*
X8166344Y-18192204D01*
X8166342Y-18192205D01*
X7985668Y-18318713D01*
X7829713Y-18474668D01*
X7703205Y-18655342D01*
X7703204Y-18655344D01*
X7609994Y-18855235D01*
X7609990Y-18855244D01*
X7552909Y-19068275D01*
X7552907Y-19068285D01*
X7533685Y-19287998D01*
X7533685Y-19288001D01*
X6017385Y-19288001D01*
X6113063Y-19089323D01*
X6190396Y-18838615D01*
X6229500Y-18579182D01*
X6229500Y-18316818D01*
X6190396Y-18057385D01*
X6113063Y-17806677D01*
X6067382Y-17711819D01*
X5999232Y-17570303D01*
X5999231Y-17570302D01*
X5999230Y-17570301D01*
X5999228Y-17570296D01*
X5851433Y-17353521D01*
X5805102Y-17303588D01*
X5672985Y-17161198D01*
X5633533Y-17129736D01*
X5467857Y-16997614D01*
X5240643Y-16866432D01*
X4996416Y-16770580D01*
X4996411Y-16770578D01*
X4996402Y-16770576D01*
X4777384Y-16720587D01*
X4740630Y-16712198D01*
X4740629Y-16712197D01*
X4740625Y-16712197D01*
X4740620Y-16712196D01*
X4544500Y-16697500D01*
X4544494Y-16697500D01*
X4413506Y-16697500D01*
X4413500Y-16697500D01*
X4217379Y-16712196D01*
X4217374Y-16712197D01*
X3961597Y-16770576D01*
X3961578Y-16770582D01*
X3717356Y-16866432D01*
X3490143Y-16997614D01*
X3285014Y-17161198D01*
X3106567Y-17353520D01*
X2976128Y-17544839D01*
X2970350Y-17553315D01*
X2958768Y-17570302D01*
X2958767Y-17570303D01*
X2844938Y-17806673D01*
X2767606Y-18057376D01*
X2767605Y-18057381D01*
X2767604Y-18057385D01*
X2761332Y-18098995D01*
X2728500Y-18316812D01*
X2728500Y-18579187D01*
X82180Y-18579187D01*
X82073Y-16288001D01*
X7533685Y-16288001D01*
X7552907Y-16507714D01*
X7552909Y-16507724D01*
X7609990Y-16720755D01*
X7609995Y-16720769D01*
X7703203Y-16920654D01*
X7703207Y-16920662D01*
X7829712Y-17101330D01*
X7985669Y-17257287D01*
X8166337Y-17383792D01*
X8166339Y-17383793D01*
X8166342Y-17383795D01*
X8263124Y-17428925D01*
X8366230Y-17477004D01*
X8366232Y-17477004D01*
X8366237Y-17477007D01*
X8579280Y-17534092D01*
X8736222Y-17547822D01*
X8798998Y-17553315D01*
X8799000Y-17553315D01*
X8799002Y-17553315D01*
X8853929Y-17548509D01*
X9018720Y-17534092D01*
X9231763Y-17477007D01*
X9431658Y-17383795D01*
X9612329Y-17257288D01*
X9768288Y-17101329D01*
X9894795Y-16920658D01*
X9988007Y-16720763D01*
X10045092Y-16507720D01*
X10064315Y-16288001D01*
X10534187Y-16288001D01*
X10553401Y-16507626D01*
X10553402Y-16507634D01*
X10610463Y-16720587D01*
X10610466Y-16720593D01*
X10703638Y-16920402D01*
X10748694Y-16984750D01*
X11307866Y-16425579D01*
X11330318Y-16502040D01*
X11409605Y-16625413D01*
X11520438Y-16721451D01*
X11653839Y-16782373D01*
X11657633Y-16782918D01*
X11102247Y-17338304D01*
X11166593Y-17383359D01*
X11366406Y-17476533D01*
X11366412Y-17476536D01*
X11579365Y-17533597D01*
X11579373Y-17533598D01*
X11798998Y-17552813D01*
X11799002Y-17552813D01*
X12018626Y-17533598D01*
X12018634Y-17533597D01*
X12231587Y-17476536D01*
X12231598Y-17476532D01*
X12431402Y-17383362D01*
X12431410Y-17383358D01*
X12495751Y-17338305D01*
X12495751Y-17338304D01*
X11940366Y-16782918D01*
X11944161Y-16782373D01*
X12077562Y-16721451D01*
X12188395Y-16625413D01*
X12267682Y-16502040D01*
X12290133Y-16425580D01*
X12849304Y-16984751D01*
X12849305Y-16984751D01*
X12894358Y-16920410D01*
X12894362Y-16920402D01*
X12987532Y-16720598D01*
X12987536Y-16720587D01*
X13044597Y-16507634D01*
X13044598Y-16507626D01*
X13063813Y-16288001D01*
X13063813Y-16287998D01*
X13044598Y-16068373D01*
X13044597Y-16068366D01*
X12987533Y-15855404D01*
X12894360Y-15655595D01*
X12894359Y-15655593D01*
X12849304Y-15591248D01*
X12849304Y-15591247D01*
X12290132Y-16150418D01*
X12267682Y-16073960D01*
X12188395Y-15950587D01*
X12077562Y-15854549D01*
X11944161Y-15793627D01*
X11940365Y-15793081D01*
X12495751Y-15237694D01*
X12431402Y-15192638D01*
X12231593Y-15099466D01*
X12231587Y-15099463D01*
X12018634Y-15042402D01*
X12018626Y-15042401D01*
X11799002Y-15023187D01*
X11798998Y-15023187D01*
X11579373Y-15042401D01*
X11579366Y-15042402D01*
X11366404Y-15099466D01*
X11166594Y-15192640D01*
X11102248Y-15237694D01*
X11657635Y-15793081D01*
X11653839Y-15793627D01*
X11520438Y-15854549D01*
X11409605Y-15950587D01*
X11330318Y-16073960D01*
X11307866Y-16150420D01*
X10748694Y-15591248D01*
X10703640Y-15655594D01*
X10610466Y-15855404D01*
X10553402Y-16068366D01*
X10553401Y-16068373D01*
X10534187Y-16287998D01*
X10534187Y-16288001D01*
X10064315Y-16288001D01*
X10064315Y-16288000D01*
X10064020Y-16284632D01*
X10045100Y-16068373D01*
X10045092Y-16068280D01*
X9988007Y-15855237D01*
X9894795Y-15655343D01*
X9768288Y-15474671D01*
X9768286Y-15474668D01*
X9612330Y-15318712D01*
X9431662Y-15192207D01*
X9431654Y-15192203D01*
X9231769Y-15098995D01*
X9231755Y-15098990D01*
X9018724Y-15041909D01*
X9018722Y-15041908D01*
X9018720Y-15041908D01*
X9018718Y-15041907D01*
X9018714Y-15041907D01*
X8799002Y-15022685D01*
X8798998Y-15022685D01*
X8579285Y-15041907D01*
X8579275Y-15041909D01*
X8366244Y-15098990D01*
X8366235Y-15098994D01*
X8166344Y-15192204D01*
X8166342Y-15192205D01*
X7985668Y-15318713D01*
X7829713Y-15474668D01*
X7703205Y-15655342D01*
X7703204Y-15655344D01*
X7609994Y-15855235D01*
X7609990Y-15855244D01*
X7552909Y-16068275D01*
X7552907Y-16068285D01*
X7533685Y-16287998D01*
X7533685Y-16288001D01*
X82073Y-16288001D01*
X81575Y-5673903D01*
X2948793Y-5673903D01*
X2958672Y-5981970D01*
X2958672Y-5981975D01*
X2958673Y-5981978D01*
X3007867Y-6286261D01*
X3052137Y-6435419D01*
X3095571Y-6581763D01*
X3220333Y-6863601D01*
X3220337Y-6863609D01*
X3380123Y-7127193D01*
X3380127Y-7127198D01*
X3380133Y-7127207D01*
X3572297Y-7368174D01*
X3572299Y-7368176D01*
X3572303Y-7368180D01*
X3572304Y-7368181D01*
X3793724Y-7582614D01*
X3960862Y-7707352D01*
X4040741Y-7766968D01*
X4040743Y-7766969D01*
X4040747Y-7766972D01*
X4309318Y-7918228D01*
X4450057Y-7975207D01*
X4595018Y-8033897D01*
X4595023Y-8033898D01*
X4595025Y-8033899D01*
X4893179Y-8112084D01*
X5198883Y-8151500D01*
X5198890Y-8151500D01*
X5429980Y-8151500D01*
X5528814Y-8145154D01*
X5660601Y-8136693D01*
X5963151Y-8077772D01*
X6255683Y-7980644D01*
X6255689Y-7980640D01*
X6255693Y-7980640D01*
X6446571Y-7888717D01*
X6533393Y-7846907D01*
X6791720Y-7678754D01*
X7026424Y-7478948D01*
X7233650Y-7250769D01*
X7409996Y-6997963D01*
X7552567Y-6724683D01*
X7659020Y-6435415D01*
X7727609Y-6134908D01*
X7757206Y-5828098D01*
X7752261Y-5673903D01*
X71557793Y-5673903D01*
X71567672Y-5981970D01*
X71567672Y-5981975D01*
X71567673Y-5981978D01*
X71616867Y-6286261D01*
X71661137Y-6435419D01*
X71704571Y-6581763D01*
X71829333Y-6863601D01*
X71829337Y-6863609D01*
X71989123Y-7127193D01*
X71989127Y-7127198D01*
X71989133Y-7127207D01*
X72181297Y-7368174D01*
X72181299Y-7368176D01*
X72181303Y-7368180D01*
X72181304Y-7368181D01*
X72402724Y-7582614D01*
X72569862Y-7707352D01*
X72649741Y-7766968D01*
X72649743Y-7766969D01*
X72649747Y-7766972D01*
X72918318Y-7918228D01*
X73059057Y-7975207D01*
X73204018Y-8033897D01*
X73204023Y-8033898D01*
X73204025Y-8033899D01*
X73502179Y-8112084D01*
X73807883Y-8151500D01*
X73807890Y-8151500D01*
X74038980Y-8151500D01*
X74137814Y-8145154D01*
X74269601Y-8136693D01*
X74572151Y-8077772D01*
X74864683Y-7980644D01*
X74864689Y-7980640D01*
X74864693Y-7980640D01*
X75055571Y-7888717D01*
X75142393Y-7846907D01*
X75400720Y-7678754D01*
X75635424Y-7478948D01*
X75842650Y-7250769D01*
X76018996Y-6997963D01*
X76161567Y-6724683D01*
X76268020Y-6435415D01*
X76336609Y-6134908D01*
X76366206Y-5828098D01*
X76356327Y-5520022D01*
X76307133Y-5215739D01*
X76219431Y-4920244D01*
X76219429Y-4920239D01*
X76219428Y-4920236D01*
X76094666Y-4638398D01*
X76094663Y-4638391D01*
X75934877Y-4374807D01*
X75934870Y-4374799D01*
X75934866Y-4374792D01*
X75742702Y-4133825D01*
X75742700Y-4133823D01*
X75669127Y-4062572D01*
X75521276Y-3919386D01*
X75392450Y-3823241D01*
X75274258Y-3735031D01*
X75203131Y-3694973D01*
X75005682Y-3583772D01*
X74968383Y-3568671D01*
X74719981Y-3468102D01*
X74552660Y-3424226D01*
X74421821Y-3389916D01*
X74116117Y-3350500D01*
X73885026Y-3350500D01*
X73885020Y-3350500D01*
X73654406Y-3365306D01*
X73654389Y-3365308D01*
X73351854Y-3424226D01*
X73351849Y-3424228D01*
X73059310Y-3521358D01*
X73059306Y-3521359D01*
X72781613Y-3655089D01*
X72781605Y-3655094D01*
X72523286Y-3823241D01*
X72523276Y-3823248D01*
X72288581Y-4023046D01*
X72288571Y-4023056D01*
X72081354Y-4251225D01*
X72081350Y-4251229D01*
X71905005Y-4504033D01*
X71905003Y-4504037D01*
X71762432Y-4777319D01*
X71762429Y-4777326D01*
X71655981Y-5066580D01*
X71655979Y-5066590D01*
X71587391Y-5367089D01*
X71557794Y-5673902D01*
X71557793Y-5673903D01*
X7752261Y-5673903D01*
X7747327Y-5520022D01*
X7698133Y-5215739D01*
X7610431Y-4920244D01*
X7610429Y-4920239D01*
X7610428Y-4920236D01*
X7485666Y-4638398D01*
X7485663Y-4638391D01*
X7325877Y-4374807D01*
X7325870Y-4374799D01*
X7325866Y-4374792D01*
X7133702Y-4133825D01*
X7133700Y-4133823D01*
X7060127Y-4062572D01*
X6912276Y-3919386D01*
X6783450Y-3823241D01*
X6665258Y-3735031D01*
X6594131Y-3694973D01*
X6396682Y-3583772D01*
X6359383Y-3568671D01*
X6110981Y-3468102D01*
X5943660Y-3424226D01*
X5812821Y-3389916D01*
X5507117Y-3350500D01*
X5276026Y-3350500D01*
X5276020Y-3350500D01*
X5045406Y-3365306D01*
X5045389Y-3365308D01*
X4742854Y-3424226D01*
X4742849Y-3424228D01*
X4450310Y-3521358D01*
X4450306Y-3521359D01*
X4172613Y-3655089D01*
X4172605Y-3655094D01*
X3914286Y-3823241D01*
X3914276Y-3823248D01*
X3679581Y-4023046D01*
X3679571Y-4023056D01*
X3472354Y-4251225D01*
X3472350Y-4251229D01*
X3296005Y-4504033D01*
X3296003Y-4504037D01*
X3153432Y-4777319D01*
X3153429Y-4777326D01*
X3046981Y-5066580D01*
X3046979Y-5066590D01*
X2978391Y-5367089D01*
X2948794Y-5673902D01*
X2948793Y-5673903D01*
X81575Y-5673903D01*
X81500Y-4065435D01*
X81566Y-4062572D01*
X83393Y-4023046D01*
X89500Y-3890940D01*
X99302Y-3691444D01*
X99818Y-3685955D01*
X125670Y-3500633D01*
X137004Y-3424228D01*
X153331Y-3314162D01*
X154292Y-3309137D01*
X197689Y-3124626D01*
X242993Y-2943764D01*
X244323Y-2939216D01*
X304915Y-2758431D01*
X367457Y-2583641D01*
X369100Y-2579527D01*
X446368Y-2404530D01*
X525615Y-2236977D01*
X527444Y-2233423D01*
X620781Y-2065852D01*
X715990Y-1907005D01*
X717979Y-1903904D01*
X826570Y-1745381D01*
X936924Y-1596586D01*
X938928Y-1594033D01*
X1061875Y-1445973D01*
X1186351Y-1308636D01*
X1188361Y-1306526D01*
X1323526Y-1171361D01*
X1325636Y-1169351D01*
X1462973Y-1044875D01*
X1611033Y-921928D01*
X1613586Y-919924D01*
X1762381Y-809570D01*
X1920904Y-700979D01*
X1924005Y-698990D01*
X2082858Y-603778D01*
X2250423Y-510444D01*
X2253977Y-508615D01*
X2421530Y-429368D01*
X2596538Y-352095D01*
X2600641Y-350457D01*
X2775431Y-287915D01*
X2956216Y-227323D01*
X2960764Y-225993D01*
X3141626Y-180689D01*
X3326137Y-137292D01*
X3331162Y-136331D01*
X3517651Y-108667D01*
X3702955Y-82818D01*
X3708446Y-82302D01*
X3907958Y-72500D01*
X4049945Y-65935D01*
X4079577Y-64566D01*
X4082440Y-64500D01*
X75476560Y-64500D01*
X75479423Y-64566D01*
G37*
G04 #@! TD.AperFunction*
M02*
