M48
; DRILL file {KiCad 7.0.6-0} date 2023 December 12, Tuesday 12:04:41
; FORMAT={-:-/ absolute / metric / decimal}
; #@! TF.CreationDate,2023-12-12T12:04:41-03:00
; #@! TF.GenerationSoftware,Kicad,Pcbnew,7.0.6-0
; #@! TF.FileFunction,Plated,1,4,PTH
FMAT,2
METRIC
; #@! TA.AperFunction,Plated,PTH,ViaDrill
T1C0.300
; #@! TA.AperFunction,Plated,PTH,ViaDrill
T2C0.400
; #@! TA.AperFunction,Plated,PTH,ComponentDrill
T3C0.800
; #@! TA.AperFunction,Plated,PTH,ComponentDrill
T4C0.991
; #@! TA.AperFunction,Plated,PTH,ComponentDrill
T5C1.000
; #@! TA.AperFunction,Plated,PTH,ComponentDrill
T6C1.020
; #@! TA.AperFunction,Plated,PTH,ComponentDrill
T7C1.100
; #@! TA.AperFunction,Plated,PTH,ComponentDrill
T8C1.200
; #@! TA.AperFunction,Plated,PTH,ComponentDrill
T9C1.400
; #@! TA.AperFunction,Plated,PTH,ComponentDrill
T10C1.600
; #@! TA.AperFunction,Plated,PTH,ComponentDrill
T11C1.650
; #@! TA.AperFunction,Plated,PTH,ComponentDrill
T12C2.000
; #@! TA.AperFunction,Plated,PTH,ComponentDrill
T13C2.100
; #@! TA.AperFunction,Plated,PTH,ComponentDrill
T14C4.200
%
G90
G05
T1
X14.067Y-7.233
X14.649Y-7.233
X15.23Y-7.233
X17.964Y-94.081
X18.184Y-82.291
X20.031Y-37.722
X20.615Y-83.841
X23.202Y-53.88
X23.722Y-54.462
X23.735Y-53.898
X23.747Y-53.347
X24.255Y-53.892
X25.766Y-86.292
X28.127Y-13.489
X28.686Y-35.831
X29.206Y-36.413
X29.219Y-35.849
X29.231Y-35.298
X29.567Y-60.288
X29.739Y-35.843
X30.087Y-60.87
X30.1Y-60.306
X30.112Y-59.755
X30.62Y-60.3
X32.487Y-6.633
X32.487Y-7.183
X32.487Y-7.733
X33.037Y-6.633
X33.037Y-7.183
X33.037Y-7.733
X33.587Y-6.633
X33.587Y-7.183
X33.587Y-7.733
X34.137Y-6.633
X34.137Y-7.183
X34.137Y-7.733
X40.337Y-109.869
X40.971Y-109.301
X40.971Y-110.454
X40.972Y-109.87
X41.555Y-109.878
X43.38Y-86.263
X45.553Y-55.581
X46.23Y-48.433
X47.553Y-40.481
X48.069Y-39.966
X48.069Y-40.482
X48.069Y-40.981
X48.603Y-40.481
X50.29Y-33.421
X57.744Y-7.183
X58.149Y-137.412
X59.557Y-123.229
X60.549Y-137.422
X63.549Y-136.982
X66.269Y-138.266
X66.835Y-87.593
X66.835Y-90.133
X66.835Y-92.673
X66.835Y-95.467
X67.789Y-136.667
X67.896Y-122.011
X68.05Y-75.104
X68.074Y-79.673
X68.074Y-81.01
X68.69Y-122.027
X69.584Y-119.638
X71.299Y-115.132
X72.729Y-84.352
X73.244Y-115.966
X73.244Y-129.613
X73.324Y-66.797
X73.449Y-76.522
X73.83Y-120.799
X73.994Y-115.966
X73.994Y-129.613
X74.319Y-66.607
X74.393Y-115.152
X74.421Y-65.06
X74.514Y-70.077
X74.869Y-73.367
X75.139Y-115.462
X75.189Y-112.592
X75.219Y-75.104
X75.227Y-85.579
X76.044Y-87.645
X76.104Y-73.052
X76.179Y-137.632
X76.214Y-116.107
X76.214Y-130.063
X76.794Y-87.645
X76.803Y-72.894
X76.964Y-116.107
X76.964Y-130.063
X77.011Y-30.818
X77.194Y-76.927
X77.409Y-115.452
X77.467Y-79.021
X77.469Y-112.602
X77.481Y-79.834
X77.502Y-72.895
X77.56Y-31.394
X77.567Y-30.229
X77.569Y-30.806
X77.813Y-77.481
X77.834Y-78.237
X78.119Y-30.804
X78.138Y-85.566
X78.249Y-64.027
X78.254Y-86.953
X78.259Y-137.702
X78.492Y-76.586
X78.504Y-115.497
X78.914Y-72.217
X78.954Y-87.067
X79.027Y-73.637
X79.184Y-116.119
X79.184Y-124.495
X79.328Y-24.058
X79.382Y-63.322
X79.574Y-69.767
X79.848Y-24.64
X79.861Y-24.076
X79.873Y-23.525
X79.934Y-116.119
X79.934Y-124.495
X80.323Y-76.392
X80.381Y-24.07
X80.488Y-38.108
X80.776Y-71.601
X80.919Y-112.522
X81.001Y-115.504
X81.348Y-72.233
X81.489Y-58.047
X81.549Y-59.327
X81.618Y-136.687
X81.618Y-139.772
X81.669Y-87.297
X81.704Y-115.327
X82.104Y-70.627
X82.154Y-116.136
X82.154Y-129.722
X82.176Y-85.907
X82.322Y-63.332
X82.514Y-86.576
X82.569Y-55.517
X82.744Y-69.327
X82.904Y-116.136
X82.904Y-129.722
X83.438Y-38.108
X83.634Y-65.437
X84.069Y-139.662
X84.139Y-138.027
X84.444Y-93.155
X84.759Y-115.542
X85.055Y-72.26
X85.084Y-106.423
X85.194Y-93.155
X85.284Y-77.357
X85.326Y-68.629
X85.369Y-112.472
X85.449Y-64.839
X85.901Y-70.017
X86.033Y-74.086
X86.098Y-106.973
X86.378Y-38.098
X86.454Y-77.947
X86.614Y-64.819
X86.849Y-73.177
X86.984Y-107.047
X87.09Y-83.198
X87.174Y-86.1
X87.244Y-93.085
X87.279Y-75.367
X87.39Y-69.204
X87.66Y-114.804
X87.664Y-115.747
X87.833Y-64.619
X87.953Y-80.443
X87.994Y-93.085
X88.064Y-130.872
X88.064Y-141.112
X88.084Y-78.482
X88.093Y-95.307
X88.12Y-81.347
X88.175Y-38.101
X88.374Y-106.927
X88.624Y-95.837
X88.715Y-79.927
X88.814Y-130.872
X88.814Y-141.112
X89.422Y-122.716
X89.479Y-63.599
X89.634Y-106.767
X89.882Y-116.062
X90.044Y-93.132
X90.359Y-69.204
X90.774Y-74.245
X90.794Y-93.132
X90.829Y-116.245
X90.829Y-129.713
X90.879Y-106.666
X91.244Y-81.987
X91.284Y-83.297
X91.502Y-74.4
X91.579Y-116.245
X91.579Y-129.713
X91.654Y-46.269
X91.881Y-83.871
X91.989Y-115.332
X92.169Y-137.432
X92.389Y-64.619
X92.4Y-53.35
X92.534Y-110.997
X92.609Y-77.083
X92.689Y-115.912
X92.709Y-112.612
X93.143Y-85.5
X93.2Y-53.35
X93.799Y-116.245
X93.799Y-129.685
X94.0Y-53.35
X94.092Y-105.643
X94.179Y-49.417
X94.335Y-68.461
X94.394Y-81.997
X94.405Y-137.438
X94.549Y-116.245
X94.549Y-129.685
X94.792Y-105.648
X94.8Y-53.35
X95.279Y-115.362
X95.559Y-112.372
X95.644Y-93.114
X95.718Y-78.517
X95.869Y-116.042
X96.154Y-55.717
X96.394Y-93.114
X96.769Y-116.032
X96.769Y-129.645
X96.799Y-69.407
X97.349Y-84.597
X97.449Y-136.702
X97.479Y-140.052
X97.519Y-116.032
X97.519Y-129.645
X97.993Y-74.578
X98.18Y-68.323
X98.339Y-65.107
X98.369Y-112.352
X98.444Y-92.936
X98.498Y-85.247
X98.619Y-115.622
X98.749Y-54.677
X99.194Y-92.936
X99.314Y-115.117
X99.739Y-116.07
X99.739Y-129.726
X99.779Y-138.537
X99.779Y-139.287
X99.804Y-100.082
X100.349Y-57.539
X100.489Y-116.07
X100.489Y-129.726
X100.554Y-100.082
X100.584Y-77.257
X100.859Y-65.027
X101.104Y-69.002
X101.244Y-92.932
X101.669Y-129.722
X101.958Y-75.876
X101.994Y-92.932
X102.269Y-115.602
X102.799Y-49.337
X102.869Y-112.482
X103.245Y-130.486
X103.45Y-67.515
X103.452Y-68.096
X104.394Y-123.274
X104.411Y-138.63
X104.943Y-137.958
X105.154Y-115.517
X105.198Y-49.33
X105.224Y-111.202
X105.234Y-112.387
X105.491Y-122.724
X105.675Y-68.096
X105.79Y-48.958
X105.79Y-49.708
X105.909Y-54.537
X105.96Y-66.222
X106.062Y-111.2
X106.22Y-120.97
X106.305Y-68.096
X106.66Y-64.01
X106.664Y-88.817
X106.922Y-124.597
X107.413Y-111.777
X107.474Y-83.697
X107.484Y-112.677
X107.904Y-83.037
X108.039Y-104.577
X108.059Y-118.927
X108.204Y-109.347
X108.204Y-106.003
X108.373Y-46.528
X108.384Y-74.717
X108.424Y-98.547
X108.499Y-86.522
X108.529Y-95.222
X108.629Y-85.642
X108.684Y-119.987
X108.78Y-67.314
X109.134Y-112.523
X109.389Y-66.705
X109.457Y-125.138
X109.489Y-40.167
X109.688Y-93.136
X109.739Y-57.477
X109.869Y-137.526
X109.879Y-30.127
X110.074Y-71.567
X110.279Y-67.527
X110.335Y-116.156
X110.43Y-49.322
X110.569Y-140.207
X110.578Y-92.364
X110.811Y-86.154
X110.841Y-83.824
X110.873Y-115.094
X110.923Y-118.56
X110.975Y-34.533
X111.309Y-47.887
X111.372Y-110.741
X111.529Y-137.526
X112.039Y-89.202
X112.259Y-21.097
X112.505Y-100.232
X112.511Y-26.141
X112.564Y-66.592
X112.664Y-23.193
X112.909Y-68.797
X113.021Y-84.994
X113.349Y-63.327
X113.44Y-41.753
X113.605Y-65.308
X113.674Y-118.313
X113.689Y-31.797
X113.758Y-21.416
X113.779Y-22.208
X114.004Y-80.757
X114.021Y-84.644
X114.021Y-85.304
X114.038Y-35.867
X114.566Y-136.804
X114.649Y-148.127
X115.875Y-25.698
X115.954Y-100.877
X116.175Y-24.128
X116.339Y-136.722
X116.509Y-17.103
X116.519Y-19.643
X116.529Y-18.373
X116.704Y-66.603
X116.968Y-32.938
X117.08Y-21.977
X117.444Y-76.167
X117.444Y-76.847
X117.444Y-93.137
X117.444Y-93.877
X117.814Y-107.564
X117.897Y-127.953
X118.895Y-16.378
X118.895Y-17.078
X118.895Y-17.778
X118.895Y-18.478
X118.895Y-19.178
X119.273Y-23.357
X119.305Y-33.743
X119.365Y-24.123
X120.089Y-21.327
X120.18Y-16.378
X120.18Y-17.108
X120.18Y-17.758
X120.18Y-18.468
X120.18Y-19.178
X120.234Y-25.382
X120.831Y-29.989
X120.889Y-20.957
X121.08Y-25.416
X121.121Y-95.594
X121.121Y-96.304
X121.355Y-23.648
X121.365Y-22.538
X121.419Y-27.607
X121.465Y-16.378
X121.465Y-17.108
X121.465Y-17.788
X121.465Y-18.468
X121.465Y-19.178
X121.641Y-108.973
X121.904Y-23.108
X122.267Y-68.118
X122.425Y-23.658
X122.435Y-25.858
X122.445Y-22.538
X122.529Y-20.907
X123.717Y-84.48
X123.717Y-85.31
X123.717Y-86.19
X123.717Y-87.08
X123.779Y-27.327
X123.859Y-14.268
X123.959Y-34.357
X124.075Y-15.418
X124.149Y-26.007
X124.229Y-18.927
X124.608Y-24.479
X124.761Y-23.796
X125.91Y-23.063
X126.209Y-21.437
X126.575Y-16.553
X126.945Y-18.968
T2
X44.579Y-113.722
X44.595Y-114.911
X47.915Y-113.881
X67.855Y-114.466
X68.555Y-115.421
T3
X24.859Y-124.517
X32.359Y-127.417
T4
X122.673Y-113.24
X122.673Y-121.24
T5
X3.089Y-43.909
X3.089Y-48.909
X3.144Y-56.729
X3.144Y-61.729
X8.089Y-43.909
X8.089Y-48.909
X8.144Y-56.729
X8.144Y-61.729
X11.955Y-112.826
X11.955Y-115.366
X11.955Y-117.906
X11.955Y-120.446
X22.679Y-132.497
X34.079Y-132.497
X51.942Y-125.379
X51.942Y-127.919
X51.942Y-130.459
X51.942Y-132.999
X106.914Y-127.435
X109.454Y-127.435
X111.994Y-127.435
X114.534Y-127.435
X128.05Y-76.21
X128.05Y-78.75
X128.05Y-81.29
X128.05Y-83.83
X128.125Y-89.17
X128.125Y-91.71
T6
X1.388Y-95.815
X3.928Y-95.815
X6.468Y-95.815
X8.742Y-77.796
X8.742Y-80.796
X8.742Y-83.796
X8.742Y-86.796
X9.008Y-95.815
X11.742Y-77.796
X11.742Y-80.796
X11.742Y-83.796
X11.742Y-86.796
T7
X23.496Y-116.862
X30.246Y-116.862
T8
X56.099Y-142.307
X57.119Y-144.087
X58.139Y-142.307
X59.159Y-144.087
X60.179Y-142.307
X61.199Y-144.087
X62.219Y-142.307
X63.239Y-144.087
X75.969Y-142.117
X76.989Y-143.897
X78.009Y-142.117
X79.029Y-143.897
X80.049Y-142.117
X81.069Y-143.897
X82.089Y-142.117
X83.109Y-143.897
X91.729Y-142.117
X92.749Y-143.897
X93.769Y-142.117
X94.789Y-143.897
X95.809Y-142.117
X96.829Y-143.897
X97.849Y-142.117
X98.869Y-143.897
X111.599Y-142.307
X112.619Y-144.087
X113.639Y-142.307
X114.659Y-144.087
X115.679Y-142.307
X116.699Y-144.087
X117.719Y-142.307
X118.739Y-144.087
T9
X5.682Y-104.946
X5.682Y-108.756
X5.682Y-122.529
X5.682Y-126.339
T10
X1.441Y-27.107
X1.441Y-32.157
X6.491Y-27.107
X6.491Y-32.157
T11
X23.969Y-144.392
X29.049Y-144.392
X37.944Y-144.412
X42.644Y-144.412
X47.344Y-144.412
T12
X51.519Y-142.937
X67.819Y-142.937
X71.419Y-142.637
X103.419Y-142.637
X107.019Y-142.937
X123.319Y-142.937
T13
X59.246Y-40.862
X64.746Y-40.862
T14
X89.381Y-7.974
X113.689Y-7.974
T0
M30
