G04 #@! TF.GenerationSoftware,KiCad,Pcbnew,7.0.6-0*
G04 #@! TF.CreationDate,2023-12-12T12:04:18-03:00*
G04 #@! TF.ProjectId,nervosinho_rev2.4,6e657276-6f73-4696-9e68-6f5f72657632,rev?*
G04 #@! TF.SameCoordinates,Original*
G04 #@! TF.FileFunction,Soldermask,Bot*
G04 #@! TF.FilePolarity,Negative*
%FSLAX46Y46*%
G04 Gerber Fmt 4.6, Leading zero omitted, Abs format (unit mm)*
G04 Created by KiCad (PCBNEW 7.0.6-0) date 2023-12-12 12:04:18*
%MOMM*%
%LPD*%
G01*
G04 APERTURE LIST*
G04 Aperture macros list*
%AMRoundRect*
0 Rectangle with rounded corners*
0 $1 Rounding radius*
0 $2 $3 $4 $5 $6 $7 $8 $9 X,Y pos of 4 corners*
0 Add a 4 corners polygon primitive as box body*
4,1,4,$2,$3,$4,$5,$6,$7,$8,$9,$2,$3,0*
0 Add four circle primitives for the rounded corners*
1,1,$1+$1,$2,$3*
1,1,$1+$1,$4,$5*
1,1,$1+$1,$6,$7*
1,1,$1+$1,$8,$9*
0 Add four rect primitives between the rounded corners*
20,1,$1+$1,$2,$3,$4,$5,0*
20,1,$1+$1,$4,$5,$6,$7,0*
20,1,$1+$1,$6,$7,$8,$9,0*
20,1,$1+$1,$8,$9,$2,$3,0*%
%AMFreePoly0*
4,1,19,0.500000,-0.750000,0.000000,-0.750000,0.000000,-0.744911,-0.071157,-0.744911,-0.207708,-0.704816,-0.327430,-0.627875,-0.420627,-0.520320,-0.479746,-0.390866,-0.500000,-0.250000,-0.500000,0.250000,-0.479746,0.390866,-0.420627,0.520320,-0.327430,0.627875,-0.207708,0.704816,-0.071157,0.744911,0.000000,0.744911,0.000000,0.750000,0.500000,0.750000,0.500000,-0.750000,0.500000,-0.750000,
$1*%
%AMFreePoly1*
4,1,19,0.000000,0.744911,0.071157,0.744911,0.207708,0.704816,0.327430,0.627875,0.420627,0.520320,0.479746,0.390866,0.500000,0.250000,0.500000,-0.250000,0.479746,-0.390866,0.420627,-0.520320,0.327430,-0.627875,0.207708,-0.704816,0.071157,-0.744911,0.000000,-0.744911,0.000000,-0.750000,-0.500000,-0.750000,-0.500000,0.750000,0.000000,0.750000,0.000000,0.744911,0.000000,0.744911,
$1*%
G04 Aperture macros list end*
%ADD10C,1.651000*%
%ADD11C,1.143000*%
%ADD12C,2.000000*%
%ADD13R,1.700000X1.700000*%
%ADD14O,1.700000X1.700000*%
%ADD15C,2.500000*%
%ADD16C,4.000000*%
%ADD17C,4.300000*%
%ADD18C,3.200000*%
%ADD19C,1.500000*%
%ADD20C,3.000000*%
%ADD21C,1.498600*%
%ADD22R,2.000000X2.000000*%
%ADD23C,3.250000*%
%ADD24R,1.520000X1.520000*%
%ADD25C,1.520000*%
%ADD26C,1.800000*%
%ADD27C,1.300000*%
%ADD28RoundRect,0.102000X0.765000X0.765000X-0.765000X0.765000X-0.765000X-0.765000X0.765000X-0.765000X0*%
%ADD29C,1.754000*%
%ADD30FreePoly0,180.000000*%
%ADD31FreePoly1,180.000000*%
%ADD32C,1.000000*%
G04 APERTURE END LIST*
D10*
X88898997Y-55842002D03*
D11*
X113898999Y-55842002D03*
D12*
X5682000Y-104946000D03*
X5682000Y-108756000D03*
D13*
X114534000Y-127435000D03*
D14*
X111994000Y-127435000D03*
X109454000Y-127435000D03*
X106914000Y-127435000D03*
D12*
X34078573Y-132496773D03*
X22678573Y-132496773D03*
D15*
X23495964Y-116861773D03*
X30245964Y-116861773D03*
D16*
X59245964Y-40861773D03*
X64745964Y-40861773D03*
D17*
X122093573Y-6696773D03*
X22542000Y-4578000D03*
D13*
X128050000Y-76210000D03*
D14*
X128050000Y-78750000D03*
X128050000Y-81290000D03*
X128050000Y-83830000D03*
D18*
X108818573Y-146436773D03*
X121518573Y-146436773D03*
D19*
X118738573Y-144086773D03*
X117718573Y-142306773D03*
X116698573Y-144086773D03*
X115678573Y-142306773D03*
X114658573Y-144086773D03*
X113638573Y-142306773D03*
X112618573Y-144086773D03*
X111598573Y-142306773D03*
D20*
X107018573Y-142936773D03*
X123318573Y-142936773D03*
D13*
X11955000Y-112826000D03*
D14*
X11955000Y-115366000D03*
X11955000Y-117906000D03*
X11955000Y-120446000D03*
D18*
X53318573Y-146436773D03*
X66018573Y-146436773D03*
D19*
X63238573Y-144086773D03*
X62218573Y-142306773D03*
X61198573Y-144086773D03*
X60178573Y-142306773D03*
X59158573Y-144086773D03*
X58138573Y-142306773D03*
X57118573Y-144086773D03*
X56098573Y-142306773D03*
D20*
X51518573Y-142936773D03*
X67818573Y-142936773D03*
D21*
X122672619Y-121240296D03*
X122672619Y-113240296D03*
D12*
X8088573Y-43908573D03*
X3088573Y-43908573D03*
X8088573Y-48908573D03*
X3088573Y-48908573D03*
D13*
X51942000Y-125379000D03*
D14*
X51942000Y-127919000D03*
X51942000Y-130459000D03*
X51942000Y-132999000D03*
D22*
X6490573Y-27106573D03*
X1440573Y-27106573D03*
X6490573Y-32156573D03*
X1440573Y-32156573D03*
D20*
X23968573Y-144391773D03*
X29048573Y-144391773D03*
D23*
X73193573Y-146436773D03*
X101643573Y-146436773D03*
D19*
X98868573Y-143896773D03*
X97848573Y-142116773D03*
X96828573Y-143896773D03*
X95808573Y-142116773D03*
X94788573Y-143896773D03*
X93768573Y-142116773D03*
X92748573Y-143896773D03*
X91728573Y-142116773D03*
X83108573Y-143896773D03*
X82088573Y-142116773D03*
X81068573Y-143896773D03*
X80048573Y-142116773D03*
X79028573Y-143896773D03*
X78008573Y-142116773D03*
X76988573Y-143896773D03*
X75968573Y-142116773D03*
D20*
X103418573Y-142636773D03*
X71418573Y-142636773D03*
D13*
X128125000Y-91710000D03*
D14*
X128125000Y-89170000D03*
D20*
X37943573Y-144411773D03*
X42643573Y-144411773D03*
X47343573Y-144411773D03*
X4421573Y-79955823D03*
X4421573Y-84635823D03*
D24*
X8741573Y-86795823D03*
D25*
X8741573Y-83795823D03*
X8741573Y-80795823D03*
X8741573Y-77795823D03*
X11741573Y-86795823D03*
X11741573Y-83795823D03*
X11741573Y-80795823D03*
X11741573Y-77795823D03*
D17*
X125838573Y-134166773D03*
D26*
X24858573Y-124516773D03*
X32358573Y-127416773D03*
D12*
X8143573Y-56728573D03*
X3143573Y-56728573D03*
X8143573Y-61728573D03*
X3143573Y-61728573D03*
D17*
X5739573Y-145608573D03*
D12*
X5682000Y-122529000D03*
X5682000Y-126339000D03*
D27*
X6468000Y-93655000D03*
D28*
X1388000Y-95815000D03*
D29*
X3928000Y-95815000D03*
X6468000Y-95815000D03*
X9008000Y-95815000D03*
D30*
X64696000Y-87606000D03*
D31*
X63396000Y-87606000D03*
D30*
X64690573Y-92842105D03*
D31*
X63390573Y-92842105D03*
D12*
X3852000Y-2893000D03*
D32*
X107013573Y-98666773D03*
D12*
X18548573Y-124136773D03*
X115418573Y-3106773D03*
D30*
X64690573Y-95466773D03*
D31*
X63390573Y-95466773D03*
D30*
X64690573Y-90217439D03*
D31*
X63390573Y-90217439D03*
M02*
