G04 #@! TF.GenerationSoftware,KiCad,Pcbnew,7.0.5-0*
G04 #@! TF.CreationDate,2023-08-08T04:38:12-03:00*
G04 #@! TF.ProjectId,macunaima_rev2,6d616375-6e61-4696-9d61-5f726576322e,rev?*
G04 #@! TF.SameCoordinates,Original*
G04 #@! TF.FileFunction,Legend,Bot*
G04 #@! TF.FilePolarity,Positive*
%FSLAX46Y46*%
G04 Gerber Fmt 4.6, Leading zero omitted, Abs format (unit mm)*
G04 Created by KiCad (PCBNEW 7.0.5-0) date 2023-08-08 04:38:12*
%MOMM*%
%LPD*%
G01*
G04 APERTURE LIST*
G04 Aperture macros list*
%AMFreePoly0*
4,1,19,0.500000,-0.750000,0.000000,-0.750000,0.000000,-0.744911,-0.071157,-0.744911,-0.207708,-0.704816,-0.327430,-0.627875,-0.420627,-0.520320,-0.479746,-0.390866,-0.500000,-0.250000,-0.500000,0.250000,-0.479746,0.390866,-0.420627,0.520320,-0.327430,0.627875,-0.207708,0.704816,-0.071157,0.744911,0.000000,0.744911,0.000000,0.750000,0.500000,0.750000,0.500000,-0.750000,0.500000,-0.750000,
$1*%
%AMFreePoly1*
4,1,19,0.000000,0.744911,0.071157,0.744911,0.207708,0.704816,0.327430,0.627875,0.420627,0.520320,0.479746,0.390866,0.500000,0.250000,0.500000,-0.250000,0.479746,-0.390866,0.420627,-0.520320,0.327430,-0.627875,0.207708,-0.704816,0.071157,-0.744911,0.000000,-0.744911,0.000000,-0.750000,-0.500000,-0.750000,-0.500000,0.750000,0.000000,0.750000,0.000000,0.744911,0.000000,0.744911,
$1*%
G04 Aperture macros list end*
%ADD10C,0.150000*%
%ADD11C,0.120000*%
%ADD12C,0.508000*%
%ADD13R,1.700000X1.700000*%
%ADD14O,1.700000X1.700000*%
%ADD15C,2.000000*%
%ADD16C,2.500000*%
%ADD17C,4.000000*%
%ADD18C,4.300000*%
%ADD19C,3.200000*%
%ADD20C,1.200000*%
%ADD21C,1.651000*%
%ADD22C,1.143000*%
%ADD23C,1.498600*%
%ADD24C,1.524000*%
%ADD25R,2.000000X2.000000*%
%ADD26C,3.000000*%
%ADD27C,3.250000*%
%ADD28C,1.800000*%
%ADD29FreePoly0,180.000000*%
%ADD30FreePoly1,180.000000*%
%ADD31C,1.000000*%
G04 APERTURE END LIST*
D10*
X97414525Y-32953019D02*
X97652620Y-32953019D01*
X97557382Y-33191114D02*
X97652620Y-32953019D01*
X97652620Y-32953019D02*
X97557382Y-32714924D01*
X97843096Y-33095876D02*
X97652620Y-32953019D01*
X97652620Y-32953019D02*
X97843096Y-32810162D01*
D11*
X45189666Y-87042055D02*
X45189666Y-87613483D01*
X45189666Y-87613483D02*
X45227761Y-87727769D01*
X45227761Y-87727769D02*
X45303952Y-87803960D01*
X45303952Y-87803960D02*
X45418237Y-87842055D01*
X45418237Y-87842055D02*
X45494428Y-87842055D01*
X44808713Y-87842055D02*
X44808713Y-87042055D01*
X44808713Y-87042055D02*
X44503951Y-87042055D01*
X44503951Y-87042055D02*
X44427761Y-87080150D01*
X44427761Y-87080150D02*
X44389666Y-87118245D01*
X44389666Y-87118245D02*
X44351570Y-87194436D01*
X44351570Y-87194436D02*
X44351570Y-87308721D01*
X44351570Y-87308721D02*
X44389666Y-87384912D01*
X44389666Y-87384912D02*
X44427761Y-87423007D01*
X44427761Y-87423007D02*
X44503951Y-87461102D01*
X44503951Y-87461102D02*
X44808713Y-87461102D01*
X43627761Y-87042055D02*
X44008713Y-87042055D01*
X44008713Y-87042055D02*
X44046809Y-87423007D01*
X44046809Y-87423007D02*
X44008713Y-87384912D01*
X44008713Y-87384912D02*
X43932523Y-87346817D01*
X43932523Y-87346817D02*
X43742047Y-87346817D01*
X43742047Y-87346817D02*
X43665856Y-87384912D01*
X43665856Y-87384912D02*
X43627761Y-87423007D01*
X43627761Y-87423007D02*
X43589666Y-87499198D01*
X43589666Y-87499198D02*
X43589666Y-87689674D01*
X43589666Y-87689674D02*
X43627761Y-87765864D01*
X43627761Y-87765864D02*
X43665856Y-87803960D01*
X43665856Y-87803960D02*
X43742047Y-87842055D01*
X43742047Y-87842055D02*
X43932523Y-87842055D01*
X43932523Y-87842055D02*
X44008713Y-87803960D01*
X44008713Y-87803960D02*
X44046809Y-87765864D01*
X107422142Y-139021007D02*
X107688808Y-139021007D01*
X107688808Y-139440055D02*
X107688808Y-138640055D01*
X107688808Y-138640055D02*
X107307856Y-138640055D01*
X107003094Y-139440055D02*
X107003094Y-138640055D01*
X106622142Y-139440055D02*
X106622142Y-138640055D01*
X106622142Y-138640055D02*
X106431666Y-138640055D01*
X106431666Y-138640055D02*
X106317380Y-138678150D01*
X106317380Y-138678150D02*
X106241190Y-138754340D01*
X106241190Y-138754340D02*
X106203095Y-138830531D01*
X106203095Y-138830531D02*
X106164999Y-138982912D01*
X106164999Y-138982912D02*
X106164999Y-139097198D01*
X106164999Y-139097198D02*
X106203095Y-139249579D01*
X106203095Y-139249579D02*
X106241190Y-139325769D01*
X106241190Y-139325769D02*
X106317380Y-139401960D01*
X106317380Y-139401960D02*
X106431666Y-139440055D01*
X106431666Y-139440055D02*
X106622142Y-139440055D01*
X105479285Y-138640055D02*
X105631666Y-138640055D01*
X105631666Y-138640055D02*
X105707857Y-138678150D01*
X105707857Y-138678150D02*
X105745952Y-138716245D01*
X105745952Y-138716245D02*
X105822142Y-138830531D01*
X105822142Y-138830531D02*
X105860238Y-138982912D01*
X105860238Y-138982912D02*
X105860238Y-139287674D01*
X105860238Y-139287674D02*
X105822142Y-139363864D01*
X105822142Y-139363864D02*
X105784047Y-139401960D01*
X105784047Y-139401960D02*
X105707857Y-139440055D01*
X105707857Y-139440055D02*
X105555476Y-139440055D01*
X105555476Y-139440055D02*
X105479285Y-139401960D01*
X105479285Y-139401960D02*
X105441190Y-139363864D01*
X105441190Y-139363864D02*
X105403095Y-139287674D01*
X105403095Y-139287674D02*
X105403095Y-139097198D01*
X105403095Y-139097198D02*
X105441190Y-139021007D01*
X105441190Y-139021007D02*
X105479285Y-138982912D01*
X105479285Y-138982912D02*
X105555476Y-138944817D01*
X105555476Y-138944817D02*
X105707857Y-138944817D01*
X105707857Y-138944817D02*
X105784047Y-138982912D01*
X105784047Y-138982912D02*
X105822142Y-139021007D01*
X105822142Y-139021007D02*
X105860238Y-139097198D01*
X45189666Y-92291387D02*
X45189666Y-92862815D01*
X45189666Y-92862815D02*
X45227761Y-92977101D01*
X45227761Y-92977101D02*
X45303952Y-93053292D01*
X45303952Y-93053292D02*
X45418237Y-93091387D01*
X45418237Y-93091387D02*
X45494428Y-93091387D01*
X44808713Y-93091387D02*
X44808713Y-92291387D01*
X44808713Y-92291387D02*
X44503951Y-92291387D01*
X44503951Y-92291387D02*
X44427761Y-92329482D01*
X44427761Y-92329482D02*
X44389666Y-92367577D01*
X44389666Y-92367577D02*
X44351570Y-92443768D01*
X44351570Y-92443768D02*
X44351570Y-92558053D01*
X44351570Y-92558053D02*
X44389666Y-92634244D01*
X44389666Y-92634244D02*
X44427761Y-92672339D01*
X44427761Y-92672339D02*
X44503951Y-92710434D01*
X44503951Y-92710434D02*
X44808713Y-92710434D01*
X43894428Y-92634244D02*
X43970618Y-92596149D01*
X43970618Y-92596149D02*
X44008713Y-92558053D01*
X44008713Y-92558053D02*
X44046809Y-92481863D01*
X44046809Y-92481863D02*
X44046809Y-92443768D01*
X44046809Y-92443768D02*
X44008713Y-92367577D01*
X44008713Y-92367577D02*
X43970618Y-92329482D01*
X43970618Y-92329482D02*
X43894428Y-92291387D01*
X43894428Y-92291387D02*
X43742047Y-92291387D01*
X43742047Y-92291387D02*
X43665856Y-92329482D01*
X43665856Y-92329482D02*
X43627761Y-92367577D01*
X43627761Y-92367577D02*
X43589666Y-92443768D01*
X43589666Y-92443768D02*
X43589666Y-92481863D01*
X43589666Y-92481863D02*
X43627761Y-92558053D01*
X43627761Y-92558053D02*
X43665856Y-92596149D01*
X43665856Y-92596149D02*
X43742047Y-92634244D01*
X43742047Y-92634244D02*
X43894428Y-92634244D01*
X43894428Y-92634244D02*
X43970618Y-92672339D01*
X43970618Y-92672339D02*
X44008713Y-92710434D01*
X44008713Y-92710434D02*
X44046809Y-92786625D01*
X44046809Y-92786625D02*
X44046809Y-92939006D01*
X44046809Y-92939006D02*
X44008713Y-93015196D01*
X44008713Y-93015196D02*
X43970618Y-93053292D01*
X43970618Y-93053292D02*
X43894428Y-93091387D01*
X43894428Y-93091387D02*
X43742047Y-93091387D01*
X43742047Y-93091387D02*
X43665856Y-93053292D01*
X43665856Y-93053292D02*
X43627761Y-93015196D01*
X43627761Y-93015196D02*
X43589666Y-92939006D01*
X43589666Y-92939006D02*
X43589666Y-92786625D01*
X43589666Y-92786625D02*
X43627761Y-92710434D01*
X43627761Y-92710434D02*
X43665856Y-92672339D01*
X43665856Y-92672339D02*
X43742047Y-92634244D01*
X5342142Y-2221007D02*
X5608808Y-2221007D01*
X5608808Y-2640055D02*
X5608808Y-1840055D01*
X5608808Y-1840055D02*
X5227856Y-1840055D01*
X4923094Y-2640055D02*
X4923094Y-1840055D01*
X4542142Y-2640055D02*
X4542142Y-1840055D01*
X4542142Y-1840055D02*
X4351666Y-1840055D01*
X4351666Y-1840055D02*
X4237380Y-1878150D01*
X4237380Y-1878150D02*
X4161190Y-1954340D01*
X4161190Y-1954340D02*
X4123095Y-2030531D01*
X4123095Y-2030531D02*
X4084999Y-2182912D01*
X4084999Y-2182912D02*
X4084999Y-2297198D01*
X4084999Y-2297198D02*
X4123095Y-2449579D01*
X4123095Y-2449579D02*
X4161190Y-2525769D01*
X4161190Y-2525769D02*
X4237380Y-2601960D01*
X4237380Y-2601960D02*
X4351666Y-2640055D01*
X4351666Y-2640055D02*
X4542142Y-2640055D01*
X3627857Y-2182912D02*
X3704047Y-2144817D01*
X3704047Y-2144817D02*
X3742142Y-2106721D01*
X3742142Y-2106721D02*
X3780238Y-2030531D01*
X3780238Y-2030531D02*
X3780238Y-1992436D01*
X3780238Y-1992436D02*
X3742142Y-1916245D01*
X3742142Y-1916245D02*
X3704047Y-1878150D01*
X3704047Y-1878150D02*
X3627857Y-1840055D01*
X3627857Y-1840055D02*
X3475476Y-1840055D01*
X3475476Y-1840055D02*
X3399285Y-1878150D01*
X3399285Y-1878150D02*
X3361190Y-1916245D01*
X3361190Y-1916245D02*
X3323095Y-1992436D01*
X3323095Y-1992436D02*
X3323095Y-2030531D01*
X3323095Y-2030531D02*
X3361190Y-2106721D01*
X3361190Y-2106721D02*
X3399285Y-2144817D01*
X3399285Y-2144817D02*
X3475476Y-2182912D01*
X3475476Y-2182912D02*
X3627857Y-2182912D01*
X3627857Y-2182912D02*
X3704047Y-2221007D01*
X3704047Y-2221007D02*
X3742142Y-2259102D01*
X3742142Y-2259102D02*
X3780238Y-2335293D01*
X3780238Y-2335293D02*
X3780238Y-2487674D01*
X3780238Y-2487674D02*
X3742142Y-2563864D01*
X3742142Y-2563864D02*
X3704047Y-2601960D01*
X3704047Y-2601960D02*
X3627857Y-2640055D01*
X3627857Y-2640055D02*
X3475476Y-2640055D01*
X3475476Y-2640055D02*
X3399285Y-2601960D01*
X3399285Y-2601960D02*
X3361190Y-2563864D01*
X3361190Y-2563864D02*
X3323095Y-2487674D01*
X3323095Y-2487674D02*
X3323095Y-2335293D01*
X3323095Y-2335293D02*
X3361190Y-2259102D01*
X3361190Y-2259102D02*
X3399285Y-2221007D01*
X3399285Y-2221007D02*
X3475476Y-2182912D01*
X91499523Y-96802055D02*
X91042380Y-96802055D01*
X91270952Y-97602055D02*
X91270952Y-96802055D01*
X90775713Y-97602055D02*
X90775713Y-96802055D01*
X90775713Y-96802055D02*
X90470951Y-96802055D01*
X90470951Y-96802055D02*
X90394761Y-96840150D01*
X90394761Y-96840150D02*
X90356666Y-96878245D01*
X90356666Y-96878245D02*
X90318570Y-96954436D01*
X90318570Y-96954436D02*
X90318570Y-97068721D01*
X90318570Y-97068721D02*
X90356666Y-97144912D01*
X90356666Y-97144912D02*
X90394761Y-97183007D01*
X90394761Y-97183007D02*
X90470951Y-97221102D01*
X90470951Y-97221102D02*
X90775713Y-97221102D01*
X89632856Y-97068721D02*
X89632856Y-97602055D01*
X89823332Y-96763960D02*
X90013809Y-97335388D01*
X90013809Y-97335388D02*
X89518570Y-97335388D01*
X2882142Y-122101007D02*
X3148808Y-122101007D01*
X3148808Y-122520055D02*
X3148808Y-121720055D01*
X3148808Y-121720055D02*
X2767856Y-121720055D01*
X2463094Y-122520055D02*
X2463094Y-121720055D01*
X2082142Y-122520055D02*
X2082142Y-121720055D01*
X2082142Y-121720055D02*
X1891666Y-121720055D01*
X1891666Y-121720055D02*
X1777380Y-121758150D01*
X1777380Y-121758150D02*
X1701190Y-121834340D01*
X1701190Y-121834340D02*
X1663095Y-121910531D01*
X1663095Y-121910531D02*
X1624999Y-122062912D01*
X1624999Y-122062912D02*
X1624999Y-122177198D01*
X1624999Y-122177198D02*
X1663095Y-122329579D01*
X1663095Y-122329579D02*
X1701190Y-122405769D01*
X1701190Y-122405769D02*
X1777380Y-122481960D01*
X1777380Y-122481960D02*
X1891666Y-122520055D01*
X1891666Y-122520055D02*
X2082142Y-122520055D01*
X1358333Y-121720055D02*
X824999Y-121720055D01*
X824999Y-121720055D02*
X1167857Y-122520055D01*
X99752142Y-1071007D02*
X100018808Y-1071007D01*
X100018808Y-1490055D02*
X100018808Y-690055D01*
X100018808Y-690055D02*
X99637856Y-690055D01*
X99333094Y-1490055D02*
X99333094Y-690055D01*
X98952142Y-1490055D02*
X98952142Y-690055D01*
X98952142Y-690055D02*
X98761666Y-690055D01*
X98761666Y-690055D02*
X98647380Y-728150D01*
X98647380Y-728150D02*
X98571190Y-804340D01*
X98571190Y-804340D02*
X98533095Y-880531D01*
X98533095Y-880531D02*
X98494999Y-1032912D01*
X98494999Y-1032912D02*
X98494999Y-1147198D01*
X98494999Y-1147198D02*
X98533095Y-1299579D01*
X98533095Y-1299579D02*
X98571190Y-1375769D01*
X98571190Y-1375769D02*
X98647380Y-1451960D01*
X98647380Y-1451960D02*
X98761666Y-1490055D01*
X98761666Y-1490055D02*
X98952142Y-1490055D01*
X97771190Y-690055D02*
X98152142Y-690055D01*
X98152142Y-690055D02*
X98190238Y-1071007D01*
X98190238Y-1071007D02*
X98152142Y-1032912D01*
X98152142Y-1032912D02*
X98075952Y-994817D01*
X98075952Y-994817D02*
X97885476Y-994817D01*
X97885476Y-994817D02*
X97809285Y-1032912D01*
X97809285Y-1032912D02*
X97771190Y-1071007D01*
X97771190Y-1071007D02*
X97733095Y-1147198D01*
X97733095Y-1147198D02*
X97733095Y-1337674D01*
X97733095Y-1337674D02*
X97771190Y-1413864D01*
X97771190Y-1413864D02*
X97809285Y-1451960D01*
X97809285Y-1451960D02*
X97885476Y-1490055D01*
X97885476Y-1490055D02*
X98075952Y-1490055D01*
X98075952Y-1490055D02*
X98152142Y-1451960D01*
X98152142Y-1451960D02*
X98190238Y-1413864D01*
X45189666Y-94916055D02*
X45189666Y-95487483D01*
X45189666Y-95487483D02*
X45227761Y-95601769D01*
X45227761Y-95601769D02*
X45303952Y-95677960D01*
X45303952Y-95677960D02*
X45418237Y-95716055D01*
X45418237Y-95716055D02*
X45494428Y-95716055D01*
X44808713Y-95716055D02*
X44808713Y-94916055D01*
X44808713Y-94916055D02*
X44503951Y-94916055D01*
X44503951Y-94916055D02*
X44427761Y-94954150D01*
X44427761Y-94954150D02*
X44389666Y-94992245D01*
X44389666Y-94992245D02*
X44351570Y-95068436D01*
X44351570Y-95068436D02*
X44351570Y-95182721D01*
X44351570Y-95182721D02*
X44389666Y-95258912D01*
X44389666Y-95258912D02*
X44427761Y-95297007D01*
X44427761Y-95297007D02*
X44503951Y-95335102D01*
X44503951Y-95335102D02*
X44808713Y-95335102D01*
X43970618Y-95716055D02*
X43818237Y-95716055D01*
X43818237Y-95716055D02*
X43742047Y-95677960D01*
X43742047Y-95677960D02*
X43703951Y-95639864D01*
X43703951Y-95639864D02*
X43627761Y-95525579D01*
X43627761Y-95525579D02*
X43589666Y-95373198D01*
X43589666Y-95373198D02*
X43589666Y-95068436D01*
X43589666Y-95068436D02*
X43627761Y-94992245D01*
X43627761Y-94992245D02*
X43665856Y-94954150D01*
X43665856Y-94954150D02*
X43742047Y-94916055D01*
X43742047Y-94916055D02*
X43894428Y-94916055D01*
X43894428Y-94916055D02*
X43970618Y-94954150D01*
X43970618Y-94954150D02*
X44008713Y-94992245D01*
X44008713Y-94992245D02*
X44046809Y-95068436D01*
X44046809Y-95068436D02*
X44046809Y-95258912D01*
X44046809Y-95258912D02*
X44008713Y-95335102D01*
X44008713Y-95335102D02*
X43970618Y-95373198D01*
X43970618Y-95373198D02*
X43894428Y-95411293D01*
X43894428Y-95411293D02*
X43742047Y-95411293D01*
X43742047Y-95411293D02*
X43665856Y-95373198D01*
X43665856Y-95373198D02*
X43627761Y-95335102D01*
X43627761Y-95335102D02*
X43589666Y-95258912D01*
X45189666Y-89666721D02*
X45189666Y-90238149D01*
X45189666Y-90238149D02*
X45227761Y-90352435D01*
X45227761Y-90352435D02*
X45303952Y-90428626D01*
X45303952Y-90428626D02*
X45418237Y-90466721D01*
X45418237Y-90466721D02*
X45494428Y-90466721D01*
X44808713Y-90466721D02*
X44808713Y-89666721D01*
X44808713Y-89666721D02*
X44503951Y-89666721D01*
X44503951Y-89666721D02*
X44427761Y-89704816D01*
X44427761Y-89704816D02*
X44389666Y-89742911D01*
X44389666Y-89742911D02*
X44351570Y-89819102D01*
X44351570Y-89819102D02*
X44351570Y-89933387D01*
X44351570Y-89933387D02*
X44389666Y-90009578D01*
X44389666Y-90009578D02*
X44427761Y-90047673D01*
X44427761Y-90047673D02*
X44503951Y-90085768D01*
X44503951Y-90085768D02*
X44808713Y-90085768D01*
X44084904Y-89666721D02*
X43551570Y-89666721D01*
X43551570Y-89666721D02*
X43894428Y-90466721D01*
X68404548Y-60240600D02*
G75*
G03*
X68404548Y-60240600I-381000J0D01*
G01*
D12*
X94506046Y-117318723D02*
G75*
G03*
X94506046Y-117318723I-381000J0D01*
G01*
D11*
X48917000Y-87912200D02*
X48917000Y-87312200D01*
X48217000Y-86612200D02*
X46817000Y-86612200D01*
X46817000Y-88612200D02*
X48217000Y-88612200D01*
X46117000Y-87312200D02*
X46117000Y-87912200D01*
X48217000Y-88612200D02*
G75*
G03*
X48917000Y-87912200I1J699999D01*
G01*
X48917000Y-87312200D02*
G75*
G03*
X48217000Y-86612200I-699999J1D01*
G01*
X46117000Y-87912200D02*
G75*
G03*
X46817000Y-88612200I700000J0D01*
G01*
X46817000Y-86612200D02*
G75*
G03*
X46117000Y-87312200I0J-700000D01*
G01*
X48917000Y-93161532D02*
X48917000Y-92561532D01*
X48217000Y-91861532D02*
X46817000Y-91861532D01*
X46817000Y-93861532D02*
X48217000Y-93861532D01*
X46117000Y-92561532D02*
X46117000Y-93161532D01*
X48217000Y-93861532D02*
G75*
G03*
X48917000Y-93161532I1J699999D01*
G01*
X48917000Y-92561532D02*
G75*
G03*
X48217000Y-91861532I-699999J1D01*
G01*
X46117000Y-93161532D02*
G75*
G03*
X46817000Y-93861532I700000J0D01*
G01*
X46817000Y-91861532D02*
G75*
G03*
X46117000Y-92561532I0J-700000D01*
G01*
X91190000Y-98686200D02*
G75*
G03*
X91190000Y-98686200I-700000J0D01*
G01*
X48917000Y-95786200D02*
X48917000Y-95186200D01*
X48217000Y-94486200D02*
X46817000Y-94486200D01*
X46817000Y-96486200D02*
X48217000Y-96486200D01*
X46117000Y-95186200D02*
X46117000Y-95786200D01*
X48217000Y-96486200D02*
G75*
G03*
X48917000Y-95786200I1J699999D01*
G01*
X48917000Y-95186200D02*
G75*
G03*
X48217000Y-94486200I-699999J1D01*
G01*
X46117000Y-95786200D02*
G75*
G03*
X46817000Y-96486200I700000J0D01*
G01*
X46817000Y-94486200D02*
G75*
G03*
X46117000Y-95186200I0J-700000D01*
G01*
X48917000Y-90536866D02*
X48917000Y-89936866D01*
X48217000Y-89236866D02*
X46817000Y-89236866D01*
X46817000Y-91236866D02*
X48217000Y-91236866D01*
X46117000Y-89936866D02*
X46117000Y-90536866D01*
X48217000Y-91236866D02*
G75*
G03*
X48917000Y-90536866I1J699999D01*
G01*
X48917000Y-89936866D02*
G75*
G03*
X48217000Y-89236866I-699999J1D01*
G01*
X46117000Y-90536866D02*
G75*
G03*
X46817000Y-91236866I700000J0D01*
G01*
X46817000Y-89236866D02*
G75*
G03*
X46117000Y-89936866I0J-700000D01*
G01*
%LPC*%
D13*
X36595000Y-132961129D03*
D14*
X34055000Y-132961129D03*
X36595000Y-130421129D03*
X34055000Y-130421129D03*
X36595000Y-127881129D03*
X34055000Y-127881129D03*
X36595000Y-125341129D03*
X34055000Y-125341129D03*
D15*
X17555000Y-132516200D03*
X6155000Y-132516200D03*
D16*
X6972391Y-116881200D03*
X13722391Y-116881200D03*
D17*
X42722391Y-40881200D03*
X48222391Y-40881200D03*
D18*
X105570000Y-6716200D03*
X18865000Y-29466200D03*
D13*
X97846892Y-110111200D03*
D14*
X97846892Y-107571200D03*
X97846892Y-105031200D03*
X97846892Y-102491200D03*
D19*
X90795000Y-146856200D03*
X103495000Y-146856200D03*
D20*
X100715000Y-144506200D03*
X99695000Y-142726200D03*
X98675000Y-144506200D03*
X97655000Y-142726200D03*
X96635000Y-144506200D03*
X95615000Y-142726200D03*
X94595000Y-144506200D03*
X93575000Y-142726200D03*
D19*
X38295000Y-146856200D03*
X50995000Y-146856200D03*
D20*
X48215000Y-144506200D03*
X47195000Y-142726200D03*
X46175000Y-144506200D03*
X45155000Y-142726200D03*
X44135000Y-144506200D03*
X43115000Y-142726200D03*
X42095000Y-144506200D03*
X41075000Y-142726200D03*
D21*
X72376447Y-56140601D03*
D22*
X97376449Y-56140601D03*
D23*
X106149046Y-126259723D03*
X106149046Y-118259723D03*
D24*
X8163158Y-10896200D03*
X3163158Y-10896200D03*
X8163158Y-15896200D03*
X3163158Y-15896200D03*
D25*
X6490000Y-25066200D03*
X1440000Y-25066200D03*
X6490000Y-30116200D03*
X1440000Y-30116200D03*
D26*
X7445000Y-141411200D03*
X12525000Y-141411200D03*
D27*
X56670000Y-146456200D03*
X85120000Y-146456200D03*
D20*
X82345000Y-143916200D03*
X81325000Y-142136200D03*
X80305000Y-143916200D03*
X79285000Y-142136200D03*
X78265000Y-143916200D03*
X77245000Y-142136200D03*
X76225000Y-143916200D03*
X75205000Y-142136200D03*
X66585000Y-143916200D03*
X65565000Y-142136200D03*
X64545000Y-143916200D03*
X63525000Y-142136200D03*
X62505000Y-143916200D03*
X61485000Y-142136200D03*
X60465000Y-143916200D03*
X59445000Y-142136200D03*
D26*
X86895000Y-142656200D03*
X54895000Y-142656200D03*
X21420000Y-141431200D03*
X26120000Y-141431200D03*
X30820000Y-141431200D03*
D18*
X109315000Y-134186200D03*
D28*
X8335000Y-124536200D03*
X15835000Y-127436200D03*
D18*
X26445000Y-127356200D03*
D29*
X48167000Y-87612200D03*
D30*
X46867000Y-87612200D03*
D15*
X106565000Y-141076200D03*
D29*
X48167000Y-92861532D03*
D30*
X46867000Y-92861532D03*
D15*
X4485000Y-4276200D03*
D31*
X90490000Y-98686200D03*
D15*
X2025000Y-124156200D03*
X98895000Y-3126200D03*
D29*
X48167000Y-95486200D03*
D30*
X46867000Y-95486200D03*
D29*
X48167000Y-90236866D03*
D30*
X46867000Y-90236866D03*
%LPD*%
M02*
