G04 #@! TF.GenerationSoftware,KiCad,Pcbnew,7.0.5-0*
G04 #@! TF.CreationDate,2023-08-08T04:38:12-03:00*
G04 #@! TF.ProjectId,macunaima_rev2,6d616375-6e61-4696-9d61-5f726576322e,rev?*
G04 #@! TF.SameCoordinates,Original*
G04 #@! TF.FileFunction,Soldermask,Bot*
G04 #@! TF.FilePolarity,Negative*
%FSLAX46Y46*%
G04 Gerber Fmt 4.6, Leading zero omitted, Abs format (unit mm)*
G04 Created by KiCad (PCBNEW 7.0.5-0) date 2023-08-08 04:38:12*
%MOMM*%
%LPD*%
G01*
G04 APERTURE LIST*
G04 Aperture macros list*
%AMFreePoly0*
4,1,19,0.500000,-0.750000,0.000000,-0.750000,0.000000,-0.744911,-0.071157,-0.744911,-0.207708,-0.704816,-0.327430,-0.627875,-0.420627,-0.520320,-0.479746,-0.390866,-0.500000,-0.250000,-0.500000,0.250000,-0.479746,0.390866,-0.420627,0.520320,-0.327430,0.627875,-0.207708,0.704816,-0.071157,0.744911,0.000000,0.744911,0.000000,0.750000,0.500000,0.750000,0.500000,-0.750000,0.500000,-0.750000,
$1*%
%AMFreePoly1*
4,1,19,0.000000,0.744911,0.071157,0.744911,0.207708,0.704816,0.327430,0.627875,0.420627,0.520320,0.479746,0.390866,0.500000,0.250000,0.500000,-0.250000,0.479746,-0.390866,0.420627,-0.520320,0.327430,-0.627875,0.207708,-0.704816,0.071157,-0.744911,0.000000,-0.744911,0.000000,-0.750000,-0.500000,-0.750000,-0.500000,0.750000,0.000000,0.750000,0.000000,0.744911,0.000000,0.744911,
$1*%
G04 Aperture macros list end*
%ADD10R,1.700000X1.700000*%
%ADD11O,1.700000X1.700000*%
%ADD12C,2.000000*%
%ADD13C,2.500000*%
%ADD14C,4.000000*%
%ADD15C,4.300000*%
%ADD16C,3.200000*%
%ADD17C,1.200000*%
%ADD18C,1.651000*%
%ADD19C,1.143000*%
%ADD20C,1.498600*%
%ADD21C,1.524000*%
%ADD22R,2.000000X2.000000*%
%ADD23C,3.000000*%
%ADD24C,3.250000*%
%ADD25C,1.800000*%
%ADD26FreePoly0,180.000000*%
%ADD27FreePoly1,180.000000*%
%ADD28C,1.000000*%
G04 APERTURE END LIST*
D10*
X36595000Y-132961129D03*
D11*
X34055000Y-132961129D03*
X36595000Y-130421129D03*
X34055000Y-130421129D03*
X36595000Y-127881129D03*
X34055000Y-127881129D03*
X36595000Y-125341129D03*
X34055000Y-125341129D03*
D12*
X17555000Y-132516200D03*
X6155000Y-132516200D03*
D13*
X6972391Y-116881200D03*
X13722391Y-116881200D03*
D14*
X42722391Y-40881200D03*
X48222391Y-40881200D03*
D15*
X105570000Y-6716200D03*
X18865000Y-29466200D03*
D10*
X97846892Y-110111200D03*
D11*
X97846892Y-107571200D03*
X97846892Y-105031200D03*
X97846892Y-102491200D03*
D16*
X90795000Y-146856200D03*
X103495000Y-146856200D03*
D17*
X100715000Y-144506200D03*
X99695000Y-142726200D03*
X98675000Y-144506200D03*
X97655000Y-142726200D03*
X96635000Y-144506200D03*
X95615000Y-142726200D03*
X94595000Y-144506200D03*
X93575000Y-142726200D03*
D16*
X38295000Y-146856200D03*
X50995000Y-146856200D03*
D17*
X48215000Y-144506200D03*
X47195000Y-142726200D03*
X46175000Y-144506200D03*
X45155000Y-142726200D03*
X44135000Y-144506200D03*
X43115000Y-142726200D03*
X42095000Y-144506200D03*
X41075000Y-142726200D03*
D18*
X72376447Y-56140601D03*
D19*
X97376449Y-56140601D03*
D20*
X106149046Y-126259723D03*
X106149046Y-118259723D03*
D21*
X8163158Y-10896200D03*
X3163158Y-10896200D03*
X8163158Y-15896200D03*
X3163158Y-15896200D03*
D22*
X6490000Y-25066200D03*
X1440000Y-25066200D03*
X6490000Y-30116200D03*
X1440000Y-30116200D03*
D23*
X7445000Y-141411200D03*
X12525000Y-141411200D03*
D24*
X56670000Y-146456200D03*
X85120000Y-146456200D03*
D17*
X82345000Y-143916200D03*
X81325000Y-142136200D03*
X80305000Y-143916200D03*
X79285000Y-142136200D03*
X78265000Y-143916200D03*
X77245000Y-142136200D03*
X76225000Y-143916200D03*
X75205000Y-142136200D03*
X66585000Y-143916200D03*
X65565000Y-142136200D03*
X64545000Y-143916200D03*
X63525000Y-142136200D03*
X62505000Y-143916200D03*
X61485000Y-142136200D03*
X60465000Y-143916200D03*
X59445000Y-142136200D03*
D23*
X86895000Y-142656200D03*
X54895000Y-142656200D03*
X21420000Y-141431200D03*
X26120000Y-141431200D03*
X30820000Y-141431200D03*
D15*
X109315000Y-134186200D03*
D25*
X8335000Y-124536200D03*
X15835000Y-127436200D03*
D15*
X26445000Y-127356200D03*
D26*
X48167000Y-87612200D03*
D27*
X46867000Y-87612200D03*
D12*
X106565000Y-141076200D03*
D26*
X48167000Y-92861532D03*
D27*
X46867000Y-92861532D03*
D12*
X4485000Y-4276200D03*
D28*
X90490000Y-98686200D03*
D12*
X2025000Y-124156200D03*
X98895000Y-3126200D03*
D26*
X48167000Y-95486200D03*
D27*
X46867000Y-95486200D03*
D26*
X48167000Y-90236866D03*
D27*
X46867000Y-90236866D03*
M02*
