M48
; DRILL file {KiCad 7.0.5-0} date 2023 August 08, Tuesday 04:38:17
; FORMAT={-:-/ absolute / metric / decimal}
; #@! TF.CreationDate,2023-08-08T04:38:17-03:00
; #@! TF.GenerationSoftware,Kicad,Pcbnew,7.0.5-0
; #@! TF.FileFunction,Plated,1,4,PTH
FMAT,2
METRIC
; #@! TA.AperFunction,Plated,PTH,ViaDrill
T1C0.300
; #@! TA.AperFunction,Plated,PTH,ComponentDrill
T2C0.762
; #@! TA.AperFunction,Plated,PTH,ComponentDrill
T3C0.800
; #@! TA.AperFunction,Plated,PTH,ComponentDrill
T4C0.991
; #@! TA.AperFunction,Plated,PTH,ComponentDrill
T5C1.000
; #@! TA.AperFunction,Plated,PTH,ComponentDrill
T6C1.100
; #@! TA.AperFunction,Plated,PTH,ComponentDrill
T7C1.600
; #@! TA.AperFunction,Plated,PTH,ComponentDrill
T8C1.650
; #@! TA.AperFunction,Plated,PTH,ComponentDrill
T9C2.000
; #@! TA.AperFunction,Plated,PTH,ComponentDrill
T10C2.100
; #@! TA.AperFunction,Plated,PTH,ComponentDrill
T11C4.200
%
G90
G05
T1
X8.163Y-18.796
X10.825Y-19.756
X15.964Y-6.652
X15.964Y-7.202
X15.964Y-7.752
X16.514Y-6.652
X16.514Y-7.202
X16.514Y-7.752
X17.064Y-6.652
X17.064Y-7.202
X17.064Y-7.752
X17.614Y-6.652
X17.614Y-7.202
X17.614Y-7.752
X41.22Y-7.202
X41.625Y-137.431
X44.025Y-137.441
X44.385Y-124.386
X47.025Y-137.001
X48.131Y-127.881
X49.745Y-138.286
X49.99Y-126.022
X50.311Y-87.612
X50.311Y-90.152
X50.311Y-92.692
X50.311Y-95.486
X51.265Y-136.687
X54.775Y-115.151
X55.568Y-45.576
X56.175Y-79.646
X56.205Y-84.371
X56.72Y-115.986
X56.72Y-129.632
X56.8Y-66.816
X56.925Y-76.541
X57.47Y-115.986
X57.47Y-129.632
X57.795Y-66.626
X57.87Y-115.171
X57.898Y-65.079
X57.99Y-70.096
X58.345Y-73.386
X58.615Y-115.481
X58.665Y-112.611
X59.52Y-87.664
X59.58Y-73.071
X59.655Y-137.651
X59.69Y-116.126
X59.69Y-130.083
X60.27Y-87.664
X60.279Y-72.913
X60.44Y-116.126
X60.44Y-130.083
X60.67Y-76.946
X60.885Y-115.471
X60.944Y-79.04
X60.945Y-112.621
X60.957Y-79.854
X60.979Y-72.914
X61.289Y-77.5
X61.31Y-78.256
X61.475Y-38.136
X61.725Y-64.046
X61.731Y-86.972
X61.735Y-137.721
X61.969Y-76.605
X61.98Y-115.516
X62.39Y-72.236
X62.43Y-87.086
X62.504Y-73.656
X62.66Y-116.138
X62.66Y-124.515
X62.858Y-63.341
X63.05Y-69.786
X63.41Y-116.138
X63.41Y-124.515
X64.253Y-71.62
X64.395Y-112.541
X64.425Y-38.136
X64.477Y-115.524
X64.824Y-72.252
X64.965Y-58.066
X65.025Y-59.346
X65.094Y-136.706
X65.094Y-139.791
X65.145Y-87.316
X65.18Y-115.346
X65.58Y-70.646
X65.63Y-116.155
X65.63Y-129.741
X65.653Y-85.926
X65.798Y-63.351
X66.045Y-55.536
X66.22Y-69.346
X66.38Y-116.155
X66.38Y-129.741
X67.11Y-65.456
X67.365Y-38.126
X67.545Y-139.681
X67.615Y-138.047
X67.92Y-93.175
X68.235Y-115.561
X68.531Y-72.28
X68.67Y-93.175
X68.76Y-77.376
X68.803Y-68.649
X68.845Y-112.491
X68.925Y-64.859
X69.161Y-38.13
X69.378Y-70.036
X69.509Y-74.105
X69.67Y-86.676
X69.93Y-77.967
X70.09Y-64.839
X70.325Y-73.196
X70.46Y-107.066
X70.72Y-93.104
X70.755Y-75.386
X70.84Y-80.594
X70.866Y-69.223
X71.137Y-114.823
X71.14Y-115.766
X71.225Y-83.949
X71.309Y-64.639
X71.47Y-93.104
X71.54Y-130.891
X71.54Y-141.131
X71.56Y-78.501
X71.57Y-95.326
X71.85Y-106.946
X72.1Y-95.856
X72.192Y-79.946
X72.29Y-130.891
X72.29Y-141.131
X72.955Y-63.619
X73.11Y-106.786
X73.175Y-88.531
X73.52Y-93.152
X73.835Y-69.224
X74.25Y-74.265
X74.27Y-93.152
X74.305Y-116.264
X74.305Y-129.733
X74.355Y-106.686
X74.72Y-82.006
X74.76Y-83.316
X75.055Y-116.264
X75.055Y-129.733
X75.13Y-46.289
X75.465Y-115.351
X75.645Y-137.451
X75.865Y-64.639
X75.876Y-53.37
X76.01Y-111.016
X76.085Y-77.102
X76.145Y-75.976
X76.165Y-115.931
X76.185Y-112.631
X76.43Y-73.296
X76.676Y-53.37
X77.275Y-116.264
X77.275Y-129.704
X77.476Y-53.37
X77.569Y-105.663
X77.655Y-49.436
X77.812Y-68.48
X77.87Y-82.016
X77.881Y-137.458
X78.025Y-116.264
X78.025Y-129.704
X78.268Y-105.667
X78.276Y-53.37
X78.41Y-71.236
X78.51Y-88.026
X78.755Y-115.381
X79.035Y-112.391
X79.12Y-93.133
X79.194Y-78.536
X79.345Y-116.061
X79.63Y-55.736
X79.87Y-93.133
X80.245Y-116.052
X80.245Y-129.665
X80.275Y-69.426
X80.825Y-84.616
X80.925Y-136.721
X80.955Y-140.071
X80.995Y-116.052
X80.995Y-129.665
X81.656Y-68.343
X81.815Y-65.126
X81.845Y-112.371
X81.92Y-92.955
X81.974Y-85.266
X82.095Y-115.641
X82.225Y-54.696
X82.67Y-92.955
X82.79Y-115.136
X83.215Y-116.089
X83.215Y-129.745
X83.255Y-138.556
X83.255Y-139.306
X83.28Y-100.101
X83.825Y-57.559
X83.965Y-116.089
X83.965Y-129.745
X84.03Y-100.101
X84.06Y-77.276
X84.335Y-65.046
X84.43Y-73.166
X84.58Y-69.022
X84.72Y-92.951
X85.145Y-129.741
X85.24Y-74.746
X85.47Y-92.951
X85.745Y-115.621
X86.275Y-49.356
X86.345Y-112.501
X86.721Y-130.505
X86.926Y-67.534
X86.929Y-68.115
X87.72Y-140.15
X88.365Y-50.456
X88.47Y-140.15
X88.63Y-115.536
X88.674Y-49.349
X88.7Y-111.222
X88.71Y-112.406
X89.151Y-68.115
X89.2Y-70.996
X89.267Y-48.977
X89.267Y-49.727
X89.385Y-54.556
X89.436Y-66.242
X89.781Y-68.115
X89.98Y-111.206
X90.136Y-64.03
X90.14Y-88.836
X90.815Y-122.108
X90.95Y-83.716
X90.96Y-112.696
X91.38Y-83.056
X91.515Y-104.596
X91.535Y-118.946
X91.615Y-112.336
X91.68Y-109.366
X91.849Y-46.548
X91.86Y-74.736
X91.9Y-98.566
X91.975Y-86.541
X92.005Y-95.241
X92.105Y-85.661
X92.16Y-120.006
X92.256Y-67.334
X92.865Y-66.724
X92.965Y-40.186
X93.215Y-57.496
X93.345Y-137.546
X93.355Y-30.146
X93.485Y-122.758
X93.55Y-71.586
X93.755Y-67.546
X93.76Y-118.936
X93.907Y-49.342
X94.045Y-140.226
X94.115Y-122.108
X94.222Y-125.533
X94.288Y-86.174
X94.318Y-83.844
X94.451Y-34.552
X94.505Y-112.361
X94.684Y-120.006
X94.785Y-47.906
X95.005Y-137.546
X95.515Y-89.221
X95.735Y-21.116
X95.987Y-26.161
X96.04Y-66.612
X96.141Y-23.212
X96.385Y-68.816
X96.498Y-85.014
X96.825Y-63.346
X96.916Y-41.772
X97.082Y-65.327
X97.165Y-31.816
X97.234Y-21.436
X97.255Y-22.228
X97.48Y-80.776
X97.498Y-84.664
X97.498Y-85.324
X97.515Y-35.886
X98.043Y-136.824
X98.125Y-148.146
X99.351Y-25.717
X99.43Y-100.896
X99.651Y-24.147
X99.815Y-136.742
X99.985Y-17.122
X99.995Y-19.662
X100.005Y-18.392
X100.18Y-66.623
X100.444Y-32.957
X100.556Y-21.997
X100.92Y-76.186
X100.92Y-76.866
X100.92Y-93.156
X100.92Y-93.896
X102.371Y-16.397
X102.371Y-17.097
X102.371Y-17.797
X102.371Y-18.497
X102.371Y-19.197
X102.749Y-23.377
X102.781Y-33.762
X102.841Y-24.142
X103.565Y-21.346
X103.656Y-16.397
X103.656Y-17.127
X103.656Y-17.777
X103.656Y-18.487
X103.656Y-19.197
X103.71Y-25.401
X104.307Y-30.008
X104.365Y-20.976
X104.556Y-25.435
X104.598Y-95.614
X104.598Y-96.324
X104.831Y-23.667
X104.841Y-22.557
X104.895Y-27.626
X104.941Y-16.397
X104.941Y-17.127
X104.941Y-17.807
X104.941Y-18.487
X104.941Y-19.197
X105.381Y-23.127
X105.743Y-68.138
X105.901Y-23.677
X105.912Y-25.877
X105.921Y-22.557
X106.005Y-20.926
X107.193Y-84.499
X107.193Y-85.329
X107.193Y-86.209
X107.193Y-87.099
X107.255Y-27.346
X107.335Y-14.288
X107.435Y-34.376
X107.551Y-15.437
X107.625Y-26.026
X107.705Y-18.946
X108.084Y-24.498
X108.237Y-23.816
X109.387Y-23.083
X109.685Y-21.456
X110.051Y-16.572
X110.421Y-18.987
T2
X3.163Y-10.896
X3.163Y-15.896
X8.163Y-10.896
X8.163Y-15.896
X41.075Y-142.726
X42.095Y-144.506
X43.115Y-142.726
X44.135Y-144.506
X45.155Y-142.726
X46.175Y-144.506
X47.195Y-142.726
X48.215Y-144.506
X59.445Y-142.136
X60.465Y-143.916
X61.485Y-142.136
X62.505Y-143.916
X63.525Y-142.136
X64.545Y-143.916
X65.565Y-142.136
X66.585Y-143.916
X75.205Y-142.136
X76.225Y-143.916
X77.245Y-142.136
X78.265Y-143.916
X79.285Y-142.136
X80.305Y-143.916
X81.325Y-142.136
X82.345Y-143.916
X93.575Y-142.726
X94.595Y-144.506
X95.615Y-142.726
X96.635Y-144.506
X97.655Y-142.726
X98.675Y-144.506
X99.695Y-142.726
X100.715Y-144.506
T3
X8.335Y-124.536
X15.835Y-127.436
T4
X106.149Y-118.26
X106.149Y-126.26
T5
X6.155Y-132.516
X17.555Y-132.516
X34.055Y-125.341
X34.055Y-127.881
X34.055Y-130.421
X34.055Y-132.961
X36.595Y-125.341
X36.595Y-127.881
X36.595Y-130.421
X36.595Y-132.961
X97.847Y-102.491
X97.847Y-105.031
X97.847Y-107.571
X97.847Y-110.111
T6
X6.972Y-116.881
X13.722Y-116.881
T7
X1.44Y-25.066
X1.44Y-30.116
X6.49Y-25.066
X6.49Y-30.116
T8
X7.445Y-141.411
X12.525Y-141.411
X21.42Y-141.431
X26.12Y-141.431
X30.82Y-141.431
T9
X54.895Y-142.656
X86.895Y-142.656
T10
X42.722Y-40.881
X48.222Y-40.881
T11
X72.859Y-8.272
X97.167Y-8.272
T0
M30
