%TF.GenerationSoftware,KiCad,Pcbnew,7.0.5-0*%
%TF.CreationDate,2023-08-08T04:38:16-03:00*%
%TF.ProjectId,macunaima_rev2,6d616375-6e61-4696-9d61-5f726576322e,rev?*%
%TF.SameCoordinates,Original*%
%TF.FileFunction,Drillmap*%
%TF.FilePolarity,Positive*%
%FSLAX45Y45*%
G04 Gerber Fmt 4.5, Leading zero omitted, Abs format (unit mm)*
G04 Created by KiCad (PCBNEW 7.0.5-0) date 2023-08-08 04:38:16*
%MOMM*%
%LPD*%
G01*
G04 APERTURE LIST*
%ADD10C,0.100000*%
%ADD11C,0.200000*%
%ADD12C,0.030000*%
%ADD13C,0.076200*%
%ADD14C,0.080000*%
%ADD15C,0.099060*%
%ADD16C,0.110000*%
%ADD17C,0.160000*%
%ADD18C,0.165000*%
%ADD19C,0.210000*%
%ADD20C,0.420000*%
G04 APERTURE END LIST*
D10*
X0Y-14800000D02*
G75*
G03*
X400000Y-15200000I400000J0D01*
G01*
X400000Y0D02*
G75*
G03*
X0Y-400000I0J-400000D01*
G01*
X11000000Y-15200000D02*
G75*
G03*
X11400000Y-14800000I0J400000D01*
G01*
X11400000Y-14800000D02*
X11400000Y-400000D01*
X11000000Y0D02*
X400000Y0D01*
X11400000Y-400000D02*
G75*
G03*
X11000000Y0I-400000J0D01*
G01*
X400000Y-15200000D02*
X11000000Y-15200000D01*
X0Y-400000D02*
X0Y-14800000D01*
D11*
D12*
X801316Y-1864620D02*
X831316Y-1894620D01*
X831316Y-1864620D02*
X801316Y-1894620D01*
X1067500Y-1960620D02*
X1097500Y-1990620D01*
X1097500Y-1960620D02*
X1067500Y-1990620D01*
X1581380Y-650200D02*
X1611380Y-680200D01*
X1611380Y-650200D02*
X1581380Y-680200D01*
X1581380Y-705200D02*
X1611380Y-735200D01*
X1611380Y-705200D02*
X1581380Y-735200D01*
X1581380Y-760200D02*
X1611380Y-790200D01*
X1611380Y-760200D02*
X1581380Y-790200D01*
X1636380Y-650200D02*
X1666380Y-680200D01*
X1666380Y-650200D02*
X1636380Y-680200D01*
X1636380Y-705200D02*
X1666380Y-735200D01*
X1666380Y-705200D02*
X1636380Y-735200D01*
X1636380Y-760200D02*
X1666380Y-790200D01*
X1666380Y-760200D02*
X1636380Y-790200D01*
X1691380Y-650200D02*
X1721380Y-680200D01*
X1721380Y-650200D02*
X1691380Y-680200D01*
X1691380Y-705200D02*
X1721380Y-735200D01*
X1721380Y-705200D02*
X1691380Y-735200D01*
X1691380Y-760200D02*
X1721380Y-790200D01*
X1721380Y-760200D02*
X1691380Y-790200D01*
X1746380Y-650200D02*
X1776380Y-680200D01*
X1776380Y-650200D02*
X1746380Y-680200D01*
X1746380Y-705200D02*
X1776380Y-735200D01*
X1776380Y-705200D02*
X1746380Y-735200D01*
X1746380Y-760200D02*
X1776380Y-790200D01*
X1776380Y-760200D02*
X1746380Y-790200D01*
X4107000Y-705200D02*
X4137000Y-735200D01*
X4137000Y-705200D02*
X4107000Y-735200D01*
X4147500Y-13728120D02*
X4177500Y-13758120D01*
X4177500Y-13728120D02*
X4147500Y-13758120D01*
X4387500Y-13729120D02*
X4417500Y-13759120D01*
X4417500Y-13729120D02*
X4387500Y-13759120D01*
X4423500Y-12423620D02*
X4453500Y-12453620D01*
X4453500Y-12423620D02*
X4423500Y-12453620D01*
X4687500Y-13685120D02*
X4717500Y-13715120D01*
X4717500Y-13685120D02*
X4687500Y-13715120D01*
X4798057Y-12773113D02*
X4828057Y-12803113D01*
X4828057Y-12773113D02*
X4798057Y-12803113D01*
X4959500Y-13813570D02*
X4989500Y-13843570D01*
X4989500Y-13813570D02*
X4959500Y-13843570D01*
X4984000Y-12587170D02*
X5014000Y-12617170D01*
X5014000Y-12587170D02*
X4984000Y-12617170D01*
X5016100Y-8746220D02*
X5046100Y-8776220D01*
X5046100Y-8746220D02*
X5016100Y-8776220D01*
X5016100Y-9000220D02*
X5046100Y-9030220D01*
X5046100Y-9000220D02*
X5016100Y-9030220D01*
X5016100Y-9254220D02*
X5046100Y-9284220D01*
X5046100Y-9254220D02*
X5016100Y-9284220D01*
X5016100Y-9533620D02*
X5046100Y-9563620D01*
X5046100Y-9533620D02*
X5016100Y-9563620D01*
X5111500Y-13653670D02*
X5141500Y-13683670D01*
X5141500Y-13653670D02*
X5111500Y-13683670D01*
X5462500Y-11500120D02*
X5492500Y-11530120D01*
X5492500Y-11500120D02*
X5462500Y-11530120D01*
X5541829Y-4542620D02*
X5571829Y-4572620D01*
X5571829Y-4542620D02*
X5541829Y-4572620D01*
X5602500Y-7949620D02*
X5632500Y-7979620D01*
X5632500Y-7949620D02*
X5602500Y-7979620D01*
X5605500Y-8422120D02*
X5635500Y-8452120D01*
X5635500Y-8422120D02*
X5605500Y-8452120D01*
X5657000Y-11583552D02*
X5687000Y-11613552D01*
X5687000Y-11583552D02*
X5657000Y-11613552D01*
X5657000Y-12948234D02*
X5687000Y-12978234D01*
X5687000Y-12948234D02*
X5657000Y-12978234D01*
X5665000Y-6666620D02*
X5695000Y-6696620D01*
X5695000Y-6666620D02*
X5665000Y-6696620D01*
X5677500Y-7639120D02*
X5707500Y-7669120D01*
X5707500Y-7639120D02*
X5677500Y-7669120D01*
X5732000Y-11583552D02*
X5762000Y-11613552D01*
X5762000Y-11583552D02*
X5732000Y-11613552D01*
X5732000Y-12948234D02*
X5762000Y-12978234D01*
X5762000Y-12948234D02*
X5732000Y-12978234D01*
X5764500Y-6647620D02*
X5794500Y-6677620D01*
X5794500Y-6647620D02*
X5764500Y-6677620D01*
X5771950Y-11502120D02*
X5801950Y-11532120D01*
X5801950Y-11502120D02*
X5771950Y-11532120D01*
X5774786Y-6492906D02*
X5804786Y-6522906D01*
X5804786Y-6492906D02*
X5774786Y-6522906D01*
X5784000Y-6994620D02*
X5814000Y-7024620D01*
X5814000Y-6994620D02*
X5784000Y-7024620D01*
X5819500Y-7323620D02*
X5849500Y-7353620D01*
X5849500Y-7323620D02*
X5819500Y-7353620D01*
X5846500Y-11533120D02*
X5876500Y-11563120D01*
X5876500Y-11533120D02*
X5846500Y-11563120D01*
X5851500Y-11246120D02*
X5881500Y-11276120D01*
X5881500Y-11246120D02*
X5851500Y-11276120D01*
X5937000Y-8751425D02*
X5967000Y-8781425D01*
X5967000Y-8751425D02*
X5937000Y-8781425D01*
X5942998Y-7292108D02*
X5972998Y-7322108D01*
X5972998Y-7292108D02*
X5942998Y-7322108D01*
X5950500Y-13750120D02*
X5980500Y-13780120D01*
X5980500Y-13750120D02*
X5950500Y-13780120D01*
X5954000Y-11597612D02*
X5984000Y-11627612D01*
X5984000Y-11597612D02*
X5954000Y-11627612D01*
X5954000Y-12993256D02*
X5984000Y-13023256D01*
X5984000Y-12993256D02*
X5954000Y-13023256D01*
X6012000Y-8751425D02*
X6042000Y-8781425D01*
X6042000Y-8751425D02*
X6012000Y-8781425D01*
X6012940Y-7276342D02*
X6042940Y-7306342D01*
X6042940Y-7276342D02*
X6012940Y-7306342D01*
X6029000Y-11597612D02*
X6059000Y-11627612D01*
X6059000Y-11597612D02*
X6029000Y-11627612D01*
X6029000Y-12993256D02*
X6059000Y-13023256D01*
X6059000Y-12993256D02*
X6029000Y-13023256D01*
X6052000Y-7679620D02*
X6082000Y-7709620D01*
X6082000Y-7679620D02*
X6052000Y-7709620D01*
X6073500Y-11532120D02*
X6103500Y-11562120D01*
X6103500Y-11532120D02*
X6073500Y-11562120D01*
X6079377Y-7888997D02*
X6109377Y-7918997D01*
X6109377Y-7888997D02*
X6079377Y-7918997D01*
X6079500Y-11247120D02*
X6109500Y-11277120D01*
X6109500Y-11247120D02*
X6079500Y-11277120D01*
X6080734Y-7970354D02*
X6110734Y-8000354D01*
X6110734Y-7970354D02*
X6080734Y-8000354D01*
X6082891Y-7276437D02*
X6112891Y-7306437D01*
X6112891Y-7276437D02*
X6082891Y-7306437D01*
X6113894Y-7735042D02*
X6143894Y-7765042D01*
X6143894Y-7735042D02*
X6113894Y-7765042D01*
X6116000Y-7810620D02*
X6146000Y-7840620D01*
X6146000Y-7810620D02*
X6116000Y-7840620D01*
X6132500Y-3798620D02*
X6162500Y-3828620D01*
X6162500Y-3798620D02*
X6132500Y-3828620D01*
X6157500Y-6389620D02*
X6187500Y-6419620D01*
X6187500Y-6389620D02*
X6157500Y-6419620D01*
X6158060Y-8682242D02*
X6188060Y-8712242D01*
X6188060Y-8682242D02*
X6158060Y-8712242D01*
X6158500Y-13757120D02*
X6188500Y-13787120D01*
X6188500Y-13757120D02*
X6158500Y-13787120D01*
X6181877Y-7645497D02*
X6211877Y-7675497D01*
X6211877Y-7645497D02*
X6181877Y-7675497D01*
X6183000Y-11536620D02*
X6213000Y-11566620D01*
X6213000Y-11536620D02*
X6183000Y-11566620D01*
X6224000Y-7208620D02*
X6254000Y-7238620D01*
X6254000Y-7208620D02*
X6224000Y-7238620D01*
X6228000Y-8693620D02*
X6258000Y-8723620D01*
X6258000Y-8693620D02*
X6228000Y-8723620D01*
X6235391Y-7350620D02*
X6265391Y-7380620D01*
X6265391Y-7350620D02*
X6235391Y-7380620D01*
X6251000Y-11598847D02*
X6281000Y-11628847D01*
X6281000Y-11598847D02*
X6251000Y-11628847D01*
X6251000Y-12436488D02*
X6281000Y-12466488D01*
X6281000Y-12436488D02*
X6251000Y-12466488D01*
X6270841Y-6319120D02*
X6300841Y-6349120D01*
X6300841Y-6319120D02*
X6270841Y-6349120D01*
X6290000Y-6963620D02*
X6320000Y-6993620D01*
X6320000Y-6963620D02*
X6290000Y-6993620D01*
X6326000Y-11598847D02*
X6356000Y-11628847D01*
X6356000Y-11598847D02*
X6326000Y-11628847D01*
X6326000Y-12436488D02*
X6356000Y-12466488D01*
X6356000Y-12436488D02*
X6326000Y-12466488D01*
X6410291Y-7147013D02*
X6440291Y-7177013D01*
X6440291Y-7147013D02*
X6410291Y-7177013D01*
X6424500Y-11239120D02*
X6454500Y-11269120D01*
X6454500Y-11239120D02*
X6424500Y-11269120D01*
X6427500Y-3798620D02*
X6457500Y-3828620D01*
X6457500Y-3798620D02*
X6427500Y-3828620D01*
X6432731Y-11537351D02*
X6462731Y-11567351D01*
X6462731Y-11537351D02*
X6432731Y-11567351D01*
X6467405Y-7210208D02*
X6497405Y-7240208D01*
X6497405Y-7210208D02*
X6467405Y-7240208D01*
X6481500Y-5791620D02*
X6511500Y-5821620D01*
X6511500Y-5791620D02*
X6481500Y-5821620D01*
X6487500Y-5919620D02*
X6517500Y-5949620D01*
X6517500Y-5919620D02*
X6487500Y-5949620D01*
X6494450Y-13655633D02*
X6524450Y-13685633D01*
X6524450Y-13655633D02*
X6494450Y-13685633D01*
X6494450Y-13964120D02*
X6524450Y-13994120D01*
X6524450Y-13964120D02*
X6494450Y-13994120D01*
X6499500Y-8716620D02*
X6529500Y-8746620D01*
X6529500Y-8716620D02*
X6499500Y-8746620D01*
X6503000Y-11519620D02*
X6533000Y-11549620D01*
X6533000Y-11519620D02*
X6503000Y-11549620D01*
X6543000Y-7049620D02*
X6573000Y-7079620D01*
X6573000Y-7049620D02*
X6543000Y-7079620D01*
X6548000Y-11600543D02*
X6578000Y-11630543D01*
X6578000Y-11600543D02*
X6548000Y-11630543D01*
X6548000Y-12959143D02*
X6578000Y-12989143D01*
X6578000Y-12959143D02*
X6548000Y-12989143D01*
X6550291Y-8577620D02*
X6580291Y-8607620D01*
X6580291Y-8577620D02*
X6550291Y-8607620D01*
X6564841Y-6320120D02*
X6594841Y-6350120D01*
X6594841Y-6320120D02*
X6564841Y-6350120D01*
X6589500Y-5538620D02*
X6619500Y-5568620D01*
X6619500Y-5538620D02*
X6589500Y-5568620D01*
X6607000Y-6919620D02*
X6637000Y-6949620D01*
X6637000Y-6919620D02*
X6607000Y-6949620D01*
X6623000Y-11600543D02*
X6653000Y-11630543D01*
X6653000Y-11600543D02*
X6623000Y-11630543D01*
X6623000Y-12959143D02*
X6653000Y-12989143D01*
X6653000Y-12959143D02*
X6623000Y-12989143D01*
X6696000Y-6530620D02*
X6726000Y-6560620D01*
X6726000Y-6530620D02*
X6696000Y-6560620D01*
X6721500Y-3797620D02*
X6751500Y-3827620D01*
X6751500Y-3797620D02*
X6721500Y-3827620D01*
X6739500Y-13953120D02*
X6769500Y-13983120D01*
X6769500Y-13953120D02*
X6739500Y-13983120D01*
X6746500Y-13789670D02*
X6776500Y-13819670D01*
X6776500Y-13789670D02*
X6746500Y-13819670D01*
X6777000Y-9302487D02*
X6807000Y-9332487D01*
X6807000Y-9302487D02*
X6777000Y-9332487D01*
X6808500Y-11541120D02*
X6838500Y-11571120D01*
X6838500Y-11541120D02*
X6808500Y-11571120D01*
X6838125Y-7212963D02*
X6868125Y-7242963D01*
X6868125Y-7212963D02*
X6838125Y-7242963D01*
X6852000Y-9302487D02*
X6882000Y-9332487D01*
X6882000Y-9302487D02*
X6852000Y-9332487D01*
X6861000Y-7722620D02*
X6891000Y-7752620D01*
X6891000Y-7722620D02*
X6861000Y-7752620D01*
X6865291Y-6849885D02*
X6895291Y-6879885D01*
X6895291Y-6849885D02*
X6865291Y-6879885D01*
X6869500Y-11234120D02*
X6899500Y-11264120D01*
X6899500Y-11234120D02*
X6869500Y-11264120D01*
X6877500Y-6470885D02*
X6907500Y-6500885D01*
X6907500Y-6470885D02*
X6877500Y-6500885D01*
X6901149Y-3797970D02*
X6931149Y-3827970D01*
X6931149Y-3797970D02*
X6901149Y-3827970D01*
X6922772Y-6988612D02*
X6952772Y-7018612D01*
X6952772Y-6988612D02*
X6922772Y-7018612D01*
X6935923Y-7395543D02*
X6965923Y-7425543D01*
X6965923Y-7395543D02*
X6935923Y-7425543D01*
X6952000Y-8652620D02*
X6982000Y-8682620D01*
X6982000Y-8652620D02*
X6952000Y-8682620D01*
X6978000Y-7781670D02*
X7008000Y-7811670D01*
X7008000Y-7781670D02*
X6978000Y-7811670D01*
X6994020Y-6468885D02*
X7024020Y-6498885D01*
X7024020Y-6468885D02*
X6994020Y-6498885D01*
X7017500Y-7304620D02*
X7047500Y-7334620D01*
X7047500Y-7304620D02*
X7017500Y-7334620D01*
X7031000Y-10691620D02*
X7061000Y-10721620D01*
X7061000Y-10691620D02*
X7031000Y-10721620D01*
X7057000Y-9295446D02*
X7087000Y-9325446D01*
X7087000Y-9295446D02*
X7057000Y-9325446D01*
X7060500Y-7523620D02*
X7090500Y-7553620D01*
X7090500Y-7523620D02*
X7060500Y-7553620D01*
X7069008Y-8044381D02*
X7099008Y-8074381D01*
X7099008Y-8044381D02*
X7069008Y-8074381D01*
X7071629Y-6907311D02*
X7101629Y-6937311D01*
X7101629Y-6907311D02*
X7071629Y-6937311D01*
X7098684Y-11467304D02*
X7128684Y-11497304D01*
X7128684Y-11467304D02*
X7098684Y-11497304D01*
X7099000Y-11561620D02*
X7129000Y-11591620D01*
X7129000Y-11561620D02*
X7099000Y-11591620D01*
X7107550Y-8379883D02*
X7137550Y-8409883D01*
X7137550Y-8379883D02*
X7107550Y-8409883D01*
X7115940Y-6448885D02*
X7145940Y-6478885D01*
X7145940Y-6448885D02*
X7115940Y-6478885D01*
X7132000Y-9295446D02*
X7162000Y-9325446D01*
X7162000Y-9295446D02*
X7132000Y-9325446D01*
X7139000Y-13074120D02*
X7169000Y-13104120D01*
X7169000Y-13074120D02*
X7139000Y-13104120D01*
X7139000Y-14098120D02*
X7169000Y-14128120D01*
X7169000Y-14098120D02*
X7139000Y-14128120D01*
X7141000Y-7835120D02*
X7171000Y-7865120D01*
X7171000Y-7835120D02*
X7141000Y-7865120D01*
X7141983Y-9517603D02*
X7171983Y-9547603D01*
X7171983Y-9517603D02*
X7141983Y-9547603D01*
X7170000Y-10679620D02*
X7200000Y-10709620D01*
X7200000Y-10679620D02*
X7170000Y-10709620D01*
X7195017Y-9570637D02*
X7225017Y-9600637D01*
X7225017Y-9570637D02*
X7195017Y-9600637D01*
X7204183Y-7979620D02*
X7234183Y-8009620D01*
X7234183Y-7979620D02*
X7204183Y-8009620D01*
X7214000Y-13074120D02*
X7244000Y-13104120D01*
X7244000Y-13074120D02*
X7214000Y-13104120D01*
X7214000Y-14098120D02*
X7244000Y-14128120D01*
X7244000Y-14098120D02*
X7214000Y-14128120D01*
X7280500Y-6346885D02*
X7310500Y-6376885D01*
X7310500Y-6346885D02*
X7280500Y-6376885D01*
X7296000Y-10663620D02*
X7326000Y-10693620D01*
X7326000Y-10663620D02*
X7296000Y-10693620D01*
X7302500Y-8838120D02*
X7332500Y-8868120D01*
X7332500Y-8838120D02*
X7302500Y-8868120D01*
X7337000Y-9300192D02*
X7367000Y-9330192D01*
X7367000Y-9300192D02*
X7337000Y-9330192D01*
X7368500Y-6907361D02*
X7398500Y-6937361D01*
X7398500Y-6907361D02*
X7368500Y-6937361D01*
X7410011Y-7411479D02*
X7440011Y-7441479D01*
X7440011Y-7411479D02*
X7410011Y-7441479D01*
X7412000Y-9300192D02*
X7442000Y-9330192D01*
X7442000Y-9300192D02*
X7412000Y-9330192D01*
X7415500Y-11611443D02*
X7445500Y-11641443D01*
X7445500Y-11611443D02*
X7415500Y-11641443D01*
X7415500Y-12958265D02*
X7445500Y-12988265D01*
X7445500Y-12958265D02*
X7415500Y-12988265D01*
X7420520Y-10653569D02*
X7450520Y-10683569D01*
X7450520Y-10653569D02*
X7420520Y-10683569D01*
X7457000Y-8185620D02*
X7487000Y-8215620D01*
X7487000Y-8185620D02*
X7457000Y-8215620D01*
X7461000Y-8316620D02*
X7491000Y-8346620D01*
X7491000Y-8316620D02*
X7461000Y-8346620D01*
X7490500Y-11611443D02*
X7520500Y-11641443D01*
X7520500Y-11611443D02*
X7490500Y-11641443D01*
X7490500Y-12958265D02*
X7520500Y-12988265D01*
X7520500Y-12958265D02*
X7490500Y-12988265D01*
X7498000Y-4613885D02*
X7528000Y-4643885D01*
X7528000Y-4613885D02*
X7498000Y-4643885D01*
X7531500Y-11520120D02*
X7561500Y-11550120D01*
X7561500Y-11520120D02*
X7531500Y-11550120D01*
X7549500Y-13730120D02*
X7579500Y-13760120D01*
X7579500Y-13730120D02*
X7549500Y-13760120D01*
X7571500Y-6448885D02*
X7601500Y-6478885D01*
X7601500Y-6448885D02*
X7571500Y-6478885D01*
X7572645Y-5321992D02*
X7602645Y-5351992D01*
X7602645Y-5321992D02*
X7572645Y-5351992D01*
X7586000Y-11086620D02*
X7616000Y-11116620D01*
X7616000Y-11086620D02*
X7586000Y-11116620D01*
X7593550Y-7695243D02*
X7623550Y-7725243D01*
X7623550Y-7695243D02*
X7593550Y-7725243D01*
X7599500Y-7582620D02*
X7629500Y-7612620D01*
X7629500Y-7582620D02*
X7599500Y-7612620D01*
X7601500Y-11578120D02*
X7631500Y-11608120D01*
X7631500Y-11578120D02*
X7601500Y-11608120D01*
X7603500Y-11248120D02*
X7633500Y-11278120D01*
X7633500Y-11248120D02*
X7603500Y-11278120D01*
X7628000Y-7314620D02*
X7658000Y-7344620D01*
X7658000Y-7314620D02*
X7628000Y-7344620D01*
X7652645Y-5321992D02*
X7682645Y-5351992D01*
X7682645Y-5321992D02*
X7652645Y-5351992D01*
X7712500Y-11611397D02*
X7742500Y-11641397D01*
X7742500Y-11611397D02*
X7712500Y-11641397D01*
X7712500Y-12955406D02*
X7742500Y-12985406D01*
X7742500Y-12955406D02*
X7712500Y-12985406D01*
X7732645Y-5321992D02*
X7762645Y-5351992D01*
X7762645Y-5321992D02*
X7732645Y-5351992D01*
X7741889Y-10551262D02*
X7771889Y-10581262D01*
X7771889Y-10551262D02*
X7741889Y-10581262D01*
X7750500Y-4928620D02*
X7780500Y-4958620D01*
X7780500Y-4928620D02*
X7750500Y-4958620D01*
X7766180Y-6833002D02*
X7796180Y-6863002D01*
X7796180Y-6833002D02*
X7766180Y-6863002D01*
X7772000Y-8186620D02*
X7802000Y-8216620D01*
X7802000Y-8186620D02*
X7772000Y-8216620D01*
X7773143Y-13730763D02*
X7803143Y-13760763D01*
X7803143Y-13730763D02*
X7773143Y-13760763D01*
X7787500Y-11611397D02*
X7817500Y-11641397D01*
X7817500Y-11611397D02*
X7787500Y-11641397D01*
X7787500Y-12955406D02*
X7817500Y-12985406D01*
X7817500Y-12955406D02*
X7787500Y-12985406D01*
X7811837Y-10551733D02*
X7841837Y-10581733D01*
X7841837Y-10551733D02*
X7811837Y-10581733D01*
X7812645Y-5321992D02*
X7842645Y-5351992D01*
X7842645Y-5321992D02*
X7812645Y-5351992D01*
X7826000Y-7108620D02*
X7856000Y-7138620D01*
X7856000Y-7108620D02*
X7826000Y-7138620D01*
X7836000Y-8787620D02*
X7866000Y-8817620D01*
X7866000Y-8787620D02*
X7836000Y-8817620D01*
X7860500Y-11523120D02*
X7890500Y-11553120D01*
X7890500Y-11523120D02*
X7860500Y-11553120D01*
X7888500Y-11224120D02*
X7918500Y-11254120D01*
X7918500Y-11224120D02*
X7888500Y-11254120D01*
X7897000Y-9298319D02*
X7927000Y-9328319D01*
X7927000Y-9298319D02*
X7897000Y-9328319D01*
X7904450Y-7838620D02*
X7934450Y-7868620D01*
X7934450Y-7838620D02*
X7904450Y-7868620D01*
X7919500Y-11591120D02*
X7949500Y-11621120D01*
X7949500Y-11591120D02*
X7919500Y-11621120D01*
X7948000Y-5558620D02*
X7978000Y-5588620D01*
X7978000Y-5558620D02*
X7948000Y-5588620D01*
X7972000Y-9298319D02*
X8002000Y-9328319D01*
X8002000Y-9298319D02*
X7972000Y-9328319D01*
X8009500Y-11590154D02*
X8039500Y-11620154D01*
X8039500Y-11590154D02*
X8009500Y-11620154D01*
X8009500Y-12951463D02*
X8039500Y-12981463D01*
X8039500Y-12951463D02*
X8009500Y-12981463D01*
X8012500Y-6927620D02*
X8042500Y-6957620D01*
X8042500Y-6927620D02*
X8012500Y-6957620D01*
X8067550Y-8446620D02*
X8097550Y-8476620D01*
X8097550Y-8446620D02*
X8067550Y-8476620D01*
X8077500Y-13657120D02*
X8107500Y-13687120D01*
X8107500Y-13657120D02*
X8077500Y-13687120D01*
X8080500Y-13992120D02*
X8110500Y-14022120D01*
X8110500Y-13992120D02*
X8080500Y-14022120D01*
X8084500Y-11590154D02*
X8114500Y-11620154D01*
X8114500Y-11590154D02*
X8084500Y-11620154D01*
X8084500Y-12951463D02*
X8114500Y-12981463D01*
X8114500Y-12951463D02*
X8084500Y-12981463D01*
X8150645Y-6819290D02*
X8180645Y-6849290D01*
X8180645Y-6819290D02*
X8150645Y-6849290D01*
X8166500Y-6497620D02*
X8196500Y-6527620D01*
X8196500Y-6497620D02*
X8166500Y-6527620D01*
X8169500Y-11222120D02*
X8199500Y-11252120D01*
X8199500Y-11222120D02*
X8169500Y-11252120D01*
X8177000Y-9280526D02*
X8207000Y-9310526D01*
X8207000Y-9280526D02*
X8177000Y-9310526D01*
X8182450Y-8511620D02*
X8212450Y-8541620D01*
X8212450Y-8511620D02*
X8182450Y-8541620D01*
X8194500Y-11549120D02*
X8224500Y-11579120D01*
X8224500Y-11549120D02*
X8194500Y-11579120D01*
X8207500Y-5454620D02*
X8237500Y-5484620D01*
X8237500Y-5454620D02*
X8207500Y-5484620D01*
X8252000Y-9280526D02*
X8282000Y-9310526D01*
X8282000Y-9280526D02*
X8252000Y-9310526D01*
X8264000Y-11498620D02*
X8294000Y-11528620D01*
X8294000Y-11498620D02*
X8264000Y-11528620D01*
X8306500Y-11593893D02*
X8336500Y-11623893D01*
X8336500Y-11593893D02*
X8306500Y-11623893D01*
X8306500Y-12959507D02*
X8336500Y-12989507D01*
X8336500Y-12959507D02*
X8306500Y-12989507D01*
X8310500Y-13840620D02*
X8340500Y-13870620D01*
X8340500Y-13840620D02*
X8310500Y-13870620D01*
X8310500Y-13915620D02*
X8340500Y-13945620D01*
X8340500Y-13915620D02*
X8310500Y-13945620D01*
X8313000Y-9995120D02*
X8343000Y-10025120D01*
X8343000Y-9995120D02*
X8313000Y-10025120D01*
X8367500Y-5740885D02*
X8397500Y-5770885D01*
X8397500Y-5740885D02*
X8367500Y-5770885D01*
X8381500Y-11593893D02*
X8411500Y-11623893D01*
X8411500Y-11593893D02*
X8381500Y-11623893D01*
X8381500Y-12959507D02*
X8411500Y-12989507D01*
X8411500Y-12959507D02*
X8381500Y-12989507D01*
X8388000Y-9995120D02*
X8418000Y-10025120D01*
X8418000Y-9995120D02*
X8388000Y-10025120D01*
X8391000Y-7712620D02*
X8421000Y-7742620D01*
X8421000Y-7712620D02*
X8391000Y-7742620D01*
X8418500Y-6489620D02*
X8448500Y-6519620D01*
X8448500Y-6489620D02*
X8418500Y-6519620D01*
X8428000Y-7301620D02*
X8458000Y-7331620D01*
X8458000Y-7301620D02*
X8428000Y-7331620D01*
X8443000Y-6887182D02*
X8473000Y-6917182D01*
X8473000Y-6887182D02*
X8443000Y-6917182D01*
X8457000Y-9280123D02*
X8487000Y-9310123D01*
X8487000Y-9280123D02*
X8457000Y-9310123D01*
X8499500Y-12959120D02*
X8529500Y-12989120D01*
X8529500Y-12959120D02*
X8499500Y-12989120D01*
X8509000Y-7459620D02*
X8539000Y-7489620D01*
X8539000Y-7459620D02*
X8509000Y-7489620D01*
X8532000Y-9280123D02*
X8562000Y-9310123D01*
X8562000Y-9280123D02*
X8532000Y-9310123D01*
X8559500Y-11547120D02*
X8589500Y-11577120D01*
X8589500Y-11547120D02*
X8559500Y-11577120D01*
X8612500Y-4920620D02*
X8642500Y-4950620D01*
X8642500Y-4920620D02*
X8612500Y-4950620D01*
X8619500Y-11235120D02*
X8649500Y-11265120D01*
X8649500Y-11235120D02*
X8619500Y-11265120D01*
X8657123Y-13035497D02*
X8687123Y-13065497D01*
X8687123Y-13035497D02*
X8657123Y-13065497D01*
X8677645Y-6738410D02*
X8707645Y-6768410D01*
X8707645Y-6738410D02*
X8677645Y-6768410D01*
X8677877Y-6796522D02*
X8707877Y-6826522D01*
X8707877Y-6796522D02*
X8677877Y-6826522D01*
X8757000Y-14000045D02*
X8787000Y-14030045D01*
X8787000Y-14000045D02*
X8757000Y-14030045D01*
X8821500Y-5030620D02*
X8851500Y-5060620D01*
X8851500Y-5030620D02*
X8821500Y-5060620D01*
X8832000Y-14000045D02*
X8862000Y-14030045D01*
X8862000Y-14000045D02*
X8832000Y-14030045D01*
X8848000Y-11538620D02*
X8878000Y-11568620D01*
X8878000Y-11538620D02*
X8848000Y-11568620D01*
X8852404Y-4919923D02*
X8882404Y-4949923D01*
X8882404Y-4919923D02*
X8852404Y-4949923D01*
X8855000Y-11107170D02*
X8885000Y-11137170D01*
X8885000Y-11107170D02*
X8855000Y-11137170D01*
X8856000Y-11225620D02*
X8886000Y-11255620D01*
X8886000Y-11225620D02*
X8856000Y-11255620D01*
X8900145Y-6796522D02*
X8930145Y-6826522D01*
X8930145Y-6796522D02*
X8900145Y-6826522D01*
X8905000Y-7084620D02*
X8935000Y-7114620D01*
X8935000Y-7084620D02*
X8905000Y-7114620D01*
X8911655Y-4882743D02*
X8941655Y-4912743D01*
X8941655Y-4882743D02*
X8911655Y-4912743D01*
X8911655Y-4957743D02*
X8941655Y-4987743D01*
X8941655Y-4957743D02*
X8911655Y-4987743D01*
X8923500Y-5440620D02*
X8953500Y-5470620D01*
X8953500Y-5440620D02*
X8923500Y-5470620D01*
X8928625Y-6609170D02*
X8958625Y-6639170D01*
X8958625Y-6609170D02*
X8928625Y-6639170D01*
X8963145Y-6796522D02*
X8993145Y-6826522D01*
X8993145Y-6796522D02*
X8963145Y-6826522D01*
X8983000Y-11105620D02*
X9013000Y-11135620D01*
X9013000Y-11105620D02*
X8983000Y-11135620D01*
X8998645Y-6387992D02*
X9028645Y-6417992D01*
X9028645Y-6387992D02*
X8998645Y-6417992D01*
X8999000Y-8868620D02*
X9029000Y-8898620D01*
X9029000Y-8868620D02*
X8999000Y-8898620D01*
X9066500Y-12195822D02*
X9096500Y-12225822D01*
X9096500Y-12195822D02*
X9066500Y-12225822D01*
X9080000Y-8356620D02*
X9110000Y-8386620D01*
X9110000Y-8356620D02*
X9080000Y-8386620D01*
X9081000Y-11254620D02*
X9111000Y-11284620D01*
X9111000Y-11254620D02*
X9081000Y-11284620D01*
X9123000Y-8290620D02*
X9153000Y-8320620D01*
X9153000Y-8290620D02*
X9123000Y-8320620D01*
X9136500Y-10444620D02*
X9166500Y-10474620D01*
X9166500Y-10444620D02*
X9136500Y-10474620D01*
X9138500Y-11879620D02*
X9168500Y-11909620D01*
X9168500Y-11879620D02*
X9138500Y-11909620D01*
X9146500Y-11218620D02*
X9176500Y-11248620D01*
X9176500Y-11218620D02*
X9146500Y-11248620D01*
X9153000Y-10921620D02*
X9183000Y-10951620D01*
X9183000Y-10921620D02*
X9153000Y-10951620D01*
X9169925Y-4639772D02*
X9199925Y-4669772D01*
X9199925Y-4639772D02*
X9169925Y-4669772D01*
X9171000Y-7458620D02*
X9201000Y-7488620D01*
X9201000Y-7458620D02*
X9171000Y-7488620D01*
X9175000Y-9841620D02*
X9205000Y-9871620D01*
X9205000Y-9841620D02*
X9175000Y-9871620D01*
X9182500Y-8639120D02*
X9212500Y-8669120D01*
X9212500Y-8639120D02*
X9182500Y-8669120D01*
X9185500Y-9509120D02*
X9215500Y-9539120D01*
X9215500Y-9509120D02*
X9185500Y-9539120D01*
X9195500Y-8551120D02*
X9225500Y-8581120D01*
X9225500Y-8551120D02*
X9195500Y-8581120D01*
X9201050Y-11985620D02*
X9231050Y-12015620D01*
X9231050Y-11985620D02*
X9201050Y-12015620D01*
X9210595Y-6718360D02*
X9240595Y-6748360D01*
X9240595Y-6718360D02*
X9210595Y-6748360D01*
X9271525Y-6657430D02*
X9301525Y-6687430D01*
X9301525Y-6657430D02*
X9271525Y-6687430D01*
X9281500Y-4003620D02*
X9311500Y-4033620D01*
X9311500Y-4003620D02*
X9281500Y-4033620D01*
X9306500Y-5734620D02*
X9336500Y-5764620D01*
X9336500Y-5734620D02*
X9306500Y-5764620D01*
X9319500Y-13739570D02*
X9349500Y-13769570D01*
X9349500Y-13739570D02*
X9319500Y-13769570D01*
X9320500Y-2999620D02*
X9350500Y-3029620D01*
X9350500Y-2999620D02*
X9320500Y-3029620D01*
X9333500Y-12260822D02*
X9363500Y-12290822D01*
X9363500Y-12260822D02*
X9333500Y-12290822D01*
X9340000Y-7143620D02*
X9370000Y-7173620D01*
X9370000Y-7143620D02*
X9340000Y-7173620D01*
X9360500Y-6739620D02*
X9390500Y-6769620D01*
X9390500Y-6739620D02*
X9360500Y-6769620D01*
X9360950Y-11878620D02*
X9390950Y-11908620D01*
X9390950Y-11878620D02*
X9360950Y-11908620D01*
X9375665Y-4919172D02*
X9405665Y-4949172D01*
X9405665Y-4919172D02*
X9375665Y-4949172D01*
X9389500Y-14007620D02*
X9419500Y-14037620D01*
X9419500Y-14007620D02*
X9389500Y-14037620D01*
X9396500Y-12195822D02*
X9426500Y-12225822D01*
X9426500Y-12195822D02*
X9396500Y-12225822D01*
X9407152Y-12538272D02*
X9437152Y-12568272D01*
X9437152Y-12538272D02*
X9407152Y-12568272D01*
X9413760Y-8602370D02*
X9443760Y-8632370D01*
X9443760Y-8602370D02*
X9413760Y-8632370D01*
X9416760Y-8369370D02*
X9446760Y-8399370D01*
X9446760Y-8369370D02*
X9416760Y-8399370D01*
X9430101Y-3440202D02*
X9460101Y-3470202D01*
X9460101Y-3440202D02*
X9430101Y-3470202D01*
X9435500Y-11221120D02*
X9465500Y-11251120D01*
X9465500Y-11221120D02*
X9435500Y-11251120D01*
X9453400Y-11985620D02*
X9483400Y-12015620D01*
X9483400Y-11985620D02*
X9453400Y-12015620D01*
X9463500Y-4775620D02*
X9493500Y-4805620D01*
X9493500Y-4775620D02*
X9463500Y-4805620D01*
X9485500Y-13739570D02*
X9515500Y-13769570D01*
X9515500Y-13739570D02*
X9485500Y-13769570D01*
X9536500Y-8907120D02*
X9566500Y-8937120D01*
X9566500Y-8907120D02*
X9536500Y-8937120D01*
X9558500Y-2096620D02*
X9588500Y-2126620D01*
X9588500Y-2096620D02*
X9558500Y-2126620D01*
X9583745Y-2601062D02*
X9613745Y-2631062D01*
X9613745Y-2601062D02*
X9583745Y-2631062D01*
X9589000Y-6646182D02*
X9619000Y-6676182D01*
X9619000Y-6646182D02*
X9589000Y-6676182D01*
X9599091Y-2306211D02*
X9629091Y-2336211D01*
X9629091Y-2306211D02*
X9599091Y-2336211D01*
X9623500Y-6866620D02*
X9653500Y-6896620D01*
X9653500Y-6866620D02*
X9623500Y-6896620D01*
X9634760Y-8486370D02*
X9664760Y-8516370D01*
X9664760Y-8486370D02*
X9634760Y-8516370D01*
X9667500Y-6319610D02*
X9697500Y-6349610D01*
X9697500Y-6319610D02*
X9667500Y-6349610D01*
X9676601Y-4162202D02*
X9706601Y-4192202D01*
X9706601Y-4162202D02*
X9676601Y-4192202D01*
X9693165Y-6517730D02*
X9723165Y-6547730D01*
X9723165Y-6517730D02*
X9693165Y-6547730D01*
X9701500Y-3166620D02*
X9731500Y-3196620D01*
X9731500Y-3166620D02*
X9701500Y-3196620D01*
X9708443Y-2128563D02*
X9738443Y-2158563D01*
X9738443Y-2128563D02*
X9708443Y-2158563D01*
X9710500Y-2207752D02*
X9740500Y-2237752D01*
X9740500Y-2207752D02*
X9710500Y-2237752D01*
X9733000Y-8062620D02*
X9763000Y-8092620D01*
X9763000Y-8062620D02*
X9733000Y-8092620D01*
X9734760Y-8451370D02*
X9764760Y-8481370D01*
X9764760Y-8451370D02*
X9734760Y-8481370D01*
X9734760Y-8517370D02*
X9764760Y-8547370D01*
X9764760Y-8517370D02*
X9734760Y-8547370D01*
X9736471Y-3573649D02*
X9766471Y-3603649D01*
X9766471Y-3573649D02*
X9736471Y-3603649D01*
X9789266Y-13667354D02*
X9819266Y-13697354D01*
X9819266Y-13667354D02*
X9789266Y-13697354D01*
X9797500Y-14799620D02*
X9827500Y-14829620D01*
X9827500Y-14799620D02*
X9797500Y-14829620D01*
X9920101Y-2556702D02*
X9950101Y-2586702D01*
X9950101Y-2556702D02*
X9920101Y-2586702D01*
X9928000Y-10074620D02*
X9958000Y-10104620D01*
X9958000Y-10074620D02*
X9928000Y-10104620D01*
X9950101Y-2399702D02*
X9980101Y-2429702D01*
X9980101Y-2399702D02*
X9950101Y-2429702D01*
X9966500Y-13659170D02*
X9996500Y-13689170D01*
X9996500Y-13659170D02*
X9966500Y-13689170D01*
X9983500Y-1697202D02*
X10013500Y-1727202D01*
X10013500Y-1697202D02*
X9983500Y-1727202D01*
X9984500Y-1951202D02*
X10014500Y-1981202D01*
X10014500Y-1951202D02*
X9984500Y-1981202D01*
X9985500Y-1824202D02*
X10015500Y-1854202D01*
X10015500Y-1824202D02*
X9985500Y-1854202D01*
X10003045Y-6647270D02*
X10033045Y-6677270D01*
X10033045Y-6647270D02*
X10003045Y-6677270D01*
X10029418Y-3280702D02*
X10059418Y-3310702D01*
X10059418Y-3280702D02*
X10029418Y-3310702D01*
X10040645Y-2184658D02*
X10070645Y-2214658D01*
X10070645Y-2184658D02*
X10040645Y-2214658D01*
X10077000Y-7603620D02*
X10107000Y-7633620D01*
X10107000Y-7603620D02*
X10077000Y-7633620D01*
X10077000Y-7671620D02*
X10107000Y-7701620D01*
X10107000Y-7671620D02*
X10077000Y-7701620D01*
X10077000Y-9300620D02*
X10107000Y-9330620D01*
X10107000Y-9300620D02*
X10077000Y-9330620D01*
X10077000Y-9374620D02*
X10107000Y-9404620D01*
X10107000Y-9374620D02*
X10077000Y-9404620D01*
X10222101Y-1624702D02*
X10252101Y-1654702D01*
X10252101Y-1624702D02*
X10222101Y-1654702D01*
X10222101Y-1694702D02*
X10252101Y-1724702D01*
X10252101Y-1694702D02*
X10222101Y-1724702D01*
X10222101Y-1764702D02*
X10252101Y-1794702D01*
X10252101Y-1764702D02*
X10222101Y-1794702D01*
X10222101Y-1834702D02*
X10252101Y-1864702D01*
X10252101Y-1834702D02*
X10222101Y-1864702D01*
X10222101Y-1904702D02*
X10252101Y-1934702D01*
X10252101Y-1904702D02*
X10222101Y-1934702D01*
X10259910Y-2322677D02*
X10289910Y-2352677D01*
X10289910Y-2322677D02*
X10259910Y-2352677D01*
X10263101Y-3361202D02*
X10293101Y-3391202D01*
X10293101Y-3361202D02*
X10263101Y-3391202D01*
X10269101Y-2399202D02*
X10299101Y-2429202D01*
X10299101Y-2399202D02*
X10269101Y-2429202D01*
X10341500Y-2119620D02*
X10371500Y-2149620D01*
X10371500Y-2119620D02*
X10341500Y-2149620D01*
X10350601Y-1624702D02*
X10380601Y-1654702D01*
X10380601Y-1624702D02*
X10350601Y-1654702D01*
X10350601Y-1697702D02*
X10380601Y-1727702D01*
X10380601Y-1697702D02*
X10350601Y-1727702D01*
X10350601Y-1762702D02*
X10380601Y-1792702D01*
X10380601Y-1762702D02*
X10350601Y-1792702D01*
X10350601Y-1833702D02*
X10380601Y-1863702D01*
X10380601Y-1833702D02*
X10350601Y-1863702D01*
X10350601Y-1904702D02*
X10380601Y-1934702D01*
X10380601Y-1904702D02*
X10350601Y-1934702D01*
X10356008Y-2525112D02*
X10386008Y-2555112D01*
X10386008Y-2525112D02*
X10356008Y-2555112D01*
X10415715Y-2985835D02*
X10445715Y-3015835D01*
X10445715Y-2985835D02*
X10415715Y-3015835D01*
X10421500Y-2082620D02*
X10451500Y-2112620D01*
X10451500Y-2082620D02*
X10421500Y-2112620D01*
X10440639Y-2528497D02*
X10470639Y-2558497D01*
X10470639Y-2528497D02*
X10440639Y-2558497D01*
X10444760Y-9546380D02*
X10474760Y-9576380D01*
X10474760Y-9546380D02*
X10444760Y-9576380D01*
X10444760Y-9617380D02*
X10474760Y-9647380D01*
X10474760Y-9617380D02*
X10444760Y-9647380D01*
X10468101Y-2351702D02*
X10498101Y-2381702D01*
X10498101Y-2351702D02*
X10468101Y-2381702D01*
X10469101Y-2240702D02*
X10499101Y-2270702D01*
X10499101Y-2240702D02*
X10469101Y-2270702D01*
X10474500Y-2747620D02*
X10504500Y-2777620D01*
X10504500Y-2747620D02*
X10474500Y-2777620D01*
X10479101Y-1624702D02*
X10509101Y-1654702D01*
X10509101Y-1624702D02*
X10479101Y-1654702D01*
X10479101Y-1697702D02*
X10509101Y-1727702D01*
X10509101Y-1697702D02*
X10479101Y-1727702D01*
X10479101Y-1765702D02*
X10509101Y-1795702D01*
X10509101Y-1765702D02*
X10479101Y-1795702D01*
X10479101Y-1833702D02*
X10509101Y-1863702D01*
X10509101Y-1833702D02*
X10479101Y-1863702D01*
X10479101Y-1904702D02*
X10509101Y-1934702D01*
X10509101Y-1904702D02*
X10479101Y-1934702D01*
X10523089Y-2297702D02*
X10553089Y-2327702D01*
X10553089Y-2297702D02*
X10523089Y-2327702D01*
X10559305Y-6798772D02*
X10589305Y-6828772D01*
X10589305Y-6798772D02*
X10559305Y-6828772D01*
X10575101Y-2352702D02*
X10605101Y-2382702D01*
X10605101Y-2352702D02*
X10575101Y-2382702D01*
X10576151Y-2572702D02*
X10606151Y-2602702D01*
X10606151Y-2572702D02*
X10576151Y-2602702D01*
X10577101Y-2240702D02*
X10607101Y-2270702D01*
X10607101Y-2240702D02*
X10577101Y-2270702D01*
X10585500Y-2077620D02*
X10615500Y-2107620D01*
X10615500Y-2077620D02*
X10585500Y-2107620D01*
X10704305Y-8434925D02*
X10734305Y-8464925D01*
X10734305Y-8434925D02*
X10704305Y-8464925D01*
X10704305Y-8517925D02*
X10734305Y-8547925D01*
X10734305Y-8517925D02*
X10704305Y-8547925D01*
X10704305Y-8605925D02*
X10734305Y-8635925D01*
X10734305Y-8605925D02*
X10704305Y-8635925D01*
X10704305Y-8694925D02*
X10734305Y-8724925D01*
X10734305Y-8694925D02*
X10704305Y-8724925D01*
X10710500Y-2719620D02*
X10740500Y-2749620D01*
X10740500Y-2719620D02*
X10710500Y-2749620D01*
X10718500Y-1413752D02*
X10748500Y-1443752D01*
X10748500Y-1413752D02*
X10718500Y-1443752D01*
X10728500Y-3422620D02*
X10758500Y-3452620D01*
X10758500Y-3422620D02*
X10728500Y-3452620D01*
X10740101Y-1528702D02*
X10770101Y-1558702D01*
X10770101Y-1528702D02*
X10740101Y-1558702D01*
X10747500Y-2587620D02*
X10777500Y-2617620D01*
X10777500Y-2587620D02*
X10747500Y-2617620D01*
X10755500Y-1879620D02*
X10785500Y-1909620D01*
X10785500Y-1879620D02*
X10755500Y-1909620D01*
X10793406Y-2434831D02*
X10823406Y-2464831D01*
X10823406Y-2434831D02*
X10793406Y-2464831D01*
X10808724Y-2366579D02*
X10838724Y-2396579D01*
X10838724Y-2366579D02*
X10808724Y-2396579D01*
X10923674Y-2293257D02*
X10953674Y-2323257D01*
X10953674Y-2293257D02*
X10923674Y-2323257D01*
X10953500Y-2130620D02*
X10983500Y-2160620D01*
X10983500Y-2130620D02*
X10953500Y-2160620D01*
X10990101Y-1642202D02*
X11020101Y-1672202D01*
X11020101Y-1642202D02*
X10990101Y-1672202D01*
X11027101Y-1883702D02*
X11057101Y-1913702D01*
X11057101Y-1883702D02*
X11027101Y-1913702D01*
D13*
X354416Y-1089620D02*
G75*
G03*
X354416Y-1089620I-38100J0D01*
G01*
X354416Y-1589620D02*
G75*
G03*
X354416Y-1589620I-38100J0D01*
G01*
X854416Y-1089620D02*
G75*
G03*
X854416Y-1089620I-38100J0D01*
G01*
X854416Y-1589620D02*
G75*
G03*
X854416Y-1589620I-38100J0D01*
G01*
X4145600Y-14272620D02*
G75*
G03*
X4145600Y-14272620I-38100J0D01*
G01*
X4247600Y-14450620D02*
G75*
G03*
X4247600Y-14450620I-38100J0D01*
G01*
X4349600Y-14272620D02*
G75*
G03*
X4349600Y-14272620I-38100J0D01*
G01*
X4451600Y-14450620D02*
G75*
G03*
X4451600Y-14450620I-38100J0D01*
G01*
X4553600Y-14272620D02*
G75*
G03*
X4553600Y-14272620I-38100J0D01*
G01*
X4655600Y-14450620D02*
G75*
G03*
X4655600Y-14450620I-38100J0D01*
G01*
X4757600Y-14272620D02*
G75*
G03*
X4757600Y-14272620I-38100J0D01*
G01*
X4859600Y-14450620D02*
G75*
G03*
X4859600Y-14450620I-38100J0D01*
G01*
X5982600Y-14213620D02*
G75*
G03*
X5982600Y-14213620I-38100J0D01*
G01*
X6084600Y-14391620D02*
G75*
G03*
X6084600Y-14391620I-38100J0D01*
G01*
X6186600Y-14213620D02*
G75*
G03*
X6186600Y-14213620I-38100J0D01*
G01*
X6288600Y-14391620D02*
G75*
G03*
X6288600Y-14391620I-38100J0D01*
G01*
X6390600Y-14213620D02*
G75*
G03*
X6390600Y-14213620I-38100J0D01*
G01*
X6492600Y-14391620D02*
G75*
G03*
X6492600Y-14391620I-38100J0D01*
G01*
X6594600Y-14213620D02*
G75*
G03*
X6594600Y-14213620I-38100J0D01*
G01*
X6696600Y-14391620D02*
G75*
G03*
X6696600Y-14391620I-38100J0D01*
G01*
X7558600Y-14213620D02*
G75*
G03*
X7558600Y-14213620I-38100J0D01*
G01*
X7660600Y-14391620D02*
G75*
G03*
X7660600Y-14391620I-38100J0D01*
G01*
X7762600Y-14213620D02*
G75*
G03*
X7762600Y-14213620I-38100J0D01*
G01*
X7864600Y-14391620D02*
G75*
G03*
X7864600Y-14391620I-38100J0D01*
G01*
X7966600Y-14213620D02*
G75*
G03*
X7966600Y-14213620I-38100J0D01*
G01*
X8068600Y-14391620D02*
G75*
G03*
X8068600Y-14391620I-38100J0D01*
G01*
X8170600Y-14213620D02*
G75*
G03*
X8170600Y-14213620I-38100J0D01*
G01*
X8272600Y-14391620D02*
G75*
G03*
X8272600Y-14391620I-38100J0D01*
G01*
X9395600Y-14272620D02*
G75*
G03*
X9395600Y-14272620I-38100J0D01*
G01*
X9497600Y-14450620D02*
G75*
G03*
X9497600Y-14450620I-38100J0D01*
G01*
X9599600Y-14272620D02*
G75*
G03*
X9599600Y-14272620I-38100J0D01*
G01*
X9701600Y-14450620D02*
G75*
G03*
X9701600Y-14450620I-38100J0D01*
G01*
X9803600Y-14272620D02*
G75*
G03*
X9803600Y-14272620I-38100J0D01*
G01*
X9905600Y-14450620D02*
G75*
G03*
X9905600Y-14450620I-38100J0D01*
G01*
X10007600Y-14272620D02*
G75*
G03*
X10007600Y-14272620I-38100J0D01*
G01*
X10109600Y-14450620D02*
G75*
G03*
X10109600Y-14450620I-38100J0D01*
G01*
D14*
X833500Y-12413620D02*
X833500Y-12493620D01*
X793500Y-12453620D02*
X873500Y-12453620D01*
X1583500Y-12703620D02*
X1583500Y-12783620D01*
X1543500Y-12743620D02*
X1623500Y-12743620D01*
D15*
X10649928Y-11860996D02*
X10649928Y-11790949D01*
X10579881Y-11790949D01*
X10579881Y-11860996D01*
X10649928Y-11860996D01*
X10649928Y-12660996D02*
X10649928Y-12590949D01*
X10579881Y-12590949D01*
X10579881Y-12660996D01*
X10649928Y-12660996D01*
D10*
X615500Y-13301620D02*
X665500Y-13251620D01*
X615500Y-13201620D01*
X565500Y-13251620D01*
X615500Y-13301620D01*
X1755500Y-13301620D02*
X1805500Y-13251620D01*
X1755500Y-13201620D01*
X1705500Y-13251620D01*
X1755500Y-13301620D01*
X3405500Y-12584113D02*
X3455500Y-12534113D01*
X3405500Y-12484113D01*
X3355500Y-12534113D01*
X3405500Y-12584113D01*
X3405500Y-12838113D02*
X3455500Y-12788113D01*
X3405500Y-12738113D01*
X3355500Y-12788113D01*
X3405500Y-12838113D01*
X3405500Y-13092113D02*
X3455500Y-13042113D01*
X3405500Y-12992113D01*
X3355500Y-13042113D01*
X3405500Y-13092113D01*
X3405500Y-13346113D02*
X3455500Y-13296113D01*
X3405500Y-13246113D01*
X3355500Y-13296113D01*
X3405500Y-13346113D01*
X3659500Y-12584113D02*
X3709500Y-12534113D01*
X3659500Y-12484113D01*
X3609500Y-12534113D01*
X3659500Y-12584113D01*
X3659500Y-12838113D02*
X3709500Y-12788113D01*
X3659500Y-12738113D01*
X3609500Y-12788113D01*
X3659500Y-12838113D01*
X3659500Y-13092113D02*
X3709500Y-13042113D01*
X3659500Y-12992113D01*
X3609500Y-13042113D01*
X3659500Y-13092113D01*
X3659500Y-13346113D02*
X3709500Y-13296113D01*
X3659500Y-13246113D01*
X3609500Y-13296113D01*
X3659500Y-13346113D01*
X9784689Y-10299120D02*
X9834689Y-10249120D01*
X9784689Y-10199120D01*
X9734689Y-10249120D01*
X9784689Y-10299120D01*
X9784689Y-10553120D02*
X9834689Y-10503120D01*
X9784689Y-10453120D01*
X9734689Y-10503120D01*
X9784689Y-10553120D01*
X9784689Y-10807120D02*
X9834689Y-10757120D01*
X9784689Y-10707120D01*
X9734689Y-10757120D01*
X9784689Y-10807120D01*
X9784689Y-11061120D02*
X9834689Y-11011120D01*
X9784689Y-10961120D01*
X9734689Y-11011120D01*
X9784689Y-11061120D01*
D16*
X642239Y-11633120D02*
X752239Y-11743120D01*
X752239Y-11633120D02*
X642239Y-11743120D01*
X752239Y-11688120D02*
G75*
G03*
X752239Y-11688120I-55000J0D01*
G01*
X1317239Y-11633120D02*
X1427239Y-11743120D01*
X1427239Y-11633120D02*
X1317239Y-11743120D01*
X1427239Y-11688120D02*
G75*
G03*
X1427239Y-11688120I-55000J0D01*
G01*
D17*
X64000Y-2426620D02*
X224000Y-2586620D01*
X224000Y-2426620D02*
X64000Y-2586620D01*
X144000Y-2426620D02*
X144000Y-2586620D01*
X64000Y-2506620D02*
X224000Y-2506620D01*
X64000Y-2931620D02*
X224000Y-3091620D01*
X224000Y-2931620D02*
X64000Y-3091620D01*
X144000Y-2931620D02*
X144000Y-3091620D01*
X64000Y-3011620D02*
X224000Y-3011620D01*
X569000Y-2426620D02*
X729000Y-2586620D01*
X729000Y-2426620D02*
X569000Y-2586620D01*
X649000Y-2426620D02*
X649000Y-2586620D01*
X569000Y-2506620D02*
X729000Y-2506620D01*
X569000Y-2931620D02*
X729000Y-3091620D01*
X729000Y-2931620D02*
X569000Y-3091620D01*
X649000Y-2931620D02*
X649000Y-3091620D01*
X569000Y-3011620D02*
X729000Y-3011620D01*
D18*
X662000Y-14058620D02*
X827000Y-14223620D01*
X827000Y-14058620D02*
X662000Y-14223620D01*
X802837Y-14199457D02*
X802837Y-14082783D01*
X686163Y-14082783D01*
X686163Y-14199457D01*
X802837Y-14199457D01*
X1170000Y-14058620D02*
X1335000Y-14223620D01*
X1335000Y-14058620D02*
X1170000Y-14223620D01*
X1310837Y-14199457D02*
X1310837Y-14082783D01*
X1194163Y-14082783D01*
X1194163Y-14199457D01*
X1310837Y-14199457D01*
X2059500Y-14060620D02*
X2224500Y-14225620D01*
X2224500Y-14060620D02*
X2059500Y-14225620D01*
X2200337Y-14201457D02*
X2200337Y-14084783D01*
X2083663Y-14084783D01*
X2083663Y-14201457D01*
X2200337Y-14201457D01*
X2529500Y-14060620D02*
X2694500Y-14225620D01*
X2694500Y-14060620D02*
X2529500Y-14225620D01*
X2670337Y-14201457D02*
X2670337Y-14084783D01*
X2553663Y-14084783D01*
X2553663Y-14201457D01*
X2670337Y-14201457D01*
X2999500Y-14060620D02*
X3164500Y-14225620D01*
X3164500Y-14060620D02*
X2999500Y-14225620D01*
X3140337Y-14201457D02*
X3140337Y-14084783D01*
X3023663Y-14084783D01*
X3023663Y-14201457D01*
X3140337Y-14201457D01*
D11*
X5389500Y-14165620D02*
X5589500Y-14365620D01*
X5589500Y-14165620D02*
X5389500Y-14365620D01*
X5489500Y-14365620D02*
X5589500Y-14265620D01*
X5489500Y-14165620D01*
X5389500Y-14265620D01*
X5489500Y-14365620D01*
X8589500Y-14165620D02*
X8789500Y-14365620D01*
X8789500Y-14165620D02*
X8589500Y-14365620D01*
X8689500Y-14365620D02*
X8789500Y-14265620D01*
X8689500Y-14165620D01*
X8589500Y-14265620D01*
X8689500Y-14365620D01*
D19*
X4272239Y-3983120D02*
X4272239Y-4193120D01*
X4167239Y-4088120D02*
X4377239Y-4088120D01*
X4377239Y-4088120D02*
G75*
G03*
X4377239Y-4088120I-105000J0D01*
G01*
X4822239Y-3983120D02*
X4822239Y-4193120D01*
X4717239Y-4088120D02*
X4927239Y-4088120D01*
X4927239Y-4088120D02*
G75*
G03*
X4927239Y-4088120I-105000J0D01*
G01*
D20*
X7434374Y-975714D02*
X7434374Y-678726D01*
X7137386Y-678726D01*
X7137386Y-975714D01*
X7434374Y-975714D01*
X7495880Y-827220D02*
G75*
G03*
X7495880Y-827220I-210000J0D01*
G01*
X9865154Y-975714D02*
X9865154Y-678726D01*
X9568166Y-678726D01*
X9568166Y-975714D01*
X9865154Y-975714D01*
X9926660Y-827220D02*
G75*
G03*
X9926660Y-827220I-210000J0D01*
G01*
D11*
X255777Y-15516484D02*
X255777Y-15316484D01*
X255777Y-15316484D02*
X303396Y-15316484D01*
X303396Y-15316484D02*
X331967Y-15326008D01*
X331967Y-15326008D02*
X351015Y-15345055D01*
X351015Y-15345055D02*
X360539Y-15364103D01*
X360539Y-15364103D02*
X370062Y-15402198D01*
X370062Y-15402198D02*
X370062Y-15430769D01*
X370062Y-15430769D02*
X360539Y-15468865D01*
X360539Y-15468865D02*
X351015Y-15487912D01*
X351015Y-15487912D02*
X331967Y-15506960D01*
X331967Y-15506960D02*
X303396Y-15516484D01*
X303396Y-15516484D02*
X255777Y-15516484D01*
X455777Y-15516484D02*
X455777Y-15383150D01*
X455777Y-15421246D02*
X465301Y-15402198D01*
X465301Y-15402198D02*
X474824Y-15392674D01*
X474824Y-15392674D02*
X493872Y-15383150D01*
X493872Y-15383150D02*
X512920Y-15383150D01*
X579586Y-15516484D02*
X579586Y-15383150D01*
X579586Y-15316484D02*
X570063Y-15326008D01*
X570063Y-15326008D02*
X579586Y-15335531D01*
X579586Y-15335531D02*
X589110Y-15326008D01*
X589110Y-15326008D02*
X579586Y-15316484D01*
X579586Y-15316484D02*
X579586Y-15335531D01*
X703396Y-15516484D02*
X684348Y-15506960D01*
X684348Y-15506960D02*
X674824Y-15487912D01*
X674824Y-15487912D02*
X674824Y-15316484D01*
X808158Y-15516484D02*
X789110Y-15506960D01*
X789110Y-15506960D02*
X779586Y-15487912D01*
X779586Y-15487912D02*
X779586Y-15316484D01*
X1036729Y-15516484D02*
X1036729Y-15316484D01*
X1036729Y-15316484D02*
X1103396Y-15459341D01*
X1103396Y-15459341D02*
X1170063Y-15316484D01*
X1170063Y-15316484D02*
X1170063Y-15516484D01*
X1351015Y-15516484D02*
X1351015Y-15411722D01*
X1351015Y-15411722D02*
X1341491Y-15392674D01*
X1341491Y-15392674D02*
X1322444Y-15383150D01*
X1322444Y-15383150D02*
X1284348Y-15383150D01*
X1284348Y-15383150D02*
X1265301Y-15392674D01*
X1351015Y-15506960D02*
X1331967Y-15516484D01*
X1331967Y-15516484D02*
X1284348Y-15516484D01*
X1284348Y-15516484D02*
X1265301Y-15506960D01*
X1265301Y-15506960D02*
X1255777Y-15487912D01*
X1255777Y-15487912D02*
X1255777Y-15468865D01*
X1255777Y-15468865D02*
X1265301Y-15449817D01*
X1265301Y-15449817D02*
X1284348Y-15440293D01*
X1284348Y-15440293D02*
X1331967Y-15440293D01*
X1331967Y-15440293D02*
X1351015Y-15430769D01*
X1446253Y-15383150D02*
X1446253Y-15583150D01*
X1446253Y-15392674D02*
X1465301Y-15383150D01*
X1465301Y-15383150D02*
X1503396Y-15383150D01*
X1503396Y-15383150D02*
X1522443Y-15392674D01*
X1522443Y-15392674D02*
X1531967Y-15402198D01*
X1531967Y-15402198D02*
X1541491Y-15421246D01*
X1541491Y-15421246D02*
X1541491Y-15478388D01*
X1541491Y-15478388D02*
X1531967Y-15497436D01*
X1531967Y-15497436D02*
X1522443Y-15506960D01*
X1522443Y-15506960D02*
X1503396Y-15516484D01*
X1503396Y-15516484D02*
X1465301Y-15516484D01*
X1465301Y-15516484D02*
X1446253Y-15506960D01*
X1627205Y-15497436D02*
X1636729Y-15506960D01*
X1636729Y-15506960D02*
X1627205Y-15516484D01*
X1627205Y-15516484D02*
X1617682Y-15506960D01*
X1617682Y-15506960D02*
X1627205Y-15497436D01*
X1627205Y-15497436D02*
X1627205Y-15516484D01*
X1627205Y-15392674D02*
X1636729Y-15402198D01*
X1636729Y-15402198D02*
X1627205Y-15411722D01*
X1627205Y-15411722D02*
X1617682Y-15402198D01*
X1617682Y-15402198D02*
X1627205Y-15392674D01*
X1627205Y-15392674D02*
X1627205Y-15411722D01*
D12*
X-35000Y-15830000D02*
X-5000Y-15860000D01*
X-5000Y-15830000D02*
X-35000Y-15860000D01*
D11*
X293872Y-15736484D02*
X312920Y-15736484D01*
X312920Y-15736484D02*
X331967Y-15746008D01*
X331967Y-15746008D02*
X341491Y-15755531D01*
X341491Y-15755531D02*
X351015Y-15774579D01*
X351015Y-15774579D02*
X360539Y-15812674D01*
X360539Y-15812674D02*
X360539Y-15860293D01*
X360539Y-15860293D02*
X351015Y-15898388D01*
X351015Y-15898388D02*
X341491Y-15917436D01*
X341491Y-15917436D02*
X331967Y-15926960D01*
X331967Y-15926960D02*
X312920Y-15936484D01*
X312920Y-15936484D02*
X293872Y-15936484D01*
X293872Y-15936484D02*
X274824Y-15926960D01*
X274824Y-15926960D02*
X265301Y-15917436D01*
X265301Y-15917436D02*
X255777Y-15898388D01*
X255777Y-15898388D02*
X246253Y-15860293D01*
X246253Y-15860293D02*
X246253Y-15812674D01*
X246253Y-15812674D02*
X255777Y-15774579D01*
X255777Y-15774579D02*
X265301Y-15755531D01*
X265301Y-15755531D02*
X274824Y-15746008D01*
X274824Y-15746008D02*
X293872Y-15736484D01*
X446253Y-15917436D02*
X455777Y-15926960D01*
X455777Y-15926960D02*
X446253Y-15936484D01*
X446253Y-15936484D02*
X436729Y-15926960D01*
X436729Y-15926960D02*
X446253Y-15917436D01*
X446253Y-15917436D02*
X446253Y-15936484D01*
X522443Y-15736484D02*
X646253Y-15736484D01*
X646253Y-15736484D02*
X579586Y-15812674D01*
X579586Y-15812674D02*
X608158Y-15812674D01*
X608158Y-15812674D02*
X627205Y-15822198D01*
X627205Y-15822198D02*
X636729Y-15831722D01*
X636729Y-15831722D02*
X646253Y-15850769D01*
X646253Y-15850769D02*
X646253Y-15898388D01*
X646253Y-15898388D02*
X636729Y-15917436D01*
X636729Y-15917436D02*
X627205Y-15926960D01*
X627205Y-15926960D02*
X608158Y-15936484D01*
X608158Y-15936484D02*
X551015Y-15936484D01*
X551015Y-15936484D02*
X531967Y-15926960D01*
X531967Y-15926960D02*
X522443Y-15917436D01*
X770062Y-15736484D02*
X789110Y-15736484D01*
X789110Y-15736484D02*
X808158Y-15746008D01*
X808158Y-15746008D02*
X817682Y-15755531D01*
X817682Y-15755531D02*
X827205Y-15774579D01*
X827205Y-15774579D02*
X836729Y-15812674D01*
X836729Y-15812674D02*
X836729Y-15860293D01*
X836729Y-15860293D02*
X827205Y-15898388D01*
X827205Y-15898388D02*
X817682Y-15917436D01*
X817682Y-15917436D02*
X808158Y-15926960D01*
X808158Y-15926960D02*
X789110Y-15936484D01*
X789110Y-15936484D02*
X770062Y-15936484D01*
X770062Y-15936484D02*
X751015Y-15926960D01*
X751015Y-15926960D02*
X741491Y-15917436D01*
X741491Y-15917436D02*
X731967Y-15898388D01*
X731967Y-15898388D02*
X722443Y-15860293D01*
X722443Y-15860293D02*
X722443Y-15812674D01*
X722443Y-15812674D02*
X731967Y-15774579D01*
X731967Y-15774579D02*
X741491Y-15755531D01*
X741491Y-15755531D02*
X751015Y-15746008D01*
X751015Y-15746008D02*
X770062Y-15736484D01*
X960539Y-15736484D02*
X979586Y-15736484D01*
X979586Y-15736484D02*
X998634Y-15746008D01*
X998634Y-15746008D02*
X1008158Y-15755531D01*
X1008158Y-15755531D02*
X1017682Y-15774579D01*
X1017682Y-15774579D02*
X1027205Y-15812674D01*
X1027205Y-15812674D02*
X1027205Y-15860293D01*
X1027205Y-15860293D02*
X1017682Y-15898388D01*
X1017682Y-15898388D02*
X1008158Y-15917436D01*
X1008158Y-15917436D02*
X998634Y-15926960D01*
X998634Y-15926960D02*
X979586Y-15936484D01*
X979586Y-15936484D02*
X960539Y-15936484D01*
X960539Y-15936484D02*
X941491Y-15926960D01*
X941491Y-15926960D02*
X931967Y-15917436D01*
X931967Y-15917436D02*
X922443Y-15898388D01*
X922443Y-15898388D02*
X912920Y-15860293D01*
X912920Y-15860293D02*
X912920Y-15812674D01*
X912920Y-15812674D02*
X922443Y-15774579D01*
X922443Y-15774579D02*
X931967Y-15755531D01*
X931967Y-15755531D02*
X941491Y-15746008D01*
X941491Y-15746008D02*
X960539Y-15736484D01*
X1112920Y-15936484D02*
X1112920Y-15803150D01*
X1112920Y-15822198D02*
X1122444Y-15812674D01*
X1122444Y-15812674D02*
X1141491Y-15803150D01*
X1141491Y-15803150D02*
X1170063Y-15803150D01*
X1170063Y-15803150D02*
X1189110Y-15812674D01*
X1189110Y-15812674D02*
X1198634Y-15831722D01*
X1198634Y-15831722D02*
X1198634Y-15936484D01*
X1198634Y-15831722D02*
X1208158Y-15812674D01*
X1208158Y-15812674D02*
X1227205Y-15803150D01*
X1227205Y-15803150D02*
X1255777Y-15803150D01*
X1255777Y-15803150D02*
X1274825Y-15812674D01*
X1274825Y-15812674D02*
X1284348Y-15831722D01*
X1284348Y-15831722D02*
X1284348Y-15936484D01*
X1379586Y-15936484D02*
X1379586Y-15803150D01*
X1379586Y-15822198D02*
X1389110Y-15812674D01*
X1389110Y-15812674D02*
X1408158Y-15803150D01*
X1408158Y-15803150D02*
X1436729Y-15803150D01*
X1436729Y-15803150D02*
X1455777Y-15812674D01*
X1455777Y-15812674D02*
X1465301Y-15831722D01*
X1465301Y-15831722D02*
X1465301Y-15936484D01*
X1465301Y-15831722D02*
X1474824Y-15812674D01*
X1474824Y-15812674D02*
X1493872Y-15803150D01*
X1493872Y-15803150D02*
X1522443Y-15803150D01*
X1522443Y-15803150D02*
X1541491Y-15812674D01*
X1541491Y-15812674D02*
X1551015Y-15831722D01*
X1551015Y-15831722D02*
X1551015Y-15936484D01*
X1941491Y-15726960D02*
X1770063Y-15984103D01*
X2198634Y-15736484D02*
X2217682Y-15736484D01*
X2217682Y-15736484D02*
X2236729Y-15746008D01*
X2236729Y-15746008D02*
X2246253Y-15755531D01*
X2246253Y-15755531D02*
X2255777Y-15774579D01*
X2255777Y-15774579D02*
X2265301Y-15812674D01*
X2265301Y-15812674D02*
X2265301Y-15860293D01*
X2265301Y-15860293D02*
X2255777Y-15898388D01*
X2255777Y-15898388D02*
X2246253Y-15917436D01*
X2246253Y-15917436D02*
X2236729Y-15926960D01*
X2236729Y-15926960D02*
X2217682Y-15936484D01*
X2217682Y-15936484D02*
X2198634Y-15936484D01*
X2198634Y-15936484D02*
X2179587Y-15926960D01*
X2179587Y-15926960D02*
X2170063Y-15917436D01*
X2170063Y-15917436D02*
X2160539Y-15898388D01*
X2160539Y-15898388D02*
X2151015Y-15860293D01*
X2151015Y-15860293D02*
X2151015Y-15812674D01*
X2151015Y-15812674D02*
X2160539Y-15774579D01*
X2160539Y-15774579D02*
X2170063Y-15755531D01*
X2170063Y-15755531D02*
X2179587Y-15746008D01*
X2179587Y-15746008D02*
X2198634Y-15736484D01*
X2351015Y-15917436D02*
X2360539Y-15926960D01*
X2360539Y-15926960D02*
X2351015Y-15936484D01*
X2351015Y-15936484D02*
X2341491Y-15926960D01*
X2341491Y-15926960D02*
X2351015Y-15917436D01*
X2351015Y-15917436D02*
X2351015Y-15936484D01*
X2484348Y-15736484D02*
X2503396Y-15736484D01*
X2503396Y-15736484D02*
X2522444Y-15746008D01*
X2522444Y-15746008D02*
X2531968Y-15755531D01*
X2531968Y-15755531D02*
X2541491Y-15774579D01*
X2541491Y-15774579D02*
X2551015Y-15812674D01*
X2551015Y-15812674D02*
X2551015Y-15860293D01*
X2551015Y-15860293D02*
X2541491Y-15898388D01*
X2541491Y-15898388D02*
X2531968Y-15917436D01*
X2531968Y-15917436D02*
X2522444Y-15926960D01*
X2522444Y-15926960D02*
X2503396Y-15936484D01*
X2503396Y-15936484D02*
X2484348Y-15936484D01*
X2484348Y-15936484D02*
X2465301Y-15926960D01*
X2465301Y-15926960D02*
X2455777Y-15917436D01*
X2455777Y-15917436D02*
X2446253Y-15898388D01*
X2446253Y-15898388D02*
X2436729Y-15860293D01*
X2436729Y-15860293D02*
X2436729Y-15812674D01*
X2436729Y-15812674D02*
X2446253Y-15774579D01*
X2446253Y-15774579D02*
X2455777Y-15755531D01*
X2455777Y-15755531D02*
X2465301Y-15746008D01*
X2465301Y-15746008D02*
X2484348Y-15736484D01*
X2741491Y-15936484D02*
X2627206Y-15936484D01*
X2684348Y-15936484D02*
X2684348Y-15736484D01*
X2684348Y-15736484D02*
X2665301Y-15765055D01*
X2665301Y-15765055D02*
X2646253Y-15784103D01*
X2646253Y-15784103D02*
X2627206Y-15793627D01*
X2931967Y-15936484D02*
X2817682Y-15936484D01*
X2874825Y-15936484D02*
X2874825Y-15736484D01*
X2874825Y-15736484D02*
X2855777Y-15765055D01*
X2855777Y-15765055D02*
X2836729Y-15784103D01*
X2836729Y-15784103D02*
X2817682Y-15793627D01*
X3046253Y-15822198D02*
X3027206Y-15812674D01*
X3027206Y-15812674D02*
X3017682Y-15803150D01*
X3017682Y-15803150D02*
X3008158Y-15784103D01*
X3008158Y-15784103D02*
X3008158Y-15774579D01*
X3008158Y-15774579D02*
X3017682Y-15755531D01*
X3017682Y-15755531D02*
X3027206Y-15746008D01*
X3027206Y-15746008D02*
X3046253Y-15736484D01*
X3046253Y-15736484D02*
X3084348Y-15736484D01*
X3084348Y-15736484D02*
X3103396Y-15746008D01*
X3103396Y-15746008D02*
X3112920Y-15755531D01*
X3112920Y-15755531D02*
X3122444Y-15774579D01*
X3122444Y-15774579D02*
X3122444Y-15784103D01*
X3122444Y-15784103D02*
X3112920Y-15803150D01*
X3112920Y-15803150D02*
X3103396Y-15812674D01*
X3103396Y-15812674D02*
X3084348Y-15822198D01*
X3084348Y-15822198D02*
X3046253Y-15822198D01*
X3046253Y-15822198D02*
X3027206Y-15831722D01*
X3027206Y-15831722D02*
X3017682Y-15841246D01*
X3017682Y-15841246D02*
X3008158Y-15860293D01*
X3008158Y-15860293D02*
X3008158Y-15898388D01*
X3008158Y-15898388D02*
X3017682Y-15917436D01*
X3017682Y-15917436D02*
X3027206Y-15926960D01*
X3027206Y-15926960D02*
X3046253Y-15936484D01*
X3046253Y-15936484D02*
X3084348Y-15936484D01*
X3084348Y-15936484D02*
X3103396Y-15926960D01*
X3103396Y-15926960D02*
X3112920Y-15917436D01*
X3112920Y-15917436D02*
X3122444Y-15898388D01*
X3122444Y-15898388D02*
X3122444Y-15860293D01*
X3122444Y-15860293D02*
X3112920Y-15841246D01*
X3112920Y-15841246D02*
X3103396Y-15831722D01*
X3103396Y-15831722D02*
X3084348Y-15822198D01*
X3198634Y-15736484D02*
X3198634Y-15774579D01*
X3274825Y-15736484D02*
X3274825Y-15774579D01*
X3570063Y-16012674D02*
X3560539Y-16003150D01*
X3560539Y-16003150D02*
X3541491Y-15974579D01*
X3541491Y-15974579D02*
X3531968Y-15955531D01*
X3531968Y-15955531D02*
X3522444Y-15926960D01*
X3522444Y-15926960D02*
X3512920Y-15879341D01*
X3512920Y-15879341D02*
X3512920Y-15841246D01*
X3512920Y-15841246D02*
X3522444Y-15793627D01*
X3522444Y-15793627D02*
X3531968Y-15765055D01*
X3531968Y-15765055D02*
X3541491Y-15746008D01*
X3541491Y-15746008D02*
X3560539Y-15717436D01*
X3560539Y-15717436D02*
X3570063Y-15707912D01*
X3627206Y-15736484D02*
X3751015Y-15736484D01*
X3751015Y-15736484D02*
X3684348Y-15812674D01*
X3684348Y-15812674D02*
X3712920Y-15812674D01*
X3712920Y-15812674D02*
X3731968Y-15822198D01*
X3731968Y-15822198D02*
X3741491Y-15831722D01*
X3741491Y-15831722D02*
X3751015Y-15850769D01*
X3751015Y-15850769D02*
X3751015Y-15898388D01*
X3751015Y-15898388D02*
X3741491Y-15917436D01*
X3741491Y-15917436D02*
X3731968Y-15926960D01*
X3731968Y-15926960D02*
X3712920Y-15936484D01*
X3712920Y-15936484D02*
X3655777Y-15936484D01*
X3655777Y-15936484D02*
X3636729Y-15926960D01*
X3636729Y-15926960D02*
X3627206Y-15917436D01*
X3931968Y-15736484D02*
X3836729Y-15736484D01*
X3836729Y-15736484D02*
X3827206Y-15831722D01*
X3827206Y-15831722D02*
X3836729Y-15822198D01*
X3836729Y-15822198D02*
X3855777Y-15812674D01*
X3855777Y-15812674D02*
X3903396Y-15812674D01*
X3903396Y-15812674D02*
X3922444Y-15822198D01*
X3922444Y-15822198D02*
X3931968Y-15831722D01*
X3931968Y-15831722D02*
X3941491Y-15850769D01*
X3941491Y-15850769D02*
X3941491Y-15898388D01*
X3941491Y-15898388D02*
X3931968Y-15917436D01*
X3931968Y-15917436D02*
X3922444Y-15926960D01*
X3922444Y-15926960D02*
X3903396Y-15936484D01*
X3903396Y-15936484D02*
X3855777Y-15936484D01*
X3855777Y-15936484D02*
X3836729Y-15926960D01*
X3836729Y-15926960D02*
X3827206Y-15917436D01*
X4008158Y-15736484D02*
X4141491Y-15736484D01*
X4141491Y-15736484D02*
X4055777Y-15936484D01*
X4370063Y-15936484D02*
X4370063Y-15736484D01*
X4455777Y-15936484D02*
X4455777Y-15831722D01*
X4455777Y-15831722D02*
X4446253Y-15812674D01*
X4446253Y-15812674D02*
X4427206Y-15803150D01*
X4427206Y-15803150D02*
X4398634Y-15803150D01*
X4398634Y-15803150D02*
X4379587Y-15812674D01*
X4379587Y-15812674D02*
X4370063Y-15822198D01*
X4579587Y-15936484D02*
X4560539Y-15926960D01*
X4560539Y-15926960D02*
X4551015Y-15917436D01*
X4551015Y-15917436D02*
X4541492Y-15898388D01*
X4541492Y-15898388D02*
X4541492Y-15841246D01*
X4541492Y-15841246D02*
X4551015Y-15822198D01*
X4551015Y-15822198D02*
X4560539Y-15812674D01*
X4560539Y-15812674D02*
X4579587Y-15803150D01*
X4579587Y-15803150D02*
X4608158Y-15803150D01*
X4608158Y-15803150D02*
X4627206Y-15812674D01*
X4627206Y-15812674D02*
X4636730Y-15822198D01*
X4636730Y-15822198D02*
X4646253Y-15841246D01*
X4646253Y-15841246D02*
X4646253Y-15898388D01*
X4646253Y-15898388D02*
X4636730Y-15917436D01*
X4636730Y-15917436D02*
X4627206Y-15926960D01*
X4627206Y-15926960D02*
X4608158Y-15936484D01*
X4608158Y-15936484D02*
X4579587Y-15936484D01*
X4760539Y-15936484D02*
X4741492Y-15926960D01*
X4741492Y-15926960D02*
X4731968Y-15907912D01*
X4731968Y-15907912D02*
X4731968Y-15736484D01*
X4912920Y-15926960D02*
X4893873Y-15936484D01*
X4893873Y-15936484D02*
X4855777Y-15936484D01*
X4855777Y-15936484D02*
X4836730Y-15926960D01*
X4836730Y-15926960D02*
X4827206Y-15907912D01*
X4827206Y-15907912D02*
X4827206Y-15831722D01*
X4827206Y-15831722D02*
X4836730Y-15812674D01*
X4836730Y-15812674D02*
X4855777Y-15803150D01*
X4855777Y-15803150D02*
X4893873Y-15803150D01*
X4893873Y-15803150D02*
X4912920Y-15812674D01*
X4912920Y-15812674D02*
X4922444Y-15831722D01*
X4922444Y-15831722D02*
X4922444Y-15850769D01*
X4922444Y-15850769D02*
X4827206Y-15869817D01*
X4998634Y-15926960D02*
X5017682Y-15936484D01*
X5017682Y-15936484D02*
X5055777Y-15936484D01*
X5055777Y-15936484D02*
X5074825Y-15926960D01*
X5074825Y-15926960D02*
X5084349Y-15907912D01*
X5084349Y-15907912D02*
X5084349Y-15898388D01*
X5084349Y-15898388D02*
X5074825Y-15879341D01*
X5074825Y-15879341D02*
X5055777Y-15869817D01*
X5055777Y-15869817D02*
X5027206Y-15869817D01*
X5027206Y-15869817D02*
X5008158Y-15860293D01*
X5008158Y-15860293D02*
X4998634Y-15841246D01*
X4998634Y-15841246D02*
X4998634Y-15831722D01*
X4998634Y-15831722D02*
X5008158Y-15812674D01*
X5008158Y-15812674D02*
X5027206Y-15803150D01*
X5027206Y-15803150D02*
X5055777Y-15803150D01*
X5055777Y-15803150D02*
X5074825Y-15812674D01*
X5151015Y-16012674D02*
X5160539Y-16003150D01*
X5160539Y-16003150D02*
X5179587Y-15974579D01*
X5179587Y-15974579D02*
X5189111Y-15955531D01*
X5189111Y-15955531D02*
X5198634Y-15926960D01*
X5198634Y-15926960D02*
X5208158Y-15879341D01*
X5208158Y-15879341D02*
X5208158Y-15841246D01*
X5208158Y-15841246D02*
X5198634Y-15793627D01*
X5198634Y-15793627D02*
X5189111Y-15765055D01*
X5189111Y-15765055D02*
X5179587Y-15746008D01*
X5179587Y-15746008D02*
X5160539Y-15717436D01*
X5160539Y-15717436D02*
X5151015Y-15707912D01*
D13*
X-5000Y-16109000D02*
G75*
G03*
X-5000Y-16109000I-38100J0D01*
G01*
D11*
X293872Y-16000484D02*
X312920Y-16000484D01*
X312920Y-16000484D02*
X331967Y-16010008D01*
X331967Y-16010008D02*
X341491Y-16019531D01*
X341491Y-16019531D02*
X351015Y-16038579D01*
X351015Y-16038579D02*
X360539Y-16076674D01*
X360539Y-16076674D02*
X360539Y-16124293D01*
X360539Y-16124293D02*
X351015Y-16162388D01*
X351015Y-16162388D02*
X341491Y-16181436D01*
X341491Y-16181436D02*
X331967Y-16190960D01*
X331967Y-16190960D02*
X312920Y-16200484D01*
X312920Y-16200484D02*
X293872Y-16200484D01*
X293872Y-16200484D02*
X274824Y-16190960D01*
X274824Y-16190960D02*
X265301Y-16181436D01*
X265301Y-16181436D02*
X255777Y-16162388D01*
X255777Y-16162388D02*
X246253Y-16124293D01*
X246253Y-16124293D02*
X246253Y-16076674D01*
X246253Y-16076674D02*
X255777Y-16038579D01*
X255777Y-16038579D02*
X265301Y-16019531D01*
X265301Y-16019531D02*
X274824Y-16010008D01*
X274824Y-16010008D02*
X293872Y-16000484D01*
X446253Y-16181436D02*
X455777Y-16190960D01*
X455777Y-16190960D02*
X446253Y-16200484D01*
X446253Y-16200484D02*
X436729Y-16190960D01*
X436729Y-16190960D02*
X446253Y-16181436D01*
X446253Y-16181436D02*
X446253Y-16200484D01*
X522443Y-16000484D02*
X655777Y-16000484D01*
X655777Y-16000484D02*
X570063Y-16200484D01*
X817682Y-16000484D02*
X779586Y-16000484D01*
X779586Y-16000484D02*
X760539Y-16010008D01*
X760539Y-16010008D02*
X751015Y-16019531D01*
X751015Y-16019531D02*
X731967Y-16048103D01*
X731967Y-16048103D02*
X722443Y-16086198D01*
X722443Y-16086198D02*
X722443Y-16162388D01*
X722443Y-16162388D02*
X731967Y-16181436D01*
X731967Y-16181436D02*
X741491Y-16190960D01*
X741491Y-16190960D02*
X760539Y-16200484D01*
X760539Y-16200484D02*
X798634Y-16200484D01*
X798634Y-16200484D02*
X817682Y-16190960D01*
X817682Y-16190960D02*
X827205Y-16181436D01*
X827205Y-16181436D02*
X836729Y-16162388D01*
X836729Y-16162388D02*
X836729Y-16114769D01*
X836729Y-16114769D02*
X827205Y-16095722D01*
X827205Y-16095722D02*
X817682Y-16086198D01*
X817682Y-16086198D02*
X798634Y-16076674D01*
X798634Y-16076674D02*
X760539Y-16076674D01*
X760539Y-16076674D02*
X741491Y-16086198D01*
X741491Y-16086198D02*
X731967Y-16095722D01*
X731967Y-16095722D02*
X722443Y-16114769D01*
X912920Y-16019531D02*
X922443Y-16010008D01*
X922443Y-16010008D02*
X941491Y-16000484D01*
X941491Y-16000484D02*
X989110Y-16000484D01*
X989110Y-16000484D02*
X1008158Y-16010008D01*
X1008158Y-16010008D02*
X1017682Y-16019531D01*
X1017682Y-16019531D02*
X1027205Y-16038579D01*
X1027205Y-16038579D02*
X1027205Y-16057627D01*
X1027205Y-16057627D02*
X1017682Y-16086198D01*
X1017682Y-16086198D02*
X903396Y-16200484D01*
X903396Y-16200484D02*
X1027205Y-16200484D01*
X1112920Y-16200484D02*
X1112920Y-16067150D01*
X1112920Y-16086198D02*
X1122444Y-16076674D01*
X1122444Y-16076674D02*
X1141491Y-16067150D01*
X1141491Y-16067150D02*
X1170063Y-16067150D01*
X1170063Y-16067150D02*
X1189110Y-16076674D01*
X1189110Y-16076674D02*
X1198634Y-16095722D01*
X1198634Y-16095722D02*
X1198634Y-16200484D01*
X1198634Y-16095722D02*
X1208158Y-16076674D01*
X1208158Y-16076674D02*
X1227205Y-16067150D01*
X1227205Y-16067150D02*
X1255777Y-16067150D01*
X1255777Y-16067150D02*
X1274825Y-16076674D01*
X1274825Y-16076674D02*
X1284348Y-16095722D01*
X1284348Y-16095722D02*
X1284348Y-16200484D01*
X1379586Y-16200484D02*
X1379586Y-16067150D01*
X1379586Y-16086198D02*
X1389110Y-16076674D01*
X1389110Y-16076674D02*
X1408158Y-16067150D01*
X1408158Y-16067150D02*
X1436729Y-16067150D01*
X1436729Y-16067150D02*
X1455777Y-16076674D01*
X1455777Y-16076674D02*
X1465301Y-16095722D01*
X1465301Y-16095722D02*
X1465301Y-16200484D01*
X1465301Y-16095722D02*
X1474824Y-16076674D01*
X1474824Y-16076674D02*
X1493872Y-16067150D01*
X1493872Y-16067150D02*
X1522443Y-16067150D01*
X1522443Y-16067150D02*
X1541491Y-16076674D01*
X1541491Y-16076674D02*
X1551015Y-16095722D01*
X1551015Y-16095722D02*
X1551015Y-16200484D01*
X1941491Y-15990960D02*
X1770063Y-16248103D01*
X2198634Y-16000484D02*
X2217682Y-16000484D01*
X2217682Y-16000484D02*
X2236729Y-16010008D01*
X2236729Y-16010008D02*
X2246253Y-16019531D01*
X2246253Y-16019531D02*
X2255777Y-16038579D01*
X2255777Y-16038579D02*
X2265301Y-16076674D01*
X2265301Y-16076674D02*
X2265301Y-16124293D01*
X2265301Y-16124293D02*
X2255777Y-16162388D01*
X2255777Y-16162388D02*
X2246253Y-16181436D01*
X2246253Y-16181436D02*
X2236729Y-16190960D01*
X2236729Y-16190960D02*
X2217682Y-16200484D01*
X2217682Y-16200484D02*
X2198634Y-16200484D01*
X2198634Y-16200484D02*
X2179587Y-16190960D01*
X2179587Y-16190960D02*
X2170063Y-16181436D01*
X2170063Y-16181436D02*
X2160539Y-16162388D01*
X2160539Y-16162388D02*
X2151015Y-16124293D01*
X2151015Y-16124293D02*
X2151015Y-16076674D01*
X2151015Y-16076674D02*
X2160539Y-16038579D01*
X2160539Y-16038579D02*
X2170063Y-16019531D01*
X2170063Y-16019531D02*
X2179587Y-16010008D01*
X2179587Y-16010008D02*
X2198634Y-16000484D01*
X2351015Y-16181436D02*
X2360539Y-16190960D01*
X2360539Y-16190960D02*
X2351015Y-16200484D01*
X2351015Y-16200484D02*
X2341491Y-16190960D01*
X2341491Y-16190960D02*
X2351015Y-16181436D01*
X2351015Y-16181436D02*
X2351015Y-16200484D01*
X2484348Y-16000484D02*
X2503396Y-16000484D01*
X2503396Y-16000484D02*
X2522444Y-16010008D01*
X2522444Y-16010008D02*
X2531968Y-16019531D01*
X2531968Y-16019531D02*
X2541491Y-16038579D01*
X2541491Y-16038579D02*
X2551015Y-16076674D01*
X2551015Y-16076674D02*
X2551015Y-16124293D01*
X2551015Y-16124293D02*
X2541491Y-16162388D01*
X2541491Y-16162388D02*
X2531968Y-16181436D01*
X2531968Y-16181436D02*
X2522444Y-16190960D01*
X2522444Y-16190960D02*
X2503396Y-16200484D01*
X2503396Y-16200484D02*
X2484348Y-16200484D01*
X2484348Y-16200484D02*
X2465301Y-16190960D01*
X2465301Y-16190960D02*
X2455777Y-16181436D01*
X2455777Y-16181436D02*
X2446253Y-16162388D01*
X2446253Y-16162388D02*
X2436729Y-16124293D01*
X2436729Y-16124293D02*
X2436729Y-16076674D01*
X2436729Y-16076674D02*
X2446253Y-16038579D01*
X2446253Y-16038579D02*
X2455777Y-16019531D01*
X2455777Y-16019531D02*
X2465301Y-16010008D01*
X2465301Y-16010008D02*
X2484348Y-16000484D01*
X2617682Y-16000484D02*
X2741491Y-16000484D01*
X2741491Y-16000484D02*
X2674825Y-16076674D01*
X2674825Y-16076674D02*
X2703396Y-16076674D01*
X2703396Y-16076674D02*
X2722444Y-16086198D01*
X2722444Y-16086198D02*
X2731968Y-16095722D01*
X2731968Y-16095722D02*
X2741491Y-16114769D01*
X2741491Y-16114769D02*
X2741491Y-16162388D01*
X2741491Y-16162388D02*
X2731968Y-16181436D01*
X2731968Y-16181436D02*
X2722444Y-16190960D01*
X2722444Y-16190960D02*
X2703396Y-16200484D01*
X2703396Y-16200484D02*
X2646253Y-16200484D01*
X2646253Y-16200484D02*
X2627206Y-16190960D01*
X2627206Y-16190960D02*
X2617682Y-16181436D01*
X2865301Y-16000484D02*
X2884348Y-16000484D01*
X2884348Y-16000484D02*
X2903396Y-16010008D01*
X2903396Y-16010008D02*
X2912920Y-16019531D01*
X2912920Y-16019531D02*
X2922444Y-16038579D01*
X2922444Y-16038579D02*
X2931967Y-16076674D01*
X2931967Y-16076674D02*
X2931967Y-16124293D01*
X2931967Y-16124293D02*
X2922444Y-16162388D01*
X2922444Y-16162388D02*
X2912920Y-16181436D01*
X2912920Y-16181436D02*
X2903396Y-16190960D01*
X2903396Y-16190960D02*
X2884348Y-16200484D01*
X2884348Y-16200484D02*
X2865301Y-16200484D01*
X2865301Y-16200484D02*
X2846253Y-16190960D01*
X2846253Y-16190960D02*
X2836729Y-16181436D01*
X2836729Y-16181436D02*
X2827206Y-16162388D01*
X2827206Y-16162388D02*
X2817682Y-16124293D01*
X2817682Y-16124293D02*
X2817682Y-16076674D01*
X2817682Y-16076674D02*
X2827206Y-16038579D01*
X2827206Y-16038579D02*
X2836729Y-16019531D01*
X2836729Y-16019531D02*
X2846253Y-16010008D01*
X2846253Y-16010008D02*
X2865301Y-16000484D01*
X3055777Y-16000484D02*
X3074825Y-16000484D01*
X3074825Y-16000484D02*
X3093872Y-16010008D01*
X3093872Y-16010008D02*
X3103396Y-16019531D01*
X3103396Y-16019531D02*
X3112920Y-16038579D01*
X3112920Y-16038579D02*
X3122444Y-16076674D01*
X3122444Y-16076674D02*
X3122444Y-16124293D01*
X3122444Y-16124293D02*
X3112920Y-16162388D01*
X3112920Y-16162388D02*
X3103396Y-16181436D01*
X3103396Y-16181436D02*
X3093872Y-16190960D01*
X3093872Y-16190960D02*
X3074825Y-16200484D01*
X3074825Y-16200484D02*
X3055777Y-16200484D01*
X3055777Y-16200484D02*
X3036729Y-16190960D01*
X3036729Y-16190960D02*
X3027206Y-16181436D01*
X3027206Y-16181436D02*
X3017682Y-16162388D01*
X3017682Y-16162388D02*
X3008158Y-16124293D01*
X3008158Y-16124293D02*
X3008158Y-16076674D01*
X3008158Y-16076674D02*
X3017682Y-16038579D01*
X3017682Y-16038579D02*
X3027206Y-16019531D01*
X3027206Y-16019531D02*
X3036729Y-16010008D01*
X3036729Y-16010008D02*
X3055777Y-16000484D01*
X3198634Y-16000484D02*
X3198634Y-16038579D01*
X3274825Y-16000484D02*
X3274825Y-16038579D01*
X3570063Y-16276674D02*
X3560539Y-16267150D01*
X3560539Y-16267150D02*
X3541491Y-16238579D01*
X3541491Y-16238579D02*
X3531968Y-16219531D01*
X3531968Y-16219531D02*
X3522444Y-16190960D01*
X3522444Y-16190960D02*
X3512920Y-16143341D01*
X3512920Y-16143341D02*
X3512920Y-16105246D01*
X3512920Y-16105246D02*
X3522444Y-16057627D01*
X3522444Y-16057627D02*
X3531968Y-16029055D01*
X3531968Y-16029055D02*
X3541491Y-16010008D01*
X3541491Y-16010008D02*
X3560539Y-15981436D01*
X3560539Y-15981436D02*
X3570063Y-15971912D01*
X3627206Y-16000484D02*
X3751015Y-16000484D01*
X3751015Y-16000484D02*
X3684348Y-16076674D01*
X3684348Y-16076674D02*
X3712920Y-16076674D01*
X3712920Y-16076674D02*
X3731968Y-16086198D01*
X3731968Y-16086198D02*
X3741491Y-16095722D01*
X3741491Y-16095722D02*
X3751015Y-16114769D01*
X3751015Y-16114769D02*
X3751015Y-16162388D01*
X3751015Y-16162388D02*
X3741491Y-16181436D01*
X3741491Y-16181436D02*
X3731968Y-16190960D01*
X3731968Y-16190960D02*
X3712920Y-16200484D01*
X3712920Y-16200484D02*
X3655777Y-16200484D01*
X3655777Y-16200484D02*
X3636729Y-16190960D01*
X3636729Y-16190960D02*
X3627206Y-16181436D01*
X3922444Y-16000484D02*
X3884348Y-16000484D01*
X3884348Y-16000484D02*
X3865301Y-16010008D01*
X3865301Y-16010008D02*
X3855777Y-16019531D01*
X3855777Y-16019531D02*
X3836729Y-16048103D01*
X3836729Y-16048103D02*
X3827206Y-16086198D01*
X3827206Y-16086198D02*
X3827206Y-16162388D01*
X3827206Y-16162388D02*
X3836729Y-16181436D01*
X3836729Y-16181436D02*
X3846253Y-16190960D01*
X3846253Y-16190960D02*
X3865301Y-16200484D01*
X3865301Y-16200484D02*
X3903396Y-16200484D01*
X3903396Y-16200484D02*
X3922444Y-16190960D01*
X3922444Y-16190960D02*
X3931968Y-16181436D01*
X3931968Y-16181436D02*
X3941491Y-16162388D01*
X3941491Y-16162388D02*
X3941491Y-16114769D01*
X3941491Y-16114769D02*
X3931968Y-16095722D01*
X3931968Y-16095722D02*
X3922444Y-16086198D01*
X3922444Y-16086198D02*
X3903396Y-16076674D01*
X3903396Y-16076674D02*
X3865301Y-16076674D01*
X3865301Y-16076674D02*
X3846253Y-16086198D01*
X3846253Y-16086198D02*
X3836729Y-16095722D01*
X3836729Y-16095722D02*
X3827206Y-16114769D01*
X4179587Y-16200484D02*
X4179587Y-16000484D01*
X4265301Y-16200484D02*
X4265301Y-16095722D01*
X4265301Y-16095722D02*
X4255777Y-16076674D01*
X4255777Y-16076674D02*
X4236730Y-16067150D01*
X4236730Y-16067150D02*
X4208158Y-16067150D01*
X4208158Y-16067150D02*
X4189110Y-16076674D01*
X4189110Y-16076674D02*
X4179587Y-16086198D01*
X4389111Y-16200484D02*
X4370063Y-16190960D01*
X4370063Y-16190960D02*
X4360539Y-16181436D01*
X4360539Y-16181436D02*
X4351015Y-16162388D01*
X4351015Y-16162388D02*
X4351015Y-16105246D01*
X4351015Y-16105246D02*
X4360539Y-16086198D01*
X4360539Y-16086198D02*
X4370063Y-16076674D01*
X4370063Y-16076674D02*
X4389111Y-16067150D01*
X4389111Y-16067150D02*
X4417682Y-16067150D01*
X4417682Y-16067150D02*
X4436730Y-16076674D01*
X4436730Y-16076674D02*
X4446253Y-16086198D01*
X4446253Y-16086198D02*
X4455777Y-16105246D01*
X4455777Y-16105246D02*
X4455777Y-16162388D01*
X4455777Y-16162388D02*
X4446253Y-16181436D01*
X4446253Y-16181436D02*
X4436730Y-16190960D01*
X4436730Y-16190960D02*
X4417682Y-16200484D01*
X4417682Y-16200484D02*
X4389111Y-16200484D01*
X4570063Y-16200484D02*
X4551015Y-16190960D01*
X4551015Y-16190960D02*
X4541492Y-16171912D01*
X4541492Y-16171912D02*
X4541492Y-16000484D01*
X4722444Y-16190960D02*
X4703396Y-16200484D01*
X4703396Y-16200484D02*
X4665301Y-16200484D01*
X4665301Y-16200484D02*
X4646253Y-16190960D01*
X4646253Y-16190960D02*
X4636730Y-16171912D01*
X4636730Y-16171912D02*
X4636730Y-16095722D01*
X4636730Y-16095722D02*
X4646253Y-16076674D01*
X4646253Y-16076674D02*
X4665301Y-16067150D01*
X4665301Y-16067150D02*
X4703396Y-16067150D01*
X4703396Y-16067150D02*
X4722444Y-16076674D01*
X4722444Y-16076674D02*
X4731968Y-16095722D01*
X4731968Y-16095722D02*
X4731968Y-16114769D01*
X4731968Y-16114769D02*
X4636730Y-16133817D01*
X4808158Y-16190960D02*
X4827206Y-16200484D01*
X4827206Y-16200484D02*
X4865301Y-16200484D01*
X4865301Y-16200484D02*
X4884349Y-16190960D01*
X4884349Y-16190960D02*
X4893873Y-16171912D01*
X4893873Y-16171912D02*
X4893873Y-16162388D01*
X4893873Y-16162388D02*
X4884349Y-16143341D01*
X4884349Y-16143341D02*
X4865301Y-16133817D01*
X4865301Y-16133817D02*
X4836730Y-16133817D01*
X4836730Y-16133817D02*
X4817682Y-16124293D01*
X4817682Y-16124293D02*
X4808158Y-16105246D01*
X4808158Y-16105246D02*
X4808158Y-16095722D01*
X4808158Y-16095722D02*
X4817682Y-16076674D01*
X4817682Y-16076674D02*
X4836730Y-16067150D01*
X4836730Y-16067150D02*
X4865301Y-16067150D01*
X4865301Y-16067150D02*
X4884349Y-16076674D01*
X4960539Y-16276674D02*
X4970063Y-16267150D01*
X4970063Y-16267150D02*
X4989111Y-16238579D01*
X4989111Y-16238579D02*
X4998634Y-16219531D01*
X4998634Y-16219531D02*
X5008158Y-16190960D01*
X5008158Y-16190960D02*
X5017682Y-16143341D01*
X5017682Y-16143341D02*
X5017682Y-16105246D01*
X5017682Y-16105246D02*
X5008158Y-16057627D01*
X5008158Y-16057627D02*
X4998634Y-16029055D01*
X4998634Y-16029055D02*
X4989111Y-16010008D01*
X4989111Y-16010008D02*
X4970063Y-15981436D01*
X4970063Y-15981436D02*
X4960539Y-15971912D01*
D14*
X-45000Y-16333000D02*
X-45000Y-16413000D01*
X-85000Y-16373000D02*
X-5000Y-16373000D01*
D11*
X293872Y-16264484D02*
X312920Y-16264484D01*
X312920Y-16264484D02*
X331967Y-16274008D01*
X331967Y-16274008D02*
X341491Y-16283531D01*
X341491Y-16283531D02*
X351015Y-16302579D01*
X351015Y-16302579D02*
X360539Y-16340674D01*
X360539Y-16340674D02*
X360539Y-16388293D01*
X360539Y-16388293D02*
X351015Y-16426388D01*
X351015Y-16426388D02*
X341491Y-16445436D01*
X341491Y-16445436D02*
X331967Y-16454960D01*
X331967Y-16454960D02*
X312920Y-16464484D01*
X312920Y-16464484D02*
X293872Y-16464484D01*
X293872Y-16464484D02*
X274824Y-16454960D01*
X274824Y-16454960D02*
X265301Y-16445436D01*
X265301Y-16445436D02*
X255777Y-16426388D01*
X255777Y-16426388D02*
X246253Y-16388293D01*
X246253Y-16388293D02*
X246253Y-16340674D01*
X246253Y-16340674D02*
X255777Y-16302579D01*
X255777Y-16302579D02*
X265301Y-16283531D01*
X265301Y-16283531D02*
X274824Y-16274008D01*
X274824Y-16274008D02*
X293872Y-16264484D01*
X446253Y-16445436D02*
X455777Y-16454960D01*
X455777Y-16454960D02*
X446253Y-16464484D01*
X446253Y-16464484D02*
X436729Y-16454960D01*
X436729Y-16454960D02*
X446253Y-16445436D01*
X446253Y-16445436D02*
X446253Y-16464484D01*
X570063Y-16350198D02*
X551015Y-16340674D01*
X551015Y-16340674D02*
X541491Y-16331150D01*
X541491Y-16331150D02*
X531967Y-16312103D01*
X531967Y-16312103D02*
X531967Y-16302579D01*
X531967Y-16302579D02*
X541491Y-16283531D01*
X541491Y-16283531D02*
X551015Y-16274008D01*
X551015Y-16274008D02*
X570063Y-16264484D01*
X570063Y-16264484D02*
X608158Y-16264484D01*
X608158Y-16264484D02*
X627205Y-16274008D01*
X627205Y-16274008D02*
X636729Y-16283531D01*
X636729Y-16283531D02*
X646253Y-16302579D01*
X646253Y-16302579D02*
X646253Y-16312103D01*
X646253Y-16312103D02*
X636729Y-16331150D01*
X636729Y-16331150D02*
X627205Y-16340674D01*
X627205Y-16340674D02*
X608158Y-16350198D01*
X608158Y-16350198D02*
X570063Y-16350198D01*
X570063Y-16350198D02*
X551015Y-16359722D01*
X551015Y-16359722D02*
X541491Y-16369246D01*
X541491Y-16369246D02*
X531967Y-16388293D01*
X531967Y-16388293D02*
X531967Y-16426388D01*
X531967Y-16426388D02*
X541491Y-16445436D01*
X541491Y-16445436D02*
X551015Y-16454960D01*
X551015Y-16454960D02*
X570063Y-16464484D01*
X570063Y-16464484D02*
X608158Y-16464484D01*
X608158Y-16464484D02*
X627205Y-16454960D01*
X627205Y-16454960D02*
X636729Y-16445436D01*
X636729Y-16445436D02*
X646253Y-16426388D01*
X646253Y-16426388D02*
X646253Y-16388293D01*
X646253Y-16388293D02*
X636729Y-16369246D01*
X636729Y-16369246D02*
X627205Y-16359722D01*
X627205Y-16359722D02*
X608158Y-16350198D01*
X770062Y-16264484D02*
X789110Y-16264484D01*
X789110Y-16264484D02*
X808158Y-16274008D01*
X808158Y-16274008D02*
X817682Y-16283531D01*
X817682Y-16283531D02*
X827205Y-16302579D01*
X827205Y-16302579D02*
X836729Y-16340674D01*
X836729Y-16340674D02*
X836729Y-16388293D01*
X836729Y-16388293D02*
X827205Y-16426388D01*
X827205Y-16426388D02*
X817682Y-16445436D01*
X817682Y-16445436D02*
X808158Y-16454960D01*
X808158Y-16454960D02*
X789110Y-16464484D01*
X789110Y-16464484D02*
X770062Y-16464484D01*
X770062Y-16464484D02*
X751015Y-16454960D01*
X751015Y-16454960D02*
X741491Y-16445436D01*
X741491Y-16445436D02*
X731967Y-16426388D01*
X731967Y-16426388D02*
X722443Y-16388293D01*
X722443Y-16388293D02*
X722443Y-16340674D01*
X722443Y-16340674D02*
X731967Y-16302579D01*
X731967Y-16302579D02*
X741491Y-16283531D01*
X741491Y-16283531D02*
X751015Y-16274008D01*
X751015Y-16274008D02*
X770062Y-16264484D01*
X960539Y-16264484D02*
X979586Y-16264484D01*
X979586Y-16264484D02*
X998634Y-16274008D01*
X998634Y-16274008D02*
X1008158Y-16283531D01*
X1008158Y-16283531D02*
X1017682Y-16302579D01*
X1017682Y-16302579D02*
X1027205Y-16340674D01*
X1027205Y-16340674D02*
X1027205Y-16388293D01*
X1027205Y-16388293D02*
X1017682Y-16426388D01*
X1017682Y-16426388D02*
X1008158Y-16445436D01*
X1008158Y-16445436D02*
X998634Y-16454960D01*
X998634Y-16454960D02*
X979586Y-16464484D01*
X979586Y-16464484D02*
X960539Y-16464484D01*
X960539Y-16464484D02*
X941491Y-16454960D01*
X941491Y-16454960D02*
X931967Y-16445436D01*
X931967Y-16445436D02*
X922443Y-16426388D01*
X922443Y-16426388D02*
X912920Y-16388293D01*
X912920Y-16388293D02*
X912920Y-16340674D01*
X912920Y-16340674D02*
X922443Y-16302579D01*
X922443Y-16302579D02*
X931967Y-16283531D01*
X931967Y-16283531D02*
X941491Y-16274008D01*
X941491Y-16274008D02*
X960539Y-16264484D01*
X1112920Y-16464484D02*
X1112920Y-16331150D01*
X1112920Y-16350198D02*
X1122444Y-16340674D01*
X1122444Y-16340674D02*
X1141491Y-16331150D01*
X1141491Y-16331150D02*
X1170063Y-16331150D01*
X1170063Y-16331150D02*
X1189110Y-16340674D01*
X1189110Y-16340674D02*
X1198634Y-16359722D01*
X1198634Y-16359722D02*
X1198634Y-16464484D01*
X1198634Y-16359722D02*
X1208158Y-16340674D01*
X1208158Y-16340674D02*
X1227205Y-16331150D01*
X1227205Y-16331150D02*
X1255777Y-16331150D01*
X1255777Y-16331150D02*
X1274825Y-16340674D01*
X1274825Y-16340674D02*
X1284348Y-16359722D01*
X1284348Y-16359722D02*
X1284348Y-16464484D01*
X1379586Y-16464484D02*
X1379586Y-16331150D01*
X1379586Y-16350198D02*
X1389110Y-16340674D01*
X1389110Y-16340674D02*
X1408158Y-16331150D01*
X1408158Y-16331150D02*
X1436729Y-16331150D01*
X1436729Y-16331150D02*
X1455777Y-16340674D01*
X1455777Y-16340674D02*
X1465301Y-16359722D01*
X1465301Y-16359722D02*
X1465301Y-16464484D01*
X1465301Y-16359722D02*
X1474824Y-16340674D01*
X1474824Y-16340674D02*
X1493872Y-16331150D01*
X1493872Y-16331150D02*
X1522443Y-16331150D01*
X1522443Y-16331150D02*
X1541491Y-16340674D01*
X1541491Y-16340674D02*
X1551015Y-16359722D01*
X1551015Y-16359722D02*
X1551015Y-16464484D01*
X1941491Y-16254960D02*
X1770063Y-16512103D01*
X2198634Y-16264484D02*
X2217682Y-16264484D01*
X2217682Y-16264484D02*
X2236729Y-16274008D01*
X2236729Y-16274008D02*
X2246253Y-16283531D01*
X2246253Y-16283531D02*
X2255777Y-16302579D01*
X2255777Y-16302579D02*
X2265301Y-16340674D01*
X2265301Y-16340674D02*
X2265301Y-16388293D01*
X2265301Y-16388293D02*
X2255777Y-16426388D01*
X2255777Y-16426388D02*
X2246253Y-16445436D01*
X2246253Y-16445436D02*
X2236729Y-16454960D01*
X2236729Y-16454960D02*
X2217682Y-16464484D01*
X2217682Y-16464484D02*
X2198634Y-16464484D01*
X2198634Y-16464484D02*
X2179587Y-16454960D01*
X2179587Y-16454960D02*
X2170063Y-16445436D01*
X2170063Y-16445436D02*
X2160539Y-16426388D01*
X2160539Y-16426388D02*
X2151015Y-16388293D01*
X2151015Y-16388293D02*
X2151015Y-16340674D01*
X2151015Y-16340674D02*
X2160539Y-16302579D01*
X2160539Y-16302579D02*
X2170063Y-16283531D01*
X2170063Y-16283531D02*
X2179587Y-16274008D01*
X2179587Y-16274008D02*
X2198634Y-16264484D01*
X2351015Y-16445436D02*
X2360539Y-16454960D01*
X2360539Y-16454960D02*
X2351015Y-16464484D01*
X2351015Y-16464484D02*
X2341491Y-16454960D01*
X2341491Y-16454960D02*
X2351015Y-16445436D01*
X2351015Y-16445436D02*
X2351015Y-16464484D01*
X2484348Y-16264484D02*
X2503396Y-16264484D01*
X2503396Y-16264484D02*
X2522444Y-16274008D01*
X2522444Y-16274008D02*
X2531968Y-16283531D01*
X2531968Y-16283531D02*
X2541491Y-16302579D01*
X2541491Y-16302579D02*
X2551015Y-16340674D01*
X2551015Y-16340674D02*
X2551015Y-16388293D01*
X2551015Y-16388293D02*
X2541491Y-16426388D01*
X2541491Y-16426388D02*
X2531968Y-16445436D01*
X2531968Y-16445436D02*
X2522444Y-16454960D01*
X2522444Y-16454960D02*
X2503396Y-16464484D01*
X2503396Y-16464484D02*
X2484348Y-16464484D01*
X2484348Y-16464484D02*
X2465301Y-16454960D01*
X2465301Y-16454960D02*
X2455777Y-16445436D01*
X2455777Y-16445436D02*
X2446253Y-16426388D01*
X2446253Y-16426388D02*
X2436729Y-16388293D01*
X2436729Y-16388293D02*
X2436729Y-16340674D01*
X2436729Y-16340674D02*
X2446253Y-16302579D01*
X2446253Y-16302579D02*
X2455777Y-16283531D01*
X2455777Y-16283531D02*
X2465301Y-16274008D01*
X2465301Y-16274008D02*
X2484348Y-16264484D01*
X2617682Y-16264484D02*
X2741491Y-16264484D01*
X2741491Y-16264484D02*
X2674825Y-16340674D01*
X2674825Y-16340674D02*
X2703396Y-16340674D01*
X2703396Y-16340674D02*
X2722444Y-16350198D01*
X2722444Y-16350198D02*
X2731968Y-16359722D01*
X2731968Y-16359722D02*
X2741491Y-16378769D01*
X2741491Y-16378769D02*
X2741491Y-16426388D01*
X2741491Y-16426388D02*
X2731968Y-16445436D01*
X2731968Y-16445436D02*
X2722444Y-16454960D01*
X2722444Y-16454960D02*
X2703396Y-16464484D01*
X2703396Y-16464484D02*
X2646253Y-16464484D01*
X2646253Y-16464484D02*
X2627206Y-16454960D01*
X2627206Y-16454960D02*
X2617682Y-16445436D01*
X2931967Y-16464484D02*
X2817682Y-16464484D01*
X2874825Y-16464484D02*
X2874825Y-16264484D01*
X2874825Y-16264484D02*
X2855777Y-16293055D01*
X2855777Y-16293055D02*
X2836729Y-16312103D01*
X2836729Y-16312103D02*
X2817682Y-16321627D01*
X3112920Y-16264484D02*
X3017682Y-16264484D01*
X3017682Y-16264484D02*
X3008158Y-16359722D01*
X3008158Y-16359722D02*
X3017682Y-16350198D01*
X3017682Y-16350198D02*
X3036729Y-16340674D01*
X3036729Y-16340674D02*
X3084348Y-16340674D01*
X3084348Y-16340674D02*
X3103396Y-16350198D01*
X3103396Y-16350198D02*
X3112920Y-16359722D01*
X3112920Y-16359722D02*
X3122444Y-16378769D01*
X3122444Y-16378769D02*
X3122444Y-16426388D01*
X3122444Y-16426388D02*
X3112920Y-16445436D01*
X3112920Y-16445436D02*
X3103396Y-16454960D01*
X3103396Y-16454960D02*
X3084348Y-16464484D01*
X3084348Y-16464484D02*
X3036729Y-16464484D01*
X3036729Y-16464484D02*
X3017682Y-16454960D01*
X3017682Y-16454960D02*
X3008158Y-16445436D01*
X3198634Y-16264484D02*
X3198634Y-16302579D01*
X3274825Y-16264484D02*
X3274825Y-16302579D01*
X3570063Y-16540674D02*
X3560539Y-16531150D01*
X3560539Y-16531150D02*
X3541491Y-16502579D01*
X3541491Y-16502579D02*
X3531968Y-16483531D01*
X3531968Y-16483531D02*
X3522444Y-16454960D01*
X3522444Y-16454960D02*
X3512920Y-16407341D01*
X3512920Y-16407341D02*
X3512920Y-16369246D01*
X3512920Y-16369246D02*
X3522444Y-16321627D01*
X3522444Y-16321627D02*
X3531968Y-16293055D01*
X3531968Y-16293055D02*
X3541491Y-16274008D01*
X3541491Y-16274008D02*
X3560539Y-16245436D01*
X3560539Y-16245436D02*
X3570063Y-16235912D01*
X3636729Y-16283531D02*
X3646253Y-16274008D01*
X3646253Y-16274008D02*
X3665301Y-16264484D01*
X3665301Y-16264484D02*
X3712920Y-16264484D01*
X3712920Y-16264484D02*
X3731968Y-16274008D01*
X3731968Y-16274008D02*
X3741491Y-16283531D01*
X3741491Y-16283531D02*
X3751015Y-16302579D01*
X3751015Y-16302579D02*
X3751015Y-16321627D01*
X3751015Y-16321627D02*
X3741491Y-16350198D01*
X3741491Y-16350198D02*
X3627206Y-16464484D01*
X3627206Y-16464484D02*
X3751015Y-16464484D01*
X3989110Y-16464484D02*
X3989110Y-16264484D01*
X4074825Y-16464484D02*
X4074825Y-16359722D01*
X4074825Y-16359722D02*
X4065301Y-16340674D01*
X4065301Y-16340674D02*
X4046253Y-16331150D01*
X4046253Y-16331150D02*
X4017682Y-16331150D01*
X4017682Y-16331150D02*
X3998634Y-16340674D01*
X3998634Y-16340674D02*
X3989110Y-16350198D01*
X4198634Y-16464484D02*
X4179587Y-16454960D01*
X4179587Y-16454960D02*
X4170063Y-16445436D01*
X4170063Y-16445436D02*
X4160539Y-16426388D01*
X4160539Y-16426388D02*
X4160539Y-16369246D01*
X4160539Y-16369246D02*
X4170063Y-16350198D01*
X4170063Y-16350198D02*
X4179587Y-16340674D01*
X4179587Y-16340674D02*
X4198634Y-16331150D01*
X4198634Y-16331150D02*
X4227206Y-16331150D01*
X4227206Y-16331150D02*
X4246253Y-16340674D01*
X4246253Y-16340674D02*
X4255777Y-16350198D01*
X4255777Y-16350198D02*
X4265301Y-16369246D01*
X4265301Y-16369246D02*
X4265301Y-16426388D01*
X4265301Y-16426388D02*
X4255777Y-16445436D01*
X4255777Y-16445436D02*
X4246253Y-16454960D01*
X4246253Y-16454960D02*
X4227206Y-16464484D01*
X4227206Y-16464484D02*
X4198634Y-16464484D01*
X4379587Y-16464484D02*
X4360539Y-16454960D01*
X4360539Y-16454960D02*
X4351015Y-16435912D01*
X4351015Y-16435912D02*
X4351015Y-16264484D01*
X4531968Y-16454960D02*
X4512920Y-16464484D01*
X4512920Y-16464484D02*
X4474825Y-16464484D01*
X4474825Y-16464484D02*
X4455777Y-16454960D01*
X4455777Y-16454960D02*
X4446253Y-16435912D01*
X4446253Y-16435912D02*
X4446253Y-16359722D01*
X4446253Y-16359722D02*
X4455777Y-16340674D01*
X4455777Y-16340674D02*
X4474825Y-16331150D01*
X4474825Y-16331150D02*
X4512920Y-16331150D01*
X4512920Y-16331150D02*
X4531968Y-16340674D01*
X4531968Y-16340674D02*
X4541492Y-16359722D01*
X4541492Y-16359722D02*
X4541492Y-16378769D01*
X4541492Y-16378769D02*
X4446253Y-16397817D01*
X4617682Y-16454960D02*
X4636730Y-16464484D01*
X4636730Y-16464484D02*
X4674825Y-16464484D01*
X4674825Y-16464484D02*
X4693873Y-16454960D01*
X4693873Y-16454960D02*
X4703396Y-16435912D01*
X4703396Y-16435912D02*
X4703396Y-16426388D01*
X4703396Y-16426388D02*
X4693873Y-16407341D01*
X4693873Y-16407341D02*
X4674825Y-16397817D01*
X4674825Y-16397817D02*
X4646253Y-16397817D01*
X4646253Y-16397817D02*
X4627206Y-16388293D01*
X4627206Y-16388293D02*
X4617682Y-16369246D01*
X4617682Y-16369246D02*
X4617682Y-16359722D01*
X4617682Y-16359722D02*
X4627206Y-16340674D01*
X4627206Y-16340674D02*
X4646253Y-16331150D01*
X4646253Y-16331150D02*
X4674825Y-16331150D01*
X4674825Y-16331150D02*
X4693873Y-16340674D01*
X4770063Y-16540674D02*
X4779587Y-16531150D01*
X4779587Y-16531150D02*
X4798634Y-16502579D01*
X4798634Y-16502579D02*
X4808158Y-16483531D01*
X4808158Y-16483531D02*
X4817682Y-16454960D01*
X4817682Y-16454960D02*
X4827206Y-16407341D01*
X4827206Y-16407341D02*
X4827206Y-16369246D01*
X4827206Y-16369246D02*
X4817682Y-16321627D01*
X4817682Y-16321627D02*
X4808158Y-16293055D01*
X4808158Y-16293055D02*
X4798634Y-16274008D01*
X4798634Y-16274008D02*
X4779587Y-16245436D01*
X4779587Y-16245436D02*
X4770063Y-16235912D01*
D15*
X-19507Y-16672023D02*
X-19507Y-16601977D01*
X-89553Y-16601977D01*
X-89553Y-16672023D01*
X-19507Y-16672023D01*
D11*
X293872Y-16528484D02*
X312920Y-16528484D01*
X312920Y-16528484D02*
X331967Y-16538008D01*
X331967Y-16538008D02*
X341491Y-16547531D01*
X341491Y-16547531D02*
X351015Y-16566579D01*
X351015Y-16566579D02*
X360539Y-16604674D01*
X360539Y-16604674D02*
X360539Y-16652293D01*
X360539Y-16652293D02*
X351015Y-16690388D01*
X351015Y-16690388D02*
X341491Y-16709436D01*
X341491Y-16709436D02*
X331967Y-16718960D01*
X331967Y-16718960D02*
X312920Y-16728484D01*
X312920Y-16728484D02*
X293872Y-16728484D01*
X293872Y-16728484D02*
X274824Y-16718960D01*
X274824Y-16718960D02*
X265301Y-16709436D01*
X265301Y-16709436D02*
X255777Y-16690388D01*
X255777Y-16690388D02*
X246253Y-16652293D01*
X246253Y-16652293D02*
X246253Y-16604674D01*
X246253Y-16604674D02*
X255777Y-16566579D01*
X255777Y-16566579D02*
X265301Y-16547531D01*
X265301Y-16547531D02*
X274824Y-16538008D01*
X274824Y-16538008D02*
X293872Y-16528484D01*
X446253Y-16709436D02*
X455777Y-16718960D01*
X455777Y-16718960D02*
X446253Y-16728484D01*
X446253Y-16728484D02*
X436729Y-16718960D01*
X436729Y-16718960D02*
X446253Y-16709436D01*
X446253Y-16709436D02*
X446253Y-16728484D01*
X551015Y-16728484D02*
X589110Y-16728484D01*
X589110Y-16728484D02*
X608158Y-16718960D01*
X608158Y-16718960D02*
X617682Y-16709436D01*
X617682Y-16709436D02*
X636729Y-16680865D01*
X636729Y-16680865D02*
X646253Y-16642769D01*
X646253Y-16642769D02*
X646253Y-16566579D01*
X646253Y-16566579D02*
X636729Y-16547531D01*
X636729Y-16547531D02*
X627205Y-16538008D01*
X627205Y-16538008D02*
X608158Y-16528484D01*
X608158Y-16528484D02*
X570063Y-16528484D01*
X570063Y-16528484D02*
X551015Y-16538008D01*
X551015Y-16538008D02*
X541491Y-16547531D01*
X541491Y-16547531D02*
X531967Y-16566579D01*
X531967Y-16566579D02*
X531967Y-16614198D01*
X531967Y-16614198D02*
X541491Y-16633246D01*
X541491Y-16633246D02*
X551015Y-16642769D01*
X551015Y-16642769D02*
X570063Y-16652293D01*
X570063Y-16652293D02*
X608158Y-16652293D01*
X608158Y-16652293D02*
X627205Y-16642769D01*
X627205Y-16642769D02*
X636729Y-16633246D01*
X636729Y-16633246D02*
X646253Y-16614198D01*
X741491Y-16728484D02*
X779586Y-16728484D01*
X779586Y-16728484D02*
X798634Y-16718960D01*
X798634Y-16718960D02*
X808158Y-16709436D01*
X808158Y-16709436D02*
X827205Y-16680865D01*
X827205Y-16680865D02*
X836729Y-16642769D01*
X836729Y-16642769D02*
X836729Y-16566579D01*
X836729Y-16566579D02*
X827205Y-16547531D01*
X827205Y-16547531D02*
X817682Y-16538008D01*
X817682Y-16538008D02*
X798634Y-16528484D01*
X798634Y-16528484D02*
X760539Y-16528484D01*
X760539Y-16528484D02*
X741491Y-16538008D01*
X741491Y-16538008D02*
X731967Y-16547531D01*
X731967Y-16547531D02*
X722443Y-16566579D01*
X722443Y-16566579D02*
X722443Y-16614198D01*
X722443Y-16614198D02*
X731967Y-16633246D01*
X731967Y-16633246D02*
X741491Y-16642769D01*
X741491Y-16642769D02*
X760539Y-16652293D01*
X760539Y-16652293D02*
X798634Y-16652293D01*
X798634Y-16652293D02*
X817682Y-16642769D01*
X817682Y-16642769D02*
X827205Y-16633246D01*
X827205Y-16633246D02*
X836729Y-16614198D01*
X1027205Y-16728484D02*
X912920Y-16728484D01*
X970062Y-16728484D02*
X970062Y-16528484D01*
X970062Y-16528484D02*
X951015Y-16557055D01*
X951015Y-16557055D02*
X931967Y-16576103D01*
X931967Y-16576103D02*
X912920Y-16585627D01*
X1112920Y-16728484D02*
X1112920Y-16595150D01*
X1112920Y-16614198D02*
X1122444Y-16604674D01*
X1122444Y-16604674D02*
X1141491Y-16595150D01*
X1141491Y-16595150D02*
X1170063Y-16595150D01*
X1170063Y-16595150D02*
X1189110Y-16604674D01*
X1189110Y-16604674D02*
X1198634Y-16623722D01*
X1198634Y-16623722D02*
X1198634Y-16728484D01*
X1198634Y-16623722D02*
X1208158Y-16604674D01*
X1208158Y-16604674D02*
X1227205Y-16595150D01*
X1227205Y-16595150D02*
X1255777Y-16595150D01*
X1255777Y-16595150D02*
X1274825Y-16604674D01*
X1274825Y-16604674D02*
X1284348Y-16623722D01*
X1284348Y-16623722D02*
X1284348Y-16728484D01*
X1379586Y-16728484D02*
X1379586Y-16595150D01*
X1379586Y-16614198D02*
X1389110Y-16604674D01*
X1389110Y-16604674D02*
X1408158Y-16595150D01*
X1408158Y-16595150D02*
X1436729Y-16595150D01*
X1436729Y-16595150D02*
X1455777Y-16604674D01*
X1455777Y-16604674D02*
X1465301Y-16623722D01*
X1465301Y-16623722D02*
X1465301Y-16728484D01*
X1465301Y-16623722D02*
X1474824Y-16604674D01*
X1474824Y-16604674D02*
X1493872Y-16595150D01*
X1493872Y-16595150D02*
X1522443Y-16595150D01*
X1522443Y-16595150D02*
X1541491Y-16604674D01*
X1541491Y-16604674D02*
X1551015Y-16623722D01*
X1551015Y-16623722D02*
X1551015Y-16728484D01*
X1941491Y-16518960D02*
X1770063Y-16776103D01*
X2198634Y-16528484D02*
X2217682Y-16528484D01*
X2217682Y-16528484D02*
X2236729Y-16538008D01*
X2236729Y-16538008D02*
X2246253Y-16547531D01*
X2246253Y-16547531D02*
X2255777Y-16566579D01*
X2255777Y-16566579D02*
X2265301Y-16604674D01*
X2265301Y-16604674D02*
X2265301Y-16652293D01*
X2265301Y-16652293D02*
X2255777Y-16690388D01*
X2255777Y-16690388D02*
X2246253Y-16709436D01*
X2246253Y-16709436D02*
X2236729Y-16718960D01*
X2236729Y-16718960D02*
X2217682Y-16728484D01*
X2217682Y-16728484D02*
X2198634Y-16728484D01*
X2198634Y-16728484D02*
X2179587Y-16718960D01*
X2179587Y-16718960D02*
X2170063Y-16709436D01*
X2170063Y-16709436D02*
X2160539Y-16690388D01*
X2160539Y-16690388D02*
X2151015Y-16652293D01*
X2151015Y-16652293D02*
X2151015Y-16604674D01*
X2151015Y-16604674D02*
X2160539Y-16566579D01*
X2160539Y-16566579D02*
X2170063Y-16547531D01*
X2170063Y-16547531D02*
X2179587Y-16538008D01*
X2179587Y-16538008D02*
X2198634Y-16528484D01*
X2351015Y-16709436D02*
X2360539Y-16718960D01*
X2360539Y-16718960D02*
X2351015Y-16728484D01*
X2351015Y-16728484D02*
X2341491Y-16718960D01*
X2341491Y-16718960D02*
X2351015Y-16709436D01*
X2351015Y-16709436D02*
X2351015Y-16728484D01*
X2484348Y-16528484D02*
X2503396Y-16528484D01*
X2503396Y-16528484D02*
X2522444Y-16538008D01*
X2522444Y-16538008D02*
X2531968Y-16547531D01*
X2531968Y-16547531D02*
X2541491Y-16566579D01*
X2541491Y-16566579D02*
X2551015Y-16604674D01*
X2551015Y-16604674D02*
X2551015Y-16652293D01*
X2551015Y-16652293D02*
X2541491Y-16690388D01*
X2541491Y-16690388D02*
X2531968Y-16709436D01*
X2531968Y-16709436D02*
X2522444Y-16718960D01*
X2522444Y-16718960D02*
X2503396Y-16728484D01*
X2503396Y-16728484D02*
X2484348Y-16728484D01*
X2484348Y-16728484D02*
X2465301Y-16718960D01*
X2465301Y-16718960D02*
X2455777Y-16709436D01*
X2455777Y-16709436D02*
X2446253Y-16690388D01*
X2446253Y-16690388D02*
X2436729Y-16652293D01*
X2436729Y-16652293D02*
X2436729Y-16604674D01*
X2436729Y-16604674D02*
X2446253Y-16566579D01*
X2446253Y-16566579D02*
X2455777Y-16547531D01*
X2455777Y-16547531D02*
X2465301Y-16538008D01*
X2465301Y-16538008D02*
X2484348Y-16528484D01*
X2617682Y-16528484D02*
X2741491Y-16528484D01*
X2741491Y-16528484D02*
X2674825Y-16604674D01*
X2674825Y-16604674D02*
X2703396Y-16604674D01*
X2703396Y-16604674D02*
X2722444Y-16614198D01*
X2722444Y-16614198D02*
X2731968Y-16623722D01*
X2731968Y-16623722D02*
X2741491Y-16642769D01*
X2741491Y-16642769D02*
X2741491Y-16690388D01*
X2741491Y-16690388D02*
X2731968Y-16709436D01*
X2731968Y-16709436D02*
X2722444Y-16718960D01*
X2722444Y-16718960D02*
X2703396Y-16728484D01*
X2703396Y-16728484D02*
X2646253Y-16728484D01*
X2646253Y-16728484D02*
X2627206Y-16718960D01*
X2627206Y-16718960D02*
X2617682Y-16709436D01*
X2836729Y-16728484D02*
X2874825Y-16728484D01*
X2874825Y-16728484D02*
X2893872Y-16718960D01*
X2893872Y-16718960D02*
X2903396Y-16709436D01*
X2903396Y-16709436D02*
X2922444Y-16680865D01*
X2922444Y-16680865D02*
X2931967Y-16642769D01*
X2931967Y-16642769D02*
X2931967Y-16566579D01*
X2931967Y-16566579D02*
X2922444Y-16547531D01*
X2922444Y-16547531D02*
X2912920Y-16538008D01*
X2912920Y-16538008D02*
X2893872Y-16528484D01*
X2893872Y-16528484D02*
X2855777Y-16528484D01*
X2855777Y-16528484D02*
X2836729Y-16538008D01*
X2836729Y-16538008D02*
X2827206Y-16547531D01*
X2827206Y-16547531D02*
X2817682Y-16566579D01*
X2817682Y-16566579D02*
X2817682Y-16614198D01*
X2817682Y-16614198D02*
X2827206Y-16633246D01*
X2827206Y-16633246D02*
X2836729Y-16642769D01*
X2836729Y-16642769D02*
X2855777Y-16652293D01*
X2855777Y-16652293D02*
X2893872Y-16652293D01*
X2893872Y-16652293D02*
X2912920Y-16642769D01*
X2912920Y-16642769D02*
X2922444Y-16633246D01*
X2922444Y-16633246D02*
X2931967Y-16614198D01*
X3055777Y-16528484D02*
X3074825Y-16528484D01*
X3074825Y-16528484D02*
X3093872Y-16538008D01*
X3093872Y-16538008D02*
X3103396Y-16547531D01*
X3103396Y-16547531D02*
X3112920Y-16566579D01*
X3112920Y-16566579D02*
X3122444Y-16604674D01*
X3122444Y-16604674D02*
X3122444Y-16652293D01*
X3122444Y-16652293D02*
X3112920Y-16690388D01*
X3112920Y-16690388D02*
X3103396Y-16709436D01*
X3103396Y-16709436D02*
X3093872Y-16718960D01*
X3093872Y-16718960D02*
X3074825Y-16728484D01*
X3074825Y-16728484D02*
X3055777Y-16728484D01*
X3055777Y-16728484D02*
X3036729Y-16718960D01*
X3036729Y-16718960D02*
X3027206Y-16709436D01*
X3027206Y-16709436D02*
X3017682Y-16690388D01*
X3017682Y-16690388D02*
X3008158Y-16652293D01*
X3008158Y-16652293D02*
X3008158Y-16604674D01*
X3008158Y-16604674D02*
X3017682Y-16566579D01*
X3017682Y-16566579D02*
X3027206Y-16547531D01*
X3027206Y-16547531D02*
X3036729Y-16538008D01*
X3036729Y-16538008D02*
X3055777Y-16528484D01*
X3198634Y-16528484D02*
X3198634Y-16566579D01*
X3274825Y-16528484D02*
X3274825Y-16566579D01*
X3570063Y-16804674D02*
X3560539Y-16795150D01*
X3560539Y-16795150D02*
X3541491Y-16766579D01*
X3541491Y-16766579D02*
X3531968Y-16747531D01*
X3531968Y-16747531D02*
X3522444Y-16718960D01*
X3522444Y-16718960D02*
X3512920Y-16671341D01*
X3512920Y-16671341D02*
X3512920Y-16633246D01*
X3512920Y-16633246D02*
X3522444Y-16585627D01*
X3522444Y-16585627D02*
X3531968Y-16557055D01*
X3531968Y-16557055D02*
X3541491Y-16538008D01*
X3541491Y-16538008D02*
X3560539Y-16509436D01*
X3560539Y-16509436D02*
X3570063Y-16499912D01*
X3636729Y-16547531D02*
X3646253Y-16538008D01*
X3646253Y-16538008D02*
X3665301Y-16528484D01*
X3665301Y-16528484D02*
X3712920Y-16528484D01*
X3712920Y-16528484D02*
X3731968Y-16538008D01*
X3731968Y-16538008D02*
X3741491Y-16547531D01*
X3741491Y-16547531D02*
X3751015Y-16566579D01*
X3751015Y-16566579D02*
X3751015Y-16585627D01*
X3751015Y-16585627D02*
X3741491Y-16614198D01*
X3741491Y-16614198D02*
X3627206Y-16728484D01*
X3627206Y-16728484D02*
X3751015Y-16728484D01*
X3989110Y-16728484D02*
X3989110Y-16528484D01*
X4074825Y-16728484D02*
X4074825Y-16623722D01*
X4074825Y-16623722D02*
X4065301Y-16604674D01*
X4065301Y-16604674D02*
X4046253Y-16595150D01*
X4046253Y-16595150D02*
X4017682Y-16595150D01*
X4017682Y-16595150D02*
X3998634Y-16604674D01*
X3998634Y-16604674D02*
X3989110Y-16614198D01*
X4198634Y-16728484D02*
X4179587Y-16718960D01*
X4179587Y-16718960D02*
X4170063Y-16709436D01*
X4170063Y-16709436D02*
X4160539Y-16690388D01*
X4160539Y-16690388D02*
X4160539Y-16633246D01*
X4160539Y-16633246D02*
X4170063Y-16614198D01*
X4170063Y-16614198D02*
X4179587Y-16604674D01*
X4179587Y-16604674D02*
X4198634Y-16595150D01*
X4198634Y-16595150D02*
X4227206Y-16595150D01*
X4227206Y-16595150D02*
X4246253Y-16604674D01*
X4246253Y-16604674D02*
X4255777Y-16614198D01*
X4255777Y-16614198D02*
X4265301Y-16633246D01*
X4265301Y-16633246D02*
X4265301Y-16690388D01*
X4265301Y-16690388D02*
X4255777Y-16709436D01*
X4255777Y-16709436D02*
X4246253Y-16718960D01*
X4246253Y-16718960D02*
X4227206Y-16728484D01*
X4227206Y-16728484D02*
X4198634Y-16728484D01*
X4379587Y-16728484D02*
X4360539Y-16718960D01*
X4360539Y-16718960D02*
X4351015Y-16699912D01*
X4351015Y-16699912D02*
X4351015Y-16528484D01*
X4531968Y-16718960D02*
X4512920Y-16728484D01*
X4512920Y-16728484D02*
X4474825Y-16728484D01*
X4474825Y-16728484D02*
X4455777Y-16718960D01*
X4455777Y-16718960D02*
X4446253Y-16699912D01*
X4446253Y-16699912D02*
X4446253Y-16623722D01*
X4446253Y-16623722D02*
X4455777Y-16604674D01*
X4455777Y-16604674D02*
X4474825Y-16595150D01*
X4474825Y-16595150D02*
X4512920Y-16595150D01*
X4512920Y-16595150D02*
X4531968Y-16604674D01*
X4531968Y-16604674D02*
X4541492Y-16623722D01*
X4541492Y-16623722D02*
X4541492Y-16642769D01*
X4541492Y-16642769D02*
X4446253Y-16661817D01*
X4617682Y-16718960D02*
X4636730Y-16728484D01*
X4636730Y-16728484D02*
X4674825Y-16728484D01*
X4674825Y-16728484D02*
X4693873Y-16718960D01*
X4693873Y-16718960D02*
X4703396Y-16699912D01*
X4703396Y-16699912D02*
X4703396Y-16690388D01*
X4703396Y-16690388D02*
X4693873Y-16671341D01*
X4693873Y-16671341D02*
X4674825Y-16661817D01*
X4674825Y-16661817D02*
X4646253Y-16661817D01*
X4646253Y-16661817D02*
X4627206Y-16652293D01*
X4627206Y-16652293D02*
X4617682Y-16633246D01*
X4617682Y-16633246D02*
X4617682Y-16623722D01*
X4617682Y-16623722D02*
X4627206Y-16604674D01*
X4627206Y-16604674D02*
X4646253Y-16595150D01*
X4646253Y-16595150D02*
X4674825Y-16595150D01*
X4674825Y-16595150D02*
X4693873Y-16604674D01*
X4770063Y-16804674D02*
X4779587Y-16795150D01*
X4779587Y-16795150D02*
X4798634Y-16766579D01*
X4798634Y-16766579D02*
X4808158Y-16747531D01*
X4808158Y-16747531D02*
X4817682Y-16718960D01*
X4817682Y-16718960D02*
X4827206Y-16671341D01*
X4827206Y-16671341D02*
X4827206Y-16633246D01*
X4827206Y-16633246D02*
X4817682Y-16585627D01*
X4817682Y-16585627D02*
X4808158Y-16557055D01*
X4808158Y-16557055D02*
X4798634Y-16538008D01*
X4798634Y-16538008D02*
X4779587Y-16509436D01*
X4779587Y-16509436D02*
X4770063Y-16499912D01*
D10*
X-55000Y-16951000D02*
X-5000Y-16901000D01*
X-55000Y-16851000D01*
X-105000Y-16901000D01*
X-55000Y-16951000D01*
D11*
X360539Y-16992484D02*
X246253Y-16992484D01*
X303396Y-16992484D02*
X303396Y-16792484D01*
X303396Y-16792484D02*
X284348Y-16821055D01*
X284348Y-16821055D02*
X265301Y-16840103D01*
X265301Y-16840103D02*
X246253Y-16849627D01*
X446253Y-16973436D02*
X455777Y-16982960D01*
X455777Y-16982960D02*
X446253Y-16992484D01*
X446253Y-16992484D02*
X436729Y-16982960D01*
X436729Y-16982960D02*
X446253Y-16973436D01*
X446253Y-16973436D02*
X446253Y-16992484D01*
X579586Y-16792484D02*
X598634Y-16792484D01*
X598634Y-16792484D02*
X617682Y-16802008D01*
X617682Y-16802008D02*
X627205Y-16811531D01*
X627205Y-16811531D02*
X636729Y-16830579D01*
X636729Y-16830579D02*
X646253Y-16868674D01*
X646253Y-16868674D02*
X646253Y-16916293D01*
X646253Y-16916293D02*
X636729Y-16954389D01*
X636729Y-16954389D02*
X627205Y-16973436D01*
X627205Y-16973436D02*
X617682Y-16982960D01*
X617682Y-16982960D02*
X598634Y-16992484D01*
X598634Y-16992484D02*
X579586Y-16992484D01*
X579586Y-16992484D02*
X560539Y-16982960D01*
X560539Y-16982960D02*
X551015Y-16973436D01*
X551015Y-16973436D02*
X541491Y-16954389D01*
X541491Y-16954389D02*
X531967Y-16916293D01*
X531967Y-16916293D02*
X531967Y-16868674D01*
X531967Y-16868674D02*
X541491Y-16830579D01*
X541491Y-16830579D02*
X551015Y-16811531D01*
X551015Y-16811531D02*
X560539Y-16802008D01*
X560539Y-16802008D02*
X579586Y-16792484D01*
X770062Y-16792484D02*
X789110Y-16792484D01*
X789110Y-16792484D02*
X808158Y-16802008D01*
X808158Y-16802008D02*
X817682Y-16811531D01*
X817682Y-16811531D02*
X827205Y-16830579D01*
X827205Y-16830579D02*
X836729Y-16868674D01*
X836729Y-16868674D02*
X836729Y-16916293D01*
X836729Y-16916293D02*
X827205Y-16954389D01*
X827205Y-16954389D02*
X817682Y-16973436D01*
X817682Y-16973436D02*
X808158Y-16982960D01*
X808158Y-16982960D02*
X789110Y-16992484D01*
X789110Y-16992484D02*
X770062Y-16992484D01*
X770062Y-16992484D02*
X751015Y-16982960D01*
X751015Y-16982960D02*
X741491Y-16973436D01*
X741491Y-16973436D02*
X731967Y-16954389D01*
X731967Y-16954389D02*
X722443Y-16916293D01*
X722443Y-16916293D02*
X722443Y-16868674D01*
X722443Y-16868674D02*
X731967Y-16830579D01*
X731967Y-16830579D02*
X741491Y-16811531D01*
X741491Y-16811531D02*
X751015Y-16802008D01*
X751015Y-16802008D02*
X770062Y-16792484D01*
X960539Y-16792484D02*
X979586Y-16792484D01*
X979586Y-16792484D02*
X998634Y-16802008D01*
X998634Y-16802008D02*
X1008158Y-16811531D01*
X1008158Y-16811531D02*
X1017682Y-16830579D01*
X1017682Y-16830579D02*
X1027205Y-16868674D01*
X1027205Y-16868674D02*
X1027205Y-16916293D01*
X1027205Y-16916293D02*
X1017682Y-16954389D01*
X1017682Y-16954389D02*
X1008158Y-16973436D01*
X1008158Y-16973436D02*
X998634Y-16982960D01*
X998634Y-16982960D02*
X979586Y-16992484D01*
X979586Y-16992484D02*
X960539Y-16992484D01*
X960539Y-16992484D02*
X941491Y-16982960D01*
X941491Y-16982960D02*
X931967Y-16973436D01*
X931967Y-16973436D02*
X922443Y-16954389D01*
X922443Y-16954389D02*
X912920Y-16916293D01*
X912920Y-16916293D02*
X912920Y-16868674D01*
X912920Y-16868674D02*
X922443Y-16830579D01*
X922443Y-16830579D02*
X931967Y-16811531D01*
X931967Y-16811531D02*
X941491Y-16802008D01*
X941491Y-16802008D02*
X960539Y-16792484D01*
X1112920Y-16992484D02*
X1112920Y-16859150D01*
X1112920Y-16878198D02*
X1122444Y-16868674D01*
X1122444Y-16868674D02*
X1141491Y-16859150D01*
X1141491Y-16859150D02*
X1170063Y-16859150D01*
X1170063Y-16859150D02*
X1189110Y-16868674D01*
X1189110Y-16868674D02*
X1198634Y-16887722D01*
X1198634Y-16887722D02*
X1198634Y-16992484D01*
X1198634Y-16887722D02*
X1208158Y-16868674D01*
X1208158Y-16868674D02*
X1227205Y-16859150D01*
X1227205Y-16859150D02*
X1255777Y-16859150D01*
X1255777Y-16859150D02*
X1274825Y-16868674D01*
X1274825Y-16868674D02*
X1284348Y-16887722D01*
X1284348Y-16887722D02*
X1284348Y-16992484D01*
X1379586Y-16992484D02*
X1379586Y-16859150D01*
X1379586Y-16878198D02*
X1389110Y-16868674D01*
X1389110Y-16868674D02*
X1408158Y-16859150D01*
X1408158Y-16859150D02*
X1436729Y-16859150D01*
X1436729Y-16859150D02*
X1455777Y-16868674D01*
X1455777Y-16868674D02*
X1465301Y-16887722D01*
X1465301Y-16887722D02*
X1465301Y-16992484D01*
X1465301Y-16887722D02*
X1474824Y-16868674D01*
X1474824Y-16868674D02*
X1493872Y-16859150D01*
X1493872Y-16859150D02*
X1522443Y-16859150D01*
X1522443Y-16859150D02*
X1541491Y-16868674D01*
X1541491Y-16868674D02*
X1551015Y-16887722D01*
X1551015Y-16887722D02*
X1551015Y-16992484D01*
X1941491Y-16782960D02*
X1770063Y-17040103D01*
X2198634Y-16792484D02*
X2217682Y-16792484D01*
X2217682Y-16792484D02*
X2236729Y-16802008D01*
X2236729Y-16802008D02*
X2246253Y-16811531D01*
X2246253Y-16811531D02*
X2255777Y-16830579D01*
X2255777Y-16830579D02*
X2265301Y-16868674D01*
X2265301Y-16868674D02*
X2265301Y-16916293D01*
X2265301Y-16916293D02*
X2255777Y-16954389D01*
X2255777Y-16954389D02*
X2246253Y-16973436D01*
X2246253Y-16973436D02*
X2236729Y-16982960D01*
X2236729Y-16982960D02*
X2217682Y-16992484D01*
X2217682Y-16992484D02*
X2198634Y-16992484D01*
X2198634Y-16992484D02*
X2179587Y-16982960D01*
X2179587Y-16982960D02*
X2170063Y-16973436D01*
X2170063Y-16973436D02*
X2160539Y-16954389D01*
X2160539Y-16954389D02*
X2151015Y-16916293D01*
X2151015Y-16916293D02*
X2151015Y-16868674D01*
X2151015Y-16868674D02*
X2160539Y-16830579D01*
X2160539Y-16830579D02*
X2170063Y-16811531D01*
X2170063Y-16811531D02*
X2179587Y-16802008D01*
X2179587Y-16802008D02*
X2198634Y-16792484D01*
X2351015Y-16973436D02*
X2360539Y-16982960D01*
X2360539Y-16982960D02*
X2351015Y-16992484D01*
X2351015Y-16992484D02*
X2341491Y-16982960D01*
X2341491Y-16982960D02*
X2351015Y-16973436D01*
X2351015Y-16973436D02*
X2351015Y-16992484D01*
X2484348Y-16792484D02*
X2503396Y-16792484D01*
X2503396Y-16792484D02*
X2522444Y-16802008D01*
X2522444Y-16802008D02*
X2531968Y-16811531D01*
X2531968Y-16811531D02*
X2541491Y-16830579D01*
X2541491Y-16830579D02*
X2551015Y-16868674D01*
X2551015Y-16868674D02*
X2551015Y-16916293D01*
X2551015Y-16916293D02*
X2541491Y-16954389D01*
X2541491Y-16954389D02*
X2531968Y-16973436D01*
X2531968Y-16973436D02*
X2522444Y-16982960D01*
X2522444Y-16982960D02*
X2503396Y-16992484D01*
X2503396Y-16992484D02*
X2484348Y-16992484D01*
X2484348Y-16992484D02*
X2465301Y-16982960D01*
X2465301Y-16982960D02*
X2455777Y-16973436D01*
X2455777Y-16973436D02*
X2446253Y-16954389D01*
X2446253Y-16954389D02*
X2436729Y-16916293D01*
X2436729Y-16916293D02*
X2436729Y-16868674D01*
X2436729Y-16868674D02*
X2446253Y-16830579D01*
X2446253Y-16830579D02*
X2455777Y-16811531D01*
X2455777Y-16811531D02*
X2465301Y-16802008D01*
X2465301Y-16802008D02*
X2484348Y-16792484D01*
X2617682Y-16792484D02*
X2741491Y-16792484D01*
X2741491Y-16792484D02*
X2674825Y-16868674D01*
X2674825Y-16868674D02*
X2703396Y-16868674D01*
X2703396Y-16868674D02*
X2722444Y-16878198D01*
X2722444Y-16878198D02*
X2731968Y-16887722D01*
X2731968Y-16887722D02*
X2741491Y-16906770D01*
X2741491Y-16906770D02*
X2741491Y-16954389D01*
X2741491Y-16954389D02*
X2731968Y-16973436D01*
X2731968Y-16973436D02*
X2722444Y-16982960D01*
X2722444Y-16982960D02*
X2703396Y-16992484D01*
X2703396Y-16992484D02*
X2646253Y-16992484D01*
X2646253Y-16992484D02*
X2627206Y-16982960D01*
X2627206Y-16982960D02*
X2617682Y-16973436D01*
X2836729Y-16992484D02*
X2874825Y-16992484D01*
X2874825Y-16992484D02*
X2893872Y-16982960D01*
X2893872Y-16982960D02*
X2903396Y-16973436D01*
X2903396Y-16973436D02*
X2922444Y-16944865D01*
X2922444Y-16944865D02*
X2931967Y-16906770D01*
X2931967Y-16906770D02*
X2931967Y-16830579D01*
X2931967Y-16830579D02*
X2922444Y-16811531D01*
X2922444Y-16811531D02*
X2912920Y-16802008D01*
X2912920Y-16802008D02*
X2893872Y-16792484D01*
X2893872Y-16792484D02*
X2855777Y-16792484D01*
X2855777Y-16792484D02*
X2836729Y-16802008D01*
X2836729Y-16802008D02*
X2827206Y-16811531D01*
X2827206Y-16811531D02*
X2817682Y-16830579D01*
X2817682Y-16830579D02*
X2817682Y-16878198D01*
X2817682Y-16878198D02*
X2827206Y-16897246D01*
X2827206Y-16897246D02*
X2836729Y-16906770D01*
X2836729Y-16906770D02*
X2855777Y-16916293D01*
X2855777Y-16916293D02*
X2893872Y-16916293D01*
X2893872Y-16916293D02*
X2912920Y-16906770D01*
X2912920Y-16906770D02*
X2922444Y-16897246D01*
X2922444Y-16897246D02*
X2931967Y-16878198D01*
X3103396Y-16859150D02*
X3103396Y-16992484D01*
X3055777Y-16782960D02*
X3008158Y-16925817D01*
X3008158Y-16925817D02*
X3131967Y-16925817D01*
X3198634Y-16792484D02*
X3198634Y-16830579D01*
X3274825Y-16792484D02*
X3274825Y-16830579D01*
X3570063Y-17068674D02*
X3560539Y-17059150D01*
X3560539Y-17059150D02*
X3541491Y-17030579D01*
X3541491Y-17030579D02*
X3531968Y-17011531D01*
X3531968Y-17011531D02*
X3522444Y-16982960D01*
X3522444Y-16982960D02*
X3512920Y-16935341D01*
X3512920Y-16935341D02*
X3512920Y-16897246D01*
X3512920Y-16897246D02*
X3522444Y-16849627D01*
X3522444Y-16849627D02*
X3531968Y-16821055D01*
X3531968Y-16821055D02*
X3541491Y-16802008D01*
X3541491Y-16802008D02*
X3560539Y-16773436D01*
X3560539Y-16773436D02*
X3570063Y-16763912D01*
X3751015Y-16992484D02*
X3636729Y-16992484D01*
X3693872Y-16992484D02*
X3693872Y-16792484D01*
X3693872Y-16792484D02*
X3674825Y-16821055D01*
X3674825Y-16821055D02*
X3655777Y-16840103D01*
X3655777Y-16840103D02*
X3636729Y-16849627D01*
X3922444Y-16859150D02*
X3922444Y-16992484D01*
X3874825Y-16782960D02*
X3827206Y-16925817D01*
X3827206Y-16925817D02*
X3951015Y-16925817D01*
X4179587Y-16992484D02*
X4179587Y-16792484D01*
X4265301Y-16992484D02*
X4265301Y-16887722D01*
X4265301Y-16887722D02*
X4255777Y-16868674D01*
X4255777Y-16868674D02*
X4236730Y-16859150D01*
X4236730Y-16859150D02*
X4208158Y-16859150D01*
X4208158Y-16859150D02*
X4189110Y-16868674D01*
X4189110Y-16868674D02*
X4179587Y-16878198D01*
X4389111Y-16992484D02*
X4370063Y-16982960D01*
X4370063Y-16982960D02*
X4360539Y-16973436D01*
X4360539Y-16973436D02*
X4351015Y-16954389D01*
X4351015Y-16954389D02*
X4351015Y-16897246D01*
X4351015Y-16897246D02*
X4360539Y-16878198D01*
X4360539Y-16878198D02*
X4370063Y-16868674D01*
X4370063Y-16868674D02*
X4389111Y-16859150D01*
X4389111Y-16859150D02*
X4417682Y-16859150D01*
X4417682Y-16859150D02*
X4436730Y-16868674D01*
X4436730Y-16868674D02*
X4446253Y-16878198D01*
X4446253Y-16878198D02*
X4455777Y-16897246D01*
X4455777Y-16897246D02*
X4455777Y-16954389D01*
X4455777Y-16954389D02*
X4446253Y-16973436D01*
X4446253Y-16973436D02*
X4436730Y-16982960D01*
X4436730Y-16982960D02*
X4417682Y-16992484D01*
X4417682Y-16992484D02*
X4389111Y-16992484D01*
X4570063Y-16992484D02*
X4551015Y-16982960D01*
X4551015Y-16982960D02*
X4541492Y-16963912D01*
X4541492Y-16963912D02*
X4541492Y-16792484D01*
X4722444Y-16982960D02*
X4703396Y-16992484D01*
X4703396Y-16992484D02*
X4665301Y-16992484D01*
X4665301Y-16992484D02*
X4646253Y-16982960D01*
X4646253Y-16982960D02*
X4636730Y-16963912D01*
X4636730Y-16963912D02*
X4636730Y-16887722D01*
X4636730Y-16887722D02*
X4646253Y-16868674D01*
X4646253Y-16868674D02*
X4665301Y-16859150D01*
X4665301Y-16859150D02*
X4703396Y-16859150D01*
X4703396Y-16859150D02*
X4722444Y-16868674D01*
X4722444Y-16868674D02*
X4731968Y-16887722D01*
X4731968Y-16887722D02*
X4731968Y-16906770D01*
X4731968Y-16906770D02*
X4636730Y-16925817D01*
X4808158Y-16982960D02*
X4827206Y-16992484D01*
X4827206Y-16992484D02*
X4865301Y-16992484D01*
X4865301Y-16992484D02*
X4884349Y-16982960D01*
X4884349Y-16982960D02*
X4893873Y-16963912D01*
X4893873Y-16963912D02*
X4893873Y-16954389D01*
X4893873Y-16954389D02*
X4884349Y-16935341D01*
X4884349Y-16935341D02*
X4865301Y-16925817D01*
X4865301Y-16925817D02*
X4836730Y-16925817D01*
X4836730Y-16925817D02*
X4817682Y-16916293D01*
X4817682Y-16916293D02*
X4808158Y-16897246D01*
X4808158Y-16897246D02*
X4808158Y-16887722D01*
X4808158Y-16887722D02*
X4817682Y-16868674D01*
X4817682Y-16868674D02*
X4836730Y-16859150D01*
X4836730Y-16859150D02*
X4865301Y-16859150D01*
X4865301Y-16859150D02*
X4884349Y-16868674D01*
X4960539Y-17068674D02*
X4970063Y-17059150D01*
X4970063Y-17059150D02*
X4989111Y-17030579D01*
X4989111Y-17030579D02*
X4998634Y-17011531D01*
X4998634Y-17011531D02*
X5008158Y-16982960D01*
X5008158Y-16982960D02*
X5017682Y-16935341D01*
X5017682Y-16935341D02*
X5017682Y-16897246D01*
X5017682Y-16897246D02*
X5008158Y-16849627D01*
X5008158Y-16849627D02*
X4998634Y-16821055D01*
X4998634Y-16821055D02*
X4989111Y-16802008D01*
X4989111Y-16802008D02*
X4970063Y-16773436D01*
X4970063Y-16773436D02*
X4960539Y-16763912D01*
D16*
X-115000Y-17110000D02*
X-5000Y-17220000D01*
X-5000Y-17110000D02*
X-115000Y-17220000D01*
X-5000Y-17165000D02*
G75*
G03*
X-5000Y-17165000I-55000J0D01*
G01*
D11*
X360539Y-17256484D02*
X246253Y-17256484D01*
X303396Y-17256484D02*
X303396Y-17056484D01*
X303396Y-17056484D02*
X284348Y-17085055D01*
X284348Y-17085055D02*
X265301Y-17104103D01*
X265301Y-17104103D02*
X246253Y-17113627D01*
X446253Y-17237436D02*
X455777Y-17246960D01*
X455777Y-17246960D02*
X446253Y-17256484D01*
X446253Y-17256484D02*
X436729Y-17246960D01*
X436729Y-17246960D02*
X446253Y-17237436D01*
X446253Y-17237436D02*
X446253Y-17256484D01*
X646253Y-17256484D02*
X531967Y-17256484D01*
X589110Y-17256484D02*
X589110Y-17056484D01*
X589110Y-17056484D02*
X570063Y-17085055D01*
X570063Y-17085055D02*
X551015Y-17104103D01*
X551015Y-17104103D02*
X531967Y-17113627D01*
X770062Y-17056484D02*
X789110Y-17056484D01*
X789110Y-17056484D02*
X808158Y-17066008D01*
X808158Y-17066008D02*
X817682Y-17075531D01*
X817682Y-17075531D02*
X827205Y-17094579D01*
X827205Y-17094579D02*
X836729Y-17132674D01*
X836729Y-17132674D02*
X836729Y-17180293D01*
X836729Y-17180293D02*
X827205Y-17218389D01*
X827205Y-17218389D02*
X817682Y-17237436D01*
X817682Y-17237436D02*
X808158Y-17246960D01*
X808158Y-17246960D02*
X789110Y-17256484D01*
X789110Y-17256484D02*
X770062Y-17256484D01*
X770062Y-17256484D02*
X751015Y-17246960D01*
X751015Y-17246960D02*
X741491Y-17237436D01*
X741491Y-17237436D02*
X731967Y-17218389D01*
X731967Y-17218389D02*
X722443Y-17180293D01*
X722443Y-17180293D02*
X722443Y-17132674D01*
X722443Y-17132674D02*
X731967Y-17094579D01*
X731967Y-17094579D02*
X741491Y-17075531D01*
X741491Y-17075531D02*
X751015Y-17066008D01*
X751015Y-17066008D02*
X770062Y-17056484D01*
X960539Y-17056484D02*
X979586Y-17056484D01*
X979586Y-17056484D02*
X998634Y-17066008D01*
X998634Y-17066008D02*
X1008158Y-17075531D01*
X1008158Y-17075531D02*
X1017682Y-17094579D01*
X1017682Y-17094579D02*
X1027205Y-17132674D01*
X1027205Y-17132674D02*
X1027205Y-17180293D01*
X1027205Y-17180293D02*
X1017682Y-17218389D01*
X1017682Y-17218389D02*
X1008158Y-17237436D01*
X1008158Y-17237436D02*
X998634Y-17246960D01*
X998634Y-17246960D02*
X979586Y-17256484D01*
X979586Y-17256484D02*
X960539Y-17256484D01*
X960539Y-17256484D02*
X941491Y-17246960D01*
X941491Y-17246960D02*
X931967Y-17237436D01*
X931967Y-17237436D02*
X922443Y-17218389D01*
X922443Y-17218389D02*
X912920Y-17180293D01*
X912920Y-17180293D02*
X912920Y-17132674D01*
X912920Y-17132674D02*
X922443Y-17094579D01*
X922443Y-17094579D02*
X931967Y-17075531D01*
X931967Y-17075531D02*
X941491Y-17066008D01*
X941491Y-17066008D02*
X960539Y-17056484D01*
X1112920Y-17256484D02*
X1112920Y-17123150D01*
X1112920Y-17142198D02*
X1122444Y-17132674D01*
X1122444Y-17132674D02*
X1141491Y-17123150D01*
X1141491Y-17123150D02*
X1170063Y-17123150D01*
X1170063Y-17123150D02*
X1189110Y-17132674D01*
X1189110Y-17132674D02*
X1198634Y-17151722D01*
X1198634Y-17151722D02*
X1198634Y-17256484D01*
X1198634Y-17151722D02*
X1208158Y-17132674D01*
X1208158Y-17132674D02*
X1227205Y-17123150D01*
X1227205Y-17123150D02*
X1255777Y-17123150D01*
X1255777Y-17123150D02*
X1274825Y-17132674D01*
X1274825Y-17132674D02*
X1284348Y-17151722D01*
X1284348Y-17151722D02*
X1284348Y-17256484D01*
X1379586Y-17256484D02*
X1379586Y-17123150D01*
X1379586Y-17142198D02*
X1389110Y-17132674D01*
X1389110Y-17132674D02*
X1408158Y-17123150D01*
X1408158Y-17123150D02*
X1436729Y-17123150D01*
X1436729Y-17123150D02*
X1455777Y-17132674D01*
X1455777Y-17132674D02*
X1465301Y-17151722D01*
X1465301Y-17151722D02*
X1465301Y-17256484D01*
X1465301Y-17151722D02*
X1474824Y-17132674D01*
X1474824Y-17132674D02*
X1493872Y-17123150D01*
X1493872Y-17123150D02*
X1522443Y-17123150D01*
X1522443Y-17123150D02*
X1541491Y-17132674D01*
X1541491Y-17132674D02*
X1551015Y-17151722D01*
X1551015Y-17151722D02*
X1551015Y-17256484D01*
X1941491Y-17046960D02*
X1770063Y-17304103D01*
X2198634Y-17056484D02*
X2217682Y-17056484D01*
X2217682Y-17056484D02*
X2236729Y-17066008D01*
X2236729Y-17066008D02*
X2246253Y-17075531D01*
X2246253Y-17075531D02*
X2255777Y-17094579D01*
X2255777Y-17094579D02*
X2265301Y-17132674D01*
X2265301Y-17132674D02*
X2265301Y-17180293D01*
X2265301Y-17180293D02*
X2255777Y-17218389D01*
X2255777Y-17218389D02*
X2246253Y-17237436D01*
X2246253Y-17237436D02*
X2236729Y-17246960D01*
X2236729Y-17246960D02*
X2217682Y-17256484D01*
X2217682Y-17256484D02*
X2198634Y-17256484D01*
X2198634Y-17256484D02*
X2179587Y-17246960D01*
X2179587Y-17246960D02*
X2170063Y-17237436D01*
X2170063Y-17237436D02*
X2160539Y-17218389D01*
X2160539Y-17218389D02*
X2151015Y-17180293D01*
X2151015Y-17180293D02*
X2151015Y-17132674D01*
X2151015Y-17132674D02*
X2160539Y-17094579D01*
X2160539Y-17094579D02*
X2170063Y-17075531D01*
X2170063Y-17075531D02*
X2179587Y-17066008D01*
X2179587Y-17066008D02*
X2198634Y-17056484D01*
X2351015Y-17237436D02*
X2360539Y-17246960D01*
X2360539Y-17246960D02*
X2351015Y-17256484D01*
X2351015Y-17256484D02*
X2341491Y-17246960D01*
X2341491Y-17246960D02*
X2351015Y-17237436D01*
X2351015Y-17237436D02*
X2351015Y-17256484D01*
X2484348Y-17056484D02*
X2503396Y-17056484D01*
X2503396Y-17056484D02*
X2522444Y-17066008D01*
X2522444Y-17066008D02*
X2531968Y-17075531D01*
X2531968Y-17075531D02*
X2541491Y-17094579D01*
X2541491Y-17094579D02*
X2551015Y-17132674D01*
X2551015Y-17132674D02*
X2551015Y-17180293D01*
X2551015Y-17180293D02*
X2541491Y-17218389D01*
X2541491Y-17218389D02*
X2531968Y-17237436D01*
X2531968Y-17237436D02*
X2522444Y-17246960D01*
X2522444Y-17246960D02*
X2503396Y-17256484D01*
X2503396Y-17256484D02*
X2484348Y-17256484D01*
X2484348Y-17256484D02*
X2465301Y-17246960D01*
X2465301Y-17246960D02*
X2455777Y-17237436D01*
X2455777Y-17237436D02*
X2446253Y-17218389D01*
X2446253Y-17218389D02*
X2436729Y-17180293D01*
X2436729Y-17180293D02*
X2436729Y-17132674D01*
X2436729Y-17132674D02*
X2446253Y-17094579D01*
X2446253Y-17094579D02*
X2455777Y-17075531D01*
X2455777Y-17075531D02*
X2465301Y-17066008D01*
X2465301Y-17066008D02*
X2484348Y-17056484D01*
X2722444Y-17123150D02*
X2722444Y-17256484D01*
X2674825Y-17046960D02*
X2627206Y-17189817D01*
X2627206Y-17189817D02*
X2751015Y-17189817D01*
X2808158Y-17056484D02*
X2931967Y-17056484D01*
X2931967Y-17056484D02*
X2865301Y-17132674D01*
X2865301Y-17132674D02*
X2893872Y-17132674D01*
X2893872Y-17132674D02*
X2912920Y-17142198D01*
X2912920Y-17142198D02*
X2922444Y-17151722D01*
X2922444Y-17151722D02*
X2931967Y-17170770D01*
X2931967Y-17170770D02*
X2931967Y-17218389D01*
X2931967Y-17218389D02*
X2922444Y-17237436D01*
X2922444Y-17237436D02*
X2912920Y-17246960D01*
X2912920Y-17246960D02*
X2893872Y-17256484D01*
X2893872Y-17256484D02*
X2836729Y-17256484D01*
X2836729Y-17256484D02*
X2817682Y-17246960D01*
X2817682Y-17246960D02*
X2808158Y-17237436D01*
X2998634Y-17056484D02*
X3122444Y-17056484D01*
X3122444Y-17056484D02*
X3055777Y-17132674D01*
X3055777Y-17132674D02*
X3084348Y-17132674D01*
X3084348Y-17132674D02*
X3103396Y-17142198D01*
X3103396Y-17142198D02*
X3112920Y-17151722D01*
X3112920Y-17151722D02*
X3122444Y-17170770D01*
X3122444Y-17170770D02*
X3122444Y-17218389D01*
X3122444Y-17218389D02*
X3112920Y-17237436D01*
X3112920Y-17237436D02*
X3103396Y-17246960D01*
X3103396Y-17246960D02*
X3084348Y-17256484D01*
X3084348Y-17256484D02*
X3027206Y-17256484D01*
X3027206Y-17256484D02*
X3008158Y-17246960D01*
X3008158Y-17246960D02*
X2998634Y-17237436D01*
X3198634Y-17056484D02*
X3198634Y-17094579D01*
X3274825Y-17056484D02*
X3274825Y-17094579D01*
X3570063Y-17332674D02*
X3560539Y-17323150D01*
X3560539Y-17323150D02*
X3541491Y-17294579D01*
X3541491Y-17294579D02*
X3531968Y-17275531D01*
X3531968Y-17275531D02*
X3522444Y-17246960D01*
X3522444Y-17246960D02*
X3512920Y-17199341D01*
X3512920Y-17199341D02*
X3512920Y-17161246D01*
X3512920Y-17161246D02*
X3522444Y-17113627D01*
X3522444Y-17113627D02*
X3531968Y-17085055D01*
X3531968Y-17085055D02*
X3541491Y-17066008D01*
X3541491Y-17066008D02*
X3560539Y-17037436D01*
X3560539Y-17037436D02*
X3570063Y-17027912D01*
X3636729Y-17075531D02*
X3646253Y-17066008D01*
X3646253Y-17066008D02*
X3665301Y-17056484D01*
X3665301Y-17056484D02*
X3712920Y-17056484D01*
X3712920Y-17056484D02*
X3731968Y-17066008D01*
X3731968Y-17066008D02*
X3741491Y-17075531D01*
X3741491Y-17075531D02*
X3751015Y-17094579D01*
X3751015Y-17094579D02*
X3751015Y-17113627D01*
X3751015Y-17113627D02*
X3741491Y-17142198D01*
X3741491Y-17142198D02*
X3627206Y-17256484D01*
X3627206Y-17256484D02*
X3751015Y-17256484D01*
X3989110Y-17256484D02*
X3989110Y-17056484D01*
X4074825Y-17256484D02*
X4074825Y-17151722D01*
X4074825Y-17151722D02*
X4065301Y-17132674D01*
X4065301Y-17132674D02*
X4046253Y-17123150D01*
X4046253Y-17123150D02*
X4017682Y-17123150D01*
X4017682Y-17123150D02*
X3998634Y-17132674D01*
X3998634Y-17132674D02*
X3989110Y-17142198D01*
X4198634Y-17256484D02*
X4179587Y-17246960D01*
X4179587Y-17246960D02*
X4170063Y-17237436D01*
X4170063Y-17237436D02*
X4160539Y-17218389D01*
X4160539Y-17218389D02*
X4160539Y-17161246D01*
X4160539Y-17161246D02*
X4170063Y-17142198D01*
X4170063Y-17142198D02*
X4179587Y-17132674D01*
X4179587Y-17132674D02*
X4198634Y-17123150D01*
X4198634Y-17123150D02*
X4227206Y-17123150D01*
X4227206Y-17123150D02*
X4246253Y-17132674D01*
X4246253Y-17132674D02*
X4255777Y-17142198D01*
X4255777Y-17142198D02*
X4265301Y-17161246D01*
X4265301Y-17161246D02*
X4265301Y-17218389D01*
X4265301Y-17218389D02*
X4255777Y-17237436D01*
X4255777Y-17237436D02*
X4246253Y-17246960D01*
X4246253Y-17246960D02*
X4227206Y-17256484D01*
X4227206Y-17256484D02*
X4198634Y-17256484D01*
X4379587Y-17256484D02*
X4360539Y-17246960D01*
X4360539Y-17246960D02*
X4351015Y-17227912D01*
X4351015Y-17227912D02*
X4351015Y-17056484D01*
X4531968Y-17246960D02*
X4512920Y-17256484D01*
X4512920Y-17256484D02*
X4474825Y-17256484D01*
X4474825Y-17256484D02*
X4455777Y-17246960D01*
X4455777Y-17246960D02*
X4446253Y-17227912D01*
X4446253Y-17227912D02*
X4446253Y-17151722D01*
X4446253Y-17151722D02*
X4455777Y-17132674D01*
X4455777Y-17132674D02*
X4474825Y-17123150D01*
X4474825Y-17123150D02*
X4512920Y-17123150D01*
X4512920Y-17123150D02*
X4531968Y-17132674D01*
X4531968Y-17132674D02*
X4541492Y-17151722D01*
X4541492Y-17151722D02*
X4541492Y-17170770D01*
X4541492Y-17170770D02*
X4446253Y-17189817D01*
X4617682Y-17246960D02*
X4636730Y-17256484D01*
X4636730Y-17256484D02*
X4674825Y-17256484D01*
X4674825Y-17256484D02*
X4693873Y-17246960D01*
X4693873Y-17246960D02*
X4703396Y-17227912D01*
X4703396Y-17227912D02*
X4703396Y-17218389D01*
X4703396Y-17218389D02*
X4693873Y-17199341D01*
X4693873Y-17199341D02*
X4674825Y-17189817D01*
X4674825Y-17189817D02*
X4646253Y-17189817D01*
X4646253Y-17189817D02*
X4627206Y-17180293D01*
X4627206Y-17180293D02*
X4617682Y-17161246D01*
X4617682Y-17161246D02*
X4617682Y-17151722D01*
X4617682Y-17151722D02*
X4627206Y-17132674D01*
X4627206Y-17132674D02*
X4646253Y-17123150D01*
X4646253Y-17123150D02*
X4674825Y-17123150D01*
X4674825Y-17123150D02*
X4693873Y-17132674D01*
X4770063Y-17332674D02*
X4779587Y-17323150D01*
X4779587Y-17323150D02*
X4798634Y-17294579D01*
X4798634Y-17294579D02*
X4808158Y-17275531D01*
X4808158Y-17275531D02*
X4817682Y-17246960D01*
X4817682Y-17246960D02*
X4827206Y-17199341D01*
X4827206Y-17199341D02*
X4827206Y-17161246D01*
X4827206Y-17161246D02*
X4817682Y-17113627D01*
X4817682Y-17113627D02*
X4808158Y-17085055D01*
X4808158Y-17085055D02*
X4798634Y-17066008D01*
X4798634Y-17066008D02*
X4779587Y-17037436D01*
X4779587Y-17037436D02*
X4770063Y-17027912D01*
D17*
X-165000Y-17349000D02*
X-5000Y-17509000D01*
X-5000Y-17349000D02*
X-165000Y-17509000D01*
X-85000Y-17349000D02*
X-85000Y-17509000D01*
X-165000Y-17429000D02*
X-5000Y-17429000D01*
D11*
X360539Y-17520484D02*
X246253Y-17520484D01*
X303396Y-17520484D02*
X303396Y-17320484D01*
X303396Y-17320484D02*
X284348Y-17349055D01*
X284348Y-17349055D02*
X265301Y-17368103D01*
X265301Y-17368103D02*
X246253Y-17377627D01*
X446253Y-17501436D02*
X455777Y-17510960D01*
X455777Y-17510960D02*
X446253Y-17520484D01*
X446253Y-17520484D02*
X436729Y-17510960D01*
X436729Y-17510960D02*
X446253Y-17501436D01*
X446253Y-17501436D02*
X446253Y-17520484D01*
X627205Y-17320484D02*
X589110Y-17320484D01*
X589110Y-17320484D02*
X570063Y-17330008D01*
X570063Y-17330008D02*
X560539Y-17339531D01*
X560539Y-17339531D02*
X541491Y-17368103D01*
X541491Y-17368103D02*
X531967Y-17406198D01*
X531967Y-17406198D02*
X531967Y-17482389D01*
X531967Y-17482389D02*
X541491Y-17501436D01*
X541491Y-17501436D02*
X551015Y-17510960D01*
X551015Y-17510960D02*
X570063Y-17520484D01*
X570063Y-17520484D02*
X608158Y-17520484D01*
X608158Y-17520484D02*
X627205Y-17510960D01*
X627205Y-17510960D02*
X636729Y-17501436D01*
X636729Y-17501436D02*
X646253Y-17482389D01*
X646253Y-17482389D02*
X646253Y-17434770D01*
X646253Y-17434770D02*
X636729Y-17415722D01*
X636729Y-17415722D02*
X627205Y-17406198D01*
X627205Y-17406198D02*
X608158Y-17396674D01*
X608158Y-17396674D02*
X570063Y-17396674D01*
X570063Y-17396674D02*
X551015Y-17406198D01*
X551015Y-17406198D02*
X541491Y-17415722D01*
X541491Y-17415722D02*
X531967Y-17434770D01*
X770062Y-17320484D02*
X789110Y-17320484D01*
X789110Y-17320484D02*
X808158Y-17330008D01*
X808158Y-17330008D02*
X817682Y-17339531D01*
X817682Y-17339531D02*
X827205Y-17358579D01*
X827205Y-17358579D02*
X836729Y-17396674D01*
X836729Y-17396674D02*
X836729Y-17444293D01*
X836729Y-17444293D02*
X827205Y-17482389D01*
X827205Y-17482389D02*
X817682Y-17501436D01*
X817682Y-17501436D02*
X808158Y-17510960D01*
X808158Y-17510960D02*
X789110Y-17520484D01*
X789110Y-17520484D02*
X770062Y-17520484D01*
X770062Y-17520484D02*
X751015Y-17510960D01*
X751015Y-17510960D02*
X741491Y-17501436D01*
X741491Y-17501436D02*
X731967Y-17482389D01*
X731967Y-17482389D02*
X722443Y-17444293D01*
X722443Y-17444293D02*
X722443Y-17396674D01*
X722443Y-17396674D02*
X731967Y-17358579D01*
X731967Y-17358579D02*
X741491Y-17339531D01*
X741491Y-17339531D02*
X751015Y-17330008D01*
X751015Y-17330008D02*
X770062Y-17320484D01*
X960539Y-17320484D02*
X979586Y-17320484D01*
X979586Y-17320484D02*
X998634Y-17330008D01*
X998634Y-17330008D02*
X1008158Y-17339531D01*
X1008158Y-17339531D02*
X1017682Y-17358579D01*
X1017682Y-17358579D02*
X1027205Y-17396674D01*
X1027205Y-17396674D02*
X1027205Y-17444293D01*
X1027205Y-17444293D02*
X1017682Y-17482389D01*
X1017682Y-17482389D02*
X1008158Y-17501436D01*
X1008158Y-17501436D02*
X998634Y-17510960D01*
X998634Y-17510960D02*
X979586Y-17520484D01*
X979586Y-17520484D02*
X960539Y-17520484D01*
X960539Y-17520484D02*
X941491Y-17510960D01*
X941491Y-17510960D02*
X931967Y-17501436D01*
X931967Y-17501436D02*
X922443Y-17482389D01*
X922443Y-17482389D02*
X912920Y-17444293D01*
X912920Y-17444293D02*
X912920Y-17396674D01*
X912920Y-17396674D02*
X922443Y-17358579D01*
X922443Y-17358579D02*
X931967Y-17339531D01*
X931967Y-17339531D02*
X941491Y-17330008D01*
X941491Y-17330008D02*
X960539Y-17320484D01*
X1112920Y-17520484D02*
X1112920Y-17387150D01*
X1112920Y-17406198D02*
X1122444Y-17396674D01*
X1122444Y-17396674D02*
X1141491Y-17387150D01*
X1141491Y-17387150D02*
X1170063Y-17387150D01*
X1170063Y-17387150D02*
X1189110Y-17396674D01*
X1189110Y-17396674D02*
X1198634Y-17415722D01*
X1198634Y-17415722D02*
X1198634Y-17520484D01*
X1198634Y-17415722D02*
X1208158Y-17396674D01*
X1208158Y-17396674D02*
X1227205Y-17387150D01*
X1227205Y-17387150D02*
X1255777Y-17387150D01*
X1255777Y-17387150D02*
X1274825Y-17396674D01*
X1274825Y-17396674D02*
X1284348Y-17415722D01*
X1284348Y-17415722D02*
X1284348Y-17520484D01*
X1379586Y-17520484D02*
X1379586Y-17387150D01*
X1379586Y-17406198D02*
X1389110Y-17396674D01*
X1389110Y-17396674D02*
X1408158Y-17387150D01*
X1408158Y-17387150D02*
X1436729Y-17387150D01*
X1436729Y-17387150D02*
X1455777Y-17396674D01*
X1455777Y-17396674D02*
X1465301Y-17415722D01*
X1465301Y-17415722D02*
X1465301Y-17520484D01*
X1465301Y-17415722D02*
X1474824Y-17396674D01*
X1474824Y-17396674D02*
X1493872Y-17387150D01*
X1493872Y-17387150D02*
X1522443Y-17387150D01*
X1522443Y-17387150D02*
X1541491Y-17396674D01*
X1541491Y-17396674D02*
X1551015Y-17415722D01*
X1551015Y-17415722D02*
X1551015Y-17520484D01*
X1941491Y-17310960D02*
X1770063Y-17568103D01*
X2198634Y-17320484D02*
X2217682Y-17320484D01*
X2217682Y-17320484D02*
X2236729Y-17330008D01*
X2236729Y-17330008D02*
X2246253Y-17339531D01*
X2246253Y-17339531D02*
X2255777Y-17358579D01*
X2255777Y-17358579D02*
X2265301Y-17396674D01*
X2265301Y-17396674D02*
X2265301Y-17444293D01*
X2265301Y-17444293D02*
X2255777Y-17482389D01*
X2255777Y-17482389D02*
X2246253Y-17501436D01*
X2246253Y-17501436D02*
X2236729Y-17510960D01*
X2236729Y-17510960D02*
X2217682Y-17520484D01*
X2217682Y-17520484D02*
X2198634Y-17520484D01*
X2198634Y-17520484D02*
X2179587Y-17510960D01*
X2179587Y-17510960D02*
X2170063Y-17501436D01*
X2170063Y-17501436D02*
X2160539Y-17482389D01*
X2160539Y-17482389D02*
X2151015Y-17444293D01*
X2151015Y-17444293D02*
X2151015Y-17396674D01*
X2151015Y-17396674D02*
X2160539Y-17358579D01*
X2160539Y-17358579D02*
X2170063Y-17339531D01*
X2170063Y-17339531D02*
X2179587Y-17330008D01*
X2179587Y-17330008D02*
X2198634Y-17320484D01*
X2351015Y-17501436D02*
X2360539Y-17510960D01*
X2360539Y-17510960D02*
X2351015Y-17520484D01*
X2351015Y-17520484D02*
X2341491Y-17510960D01*
X2341491Y-17510960D02*
X2351015Y-17501436D01*
X2351015Y-17501436D02*
X2351015Y-17520484D01*
X2484348Y-17320484D02*
X2503396Y-17320484D01*
X2503396Y-17320484D02*
X2522444Y-17330008D01*
X2522444Y-17330008D02*
X2531968Y-17339531D01*
X2531968Y-17339531D02*
X2541491Y-17358579D01*
X2541491Y-17358579D02*
X2551015Y-17396674D01*
X2551015Y-17396674D02*
X2551015Y-17444293D01*
X2551015Y-17444293D02*
X2541491Y-17482389D01*
X2541491Y-17482389D02*
X2531968Y-17501436D01*
X2531968Y-17501436D02*
X2522444Y-17510960D01*
X2522444Y-17510960D02*
X2503396Y-17520484D01*
X2503396Y-17520484D02*
X2484348Y-17520484D01*
X2484348Y-17520484D02*
X2465301Y-17510960D01*
X2465301Y-17510960D02*
X2455777Y-17501436D01*
X2455777Y-17501436D02*
X2446253Y-17482389D01*
X2446253Y-17482389D02*
X2436729Y-17444293D01*
X2436729Y-17444293D02*
X2436729Y-17396674D01*
X2436729Y-17396674D02*
X2446253Y-17358579D01*
X2446253Y-17358579D02*
X2455777Y-17339531D01*
X2455777Y-17339531D02*
X2465301Y-17330008D01*
X2465301Y-17330008D02*
X2484348Y-17320484D01*
X2722444Y-17320484D02*
X2684348Y-17320484D01*
X2684348Y-17320484D02*
X2665301Y-17330008D01*
X2665301Y-17330008D02*
X2655777Y-17339531D01*
X2655777Y-17339531D02*
X2636729Y-17368103D01*
X2636729Y-17368103D02*
X2627206Y-17406198D01*
X2627206Y-17406198D02*
X2627206Y-17482389D01*
X2627206Y-17482389D02*
X2636729Y-17501436D01*
X2636729Y-17501436D02*
X2646253Y-17510960D01*
X2646253Y-17510960D02*
X2665301Y-17520484D01*
X2665301Y-17520484D02*
X2703396Y-17520484D01*
X2703396Y-17520484D02*
X2722444Y-17510960D01*
X2722444Y-17510960D02*
X2731968Y-17501436D01*
X2731968Y-17501436D02*
X2741491Y-17482389D01*
X2741491Y-17482389D02*
X2741491Y-17434770D01*
X2741491Y-17434770D02*
X2731968Y-17415722D01*
X2731968Y-17415722D02*
X2722444Y-17406198D01*
X2722444Y-17406198D02*
X2703396Y-17396674D01*
X2703396Y-17396674D02*
X2665301Y-17396674D01*
X2665301Y-17396674D02*
X2646253Y-17406198D01*
X2646253Y-17406198D02*
X2636729Y-17415722D01*
X2636729Y-17415722D02*
X2627206Y-17434770D01*
X2808158Y-17320484D02*
X2931967Y-17320484D01*
X2931967Y-17320484D02*
X2865301Y-17396674D01*
X2865301Y-17396674D02*
X2893872Y-17396674D01*
X2893872Y-17396674D02*
X2912920Y-17406198D01*
X2912920Y-17406198D02*
X2922444Y-17415722D01*
X2922444Y-17415722D02*
X2931967Y-17434770D01*
X2931967Y-17434770D02*
X2931967Y-17482389D01*
X2931967Y-17482389D02*
X2922444Y-17501436D01*
X2922444Y-17501436D02*
X2912920Y-17510960D01*
X2912920Y-17510960D02*
X2893872Y-17520484D01*
X2893872Y-17520484D02*
X2836729Y-17520484D01*
X2836729Y-17520484D02*
X2817682Y-17510960D01*
X2817682Y-17510960D02*
X2808158Y-17501436D01*
X3055777Y-17320484D02*
X3074825Y-17320484D01*
X3074825Y-17320484D02*
X3093872Y-17330008D01*
X3093872Y-17330008D02*
X3103396Y-17339531D01*
X3103396Y-17339531D02*
X3112920Y-17358579D01*
X3112920Y-17358579D02*
X3122444Y-17396674D01*
X3122444Y-17396674D02*
X3122444Y-17444293D01*
X3122444Y-17444293D02*
X3112920Y-17482389D01*
X3112920Y-17482389D02*
X3103396Y-17501436D01*
X3103396Y-17501436D02*
X3093872Y-17510960D01*
X3093872Y-17510960D02*
X3074825Y-17520484D01*
X3074825Y-17520484D02*
X3055777Y-17520484D01*
X3055777Y-17520484D02*
X3036729Y-17510960D01*
X3036729Y-17510960D02*
X3027206Y-17501436D01*
X3027206Y-17501436D02*
X3017682Y-17482389D01*
X3017682Y-17482389D02*
X3008158Y-17444293D01*
X3008158Y-17444293D02*
X3008158Y-17396674D01*
X3008158Y-17396674D02*
X3017682Y-17358579D01*
X3017682Y-17358579D02*
X3027206Y-17339531D01*
X3027206Y-17339531D02*
X3036729Y-17330008D01*
X3036729Y-17330008D02*
X3055777Y-17320484D01*
X3198634Y-17320484D02*
X3198634Y-17358579D01*
X3274825Y-17320484D02*
X3274825Y-17358579D01*
X3570063Y-17596674D02*
X3560539Y-17587150D01*
X3560539Y-17587150D02*
X3541491Y-17558579D01*
X3541491Y-17558579D02*
X3531968Y-17539531D01*
X3531968Y-17539531D02*
X3522444Y-17510960D01*
X3522444Y-17510960D02*
X3512920Y-17463341D01*
X3512920Y-17463341D02*
X3512920Y-17425246D01*
X3512920Y-17425246D02*
X3522444Y-17377627D01*
X3522444Y-17377627D02*
X3531968Y-17349055D01*
X3531968Y-17349055D02*
X3541491Y-17330008D01*
X3541491Y-17330008D02*
X3560539Y-17301436D01*
X3560539Y-17301436D02*
X3570063Y-17291912D01*
X3731968Y-17387150D02*
X3731968Y-17520484D01*
X3684348Y-17310960D02*
X3636729Y-17453817D01*
X3636729Y-17453817D02*
X3760539Y-17453817D01*
X3989110Y-17520484D02*
X3989110Y-17320484D01*
X4074825Y-17520484D02*
X4074825Y-17415722D01*
X4074825Y-17415722D02*
X4065301Y-17396674D01*
X4065301Y-17396674D02*
X4046253Y-17387150D01*
X4046253Y-17387150D02*
X4017682Y-17387150D01*
X4017682Y-17387150D02*
X3998634Y-17396674D01*
X3998634Y-17396674D02*
X3989110Y-17406198D01*
X4198634Y-17520484D02*
X4179587Y-17510960D01*
X4179587Y-17510960D02*
X4170063Y-17501436D01*
X4170063Y-17501436D02*
X4160539Y-17482389D01*
X4160539Y-17482389D02*
X4160539Y-17425246D01*
X4160539Y-17425246D02*
X4170063Y-17406198D01*
X4170063Y-17406198D02*
X4179587Y-17396674D01*
X4179587Y-17396674D02*
X4198634Y-17387150D01*
X4198634Y-17387150D02*
X4227206Y-17387150D01*
X4227206Y-17387150D02*
X4246253Y-17396674D01*
X4246253Y-17396674D02*
X4255777Y-17406198D01*
X4255777Y-17406198D02*
X4265301Y-17425246D01*
X4265301Y-17425246D02*
X4265301Y-17482389D01*
X4265301Y-17482389D02*
X4255777Y-17501436D01*
X4255777Y-17501436D02*
X4246253Y-17510960D01*
X4246253Y-17510960D02*
X4227206Y-17520484D01*
X4227206Y-17520484D02*
X4198634Y-17520484D01*
X4379587Y-17520484D02*
X4360539Y-17510960D01*
X4360539Y-17510960D02*
X4351015Y-17491912D01*
X4351015Y-17491912D02*
X4351015Y-17320484D01*
X4531968Y-17510960D02*
X4512920Y-17520484D01*
X4512920Y-17520484D02*
X4474825Y-17520484D01*
X4474825Y-17520484D02*
X4455777Y-17510960D01*
X4455777Y-17510960D02*
X4446253Y-17491912D01*
X4446253Y-17491912D02*
X4446253Y-17415722D01*
X4446253Y-17415722D02*
X4455777Y-17396674D01*
X4455777Y-17396674D02*
X4474825Y-17387150D01*
X4474825Y-17387150D02*
X4512920Y-17387150D01*
X4512920Y-17387150D02*
X4531968Y-17396674D01*
X4531968Y-17396674D02*
X4541492Y-17415722D01*
X4541492Y-17415722D02*
X4541492Y-17434770D01*
X4541492Y-17434770D02*
X4446253Y-17453817D01*
X4617682Y-17510960D02*
X4636730Y-17520484D01*
X4636730Y-17520484D02*
X4674825Y-17520484D01*
X4674825Y-17520484D02*
X4693873Y-17510960D01*
X4693873Y-17510960D02*
X4703396Y-17491912D01*
X4703396Y-17491912D02*
X4703396Y-17482389D01*
X4703396Y-17482389D02*
X4693873Y-17463341D01*
X4693873Y-17463341D02*
X4674825Y-17453817D01*
X4674825Y-17453817D02*
X4646253Y-17453817D01*
X4646253Y-17453817D02*
X4627206Y-17444293D01*
X4627206Y-17444293D02*
X4617682Y-17425246D01*
X4617682Y-17425246D02*
X4617682Y-17415722D01*
X4617682Y-17415722D02*
X4627206Y-17396674D01*
X4627206Y-17396674D02*
X4646253Y-17387150D01*
X4646253Y-17387150D02*
X4674825Y-17387150D01*
X4674825Y-17387150D02*
X4693873Y-17396674D01*
X4770063Y-17596674D02*
X4779587Y-17587150D01*
X4779587Y-17587150D02*
X4798634Y-17558579D01*
X4798634Y-17558579D02*
X4808158Y-17539531D01*
X4808158Y-17539531D02*
X4817682Y-17510960D01*
X4817682Y-17510960D02*
X4827206Y-17463341D01*
X4827206Y-17463341D02*
X4827206Y-17425246D01*
X4827206Y-17425246D02*
X4817682Y-17377627D01*
X4817682Y-17377627D02*
X4808158Y-17349055D01*
X4808158Y-17349055D02*
X4798634Y-17330008D01*
X4798634Y-17330008D02*
X4779587Y-17301436D01*
X4779587Y-17301436D02*
X4770063Y-17291912D01*
D18*
X-170000Y-17626500D02*
X-5000Y-17791500D01*
X-5000Y-17626500D02*
X-170000Y-17791500D01*
X-29163Y-17767337D02*
X-29163Y-17650663D01*
X-145837Y-17650663D01*
X-145837Y-17767337D01*
X-29163Y-17767337D01*
D11*
X360539Y-17800484D02*
X246253Y-17800484D01*
X303396Y-17800484D02*
X303396Y-17600484D01*
X303396Y-17600484D02*
X284348Y-17629055D01*
X284348Y-17629055D02*
X265301Y-17648103D01*
X265301Y-17648103D02*
X246253Y-17657627D01*
X446253Y-17781436D02*
X455777Y-17790960D01*
X455777Y-17790960D02*
X446253Y-17800484D01*
X446253Y-17800484D02*
X436729Y-17790960D01*
X436729Y-17790960D02*
X446253Y-17781436D01*
X446253Y-17781436D02*
X446253Y-17800484D01*
X627205Y-17600484D02*
X589110Y-17600484D01*
X589110Y-17600484D02*
X570063Y-17610008D01*
X570063Y-17610008D02*
X560539Y-17619531D01*
X560539Y-17619531D02*
X541491Y-17648103D01*
X541491Y-17648103D02*
X531967Y-17686198D01*
X531967Y-17686198D02*
X531967Y-17762389D01*
X531967Y-17762389D02*
X541491Y-17781436D01*
X541491Y-17781436D02*
X551015Y-17790960D01*
X551015Y-17790960D02*
X570063Y-17800484D01*
X570063Y-17800484D02*
X608158Y-17800484D01*
X608158Y-17800484D02*
X627205Y-17790960D01*
X627205Y-17790960D02*
X636729Y-17781436D01*
X636729Y-17781436D02*
X646253Y-17762389D01*
X646253Y-17762389D02*
X646253Y-17714770D01*
X646253Y-17714770D02*
X636729Y-17695722D01*
X636729Y-17695722D02*
X627205Y-17686198D01*
X627205Y-17686198D02*
X608158Y-17676674D01*
X608158Y-17676674D02*
X570063Y-17676674D01*
X570063Y-17676674D02*
X551015Y-17686198D01*
X551015Y-17686198D02*
X541491Y-17695722D01*
X541491Y-17695722D02*
X531967Y-17714770D01*
X827205Y-17600484D02*
X731967Y-17600484D01*
X731967Y-17600484D02*
X722443Y-17695722D01*
X722443Y-17695722D02*
X731967Y-17686198D01*
X731967Y-17686198D02*
X751015Y-17676674D01*
X751015Y-17676674D02*
X798634Y-17676674D01*
X798634Y-17676674D02*
X817682Y-17686198D01*
X817682Y-17686198D02*
X827205Y-17695722D01*
X827205Y-17695722D02*
X836729Y-17714770D01*
X836729Y-17714770D02*
X836729Y-17762389D01*
X836729Y-17762389D02*
X827205Y-17781436D01*
X827205Y-17781436D02*
X817682Y-17790960D01*
X817682Y-17790960D02*
X798634Y-17800484D01*
X798634Y-17800484D02*
X751015Y-17800484D01*
X751015Y-17800484D02*
X731967Y-17790960D01*
X731967Y-17790960D02*
X722443Y-17781436D01*
X960539Y-17600484D02*
X979586Y-17600484D01*
X979586Y-17600484D02*
X998634Y-17610008D01*
X998634Y-17610008D02*
X1008158Y-17619531D01*
X1008158Y-17619531D02*
X1017682Y-17638579D01*
X1017682Y-17638579D02*
X1027205Y-17676674D01*
X1027205Y-17676674D02*
X1027205Y-17724293D01*
X1027205Y-17724293D02*
X1017682Y-17762389D01*
X1017682Y-17762389D02*
X1008158Y-17781436D01*
X1008158Y-17781436D02*
X998634Y-17790960D01*
X998634Y-17790960D02*
X979586Y-17800484D01*
X979586Y-17800484D02*
X960539Y-17800484D01*
X960539Y-17800484D02*
X941491Y-17790960D01*
X941491Y-17790960D02*
X931967Y-17781436D01*
X931967Y-17781436D02*
X922443Y-17762389D01*
X922443Y-17762389D02*
X912920Y-17724293D01*
X912920Y-17724293D02*
X912920Y-17676674D01*
X912920Y-17676674D02*
X922443Y-17638579D01*
X922443Y-17638579D02*
X931967Y-17619531D01*
X931967Y-17619531D02*
X941491Y-17610008D01*
X941491Y-17610008D02*
X960539Y-17600484D01*
X1112920Y-17800484D02*
X1112920Y-17667150D01*
X1112920Y-17686198D02*
X1122444Y-17676674D01*
X1122444Y-17676674D02*
X1141491Y-17667150D01*
X1141491Y-17667150D02*
X1170063Y-17667150D01*
X1170063Y-17667150D02*
X1189110Y-17676674D01*
X1189110Y-17676674D02*
X1198634Y-17695722D01*
X1198634Y-17695722D02*
X1198634Y-17800484D01*
X1198634Y-17695722D02*
X1208158Y-17676674D01*
X1208158Y-17676674D02*
X1227205Y-17667150D01*
X1227205Y-17667150D02*
X1255777Y-17667150D01*
X1255777Y-17667150D02*
X1274825Y-17676674D01*
X1274825Y-17676674D02*
X1284348Y-17695722D01*
X1284348Y-17695722D02*
X1284348Y-17800484D01*
X1379586Y-17800484D02*
X1379586Y-17667150D01*
X1379586Y-17686198D02*
X1389110Y-17676674D01*
X1389110Y-17676674D02*
X1408158Y-17667150D01*
X1408158Y-17667150D02*
X1436729Y-17667150D01*
X1436729Y-17667150D02*
X1455777Y-17676674D01*
X1455777Y-17676674D02*
X1465301Y-17695722D01*
X1465301Y-17695722D02*
X1465301Y-17800484D01*
X1465301Y-17695722D02*
X1474824Y-17676674D01*
X1474824Y-17676674D02*
X1493872Y-17667150D01*
X1493872Y-17667150D02*
X1522443Y-17667150D01*
X1522443Y-17667150D02*
X1541491Y-17676674D01*
X1541491Y-17676674D02*
X1551015Y-17695722D01*
X1551015Y-17695722D02*
X1551015Y-17800484D01*
X1941491Y-17590960D02*
X1770063Y-17848103D01*
X2198634Y-17600484D02*
X2217682Y-17600484D01*
X2217682Y-17600484D02*
X2236729Y-17610008D01*
X2236729Y-17610008D02*
X2246253Y-17619531D01*
X2246253Y-17619531D02*
X2255777Y-17638579D01*
X2255777Y-17638579D02*
X2265301Y-17676674D01*
X2265301Y-17676674D02*
X2265301Y-17724293D01*
X2265301Y-17724293D02*
X2255777Y-17762389D01*
X2255777Y-17762389D02*
X2246253Y-17781436D01*
X2246253Y-17781436D02*
X2236729Y-17790960D01*
X2236729Y-17790960D02*
X2217682Y-17800484D01*
X2217682Y-17800484D02*
X2198634Y-17800484D01*
X2198634Y-17800484D02*
X2179587Y-17790960D01*
X2179587Y-17790960D02*
X2170063Y-17781436D01*
X2170063Y-17781436D02*
X2160539Y-17762389D01*
X2160539Y-17762389D02*
X2151015Y-17724293D01*
X2151015Y-17724293D02*
X2151015Y-17676674D01*
X2151015Y-17676674D02*
X2160539Y-17638579D01*
X2160539Y-17638579D02*
X2170063Y-17619531D01*
X2170063Y-17619531D02*
X2179587Y-17610008D01*
X2179587Y-17610008D02*
X2198634Y-17600484D01*
X2351015Y-17781436D02*
X2360539Y-17790960D01*
X2360539Y-17790960D02*
X2351015Y-17800484D01*
X2351015Y-17800484D02*
X2341491Y-17790960D01*
X2341491Y-17790960D02*
X2351015Y-17781436D01*
X2351015Y-17781436D02*
X2351015Y-17800484D01*
X2484348Y-17600484D02*
X2503396Y-17600484D01*
X2503396Y-17600484D02*
X2522444Y-17610008D01*
X2522444Y-17610008D02*
X2531968Y-17619531D01*
X2531968Y-17619531D02*
X2541491Y-17638579D01*
X2541491Y-17638579D02*
X2551015Y-17676674D01*
X2551015Y-17676674D02*
X2551015Y-17724293D01*
X2551015Y-17724293D02*
X2541491Y-17762389D01*
X2541491Y-17762389D02*
X2531968Y-17781436D01*
X2531968Y-17781436D02*
X2522444Y-17790960D01*
X2522444Y-17790960D02*
X2503396Y-17800484D01*
X2503396Y-17800484D02*
X2484348Y-17800484D01*
X2484348Y-17800484D02*
X2465301Y-17790960D01*
X2465301Y-17790960D02*
X2455777Y-17781436D01*
X2455777Y-17781436D02*
X2446253Y-17762389D01*
X2446253Y-17762389D02*
X2436729Y-17724293D01*
X2436729Y-17724293D02*
X2436729Y-17676674D01*
X2436729Y-17676674D02*
X2446253Y-17638579D01*
X2446253Y-17638579D02*
X2455777Y-17619531D01*
X2455777Y-17619531D02*
X2465301Y-17610008D01*
X2465301Y-17610008D02*
X2484348Y-17600484D01*
X2722444Y-17600484D02*
X2684348Y-17600484D01*
X2684348Y-17600484D02*
X2665301Y-17610008D01*
X2665301Y-17610008D02*
X2655777Y-17619531D01*
X2655777Y-17619531D02*
X2636729Y-17648103D01*
X2636729Y-17648103D02*
X2627206Y-17686198D01*
X2627206Y-17686198D02*
X2627206Y-17762389D01*
X2627206Y-17762389D02*
X2636729Y-17781436D01*
X2636729Y-17781436D02*
X2646253Y-17790960D01*
X2646253Y-17790960D02*
X2665301Y-17800484D01*
X2665301Y-17800484D02*
X2703396Y-17800484D01*
X2703396Y-17800484D02*
X2722444Y-17790960D01*
X2722444Y-17790960D02*
X2731968Y-17781436D01*
X2731968Y-17781436D02*
X2741491Y-17762389D01*
X2741491Y-17762389D02*
X2741491Y-17714770D01*
X2741491Y-17714770D02*
X2731968Y-17695722D01*
X2731968Y-17695722D02*
X2722444Y-17686198D01*
X2722444Y-17686198D02*
X2703396Y-17676674D01*
X2703396Y-17676674D02*
X2665301Y-17676674D01*
X2665301Y-17676674D02*
X2646253Y-17686198D01*
X2646253Y-17686198D02*
X2636729Y-17695722D01*
X2636729Y-17695722D02*
X2627206Y-17714770D01*
X2922444Y-17600484D02*
X2827206Y-17600484D01*
X2827206Y-17600484D02*
X2817682Y-17695722D01*
X2817682Y-17695722D02*
X2827206Y-17686198D01*
X2827206Y-17686198D02*
X2846253Y-17676674D01*
X2846253Y-17676674D02*
X2893872Y-17676674D01*
X2893872Y-17676674D02*
X2912920Y-17686198D01*
X2912920Y-17686198D02*
X2922444Y-17695722D01*
X2922444Y-17695722D02*
X2931967Y-17714770D01*
X2931967Y-17714770D02*
X2931967Y-17762389D01*
X2931967Y-17762389D02*
X2922444Y-17781436D01*
X2922444Y-17781436D02*
X2912920Y-17790960D01*
X2912920Y-17790960D02*
X2893872Y-17800484D01*
X2893872Y-17800484D02*
X2846253Y-17800484D01*
X2846253Y-17800484D02*
X2827206Y-17790960D01*
X2827206Y-17790960D02*
X2817682Y-17781436D01*
X3055777Y-17600484D02*
X3074825Y-17600484D01*
X3074825Y-17600484D02*
X3093872Y-17610008D01*
X3093872Y-17610008D02*
X3103396Y-17619531D01*
X3103396Y-17619531D02*
X3112920Y-17638579D01*
X3112920Y-17638579D02*
X3122444Y-17676674D01*
X3122444Y-17676674D02*
X3122444Y-17724293D01*
X3122444Y-17724293D02*
X3112920Y-17762389D01*
X3112920Y-17762389D02*
X3103396Y-17781436D01*
X3103396Y-17781436D02*
X3093872Y-17790960D01*
X3093872Y-17790960D02*
X3074825Y-17800484D01*
X3074825Y-17800484D02*
X3055777Y-17800484D01*
X3055777Y-17800484D02*
X3036729Y-17790960D01*
X3036729Y-17790960D02*
X3027206Y-17781436D01*
X3027206Y-17781436D02*
X3017682Y-17762389D01*
X3017682Y-17762389D02*
X3008158Y-17724293D01*
X3008158Y-17724293D02*
X3008158Y-17676674D01*
X3008158Y-17676674D02*
X3017682Y-17638579D01*
X3017682Y-17638579D02*
X3027206Y-17619531D01*
X3027206Y-17619531D02*
X3036729Y-17610008D01*
X3036729Y-17610008D02*
X3055777Y-17600484D01*
X3198634Y-17600484D02*
X3198634Y-17638579D01*
X3274825Y-17600484D02*
X3274825Y-17638579D01*
X3570063Y-17876674D02*
X3560539Y-17867150D01*
X3560539Y-17867150D02*
X3541491Y-17838579D01*
X3541491Y-17838579D02*
X3531968Y-17819531D01*
X3531968Y-17819531D02*
X3522444Y-17790960D01*
X3522444Y-17790960D02*
X3512920Y-17743341D01*
X3512920Y-17743341D02*
X3512920Y-17705246D01*
X3512920Y-17705246D02*
X3522444Y-17657627D01*
X3522444Y-17657627D02*
X3531968Y-17629055D01*
X3531968Y-17629055D02*
X3541491Y-17610008D01*
X3541491Y-17610008D02*
X3560539Y-17581436D01*
X3560539Y-17581436D02*
X3570063Y-17571912D01*
X3741491Y-17600484D02*
X3646253Y-17600484D01*
X3646253Y-17600484D02*
X3636729Y-17695722D01*
X3636729Y-17695722D02*
X3646253Y-17686198D01*
X3646253Y-17686198D02*
X3665301Y-17676674D01*
X3665301Y-17676674D02*
X3712920Y-17676674D01*
X3712920Y-17676674D02*
X3731968Y-17686198D01*
X3731968Y-17686198D02*
X3741491Y-17695722D01*
X3741491Y-17695722D02*
X3751015Y-17714770D01*
X3751015Y-17714770D02*
X3751015Y-17762389D01*
X3751015Y-17762389D02*
X3741491Y-17781436D01*
X3741491Y-17781436D02*
X3731968Y-17790960D01*
X3731968Y-17790960D02*
X3712920Y-17800484D01*
X3712920Y-17800484D02*
X3665301Y-17800484D01*
X3665301Y-17800484D02*
X3646253Y-17790960D01*
X3646253Y-17790960D02*
X3636729Y-17781436D01*
X3989110Y-17800484D02*
X3989110Y-17600484D01*
X4074825Y-17800484D02*
X4074825Y-17695722D01*
X4074825Y-17695722D02*
X4065301Y-17676674D01*
X4065301Y-17676674D02*
X4046253Y-17667150D01*
X4046253Y-17667150D02*
X4017682Y-17667150D01*
X4017682Y-17667150D02*
X3998634Y-17676674D01*
X3998634Y-17676674D02*
X3989110Y-17686198D01*
X4198634Y-17800484D02*
X4179587Y-17790960D01*
X4179587Y-17790960D02*
X4170063Y-17781436D01*
X4170063Y-17781436D02*
X4160539Y-17762389D01*
X4160539Y-17762389D02*
X4160539Y-17705246D01*
X4160539Y-17705246D02*
X4170063Y-17686198D01*
X4170063Y-17686198D02*
X4179587Y-17676674D01*
X4179587Y-17676674D02*
X4198634Y-17667150D01*
X4198634Y-17667150D02*
X4227206Y-17667150D01*
X4227206Y-17667150D02*
X4246253Y-17676674D01*
X4246253Y-17676674D02*
X4255777Y-17686198D01*
X4255777Y-17686198D02*
X4265301Y-17705246D01*
X4265301Y-17705246D02*
X4265301Y-17762389D01*
X4265301Y-17762389D02*
X4255777Y-17781436D01*
X4255777Y-17781436D02*
X4246253Y-17790960D01*
X4246253Y-17790960D02*
X4227206Y-17800484D01*
X4227206Y-17800484D02*
X4198634Y-17800484D01*
X4379587Y-17800484D02*
X4360539Y-17790960D01*
X4360539Y-17790960D02*
X4351015Y-17771912D01*
X4351015Y-17771912D02*
X4351015Y-17600484D01*
X4531968Y-17790960D02*
X4512920Y-17800484D01*
X4512920Y-17800484D02*
X4474825Y-17800484D01*
X4474825Y-17800484D02*
X4455777Y-17790960D01*
X4455777Y-17790960D02*
X4446253Y-17771912D01*
X4446253Y-17771912D02*
X4446253Y-17695722D01*
X4446253Y-17695722D02*
X4455777Y-17676674D01*
X4455777Y-17676674D02*
X4474825Y-17667150D01*
X4474825Y-17667150D02*
X4512920Y-17667150D01*
X4512920Y-17667150D02*
X4531968Y-17676674D01*
X4531968Y-17676674D02*
X4541492Y-17695722D01*
X4541492Y-17695722D02*
X4541492Y-17714770D01*
X4541492Y-17714770D02*
X4446253Y-17733817D01*
X4617682Y-17790960D02*
X4636730Y-17800484D01*
X4636730Y-17800484D02*
X4674825Y-17800484D01*
X4674825Y-17800484D02*
X4693873Y-17790960D01*
X4693873Y-17790960D02*
X4703396Y-17771912D01*
X4703396Y-17771912D02*
X4703396Y-17762389D01*
X4703396Y-17762389D02*
X4693873Y-17743341D01*
X4693873Y-17743341D02*
X4674825Y-17733817D01*
X4674825Y-17733817D02*
X4646253Y-17733817D01*
X4646253Y-17733817D02*
X4627206Y-17724293D01*
X4627206Y-17724293D02*
X4617682Y-17705246D01*
X4617682Y-17705246D02*
X4617682Y-17695722D01*
X4617682Y-17695722D02*
X4627206Y-17676674D01*
X4627206Y-17676674D02*
X4646253Y-17667150D01*
X4646253Y-17667150D02*
X4674825Y-17667150D01*
X4674825Y-17667150D02*
X4693873Y-17676674D01*
X4770063Y-17876674D02*
X4779587Y-17867150D01*
X4779587Y-17867150D02*
X4798634Y-17838579D01*
X4798634Y-17838579D02*
X4808158Y-17819531D01*
X4808158Y-17819531D02*
X4817682Y-17790960D01*
X4817682Y-17790960D02*
X4827206Y-17743341D01*
X4827206Y-17743341D02*
X4827206Y-17705246D01*
X4827206Y-17705246D02*
X4817682Y-17657627D01*
X4817682Y-17657627D02*
X4808158Y-17629055D01*
X4808158Y-17629055D02*
X4798634Y-17610008D01*
X4798634Y-17610008D02*
X4779587Y-17581436D01*
X4779587Y-17581436D02*
X4770063Y-17571912D01*
X-205000Y-17894000D02*
X-5000Y-18094000D01*
X-5000Y-17894000D02*
X-205000Y-18094000D01*
X-105000Y-18094000D02*
X-5000Y-17994000D01*
X-105000Y-17894000D01*
X-205000Y-17994000D01*
X-105000Y-18094000D01*
X246253Y-17904531D02*
X255777Y-17895008D01*
X255777Y-17895008D02*
X274824Y-17885484D01*
X274824Y-17885484D02*
X322444Y-17885484D01*
X322444Y-17885484D02*
X341491Y-17895008D01*
X341491Y-17895008D02*
X351015Y-17904531D01*
X351015Y-17904531D02*
X360539Y-17923579D01*
X360539Y-17923579D02*
X360539Y-17942627D01*
X360539Y-17942627D02*
X351015Y-17971198D01*
X351015Y-17971198D02*
X236729Y-18085484D01*
X236729Y-18085484D02*
X360539Y-18085484D01*
X446253Y-18066436D02*
X455777Y-18075960D01*
X455777Y-18075960D02*
X446253Y-18085484D01*
X446253Y-18085484D02*
X436729Y-18075960D01*
X436729Y-18075960D02*
X446253Y-18066436D01*
X446253Y-18066436D02*
X446253Y-18085484D01*
X579586Y-17885484D02*
X598634Y-17885484D01*
X598634Y-17885484D02*
X617682Y-17895008D01*
X617682Y-17895008D02*
X627205Y-17904531D01*
X627205Y-17904531D02*
X636729Y-17923579D01*
X636729Y-17923579D02*
X646253Y-17961674D01*
X646253Y-17961674D02*
X646253Y-18009293D01*
X646253Y-18009293D02*
X636729Y-18047389D01*
X636729Y-18047389D02*
X627205Y-18066436D01*
X627205Y-18066436D02*
X617682Y-18075960D01*
X617682Y-18075960D02*
X598634Y-18085484D01*
X598634Y-18085484D02*
X579586Y-18085484D01*
X579586Y-18085484D02*
X560539Y-18075960D01*
X560539Y-18075960D02*
X551015Y-18066436D01*
X551015Y-18066436D02*
X541491Y-18047389D01*
X541491Y-18047389D02*
X531967Y-18009293D01*
X531967Y-18009293D02*
X531967Y-17961674D01*
X531967Y-17961674D02*
X541491Y-17923579D01*
X541491Y-17923579D02*
X551015Y-17904531D01*
X551015Y-17904531D02*
X560539Y-17895008D01*
X560539Y-17895008D02*
X579586Y-17885484D01*
X770062Y-17885484D02*
X789110Y-17885484D01*
X789110Y-17885484D02*
X808158Y-17895008D01*
X808158Y-17895008D02*
X817682Y-17904531D01*
X817682Y-17904531D02*
X827205Y-17923579D01*
X827205Y-17923579D02*
X836729Y-17961674D01*
X836729Y-17961674D02*
X836729Y-18009293D01*
X836729Y-18009293D02*
X827205Y-18047389D01*
X827205Y-18047389D02*
X817682Y-18066436D01*
X817682Y-18066436D02*
X808158Y-18075960D01*
X808158Y-18075960D02*
X789110Y-18085484D01*
X789110Y-18085484D02*
X770062Y-18085484D01*
X770062Y-18085484D02*
X751015Y-18075960D01*
X751015Y-18075960D02*
X741491Y-18066436D01*
X741491Y-18066436D02*
X731967Y-18047389D01*
X731967Y-18047389D02*
X722443Y-18009293D01*
X722443Y-18009293D02*
X722443Y-17961674D01*
X722443Y-17961674D02*
X731967Y-17923579D01*
X731967Y-17923579D02*
X741491Y-17904531D01*
X741491Y-17904531D02*
X751015Y-17895008D01*
X751015Y-17895008D02*
X770062Y-17885484D01*
X960539Y-17885484D02*
X979586Y-17885484D01*
X979586Y-17885484D02*
X998634Y-17895008D01*
X998634Y-17895008D02*
X1008158Y-17904531D01*
X1008158Y-17904531D02*
X1017682Y-17923579D01*
X1017682Y-17923579D02*
X1027205Y-17961674D01*
X1027205Y-17961674D02*
X1027205Y-18009293D01*
X1027205Y-18009293D02*
X1017682Y-18047389D01*
X1017682Y-18047389D02*
X1008158Y-18066436D01*
X1008158Y-18066436D02*
X998634Y-18075960D01*
X998634Y-18075960D02*
X979586Y-18085484D01*
X979586Y-18085484D02*
X960539Y-18085484D01*
X960539Y-18085484D02*
X941491Y-18075960D01*
X941491Y-18075960D02*
X931967Y-18066436D01*
X931967Y-18066436D02*
X922443Y-18047389D01*
X922443Y-18047389D02*
X912920Y-18009293D01*
X912920Y-18009293D02*
X912920Y-17961674D01*
X912920Y-17961674D02*
X922443Y-17923579D01*
X922443Y-17923579D02*
X931967Y-17904531D01*
X931967Y-17904531D02*
X941491Y-17895008D01*
X941491Y-17895008D02*
X960539Y-17885484D01*
X1112920Y-18085484D02*
X1112920Y-17952150D01*
X1112920Y-17971198D02*
X1122444Y-17961674D01*
X1122444Y-17961674D02*
X1141491Y-17952150D01*
X1141491Y-17952150D02*
X1170063Y-17952150D01*
X1170063Y-17952150D02*
X1189110Y-17961674D01*
X1189110Y-17961674D02*
X1198634Y-17980722D01*
X1198634Y-17980722D02*
X1198634Y-18085484D01*
X1198634Y-17980722D02*
X1208158Y-17961674D01*
X1208158Y-17961674D02*
X1227205Y-17952150D01*
X1227205Y-17952150D02*
X1255777Y-17952150D01*
X1255777Y-17952150D02*
X1274825Y-17961674D01*
X1274825Y-17961674D02*
X1284348Y-17980722D01*
X1284348Y-17980722D02*
X1284348Y-18085484D01*
X1379586Y-18085484D02*
X1379586Y-17952150D01*
X1379586Y-17971198D02*
X1389110Y-17961674D01*
X1389110Y-17961674D02*
X1408158Y-17952150D01*
X1408158Y-17952150D02*
X1436729Y-17952150D01*
X1436729Y-17952150D02*
X1455777Y-17961674D01*
X1455777Y-17961674D02*
X1465301Y-17980722D01*
X1465301Y-17980722D02*
X1465301Y-18085484D01*
X1465301Y-17980722D02*
X1474824Y-17961674D01*
X1474824Y-17961674D02*
X1493872Y-17952150D01*
X1493872Y-17952150D02*
X1522443Y-17952150D01*
X1522443Y-17952150D02*
X1541491Y-17961674D01*
X1541491Y-17961674D02*
X1551015Y-17980722D01*
X1551015Y-17980722D02*
X1551015Y-18085484D01*
X1941491Y-17875960D02*
X1770063Y-18133103D01*
X2198634Y-17885484D02*
X2217682Y-17885484D01*
X2217682Y-17885484D02*
X2236729Y-17895008D01*
X2236729Y-17895008D02*
X2246253Y-17904531D01*
X2246253Y-17904531D02*
X2255777Y-17923579D01*
X2255777Y-17923579D02*
X2265301Y-17961674D01*
X2265301Y-17961674D02*
X2265301Y-18009293D01*
X2265301Y-18009293D02*
X2255777Y-18047389D01*
X2255777Y-18047389D02*
X2246253Y-18066436D01*
X2246253Y-18066436D02*
X2236729Y-18075960D01*
X2236729Y-18075960D02*
X2217682Y-18085484D01*
X2217682Y-18085484D02*
X2198634Y-18085484D01*
X2198634Y-18085484D02*
X2179587Y-18075960D01*
X2179587Y-18075960D02*
X2170063Y-18066436D01*
X2170063Y-18066436D02*
X2160539Y-18047389D01*
X2160539Y-18047389D02*
X2151015Y-18009293D01*
X2151015Y-18009293D02*
X2151015Y-17961674D01*
X2151015Y-17961674D02*
X2160539Y-17923579D01*
X2160539Y-17923579D02*
X2170063Y-17904531D01*
X2170063Y-17904531D02*
X2179587Y-17895008D01*
X2179587Y-17895008D02*
X2198634Y-17885484D01*
X2351015Y-18066436D02*
X2360539Y-18075960D01*
X2360539Y-18075960D02*
X2351015Y-18085484D01*
X2351015Y-18085484D02*
X2341491Y-18075960D01*
X2341491Y-18075960D02*
X2351015Y-18066436D01*
X2351015Y-18066436D02*
X2351015Y-18085484D01*
X2484348Y-17885484D02*
X2503396Y-17885484D01*
X2503396Y-17885484D02*
X2522444Y-17895008D01*
X2522444Y-17895008D02*
X2531968Y-17904531D01*
X2531968Y-17904531D02*
X2541491Y-17923579D01*
X2541491Y-17923579D02*
X2551015Y-17961674D01*
X2551015Y-17961674D02*
X2551015Y-18009293D01*
X2551015Y-18009293D02*
X2541491Y-18047389D01*
X2541491Y-18047389D02*
X2531968Y-18066436D01*
X2531968Y-18066436D02*
X2522444Y-18075960D01*
X2522444Y-18075960D02*
X2503396Y-18085484D01*
X2503396Y-18085484D02*
X2484348Y-18085484D01*
X2484348Y-18085484D02*
X2465301Y-18075960D01*
X2465301Y-18075960D02*
X2455777Y-18066436D01*
X2455777Y-18066436D02*
X2446253Y-18047389D01*
X2446253Y-18047389D02*
X2436729Y-18009293D01*
X2436729Y-18009293D02*
X2436729Y-17961674D01*
X2436729Y-17961674D02*
X2446253Y-17923579D01*
X2446253Y-17923579D02*
X2455777Y-17904531D01*
X2455777Y-17904531D02*
X2465301Y-17895008D01*
X2465301Y-17895008D02*
X2484348Y-17885484D01*
X2617682Y-17885484D02*
X2751015Y-17885484D01*
X2751015Y-17885484D02*
X2665301Y-18085484D01*
X2855777Y-17971198D02*
X2836729Y-17961674D01*
X2836729Y-17961674D02*
X2827206Y-17952150D01*
X2827206Y-17952150D02*
X2817682Y-17933103D01*
X2817682Y-17933103D02*
X2817682Y-17923579D01*
X2817682Y-17923579D02*
X2827206Y-17904531D01*
X2827206Y-17904531D02*
X2836729Y-17895008D01*
X2836729Y-17895008D02*
X2855777Y-17885484D01*
X2855777Y-17885484D02*
X2893872Y-17885484D01*
X2893872Y-17885484D02*
X2912920Y-17895008D01*
X2912920Y-17895008D02*
X2922444Y-17904531D01*
X2922444Y-17904531D02*
X2931967Y-17923579D01*
X2931967Y-17923579D02*
X2931967Y-17933103D01*
X2931967Y-17933103D02*
X2922444Y-17952150D01*
X2922444Y-17952150D02*
X2912920Y-17961674D01*
X2912920Y-17961674D02*
X2893872Y-17971198D01*
X2893872Y-17971198D02*
X2855777Y-17971198D01*
X2855777Y-17971198D02*
X2836729Y-17980722D01*
X2836729Y-17980722D02*
X2827206Y-17990246D01*
X2827206Y-17990246D02*
X2817682Y-18009293D01*
X2817682Y-18009293D02*
X2817682Y-18047389D01*
X2817682Y-18047389D02*
X2827206Y-18066436D01*
X2827206Y-18066436D02*
X2836729Y-18075960D01*
X2836729Y-18075960D02*
X2855777Y-18085484D01*
X2855777Y-18085484D02*
X2893872Y-18085484D01*
X2893872Y-18085484D02*
X2912920Y-18075960D01*
X2912920Y-18075960D02*
X2922444Y-18066436D01*
X2922444Y-18066436D02*
X2931967Y-18047389D01*
X2931967Y-18047389D02*
X2931967Y-18009293D01*
X2931967Y-18009293D02*
X2922444Y-17990246D01*
X2922444Y-17990246D02*
X2912920Y-17980722D01*
X2912920Y-17980722D02*
X2893872Y-17971198D01*
X2998634Y-17885484D02*
X3131967Y-17885484D01*
X3131967Y-17885484D02*
X3046253Y-18085484D01*
X3198634Y-17885484D02*
X3198634Y-17923579D01*
X3274825Y-17885484D02*
X3274825Y-17923579D01*
X3570063Y-18161674D02*
X3560539Y-18152150D01*
X3560539Y-18152150D02*
X3541491Y-18123579D01*
X3541491Y-18123579D02*
X3531968Y-18104531D01*
X3531968Y-18104531D02*
X3522444Y-18075960D01*
X3522444Y-18075960D02*
X3512920Y-18028341D01*
X3512920Y-18028341D02*
X3512920Y-17990246D01*
X3512920Y-17990246D02*
X3522444Y-17942627D01*
X3522444Y-17942627D02*
X3531968Y-17914055D01*
X3531968Y-17914055D02*
X3541491Y-17895008D01*
X3541491Y-17895008D02*
X3560539Y-17866436D01*
X3560539Y-17866436D02*
X3570063Y-17856912D01*
X3636729Y-17904531D02*
X3646253Y-17895008D01*
X3646253Y-17895008D02*
X3665301Y-17885484D01*
X3665301Y-17885484D02*
X3712920Y-17885484D01*
X3712920Y-17885484D02*
X3731968Y-17895008D01*
X3731968Y-17895008D02*
X3741491Y-17904531D01*
X3741491Y-17904531D02*
X3751015Y-17923579D01*
X3751015Y-17923579D02*
X3751015Y-17942627D01*
X3751015Y-17942627D02*
X3741491Y-17971198D01*
X3741491Y-17971198D02*
X3627206Y-18085484D01*
X3627206Y-18085484D02*
X3751015Y-18085484D01*
X3989110Y-18085484D02*
X3989110Y-17885484D01*
X4074825Y-18085484D02*
X4074825Y-17980722D01*
X4074825Y-17980722D02*
X4065301Y-17961674D01*
X4065301Y-17961674D02*
X4046253Y-17952150D01*
X4046253Y-17952150D02*
X4017682Y-17952150D01*
X4017682Y-17952150D02*
X3998634Y-17961674D01*
X3998634Y-17961674D02*
X3989110Y-17971198D01*
X4198634Y-18085484D02*
X4179587Y-18075960D01*
X4179587Y-18075960D02*
X4170063Y-18066436D01*
X4170063Y-18066436D02*
X4160539Y-18047389D01*
X4160539Y-18047389D02*
X4160539Y-17990246D01*
X4160539Y-17990246D02*
X4170063Y-17971198D01*
X4170063Y-17971198D02*
X4179587Y-17961674D01*
X4179587Y-17961674D02*
X4198634Y-17952150D01*
X4198634Y-17952150D02*
X4227206Y-17952150D01*
X4227206Y-17952150D02*
X4246253Y-17961674D01*
X4246253Y-17961674D02*
X4255777Y-17971198D01*
X4255777Y-17971198D02*
X4265301Y-17990246D01*
X4265301Y-17990246D02*
X4265301Y-18047389D01*
X4265301Y-18047389D02*
X4255777Y-18066436D01*
X4255777Y-18066436D02*
X4246253Y-18075960D01*
X4246253Y-18075960D02*
X4227206Y-18085484D01*
X4227206Y-18085484D02*
X4198634Y-18085484D01*
X4379587Y-18085484D02*
X4360539Y-18075960D01*
X4360539Y-18075960D02*
X4351015Y-18056912D01*
X4351015Y-18056912D02*
X4351015Y-17885484D01*
X4531968Y-18075960D02*
X4512920Y-18085484D01*
X4512920Y-18085484D02*
X4474825Y-18085484D01*
X4474825Y-18085484D02*
X4455777Y-18075960D01*
X4455777Y-18075960D02*
X4446253Y-18056912D01*
X4446253Y-18056912D02*
X4446253Y-17980722D01*
X4446253Y-17980722D02*
X4455777Y-17961674D01*
X4455777Y-17961674D02*
X4474825Y-17952150D01*
X4474825Y-17952150D02*
X4512920Y-17952150D01*
X4512920Y-17952150D02*
X4531968Y-17961674D01*
X4531968Y-17961674D02*
X4541492Y-17980722D01*
X4541492Y-17980722D02*
X4541492Y-17999770D01*
X4541492Y-17999770D02*
X4446253Y-18018817D01*
X4617682Y-18075960D02*
X4636730Y-18085484D01*
X4636730Y-18085484D02*
X4674825Y-18085484D01*
X4674825Y-18085484D02*
X4693873Y-18075960D01*
X4693873Y-18075960D02*
X4703396Y-18056912D01*
X4703396Y-18056912D02*
X4703396Y-18047389D01*
X4703396Y-18047389D02*
X4693873Y-18028341D01*
X4693873Y-18028341D02*
X4674825Y-18018817D01*
X4674825Y-18018817D02*
X4646253Y-18018817D01*
X4646253Y-18018817D02*
X4627206Y-18009293D01*
X4627206Y-18009293D02*
X4617682Y-17990246D01*
X4617682Y-17990246D02*
X4617682Y-17980722D01*
X4617682Y-17980722D02*
X4627206Y-17961674D01*
X4627206Y-17961674D02*
X4646253Y-17952150D01*
X4646253Y-17952150D02*
X4674825Y-17952150D01*
X4674825Y-17952150D02*
X4693873Y-17961674D01*
X4770063Y-18161674D02*
X4779587Y-18152150D01*
X4779587Y-18152150D02*
X4798634Y-18123579D01*
X4798634Y-18123579D02*
X4808158Y-18104531D01*
X4808158Y-18104531D02*
X4817682Y-18075960D01*
X4817682Y-18075960D02*
X4827206Y-18028341D01*
X4827206Y-18028341D02*
X4827206Y-17990246D01*
X4827206Y-17990246D02*
X4817682Y-17942627D01*
X4817682Y-17942627D02*
X4808158Y-17914055D01*
X4808158Y-17914055D02*
X4798634Y-17895008D01*
X4798634Y-17895008D02*
X4779587Y-17866436D01*
X4779587Y-17866436D02*
X4770063Y-17856912D01*
X-105000Y-18214000D02*
X-105000Y-18414000D01*
X-205000Y-18314000D02*
X-5000Y-18314000D01*
X-5000Y-18314000D02*
G75*
G03*
X-5000Y-18314000I-100000J0D01*
G01*
X246253Y-18224531D02*
X255777Y-18215008D01*
X255777Y-18215008D02*
X274824Y-18205484D01*
X274824Y-18205484D02*
X322444Y-18205484D01*
X322444Y-18205484D02*
X341491Y-18215008D01*
X341491Y-18215008D02*
X351015Y-18224531D01*
X351015Y-18224531D02*
X360539Y-18243579D01*
X360539Y-18243579D02*
X360539Y-18262627D01*
X360539Y-18262627D02*
X351015Y-18291198D01*
X351015Y-18291198D02*
X236729Y-18405484D01*
X236729Y-18405484D02*
X360539Y-18405484D01*
X446253Y-18386436D02*
X455777Y-18395960D01*
X455777Y-18395960D02*
X446253Y-18405484D01*
X446253Y-18405484D02*
X436729Y-18395960D01*
X436729Y-18395960D02*
X446253Y-18386436D01*
X446253Y-18386436D02*
X446253Y-18405484D01*
X646253Y-18405484D02*
X531967Y-18405484D01*
X589110Y-18405484D02*
X589110Y-18205484D01*
X589110Y-18205484D02*
X570063Y-18234055D01*
X570063Y-18234055D02*
X551015Y-18253103D01*
X551015Y-18253103D02*
X531967Y-18262627D01*
X770062Y-18205484D02*
X789110Y-18205484D01*
X789110Y-18205484D02*
X808158Y-18215008D01*
X808158Y-18215008D02*
X817682Y-18224531D01*
X817682Y-18224531D02*
X827205Y-18243579D01*
X827205Y-18243579D02*
X836729Y-18281674D01*
X836729Y-18281674D02*
X836729Y-18329293D01*
X836729Y-18329293D02*
X827205Y-18367389D01*
X827205Y-18367389D02*
X817682Y-18386436D01*
X817682Y-18386436D02*
X808158Y-18395960D01*
X808158Y-18395960D02*
X789110Y-18405484D01*
X789110Y-18405484D02*
X770062Y-18405484D01*
X770062Y-18405484D02*
X751015Y-18395960D01*
X751015Y-18395960D02*
X741491Y-18386436D01*
X741491Y-18386436D02*
X731967Y-18367389D01*
X731967Y-18367389D02*
X722443Y-18329293D01*
X722443Y-18329293D02*
X722443Y-18281674D01*
X722443Y-18281674D02*
X731967Y-18243579D01*
X731967Y-18243579D02*
X741491Y-18224531D01*
X741491Y-18224531D02*
X751015Y-18215008D01*
X751015Y-18215008D02*
X770062Y-18205484D01*
X960539Y-18205484D02*
X979586Y-18205484D01*
X979586Y-18205484D02*
X998634Y-18215008D01*
X998634Y-18215008D02*
X1008158Y-18224531D01*
X1008158Y-18224531D02*
X1017682Y-18243579D01*
X1017682Y-18243579D02*
X1027205Y-18281674D01*
X1027205Y-18281674D02*
X1027205Y-18329293D01*
X1027205Y-18329293D02*
X1017682Y-18367389D01*
X1017682Y-18367389D02*
X1008158Y-18386436D01*
X1008158Y-18386436D02*
X998634Y-18395960D01*
X998634Y-18395960D02*
X979586Y-18405484D01*
X979586Y-18405484D02*
X960539Y-18405484D01*
X960539Y-18405484D02*
X941491Y-18395960D01*
X941491Y-18395960D02*
X931967Y-18386436D01*
X931967Y-18386436D02*
X922443Y-18367389D01*
X922443Y-18367389D02*
X912920Y-18329293D01*
X912920Y-18329293D02*
X912920Y-18281674D01*
X912920Y-18281674D02*
X922443Y-18243579D01*
X922443Y-18243579D02*
X931967Y-18224531D01*
X931967Y-18224531D02*
X941491Y-18215008D01*
X941491Y-18215008D02*
X960539Y-18205484D01*
X1112920Y-18405484D02*
X1112920Y-18272150D01*
X1112920Y-18291198D02*
X1122444Y-18281674D01*
X1122444Y-18281674D02*
X1141491Y-18272150D01*
X1141491Y-18272150D02*
X1170063Y-18272150D01*
X1170063Y-18272150D02*
X1189110Y-18281674D01*
X1189110Y-18281674D02*
X1198634Y-18300722D01*
X1198634Y-18300722D02*
X1198634Y-18405484D01*
X1198634Y-18300722D02*
X1208158Y-18281674D01*
X1208158Y-18281674D02*
X1227205Y-18272150D01*
X1227205Y-18272150D02*
X1255777Y-18272150D01*
X1255777Y-18272150D02*
X1274825Y-18281674D01*
X1274825Y-18281674D02*
X1284348Y-18300722D01*
X1284348Y-18300722D02*
X1284348Y-18405484D01*
X1379586Y-18405484D02*
X1379586Y-18272150D01*
X1379586Y-18291198D02*
X1389110Y-18281674D01*
X1389110Y-18281674D02*
X1408158Y-18272150D01*
X1408158Y-18272150D02*
X1436729Y-18272150D01*
X1436729Y-18272150D02*
X1455777Y-18281674D01*
X1455777Y-18281674D02*
X1465301Y-18300722D01*
X1465301Y-18300722D02*
X1465301Y-18405484D01*
X1465301Y-18300722D02*
X1474824Y-18281674D01*
X1474824Y-18281674D02*
X1493872Y-18272150D01*
X1493872Y-18272150D02*
X1522443Y-18272150D01*
X1522443Y-18272150D02*
X1541491Y-18281674D01*
X1541491Y-18281674D02*
X1551015Y-18300722D01*
X1551015Y-18300722D02*
X1551015Y-18405484D01*
X1941491Y-18195960D02*
X1770063Y-18453103D01*
X2198634Y-18205484D02*
X2217682Y-18205484D01*
X2217682Y-18205484D02*
X2236729Y-18215008D01*
X2236729Y-18215008D02*
X2246253Y-18224531D01*
X2246253Y-18224531D02*
X2255777Y-18243579D01*
X2255777Y-18243579D02*
X2265301Y-18281674D01*
X2265301Y-18281674D02*
X2265301Y-18329293D01*
X2265301Y-18329293D02*
X2255777Y-18367389D01*
X2255777Y-18367389D02*
X2246253Y-18386436D01*
X2246253Y-18386436D02*
X2236729Y-18395960D01*
X2236729Y-18395960D02*
X2217682Y-18405484D01*
X2217682Y-18405484D02*
X2198634Y-18405484D01*
X2198634Y-18405484D02*
X2179587Y-18395960D01*
X2179587Y-18395960D02*
X2170063Y-18386436D01*
X2170063Y-18386436D02*
X2160539Y-18367389D01*
X2160539Y-18367389D02*
X2151015Y-18329293D01*
X2151015Y-18329293D02*
X2151015Y-18281674D01*
X2151015Y-18281674D02*
X2160539Y-18243579D01*
X2160539Y-18243579D02*
X2170063Y-18224531D01*
X2170063Y-18224531D02*
X2179587Y-18215008D01*
X2179587Y-18215008D02*
X2198634Y-18205484D01*
X2351015Y-18386436D02*
X2360539Y-18395960D01*
X2360539Y-18395960D02*
X2351015Y-18405484D01*
X2351015Y-18405484D02*
X2341491Y-18395960D01*
X2341491Y-18395960D02*
X2351015Y-18386436D01*
X2351015Y-18386436D02*
X2351015Y-18405484D01*
X2484348Y-18205484D02*
X2503396Y-18205484D01*
X2503396Y-18205484D02*
X2522444Y-18215008D01*
X2522444Y-18215008D02*
X2531968Y-18224531D01*
X2531968Y-18224531D02*
X2541491Y-18243579D01*
X2541491Y-18243579D02*
X2551015Y-18281674D01*
X2551015Y-18281674D02*
X2551015Y-18329293D01*
X2551015Y-18329293D02*
X2541491Y-18367389D01*
X2541491Y-18367389D02*
X2531968Y-18386436D01*
X2531968Y-18386436D02*
X2522444Y-18395960D01*
X2522444Y-18395960D02*
X2503396Y-18405484D01*
X2503396Y-18405484D02*
X2484348Y-18405484D01*
X2484348Y-18405484D02*
X2465301Y-18395960D01*
X2465301Y-18395960D02*
X2455777Y-18386436D01*
X2455777Y-18386436D02*
X2446253Y-18367389D01*
X2446253Y-18367389D02*
X2436729Y-18329293D01*
X2436729Y-18329293D02*
X2436729Y-18281674D01*
X2436729Y-18281674D02*
X2446253Y-18243579D01*
X2446253Y-18243579D02*
X2455777Y-18224531D01*
X2455777Y-18224531D02*
X2465301Y-18215008D01*
X2465301Y-18215008D02*
X2484348Y-18205484D01*
X2665301Y-18291198D02*
X2646253Y-18281674D01*
X2646253Y-18281674D02*
X2636729Y-18272150D01*
X2636729Y-18272150D02*
X2627206Y-18253103D01*
X2627206Y-18253103D02*
X2627206Y-18243579D01*
X2627206Y-18243579D02*
X2636729Y-18224531D01*
X2636729Y-18224531D02*
X2646253Y-18215008D01*
X2646253Y-18215008D02*
X2665301Y-18205484D01*
X2665301Y-18205484D02*
X2703396Y-18205484D01*
X2703396Y-18205484D02*
X2722444Y-18215008D01*
X2722444Y-18215008D02*
X2731968Y-18224531D01*
X2731968Y-18224531D02*
X2741491Y-18243579D01*
X2741491Y-18243579D02*
X2741491Y-18253103D01*
X2741491Y-18253103D02*
X2731968Y-18272150D01*
X2731968Y-18272150D02*
X2722444Y-18281674D01*
X2722444Y-18281674D02*
X2703396Y-18291198D01*
X2703396Y-18291198D02*
X2665301Y-18291198D01*
X2665301Y-18291198D02*
X2646253Y-18300722D01*
X2646253Y-18300722D02*
X2636729Y-18310246D01*
X2636729Y-18310246D02*
X2627206Y-18329293D01*
X2627206Y-18329293D02*
X2627206Y-18367389D01*
X2627206Y-18367389D02*
X2636729Y-18386436D01*
X2636729Y-18386436D02*
X2646253Y-18395960D01*
X2646253Y-18395960D02*
X2665301Y-18405484D01*
X2665301Y-18405484D02*
X2703396Y-18405484D01*
X2703396Y-18405484D02*
X2722444Y-18395960D01*
X2722444Y-18395960D02*
X2731968Y-18386436D01*
X2731968Y-18386436D02*
X2741491Y-18367389D01*
X2741491Y-18367389D02*
X2741491Y-18329293D01*
X2741491Y-18329293D02*
X2731968Y-18310246D01*
X2731968Y-18310246D02*
X2722444Y-18300722D01*
X2722444Y-18300722D02*
X2703396Y-18291198D01*
X2817682Y-18224531D02*
X2827206Y-18215008D01*
X2827206Y-18215008D02*
X2846253Y-18205484D01*
X2846253Y-18205484D02*
X2893872Y-18205484D01*
X2893872Y-18205484D02*
X2912920Y-18215008D01*
X2912920Y-18215008D02*
X2922444Y-18224531D01*
X2922444Y-18224531D02*
X2931967Y-18243579D01*
X2931967Y-18243579D02*
X2931967Y-18262627D01*
X2931967Y-18262627D02*
X2922444Y-18291198D01*
X2922444Y-18291198D02*
X2808158Y-18405484D01*
X2808158Y-18405484D02*
X2931967Y-18405484D01*
X2998634Y-18205484D02*
X3131967Y-18205484D01*
X3131967Y-18205484D02*
X3046253Y-18405484D01*
X3198634Y-18205484D02*
X3198634Y-18243579D01*
X3274825Y-18205484D02*
X3274825Y-18243579D01*
X3570063Y-18481674D02*
X3560539Y-18472150D01*
X3560539Y-18472150D02*
X3541491Y-18443579D01*
X3541491Y-18443579D02*
X3531968Y-18424531D01*
X3531968Y-18424531D02*
X3522444Y-18395960D01*
X3522444Y-18395960D02*
X3512920Y-18348341D01*
X3512920Y-18348341D02*
X3512920Y-18310246D01*
X3512920Y-18310246D02*
X3522444Y-18262627D01*
X3522444Y-18262627D02*
X3531968Y-18234055D01*
X3531968Y-18234055D02*
X3541491Y-18215008D01*
X3541491Y-18215008D02*
X3560539Y-18186436D01*
X3560539Y-18186436D02*
X3570063Y-18176912D01*
X3636729Y-18224531D02*
X3646253Y-18215008D01*
X3646253Y-18215008D02*
X3665301Y-18205484D01*
X3665301Y-18205484D02*
X3712920Y-18205484D01*
X3712920Y-18205484D02*
X3731968Y-18215008D01*
X3731968Y-18215008D02*
X3741491Y-18224531D01*
X3741491Y-18224531D02*
X3751015Y-18243579D01*
X3751015Y-18243579D02*
X3751015Y-18262627D01*
X3751015Y-18262627D02*
X3741491Y-18291198D01*
X3741491Y-18291198D02*
X3627206Y-18405484D01*
X3627206Y-18405484D02*
X3751015Y-18405484D01*
X3989110Y-18405484D02*
X3989110Y-18205484D01*
X4074825Y-18405484D02*
X4074825Y-18300722D01*
X4074825Y-18300722D02*
X4065301Y-18281674D01*
X4065301Y-18281674D02*
X4046253Y-18272150D01*
X4046253Y-18272150D02*
X4017682Y-18272150D01*
X4017682Y-18272150D02*
X3998634Y-18281674D01*
X3998634Y-18281674D02*
X3989110Y-18291198D01*
X4198634Y-18405484D02*
X4179587Y-18395960D01*
X4179587Y-18395960D02*
X4170063Y-18386436D01*
X4170063Y-18386436D02*
X4160539Y-18367389D01*
X4160539Y-18367389D02*
X4160539Y-18310246D01*
X4160539Y-18310246D02*
X4170063Y-18291198D01*
X4170063Y-18291198D02*
X4179587Y-18281674D01*
X4179587Y-18281674D02*
X4198634Y-18272150D01*
X4198634Y-18272150D02*
X4227206Y-18272150D01*
X4227206Y-18272150D02*
X4246253Y-18281674D01*
X4246253Y-18281674D02*
X4255777Y-18291198D01*
X4255777Y-18291198D02*
X4265301Y-18310246D01*
X4265301Y-18310246D02*
X4265301Y-18367389D01*
X4265301Y-18367389D02*
X4255777Y-18386436D01*
X4255777Y-18386436D02*
X4246253Y-18395960D01*
X4246253Y-18395960D02*
X4227206Y-18405484D01*
X4227206Y-18405484D02*
X4198634Y-18405484D01*
X4379587Y-18405484D02*
X4360539Y-18395960D01*
X4360539Y-18395960D02*
X4351015Y-18376912D01*
X4351015Y-18376912D02*
X4351015Y-18205484D01*
X4531968Y-18395960D02*
X4512920Y-18405484D01*
X4512920Y-18405484D02*
X4474825Y-18405484D01*
X4474825Y-18405484D02*
X4455777Y-18395960D01*
X4455777Y-18395960D02*
X4446253Y-18376912D01*
X4446253Y-18376912D02*
X4446253Y-18300722D01*
X4446253Y-18300722D02*
X4455777Y-18281674D01*
X4455777Y-18281674D02*
X4474825Y-18272150D01*
X4474825Y-18272150D02*
X4512920Y-18272150D01*
X4512920Y-18272150D02*
X4531968Y-18281674D01*
X4531968Y-18281674D02*
X4541492Y-18300722D01*
X4541492Y-18300722D02*
X4541492Y-18319770D01*
X4541492Y-18319770D02*
X4446253Y-18338817D01*
X4617682Y-18395960D02*
X4636730Y-18405484D01*
X4636730Y-18405484D02*
X4674825Y-18405484D01*
X4674825Y-18405484D02*
X4693873Y-18395960D01*
X4693873Y-18395960D02*
X4703396Y-18376912D01*
X4703396Y-18376912D02*
X4703396Y-18367389D01*
X4703396Y-18367389D02*
X4693873Y-18348341D01*
X4693873Y-18348341D02*
X4674825Y-18338817D01*
X4674825Y-18338817D02*
X4646253Y-18338817D01*
X4646253Y-18338817D02*
X4627206Y-18329293D01*
X4627206Y-18329293D02*
X4617682Y-18310246D01*
X4617682Y-18310246D02*
X4617682Y-18300722D01*
X4617682Y-18300722D02*
X4627206Y-18281674D01*
X4627206Y-18281674D02*
X4646253Y-18272150D01*
X4646253Y-18272150D02*
X4674825Y-18272150D01*
X4674825Y-18272150D02*
X4693873Y-18281674D01*
X4770063Y-18481674D02*
X4779587Y-18472150D01*
X4779587Y-18472150D02*
X4798634Y-18443579D01*
X4798634Y-18443579D02*
X4808158Y-18424531D01*
X4808158Y-18424531D02*
X4817682Y-18395960D01*
X4817682Y-18395960D02*
X4827206Y-18348341D01*
X4827206Y-18348341D02*
X4827206Y-18310246D01*
X4827206Y-18310246D02*
X4817682Y-18262627D01*
X4817682Y-18262627D02*
X4808158Y-18234055D01*
X4808158Y-18234055D02*
X4798634Y-18215008D01*
X4798634Y-18215008D02*
X4779587Y-18186436D01*
X4779587Y-18186436D02*
X4770063Y-18176912D01*
X-34289Y-18704711D02*
X-34289Y-18563289D01*
X-175711Y-18563289D01*
X-175711Y-18704711D01*
X-34289Y-18704711D01*
X-5000Y-18634000D02*
G75*
G03*
X-5000Y-18634000I-100000J0D01*
G01*
X341491Y-18592150D02*
X341491Y-18725484D01*
X293872Y-18515960D02*
X246253Y-18658817D01*
X246253Y-18658817D02*
X370062Y-18658817D01*
X446253Y-18706436D02*
X455777Y-18715960D01*
X455777Y-18715960D02*
X446253Y-18725484D01*
X446253Y-18725484D02*
X436729Y-18715960D01*
X436729Y-18715960D02*
X446253Y-18706436D01*
X446253Y-18706436D02*
X446253Y-18725484D01*
X531967Y-18544531D02*
X541491Y-18535008D01*
X541491Y-18535008D02*
X560539Y-18525484D01*
X560539Y-18525484D02*
X608158Y-18525484D01*
X608158Y-18525484D02*
X627205Y-18535008D01*
X627205Y-18535008D02*
X636729Y-18544531D01*
X636729Y-18544531D02*
X646253Y-18563579D01*
X646253Y-18563579D02*
X646253Y-18582627D01*
X646253Y-18582627D02*
X636729Y-18611198D01*
X636729Y-18611198D02*
X522443Y-18725484D01*
X522443Y-18725484D02*
X646253Y-18725484D01*
X770062Y-18525484D02*
X789110Y-18525484D01*
X789110Y-18525484D02*
X808158Y-18535008D01*
X808158Y-18535008D02*
X817682Y-18544531D01*
X817682Y-18544531D02*
X827205Y-18563579D01*
X827205Y-18563579D02*
X836729Y-18601674D01*
X836729Y-18601674D02*
X836729Y-18649293D01*
X836729Y-18649293D02*
X827205Y-18687389D01*
X827205Y-18687389D02*
X817682Y-18706436D01*
X817682Y-18706436D02*
X808158Y-18715960D01*
X808158Y-18715960D02*
X789110Y-18725484D01*
X789110Y-18725484D02*
X770062Y-18725484D01*
X770062Y-18725484D02*
X751015Y-18715960D01*
X751015Y-18715960D02*
X741491Y-18706436D01*
X741491Y-18706436D02*
X731967Y-18687389D01*
X731967Y-18687389D02*
X722443Y-18649293D01*
X722443Y-18649293D02*
X722443Y-18601674D01*
X722443Y-18601674D02*
X731967Y-18563579D01*
X731967Y-18563579D02*
X741491Y-18544531D01*
X741491Y-18544531D02*
X751015Y-18535008D01*
X751015Y-18535008D02*
X770062Y-18525484D01*
X960539Y-18525484D02*
X979586Y-18525484D01*
X979586Y-18525484D02*
X998634Y-18535008D01*
X998634Y-18535008D02*
X1008158Y-18544531D01*
X1008158Y-18544531D02*
X1017682Y-18563579D01*
X1017682Y-18563579D02*
X1027205Y-18601674D01*
X1027205Y-18601674D02*
X1027205Y-18649293D01*
X1027205Y-18649293D02*
X1017682Y-18687389D01*
X1017682Y-18687389D02*
X1008158Y-18706436D01*
X1008158Y-18706436D02*
X998634Y-18715960D01*
X998634Y-18715960D02*
X979586Y-18725484D01*
X979586Y-18725484D02*
X960539Y-18725484D01*
X960539Y-18725484D02*
X941491Y-18715960D01*
X941491Y-18715960D02*
X931967Y-18706436D01*
X931967Y-18706436D02*
X922443Y-18687389D01*
X922443Y-18687389D02*
X912920Y-18649293D01*
X912920Y-18649293D02*
X912920Y-18601674D01*
X912920Y-18601674D02*
X922443Y-18563579D01*
X922443Y-18563579D02*
X931967Y-18544531D01*
X931967Y-18544531D02*
X941491Y-18535008D01*
X941491Y-18535008D02*
X960539Y-18525484D01*
X1112920Y-18725484D02*
X1112920Y-18592150D01*
X1112920Y-18611198D02*
X1122444Y-18601674D01*
X1122444Y-18601674D02*
X1141491Y-18592150D01*
X1141491Y-18592150D02*
X1170063Y-18592150D01*
X1170063Y-18592150D02*
X1189110Y-18601674D01*
X1189110Y-18601674D02*
X1198634Y-18620722D01*
X1198634Y-18620722D02*
X1198634Y-18725484D01*
X1198634Y-18620722D02*
X1208158Y-18601674D01*
X1208158Y-18601674D02*
X1227205Y-18592150D01*
X1227205Y-18592150D02*
X1255777Y-18592150D01*
X1255777Y-18592150D02*
X1274825Y-18601674D01*
X1274825Y-18601674D02*
X1284348Y-18620722D01*
X1284348Y-18620722D02*
X1284348Y-18725484D01*
X1379586Y-18725484D02*
X1379586Y-18592150D01*
X1379586Y-18611198D02*
X1389110Y-18601674D01*
X1389110Y-18601674D02*
X1408158Y-18592150D01*
X1408158Y-18592150D02*
X1436729Y-18592150D01*
X1436729Y-18592150D02*
X1455777Y-18601674D01*
X1455777Y-18601674D02*
X1465301Y-18620722D01*
X1465301Y-18620722D02*
X1465301Y-18725484D01*
X1465301Y-18620722D02*
X1474824Y-18601674D01*
X1474824Y-18601674D02*
X1493872Y-18592150D01*
X1493872Y-18592150D02*
X1522443Y-18592150D01*
X1522443Y-18592150D02*
X1541491Y-18601674D01*
X1541491Y-18601674D02*
X1551015Y-18620722D01*
X1551015Y-18620722D02*
X1551015Y-18725484D01*
X1941491Y-18515960D02*
X1770063Y-18773103D01*
X2198634Y-18525484D02*
X2217682Y-18525484D01*
X2217682Y-18525484D02*
X2236729Y-18535008D01*
X2236729Y-18535008D02*
X2246253Y-18544531D01*
X2246253Y-18544531D02*
X2255777Y-18563579D01*
X2255777Y-18563579D02*
X2265301Y-18601674D01*
X2265301Y-18601674D02*
X2265301Y-18649293D01*
X2265301Y-18649293D02*
X2255777Y-18687389D01*
X2255777Y-18687389D02*
X2246253Y-18706436D01*
X2246253Y-18706436D02*
X2236729Y-18715960D01*
X2236729Y-18715960D02*
X2217682Y-18725484D01*
X2217682Y-18725484D02*
X2198634Y-18725484D01*
X2198634Y-18725484D02*
X2179587Y-18715960D01*
X2179587Y-18715960D02*
X2170063Y-18706436D01*
X2170063Y-18706436D02*
X2160539Y-18687389D01*
X2160539Y-18687389D02*
X2151015Y-18649293D01*
X2151015Y-18649293D02*
X2151015Y-18601674D01*
X2151015Y-18601674D02*
X2160539Y-18563579D01*
X2160539Y-18563579D02*
X2170063Y-18544531D01*
X2170063Y-18544531D02*
X2179587Y-18535008D01*
X2179587Y-18535008D02*
X2198634Y-18525484D01*
X2351015Y-18706436D02*
X2360539Y-18715960D01*
X2360539Y-18715960D02*
X2351015Y-18725484D01*
X2351015Y-18725484D02*
X2341491Y-18715960D01*
X2341491Y-18715960D02*
X2351015Y-18706436D01*
X2351015Y-18706436D02*
X2351015Y-18725484D01*
X2551015Y-18725484D02*
X2436729Y-18725484D01*
X2493872Y-18725484D02*
X2493872Y-18525484D01*
X2493872Y-18525484D02*
X2474825Y-18554055D01*
X2474825Y-18554055D02*
X2455777Y-18573103D01*
X2455777Y-18573103D02*
X2436729Y-18582627D01*
X2722444Y-18525484D02*
X2684348Y-18525484D01*
X2684348Y-18525484D02*
X2665301Y-18535008D01*
X2665301Y-18535008D02*
X2655777Y-18544531D01*
X2655777Y-18544531D02*
X2636729Y-18573103D01*
X2636729Y-18573103D02*
X2627206Y-18611198D01*
X2627206Y-18611198D02*
X2627206Y-18687389D01*
X2627206Y-18687389D02*
X2636729Y-18706436D01*
X2636729Y-18706436D02*
X2646253Y-18715960D01*
X2646253Y-18715960D02*
X2665301Y-18725484D01*
X2665301Y-18725484D02*
X2703396Y-18725484D01*
X2703396Y-18725484D02*
X2722444Y-18715960D01*
X2722444Y-18715960D02*
X2731968Y-18706436D01*
X2731968Y-18706436D02*
X2741491Y-18687389D01*
X2741491Y-18687389D02*
X2741491Y-18639770D01*
X2741491Y-18639770D02*
X2731968Y-18620722D01*
X2731968Y-18620722D02*
X2722444Y-18611198D01*
X2722444Y-18611198D02*
X2703396Y-18601674D01*
X2703396Y-18601674D02*
X2665301Y-18601674D01*
X2665301Y-18601674D02*
X2646253Y-18611198D01*
X2646253Y-18611198D02*
X2636729Y-18620722D01*
X2636729Y-18620722D02*
X2627206Y-18639770D01*
X2922444Y-18525484D02*
X2827206Y-18525484D01*
X2827206Y-18525484D02*
X2817682Y-18620722D01*
X2817682Y-18620722D02*
X2827206Y-18611198D01*
X2827206Y-18611198D02*
X2846253Y-18601674D01*
X2846253Y-18601674D02*
X2893872Y-18601674D01*
X2893872Y-18601674D02*
X2912920Y-18611198D01*
X2912920Y-18611198D02*
X2922444Y-18620722D01*
X2922444Y-18620722D02*
X2931967Y-18639770D01*
X2931967Y-18639770D02*
X2931967Y-18687389D01*
X2931967Y-18687389D02*
X2922444Y-18706436D01*
X2922444Y-18706436D02*
X2912920Y-18715960D01*
X2912920Y-18715960D02*
X2893872Y-18725484D01*
X2893872Y-18725484D02*
X2846253Y-18725484D01*
X2846253Y-18725484D02*
X2827206Y-18715960D01*
X2827206Y-18715960D02*
X2817682Y-18706436D01*
X3103396Y-18592150D02*
X3103396Y-18725484D01*
X3055777Y-18515960D02*
X3008158Y-18658817D01*
X3008158Y-18658817D02*
X3131967Y-18658817D01*
X3198634Y-18525484D02*
X3198634Y-18563579D01*
X3274825Y-18525484D02*
X3274825Y-18563579D01*
X3570063Y-18801674D02*
X3560539Y-18792150D01*
X3560539Y-18792150D02*
X3541491Y-18763579D01*
X3541491Y-18763579D02*
X3531968Y-18744531D01*
X3531968Y-18744531D02*
X3522444Y-18715960D01*
X3522444Y-18715960D02*
X3512920Y-18668341D01*
X3512920Y-18668341D02*
X3512920Y-18630246D01*
X3512920Y-18630246D02*
X3522444Y-18582627D01*
X3522444Y-18582627D02*
X3531968Y-18554055D01*
X3531968Y-18554055D02*
X3541491Y-18535008D01*
X3541491Y-18535008D02*
X3560539Y-18506436D01*
X3560539Y-18506436D02*
X3570063Y-18496912D01*
X3636729Y-18544531D02*
X3646253Y-18535008D01*
X3646253Y-18535008D02*
X3665301Y-18525484D01*
X3665301Y-18525484D02*
X3712920Y-18525484D01*
X3712920Y-18525484D02*
X3731968Y-18535008D01*
X3731968Y-18535008D02*
X3741491Y-18544531D01*
X3741491Y-18544531D02*
X3751015Y-18563579D01*
X3751015Y-18563579D02*
X3751015Y-18582627D01*
X3751015Y-18582627D02*
X3741491Y-18611198D01*
X3741491Y-18611198D02*
X3627206Y-18725484D01*
X3627206Y-18725484D02*
X3751015Y-18725484D01*
X3989110Y-18725484D02*
X3989110Y-18525484D01*
X4074825Y-18725484D02*
X4074825Y-18620722D01*
X4074825Y-18620722D02*
X4065301Y-18601674D01*
X4065301Y-18601674D02*
X4046253Y-18592150D01*
X4046253Y-18592150D02*
X4017682Y-18592150D01*
X4017682Y-18592150D02*
X3998634Y-18601674D01*
X3998634Y-18601674D02*
X3989110Y-18611198D01*
X4198634Y-18725484D02*
X4179587Y-18715960D01*
X4179587Y-18715960D02*
X4170063Y-18706436D01*
X4170063Y-18706436D02*
X4160539Y-18687389D01*
X4160539Y-18687389D02*
X4160539Y-18630246D01*
X4160539Y-18630246D02*
X4170063Y-18611198D01*
X4170063Y-18611198D02*
X4179587Y-18601674D01*
X4179587Y-18601674D02*
X4198634Y-18592150D01*
X4198634Y-18592150D02*
X4227206Y-18592150D01*
X4227206Y-18592150D02*
X4246253Y-18601674D01*
X4246253Y-18601674D02*
X4255777Y-18611198D01*
X4255777Y-18611198D02*
X4265301Y-18630246D01*
X4265301Y-18630246D02*
X4265301Y-18687389D01*
X4265301Y-18687389D02*
X4255777Y-18706436D01*
X4255777Y-18706436D02*
X4246253Y-18715960D01*
X4246253Y-18715960D02*
X4227206Y-18725484D01*
X4227206Y-18725484D02*
X4198634Y-18725484D01*
X4379587Y-18725484D02*
X4360539Y-18715960D01*
X4360539Y-18715960D02*
X4351015Y-18696912D01*
X4351015Y-18696912D02*
X4351015Y-18525484D01*
X4531968Y-18715960D02*
X4512920Y-18725484D01*
X4512920Y-18725484D02*
X4474825Y-18725484D01*
X4474825Y-18725484D02*
X4455777Y-18715960D01*
X4455777Y-18715960D02*
X4446253Y-18696912D01*
X4446253Y-18696912D02*
X4446253Y-18620722D01*
X4446253Y-18620722D02*
X4455777Y-18601674D01*
X4455777Y-18601674D02*
X4474825Y-18592150D01*
X4474825Y-18592150D02*
X4512920Y-18592150D01*
X4512920Y-18592150D02*
X4531968Y-18601674D01*
X4531968Y-18601674D02*
X4541492Y-18620722D01*
X4541492Y-18620722D02*
X4541492Y-18639770D01*
X4541492Y-18639770D02*
X4446253Y-18658817D01*
X4617682Y-18715960D02*
X4636730Y-18725484D01*
X4636730Y-18725484D02*
X4674825Y-18725484D01*
X4674825Y-18725484D02*
X4693873Y-18715960D01*
X4693873Y-18715960D02*
X4703396Y-18696912D01*
X4703396Y-18696912D02*
X4703396Y-18687389D01*
X4703396Y-18687389D02*
X4693873Y-18668341D01*
X4693873Y-18668341D02*
X4674825Y-18658817D01*
X4674825Y-18658817D02*
X4646253Y-18658817D01*
X4646253Y-18658817D02*
X4627206Y-18649293D01*
X4627206Y-18649293D02*
X4617682Y-18630246D01*
X4617682Y-18630246D02*
X4617682Y-18620722D01*
X4617682Y-18620722D02*
X4627206Y-18601674D01*
X4627206Y-18601674D02*
X4646253Y-18592150D01*
X4646253Y-18592150D02*
X4674825Y-18592150D01*
X4674825Y-18592150D02*
X4693873Y-18601674D01*
X4770063Y-18801674D02*
X4779587Y-18792150D01*
X4779587Y-18792150D02*
X4798634Y-18763579D01*
X4798634Y-18763579D02*
X4808158Y-18744531D01*
X4808158Y-18744531D02*
X4817682Y-18715960D01*
X4817682Y-18715960D02*
X4827206Y-18668341D01*
X4827206Y-18668341D02*
X4827206Y-18630246D01*
X4827206Y-18630246D02*
X4817682Y-18582627D01*
X4817682Y-18582627D02*
X4808158Y-18554055D01*
X4808158Y-18554055D02*
X4798634Y-18535008D01*
X4798634Y-18535008D02*
X4779587Y-18506436D01*
X4779587Y-18506436D02*
X4770063Y-18496912D01*
M02*
