G04 #@! TF.GenerationSoftware,KiCad,Pcbnew,7.0.5-0*
G04 #@! TF.CreationDate,2023-08-08T04:38:12-03:00*
G04 #@! TF.ProjectId,macunaima_rev2,6d616375-6e61-4696-9d61-5f726576322e,rev?*
G04 #@! TF.SameCoordinates,Original*
G04 #@! TF.FileFunction,Paste,Top*
G04 #@! TF.FilePolarity,Positive*
%FSLAX46Y46*%
G04 Gerber Fmt 4.6, Leading zero omitted, Abs format (unit mm)*
G04 Created by KiCad (PCBNEW 7.0.5-0) date 2023-08-08 04:38:12*
%MOMM*%
%LPD*%
G01*
G04 APERTURE LIST*
G04 Aperture macros list*
%AMRoundRect*
0 Rectangle with rounded corners*
0 $1 Rounding radius*
0 $2 $3 $4 $5 $6 $7 $8 $9 X,Y pos of 4 corners*
0 Add a 4 corners polygon primitive as box body*
4,1,4,$2,$3,$4,$5,$6,$7,$8,$9,$2,$3,0*
0 Add four circle primitives for the rounded corners*
1,1,$1+$1,$2,$3*
1,1,$1+$1,$4,$5*
1,1,$1+$1,$6,$7*
1,1,$1+$1,$8,$9*
0 Add four rect primitives between the rounded corners*
20,1,$1+$1,$2,$3,$4,$5,0*
20,1,$1+$1,$4,$5,$6,$7,0*
20,1,$1+$1,$6,$7,$8,$9,0*
20,1,$1+$1,$8,$9,$2,$3,0*%
G04 Aperture macros list end*
%ADD10R,1.409700X0.355600*%
%ADD11RoundRect,0.225000X0.250000X-0.225000X0.250000X0.225000X-0.250000X0.225000X-0.250000X-0.225000X0*%
%ADD12R,1.000000X1.800000*%
%ADD13RoundRect,0.140000X-0.140000X-0.170000X0.140000X-0.170000X0.140000X0.170000X-0.140000X0.170000X0*%
%ADD14RoundRect,0.135000X-0.185000X0.135000X-0.185000X-0.135000X0.185000X-0.135000X0.185000X0.135000X0*%
%ADD15RoundRect,0.140000X0.170000X-0.140000X0.170000X0.140000X-0.170000X0.140000X-0.170000X-0.140000X0*%
%ADD16RoundRect,0.135000X0.135000X0.185000X-0.135000X0.185000X-0.135000X-0.185000X0.135000X-0.185000X0*%
%ADD17RoundRect,0.140000X0.140000X0.170000X-0.140000X0.170000X-0.140000X-0.170000X0.140000X-0.170000X0*%
%ADD18RoundRect,0.140000X-0.170000X0.140000X-0.170000X-0.140000X0.170000X-0.140000X0.170000X0.140000X0*%
%ADD19RoundRect,0.100000X-0.637500X-0.100000X0.637500X-0.100000X0.637500X0.100000X-0.637500X0.100000X0*%
%ADD20RoundRect,0.243750X0.456250X-0.243750X0.456250X0.243750X-0.456250X0.243750X-0.456250X-0.243750X0*%
%ADD21RoundRect,0.250000X-0.325000X-0.650000X0.325000X-0.650000X0.325000X0.650000X-0.325000X0.650000X0*%
%ADD22RoundRect,0.135000X-0.135000X-0.185000X0.135000X-0.185000X0.135000X0.185000X-0.135000X0.185000X0*%
%ADD23RoundRect,0.135000X0.185000X-0.135000X0.185000X0.135000X-0.185000X0.135000X-0.185000X-0.135000X0*%
%ADD24R,0.450000X0.400000*%
%ADD25R,0.450000X0.500000*%
%ADD26RoundRect,0.195000X-0.195000X0.805000X-0.195000X-0.805000X0.195000X-0.805000X0.195000X0.805000X0*%
%ADD27RoundRect,0.147500X-0.147500X-0.172500X0.147500X-0.172500X0.147500X0.172500X-0.147500X0.172500X0*%
%ADD28R,1.800000X2.500000*%
%ADD29R,0.300000X0.570000*%
%ADD30R,0.570000X0.300000*%
%ADD31R,1.750000X1.750000*%
%ADD32RoundRect,0.218750X0.256250X-0.218750X0.256250X0.218750X-0.256250X0.218750X-0.256250X-0.218750X0*%
%ADD33R,1.879600X2.260600*%
%ADD34R,1.600000X0.600000*%
%ADD35R,1.550000X0.600000*%
%ADD36RoundRect,0.200000X-0.200000X-0.275000X0.200000X-0.275000X0.200000X0.275000X-0.200000X0.275000X0*%
%ADD37RoundRect,0.225000X0.225000X0.250000X-0.225000X0.250000X-0.225000X-0.250000X0.225000X-0.250000X0*%
%ADD38RoundRect,0.250000X-0.450000X0.262500X-0.450000X-0.262500X0.450000X-0.262500X0.450000X0.262500X0*%
%ADD39R,0.660400X2.108200*%
%ADD40R,2.438400X3.352800*%
%ADD41R,1.000000X0.600000*%
%ADD42R,0.420000X0.700000*%
%ADD43RoundRect,0.243750X-0.456250X0.243750X-0.456250X-0.243750X0.456250X-0.243750X0.456250X0.243750X0*%
%ADD44RoundRect,0.250000X-0.650000X0.325000X-0.650000X-0.325000X0.650000X-0.325000X0.650000X0.325000X0*%
%ADD45RoundRect,0.147500X0.172500X-0.147500X0.172500X0.147500X-0.172500X0.147500X-0.172500X-0.147500X0*%
%ADD46R,1.600200X0.711200*%
%ADD47R,1.498600X1.193800*%
%ADD48R,2.209800X1.193800*%
%ADD49R,1.498600X1.600200*%
%ADD50RoundRect,0.250000X0.625000X-0.375000X0.625000X0.375000X-0.625000X0.375000X-0.625000X-0.375000X0*%
%ADD51R,3.300000X2.500000*%
%ADD52RoundRect,0.075000X-0.075000X0.662500X-0.075000X-0.662500X0.075000X-0.662500X0.075000X0.662500X0*%
%ADD53RoundRect,0.075000X-0.662500X0.075000X-0.662500X-0.075000X0.662500X-0.075000X0.662500X0.075000X0*%
%ADD54RoundRect,0.250000X0.650000X-1.000000X0.650000X1.000000X-0.650000X1.000000X-0.650000X-1.000000X0*%
%ADD55R,1.150000X0.350000*%
%ADD56RoundRect,0.250000X0.250000X0.475000X-0.250000X0.475000X-0.250000X-0.475000X0.250000X-0.475000X0*%
%ADD57RoundRect,0.225000X-0.225000X-0.250000X0.225000X-0.250000X0.225000X0.250000X-0.225000X0.250000X0*%
%ADD58R,3.500000X4.000000*%
%ADD59RoundRect,0.150000X0.150000X-0.587500X0.150000X0.587500X-0.150000X0.587500X-0.150000X-0.587500X0*%
%ADD60R,1.400000X1.200000*%
%ADD61RoundRect,0.250000X0.325000X0.650000X-0.325000X0.650000X-0.325000X-0.650000X0.325000X-0.650000X0*%
%ADD62R,1.143000X0.812800*%
%ADD63R,2.108200X0.711200*%
%ADD64RoundRect,0.147500X-0.172500X0.147500X-0.172500X-0.147500X0.172500X-0.147500X0.172500X0.147500X0*%
%ADD65R,1.600000X2.180000*%
%ADD66RoundRect,0.250000X2.450000X-0.650000X2.450000X0.650000X-2.450000X0.650000X-2.450000X-0.650000X0*%
%ADD67R,0.900000X1.800000*%
%ADD68R,1.800000X0.900000*%
%ADD69R,5.000000X5.000000*%
%ADD70R,2.700000X1.200000*%
%ADD71R,1.112398X0.457200*%
%ADD72R,3.606800X3.708400*%
%ADD73RoundRect,0.250000X-0.650000X1.000000X-0.650000X-1.000000X0.650000X-1.000000X0.650000X1.000000X0*%
%ADD74R,0.650000X1.525000*%
%ADD75R,3.100000X2.400000*%
%ADD76RoundRect,0.250000X-0.625000X0.375000X-0.625000X-0.375000X0.625000X-0.375000X0.625000X0.375000X0*%
G04 APERTURE END LIST*
G36*
X105420405Y-19511220D02*
G01*
X103817005Y-19511220D01*
X103817005Y-17857020D01*
X105420405Y-17857020D01*
X105420405Y-19511220D01*
G37*
G36*
X105420405Y-17657020D02*
G01*
X103817005Y-17657020D01*
X103817005Y-16002820D01*
X105420405Y-16002820D01*
X105420405Y-17657020D01*
G37*
G36*
X103617005Y-19511220D02*
G01*
X102013605Y-19511220D01*
X102013605Y-17857020D01*
X103617005Y-17857020D01*
X103617005Y-19511220D01*
G37*
G36*
X103617005Y-17657020D02*
G01*
X102013605Y-17657020D01*
X102013605Y-16002820D01*
X103617005Y-16002820D01*
X103617005Y-17657020D01*
G37*
D10*
X73437250Y-81366242D03*
X73437250Y-82016228D03*
X73437250Y-82666214D03*
X73437250Y-83316200D03*
X73437250Y-83966186D03*
X73437250Y-84616172D03*
X73437250Y-85266158D03*
X79342750Y-85266158D03*
X79342750Y-84616172D03*
X79342750Y-83966186D03*
X79342750Y-83316200D03*
X79342750Y-82666214D03*
X79342750Y-82016228D03*
X79342750Y-81366242D03*
D11*
X63312143Y-135183240D03*
X63312143Y-133633240D03*
D12*
X63078407Y-64501200D03*
X65578407Y-64501200D03*
D13*
X108325129Y-17662020D03*
X109285129Y-17662020D03*
D14*
X59027501Y-133898240D03*
X59027501Y-134918240D03*
D15*
X60488407Y-72184868D03*
X60488407Y-71224868D03*
D11*
X96972143Y-135696200D03*
X96972143Y-134146200D03*
D16*
X92195000Y-125136200D03*
X91175000Y-125136200D03*
X84590000Y-74746200D03*
X83570000Y-74746200D03*
D13*
X62858407Y-62771200D03*
X63818407Y-62771200D03*
D17*
X33435000Y-22926200D03*
X32475000Y-22926200D03*
D14*
X64740357Y-133898240D03*
X64740357Y-134918240D03*
D18*
X93119248Y-64339299D03*
X93119248Y-65299299D03*
D19*
X83981918Y-78513700D03*
X83981918Y-79163700D03*
X83981918Y-79813700D03*
X83981918Y-80463700D03*
X83981918Y-81113700D03*
X83981918Y-81763700D03*
X83981918Y-82413700D03*
X83981918Y-83063700D03*
X83981918Y-83713700D03*
X83981918Y-84363700D03*
X83981918Y-85013700D03*
X83981918Y-85663700D03*
X83981918Y-86313700D03*
X83981918Y-86963700D03*
X89706918Y-86963700D03*
X89706918Y-86313700D03*
X89706918Y-85663700D03*
X89706918Y-85013700D03*
X89706918Y-84363700D03*
X89706918Y-83713700D03*
X89706918Y-83063700D03*
X89706918Y-82413700D03*
X89706918Y-81763700D03*
X89706918Y-81113700D03*
X89706918Y-80463700D03*
X89706918Y-79813700D03*
X89706918Y-79163700D03*
X89706918Y-78513700D03*
D20*
X101577448Y-67890399D03*
X101577448Y-66015399D03*
D17*
X65798407Y-62771200D03*
X64838407Y-62771200D03*
D14*
X61883929Y-133898240D03*
X61883929Y-134918240D03*
D21*
X32142000Y-25827000D03*
X35092000Y-25827000D03*
D18*
X86921478Y-113349484D03*
X86921478Y-114309484D03*
D14*
X47030357Y-134411200D03*
X47030357Y-135431200D03*
D22*
X95147706Y-35667020D03*
X96167706Y-35667020D03*
D23*
X74496862Y-114339484D03*
X74496862Y-113319484D03*
D11*
X76453214Y-135183240D03*
X76453214Y-133633240D03*
D13*
X69509231Y-76551200D03*
X70469231Y-76551200D03*
D15*
X64995000Y-55536200D03*
X64995000Y-54576200D03*
D24*
X86993425Y-48948846D03*
X86993425Y-49748846D03*
D25*
X88143425Y-49348846D03*
D26*
X85075000Y-117869610D03*
X84085000Y-117869610D03*
X83095000Y-117869610D03*
X82105000Y-117869610D03*
X81115000Y-117869610D03*
X80125000Y-117869610D03*
X79135000Y-117869610D03*
X78145000Y-117869610D03*
X77155000Y-117869610D03*
X76165000Y-117869610D03*
X75175000Y-117869610D03*
X74185000Y-117869610D03*
X74185000Y-127269610D03*
X75175000Y-127269610D03*
X76165000Y-127269610D03*
X77155000Y-127269610D03*
X78145000Y-127269610D03*
X79135000Y-127269610D03*
X80125000Y-127269610D03*
X81115000Y-127269610D03*
X82105000Y-127269610D03*
X83095000Y-127269610D03*
X84085000Y-127269610D03*
X85075000Y-127269610D03*
D27*
X81095000Y-81366200D03*
X82065000Y-81366200D03*
D28*
X50655000Y-30531200D03*
X50655000Y-26531200D03*
D23*
X100790000Y-111596200D03*
X100790000Y-110576200D03*
D29*
X104630891Y-24492020D03*
X105130891Y-24492020D03*
X105630891Y-24492020D03*
X106130891Y-24492020D03*
D30*
X106745891Y-23877020D03*
X106745891Y-23377020D03*
X106745891Y-22877020D03*
X106745891Y-22377020D03*
D29*
X106130891Y-21762020D03*
X105630891Y-21762020D03*
X105130891Y-21762020D03*
X104630891Y-21762020D03*
D30*
X104015891Y-22377020D03*
X104015891Y-22877020D03*
X104015891Y-23377020D03*
X104015891Y-23877020D03*
D31*
X105380891Y-23127020D03*
D23*
X55842692Y-114339484D03*
X55842692Y-113319484D03*
X71560000Y-77526200D03*
X71560000Y-76506200D03*
D11*
X91259287Y-135696200D03*
X91259287Y-134146200D03*
D32*
X36112400Y-29364500D03*
X36112400Y-27789500D03*
D27*
X80700000Y-77181200D03*
X81670000Y-77181200D03*
X87582900Y-68115223D03*
X88552900Y-68115223D03*
D23*
X61475000Y-44701200D03*
X61475000Y-43681200D03*
D15*
X57260000Y-72176200D03*
X57260000Y-71216200D03*
D33*
X103904800Y-98031200D03*
X99485200Y-98031200D03*
D15*
X65578407Y-72469777D03*
X65578407Y-71509777D03*
D16*
X90716608Y-118946200D03*
X89696608Y-118946200D03*
D14*
X77889938Y-113319484D03*
X77889938Y-114339484D03*
D23*
X64884228Y-114339484D03*
X64884228Y-113319484D03*
D15*
X41940000Y-30461200D03*
X41940000Y-29501200D03*
D14*
X84656090Y-113319484D03*
X84656090Y-114339484D03*
D34*
X57895000Y-55531200D03*
D35*
X57895000Y-56801200D03*
X57895000Y-58071200D03*
X57895000Y-59341200D03*
X63295000Y-59341200D03*
X63295000Y-58071200D03*
X63295000Y-56801200D03*
X63295000Y-55531200D03*
D17*
X96137706Y-38037020D03*
X95177706Y-38037020D03*
D14*
X58340000Y-71186200D03*
X58340000Y-72206200D03*
D23*
X40728333Y-129826200D03*
X40728333Y-128806200D03*
D11*
X94115715Y-135696200D03*
X94115715Y-134146200D03*
D36*
X92952600Y-74746200D03*
X94602600Y-74746200D03*
D14*
X85793782Y-113319484D03*
X85793782Y-114339484D03*
D17*
X56205000Y-82051200D03*
X55245000Y-82051200D03*
D15*
X83528398Y-114309484D03*
X83528398Y-113349484D03*
D37*
X102470000Y-94753700D03*
X100920000Y-94753700D03*
D14*
X60373460Y-113319484D03*
X60373460Y-114339484D03*
D38*
X95508800Y-82008700D03*
X95508800Y-83833700D03*
D23*
X81263014Y-114339484D03*
X81263014Y-113319484D03*
D39*
X73076448Y-60240600D03*
X73476450Y-52040599D03*
X73876449Y-60240600D03*
X74276448Y-52040599D03*
X74676450Y-60240600D03*
X75076449Y-52040599D03*
X75476448Y-60240600D03*
X75876448Y-52040599D03*
X76276449Y-60240600D03*
X76676448Y-52040599D03*
X77076448Y-60240600D03*
X77476449Y-52040599D03*
X77876449Y-60240600D03*
X78276448Y-52040599D03*
X78676447Y-60240600D03*
X79076449Y-52040599D03*
X82676448Y-60240600D03*
X83076447Y-52040599D03*
X83476449Y-60240600D03*
X83876448Y-52040599D03*
X84276447Y-60240600D03*
X84676449Y-52040599D03*
X85076448Y-60240600D03*
X85476447Y-52040599D03*
X85876447Y-60240600D03*
X86276448Y-52040599D03*
X86676448Y-60240600D03*
X87076447Y-52040599D03*
X87476449Y-60240600D03*
X87876448Y-52040599D03*
X88276447Y-60240600D03*
X88676449Y-52040599D03*
X89076448Y-60240600D03*
X89476447Y-52040599D03*
X89876446Y-60240600D03*
X90276448Y-52040599D03*
X90676447Y-60240600D03*
X91076446Y-52040599D03*
X91476448Y-60240600D03*
X91876447Y-52040599D03*
X92276447Y-60240600D03*
X92676446Y-52040599D03*
X93076448Y-60240600D03*
X93476447Y-52040599D03*
X93876446Y-60240600D03*
X94276448Y-52040599D03*
X94676447Y-60240600D03*
X95076446Y-52040599D03*
X95476448Y-60240600D03*
X95876447Y-52040599D03*
X96276446Y-60240600D03*
X96676445Y-52040599D03*
D40*
X70226452Y-59618300D03*
X99526444Y-59618300D03*
D18*
X66215134Y-67211200D03*
X66215134Y-68171200D03*
D22*
X100921005Y-25022020D03*
X101941005Y-25022020D03*
D27*
X100946005Y-22877020D03*
X101916005Y-22877020D03*
D41*
X95930000Y-78299820D03*
X97060000Y-78299820D03*
X95930000Y-77589820D03*
X97060000Y-77589820D03*
D42*
X95520000Y-76819820D03*
X96170000Y-76819820D03*
X96820000Y-76819820D03*
X97470000Y-76819820D03*
X95520000Y-79819820D03*
X96170000Y-79819820D03*
X96820000Y-79819820D03*
X97470000Y-79819820D03*
D17*
X99322207Y-18392020D03*
X98362207Y-18392020D03*
D23*
X58508813Y-44701200D03*
X58508813Y-43681200D03*
D14*
X76752246Y-113319484D03*
X76752246Y-114339484D03*
D16*
X90716608Y-120006200D03*
X89696608Y-120006200D03*
D43*
X61469377Y-39223562D03*
X61469377Y-41098562D03*
D13*
X36407600Y-15363800D03*
X37367600Y-15363800D03*
D23*
X68921800Y-63903981D03*
X68921800Y-62883981D03*
D15*
X61501152Y-114309484D03*
X61501152Y-113349484D03*
D44*
X103105000Y-132626200D03*
X103105000Y-135576200D03*
D11*
X39889287Y-135696200D03*
X39889287Y-134146200D03*
D45*
X66668407Y-72444777D03*
X66668407Y-71474777D03*
D14*
X95543929Y-134411200D03*
X95543929Y-135431200D03*
D46*
X95649046Y-118932723D03*
X95649046Y-120032723D03*
X95649046Y-121132724D03*
X95649046Y-122232724D03*
X95649046Y-123332724D03*
X95649046Y-124432722D03*
X95649046Y-125532722D03*
X95649046Y-126632723D03*
X95649046Y-127732723D03*
D47*
X96155046Y-128929723D03*
D48*
X105749046Y-129059723D03*
D49*
X96150046Y-114459723D03*
D48*
X105749046Y-113559723D03*
D11*
X42745715Y-135696200D03*
X42745715Y-134146200D03*
D38*
X95508800Y-86162821D03*
X95508800Y-87987821D03*
D50*
X96495000Y-74744820D03*
X96495000Y-71944820D03*
D43*
X55572293Y-39223562D03*
X55572293Y-41098562D03*
D44*
X85442499Y-132113240D03*
X85442499Y-135063240D03*
D51*
X30603800Y-19652000D03*
X30613800Y-12752000D03*
D22*
X95147706Y-31817020D03*
X96167706Y-31817020D03*
D52*
X65578407Y-75128700D03*
X65078407Y-75128700D03*
X64578407Y-75128700D03*
X64078407Y-75128700D03*
X63578407Y-75128700D03*
X63078407Y-75128700D03*
X62578407Y-75128700D03*
X62078407Y-75128700D03*
X61578407Y-75128700D03*
X61078407Y-75128700D03*
X60578407Y-75128700D03*
X60078407Y-75128700D03*
D53*
X58665907Y-76541200D03*
X58665907Y-77041200D03*
X58665907Y-77541200D03*
X58665907Y-78041200D03*
X58665907Y-78541200D03*
X58665907Y-79041200D03*
X58665907Y-79541200D03*
X58665907Y-80041200D03*
X58665907Y-80541200D03*
X58665907Y-81041200D03*
X58665907Y-81541200D03*
X58665907Y-82041200D03*
D52*
X60078407Y-83453700D03*
X60578407Y-83453700D03*
X61078407Y-83453700D03*
X61578407Y-83453700D03*
X62078407Y-83453700D03*
X62578407Y-83453700D03*
X63078407Y-83453700D03*
X63578407Y-83453700D03*
X64078407Y-83453700D03*
X64578407Y-83453700D03*
X65078407Y-83453700D03*
X65578407Y-83453700D03*
D53*
X66990907Y-82041200D03*
X66990907Y-81541200D03*
X66990907Y-81041200D03*
X66990907Y-80541200D03*
X66990907Y-80041200D03*
X66990907Y-79541200D03*
X66990907Y-79041200D03*
X66990907Y-78541200D03*
X66990907Y-78041200D03*
X66990907Y-77541200D03*
X66990907Y-77041200D03*
X66990907Y-76541200D03*
D23*
X67365000Y-44701200D03*
X67365000Y-43681200D03*
X42915000Y-129826200D03*
X42915000Y-128806200D03*
D13*
X36407600Y-12319800D03*
X37367600Y-12319800D03*
D17*
X55905000Y-111671200D03*
X54945000Y-111671200D03*
D11*
X73596786Y-135183240D03*
X73596786Y-133633240D03*
D15*
X60441681Y-68171200D03*
X60441681Y-67211200D03*
X40865000Y-30461200D03*
X40865000Y-29501200D03*
D54*
X103427600Y-90553700D03*
X103427600Y-86553700D03*
D45*
X71136845Y-114314484D03*
X71136845Y-113344484D03*
D14*
X101256785Y-134411200D03*
X101256785Y-135431200D03*
D17*
X96137706Y-34557020D03*
X95177706Y-34557020D03*
X96137706Y-36747020D03*
X95177706Y-36747020D03*
D55*
X94779648Y-64657099D03*
X94779648Y-65307099D03*
X94779648Y-65957099D03*
X94779648Y-66607099D03*
X99129648Y-66607099D03*
X99129648Y-65957099D03*
X99129648Y-65307099D03*
X99129648Y-64657099D03*
D18*
X61558407Y-71224868D03*
X61558407Y-72184868D03*
D43*
X70315003Y-39223562D03*
X70315003Y-41098562D03*
D11*
X79309642Y-135183240D03*
X79309642Y-133633240D03*
D56*
X21480000Y-22501200D03*
X19580000Y-22501200D03*
D11*
X57599287Y-135183240D03*
X57599287Y-133633240D03*
D57*
X100920000Y-75173700D03*
X102470000Y-75173700D03*
D37*
X93560000Y-78511200D03*
X92010000Y-78511200D03*
D14*
X41317501Y-134411200D03*
X41317501Y-135431200D03*
D18*
X72231478Y-113349484D03*
X72231478Y-114309484D03*
D36*
X92172600Y-88023700D03*
X93822600Y-88023700D03*
D15*
X66011920Y-114309484D03*
X66011920Y-113349484D03*
D22*
X39995000Y-22901200D03*
X41015000Y-22901200D03*
D58*
X25280000Y-13509600D03*
X15780000Y-13509600D03*
D44*
X51735000Y-132626200D03*
X51735000Y-135576200D03*
D14*
X44173929Y-134411200D03*
X44173929Y-135431200D03*
D23*
X56980384Y-114339484D03*
X56980384Y-113319484D03*
D14*
X74789200Y-62883981D03*
X74789200Y-63903981D03*
D11*
X66168571Y-135183240D03*
X66168571Y-133633240D03*
D59*
X70359400Y-67907723D03*
X72259400Y-67907723D03*
X71309400Y-66032723D03*
D14*
X71309400Y-62883981D03*
X71309400Y-63903981D03*
D43*
X67366461Y-39223562D03*
X67366461Y-41098562D03*
D38*
X97497600Y-86152821D03*
X97497600Y-87977821D03*
D23*
X73359170Y-114339484D03*
X73359170Y-113319484D03*
D14*
X80737856Y-133898240D03*
X80737856Y-134918240D03*
X101577448Y-63344099D03*
X101577448Y-64364099D03*
D16*
X101360000Y-100896200D03*
X100340000Y-100896200D03*
D60*
X62228407Y-68541200D03*
X64428407Y-68541200D03*
X64428407Y-66841200D03*
X62228407Y-66841200D03*
D18*
X54715000Y-113349484D03*
X54715000Y-114309484D03*
D14*
X41205600Y-16936600D03*
X41205600Y-17956600D03*
D15*
X79017630Y-114309484D03*
X79017630Y-113349484D03*
D26*
X67490000Y-117799610D03*
X66500000Y-117799610D03*
X65510000Y-117799610D03*
X64520000Y-117799610D03*
X63530000Y-117799610D03*
X62540000Y-117799610D03*
X61550000Y-117799610D03*
X60560000Y-117799610D03*
X59570000Y-117799610D03*
X58580000Y-117799610D03*
X57590000Y-117799610D03*
X56600000Y-117799610D03*
X56600000Y-127199610D03*
X57590000Y-127199610D03*
X58580000Y-127199610D03*
X59570000Y-127199610D03*
X60560000Y-127199610D03*
X61550000Y-127199610D03*
X62540000Y-127199610D03*
X63530000Y-127199610D03*
X64520000Y-127199610D03*
X65510000Y-127199610D03*
X66500000Y-127199610D03*
X67490000Y-127199610D03*
D61*
X90685900Y-66184823D03*
X87735900Y-66184823D03*
D23*
X70090200Y-63903981D03*
X70090200Y-62883981D03*
D16*
X81402600Y-80031563D03*
X80382600Y-80031563D03*
D23*
X63746536Y-114339484D03*
X63746536Y-113319484D03*
X55572293Y-44701200D03*
X55572293Y-43681200D03*
D11*
X60455715Y-135183240D03*
X60455715Y-133633240D03*
D36*
X92172600Y-81983700D03*
X93822600Y-81983700D03*
D62*
X99106005Y-32957020D03*
X99106005Y-35497020D03*
X99106005Y-38037020D03*
X99106005Y-31687020D03*
X99106005Y-34227020D03*
X99106005Y-36767020D03*
X99106005Y-30737020D03*
D63*
X100586066Y-39707020D03*
X100586066Y-26707020D03*
X112586007Y-39707020D03*
X112586007Y-26707020D03*
D18*
X69405000Y-113349484D03*
X69405000Y-114309484D03*
X80135322Y-113349484D03*
X80135322Y-114309484D03*
D23*
X60441681Y-70201200D03*
X60441681Y-69181200D03*
D14*
X67139612Y-113319484D03*
X67139612Y-114339484D03*
D57*
X80117600Y-78533700D03*
X81667600Y-78533700D03*
D36*
X92952600Y-95233700D03*
X94602600Y-95233700D03*
D17*
X96137706Y-32957020D03*
X95177706Y-32957020D03*
D22*
X36085000Y-24076200D03*
X37105000Y-24076200D03*
D64*
X59398407Y-71209868D03*
X59398407Y-72179868D03*
D43*
X64417919Y-39223562D03*
X64417919Y-41098562D03*
D17*
X101911005Y-23949520D03*
X100951005Y-23949520D03*
X99322207Y-19662020D03*
X98362207Y-19662020D03*
D11*
X99828571Y-135696200D03*
X99828571Y-134146200D03*
X45602143Y-135696200D03*
X45602143Y-134146200D03*
D18*
X58108076Y-113349484D03*
X58108076Y-114309484D03*
X62618844Y-113349484D03*
X62618844Y-114309484D03*
D59*
X73839200Y-67907723D03*
X75739200Y-67907723D03*
X74789200Y-66032723D03*
D22*
X8665000Y-19756200D03*
X9685000Y-19756200D03*
D18*
X75624554Y-113349484D03*
X75624554Y-114309484D03*
D65*
X104295000Y-111131200D03*
X104295000Y-101951200D03*
D14*
X68277304Y-113319484D03*
X68277304Y-114339484D03*
D44*
X69445000Y-132113240D03*
X69445000Y-135063240D03*
D14*
X49886785Y-134411200D03*
X49886785Y-135431200D03*
X75025000Y-133898240D03*
X75025000Y-134918240D03*
X83594284Y-133898240D03*
X83594284Y-134918240D03*
D23*
X37370200Y-14351800D03*
X37370200Y-13331800D03*
D16*
X91461448Y-68115223D03*
X90441448Y-68115223D03*
D23*
X70315003Y-44701200D03*
X70315003Y-43681200D03*
D14*
X77881428Y-133898240D03*
X77881428Y-134918240D03*
D17*
X99322207Y-17122020D03*
X98362207Y-17122020D03*
D56*
X21480000Y-20139000D03*
X19580000Y-20139000D03*
D23*
X92921005Y-28997020D03*
X92921005Y-27977020D03*
D14*
X67596785Y-133898240D03*
X67596785Y-134918240D03*
D66*
X45465000Y-31081200D03*
X45465000Y-25981200D03*
D23*
X64405000Y-44701200D03*
X64405000Y-43681200D03*
D16*
X109315129Y-16582020D03*
X108295129Y-16582020D03*
D23*
X39635000Y-129826200D03*
X39635000Y-128806200D03*
D38*
X97497600Y-82008700D03*
X97497600Y-83833700D03*
D11*
X82166070Y-135183240D03*
X82166070Y-133633240D03*
D21*
X37088800Y-25828800D03*
X40038800Y-25828800D03*
D67*
X57795000Y-109001200D03*
X59195000Y-109001200D03*
X60595000Y-109001200D03*
X61995000Y-109001200D03*
X63395000Y-109001200D03*
X64795000Y-109001200D03*
X66195000Y-109001200D03*
X67595000Y-109001200D03*
X68995000Y-109001200D03*
X70395000Y-109001200D03*
X71795000Y-109001200D03*
X73195000Y-109001200D03*
X74595000Y-109001200D03*
X75995000Y-109001200D03*
X77395000Y-109001200D03*
X78795000Y-109001200D03*
X80195000Y-109001200D03*
X81595000Y-109001200D03*
X82995000Y-109001200D03*
X84395000Y-109001200D03*
X85795000Y-109001200D03*
X87195000Y-109001200D03*
X88595000Y-109001200D03*
D68*
X89895000Y-106001200D03*
X89895000Y-104601200D03*
X89895000Y-103201200D03*
X89895000Y-101801200D03*
X89895000Y-100401200D03*
X89895000Y-99001200D03*
X89895000Y-97601200D03*
X89895000Y-96201200D03*
X89895000Y-94801200D03*
X89895000Y-93401200D03*
D67*
X88595000Y-90301200D03*
X87195000Y-90301200D03*
X85795000Y-90301200D03*
X84395000Y-90301200D03*
X82995000Y-90301200D03*
X81595000Y-90301200D03*
X80195000Y-90301200D03*
X78795000Y-90301200D03*
X77395000Y-90301200D03*
X75995000Y-90301200D03*
X74595000Y-90301200D03*
X73195000Y-90301200D03*
X71795000Y-90301200D03*
X70395000Y-90301200D03*
X68995000Y-90301200D03*
X67595000Y-90301200D03*
X66195000Y-90301200D03*
X64795000Y-90301200D03*
X63395000Y-90301200D03*
X61995000Y-90301200D03*
X60595000Y-90301200D03*
X59195000Y-90301200D03*
X57795000Y-90301200D03*
D69*
X75895000Y-99401200D03*
D70*
X62195000Y-103701200D03*
X62195000Y-97101200D03*
D14*
X59235768Y-113319484D03*
X59235768Y-114339484D03*
D23*
X41821666Y-129826200D03*
X41821666Y-128806200D03*
D43*
X58520835Y-39223562D03*
X58520835Y-41098562D03*
D18*
X72640000Y-76536200D03*
X72640000Y-77496200D03*
D71*
X106462806Y-19662020D03*
X106462806Y-18392020D03*
X106462806Y-17122020D03*
X106462806Y-15852020D03*
X100971204Y-15852020D03*
X100971204Y-17122020D03*
X100971204Y-18392020D03*
X100971204Y-19662020D03*
D72*
X103717005Y-17757020D03*
D73*
X103427600Y-79456200D03*
X103427600Y-83456200D03*
D74*
X34828948Y-22368400D03*
X36098948Y-22368400D03*
X37368948Y-22368400D03*
X38638948Y-22368400D03*
X38638948Y-16944400D03*
X37368948Y-16944400D03*
X36098948Y-16944400D03*
X34828948Y-16944400D03*
D75*
X36733948Y-19656400D03*
D22*
X38117000Y-24076200D03*
X39137000Y-24076200D03*
D41*
X97060000Y-91649977D03*
X95930000Y-91649977D03*
X97060000Y-92359977D03*
X95930000Y-92359977D03*
D42*
X97470000Y-93129977D03*
X96820000Y-93129977D03*
X96170000Y-93129977D03*
X95520000Y-93129977D03*
X97470000Y-90129977D03*
X96820000Y-90129977D03*
X96170000Y-90129977D03*
X95520000Y-90129977D03*
D76*
X96495000Y-95249977D03*
X96495000Y-98049977D03*
D11*
X48458571Y-135696200D03*
X48458571Y-134146200D03*
D33*
X103904800Y-71954820D03*
X99485200Y-71954820D03*
D14*
X40113400Y-16936600D03*
X40113400Y-17956600D03*
X98400357Y-134411200D03*
X98400357Y-135431200D03*
X92687501Y-134411200D03*
X92687501Y-135431200D03*
D23*
X82400706Y-114339484D03*
X82400706Y-113319484D03*
M02*
