G04 #@! TF.GenerationSoftware,KiCad,Pcbnew,7.0.6-0*
G04 #@! TF.CreationDate,2023-08-16T18:23:03-03:00*
G04 #@! TF.ProjectId,expansao_bateria_rev1.0.0,65787061-6e73-4616-9f5f-626174657269,rev?*
G04 #@! TF.SameCoordinates,Original*
G04 #@! TF.FileFunction,Paste,Top*
G04 #@! TF.FilePolarity,Positive*
%FSLAX46Y46*%
G04 Gerber Fmt 4.6, Leading zero omitted, Abs format (unit mm)*
G04 Created by KiCad (PCBNEW 7.0.6-0) date 2023-08-16 18:23:03*
%MOMM*%
%LPD*%
G01*
G04 APERTURE LIST*
G04 Aperture macros list*
%AMRoundRect*
0 Rectangle with rounded corners*
0 $1 Rounding radius*
0 $2 $3 $4 $5 $6 $7 $8 $9 X,Y pos of 4 corners*
0 Add a 4 corners polygon primitive as box body*
4,1,4,$2,$3,$4,$5,$6,$7,$8,$9,$2,$3,0*
0 Add four circle primitives for the rounded corners*
1,1,$1+$1,$2,$3*
1,1,$1+$1,$4,$5*
1,1,$1+$1,$6,$7*
1,1,$1+$1,$8,$9*
0 Add four rect primitives between the rounded corners*
20,1,$1+$1,$2,$3,$4,$5,0*
20,1,$1+$1,$4,$5,$6,$7,0*
20,1,$1+$1,$6,$7,$8,$9,0*
20,1,$1+$1,$8,$9,$2,$3,0*%
G04 Aperture macros list end*
%ADD10R,2.500000X5.300000*%
%ADD11RoundRect,0.250000X0.550000X-1.712500X0.550000X1.712500X-0.550000X1.712500X-0.550000X-1.712500X0*%
%ADD12RoundRect,0.135000X-0.185000X0.135000X-0.185000X-0.135000X0.185000X-0.135000X0.185000X0.135000X0*%
%ADD13RoundRect,0.135000X0.185000X-0.135000X0.185000X0.135000X-0.185000X0.135000X-0.185000X-0.135000X0*%
%ADD14R,0.399999X0.700001*%
%ADD15RoundRect,0.218750X-0.256250X0.218750X-0.256250X-0.218750X0.256250X-0.218750X0.256250X0.218750X0*%
%ADD16RoundRect,0.140000X-0.170000X0.140000X-0.170000X-0.140000X0.170000X-0.140000X0.170000X0.140000X0*%
%ADD17RoundRect,0.250000X-0.325000X-0.650000X0.325000X-0.650000X0.325000X0.650000X-0.325000X0.650000X0*%
%ADD18RoundRect,0.140000X-0.140000X-0.170000X0.140000X-0.170000X0.140000X0.170000X-0.140000X0.170000X0*%
%ADD19RoundRect,0.250000X-0.312500X-0.625000X0.312500X-0.625000X0.312500X0.625000X-0.312500X0.625000X0*%
%ADD20RoundRect,0.140000X0.140000X0.170000X-0.140000X0.170000X-0.140000X-0.170000X0.140000X-0.170000X0*%
%ADD21RoundRect,0.175000X0.175000X0.220000X-0.175000X0.220000X-0.175000X-0.220000X0.175000X-0.220000X0*%
%ADD22RoundRect,0.075000X0.650000X0.075000X-0.650000X0.075000X-0.650000X-0.075000X0.650000X-0.075000X0*%
%ADD23RoundRect,0.150000X0.150000X-0.587500X0.150000X0.587500X-0.150000X0.587500X-0.150000X-0.587500X0*%
%ADD24RoundRect,0.218750X0.256250X-0.218750X0.256250X0.218750X-0.256250X0.218750X-0.256250X-0.218750X0*%
%ADD25RoundRect,0.140000X0.170000X-0.140000X0.170000X0.140000X-0.170000X0.140000X-0.170000X-0.140000X0*%
%ADD26RoundRect,0.135000X0.135000X0.185000X-0.135000X0.185000X-0.135000X-0.185000X0.135000X-0.185000X0*%
%ADD27RoundRect,0.250000X0.650000X-0.325000X0.650000X0.325000X-0.650000X0.325000X-0.650000X-0.325000X0*%
%ADD28R,3.500000X4.000000*%
%ADD29RoundRect,0.250000X-0.335000X-0.335000X0.335000X-0.335000X0.335000X0.335000X-0.335000X0.335000X0*%
%ADD30RoundRect,0.050000X-0.337500X-0.050000X0.337500X-0.050000X0.337500X0.050000X-0.337500X0.050000X0*%
%ADD31RoundRect,0.050000X-0.050000X-0.337500X0.050000X-0.337500X0.050000X0.337500X-0.050000X0.337500X0*%
%ADD32RoundRect,0.250000X0.325000X0.650000X-0.325000X0.650000X-0.325000X-0.650000X0.325000X-0.650000X0*%
%ADD33RoundRect,0.250000X1.000000X-1.400000X1.000000X1.400000X-1.000000X1.400000X-1.000000X-1.400000X0*%
%ADD34RoundRect,0.250000X-1.400000X-1.000000X1.400000X-1.000000X1.400000X1.000000X-1.400000X1.000000X0*%
%ADD35RoundRect,0.250000X-0.650000X0.325000X-0.650000X-0.325000X0.650000X-0.325000X0.650000X0.325000X0*%
%ADD36RoundRect,0.225000X-0.250000X0.225000X-0.250000X-0.225000X0.250000X-0.225000X0.250000X0.225000X0*%
%ADD37RoundRect,0.112500X0.112500X-0.187500X0.112500X0.187500X-0.112500X0.187500X-0.112500X-0.187500X0*%
%ADD38R,0.700001X0.399999*%
%ADD39R,1.525000X0.650000*%
%ADD40R,2.400000X3.100000*%
%ADD41R,3.175000X3.300000*%
%ADD42R,1.500000X1.500000*%
%ADD43R,0.750000X0.500000*%
%ADD44R,0.750000X0.400000*%
%ADD45RoundRect,0.250000X-0.262500X-0.450000X0.262500X-0.450000X0.262500X0.450000X-0.262500X0.450000X0*%
%ADD46R,2.350000X3.500000*%
G04 APERTURE END LIST*
G36*
X28648774Y-31708948D02*
G01*
X28658033Y-31711754D01*
X28666564Y-31716316D01*
X28674042Y-31722453D01*
X28680179Y-31729930D01*
X28684741Y-31738462D01*
X28687547Y-31747721D01*
X28688495Y-31757350D01*
X28688495Y-32363648D01*
X28687547Y-32373277D01*
X28684741Y-32382535D01*
X28680179Y-32391067D01*
X28674042Y-32398545D01*
X28666564Y-32404681D01*
X28658033Y-32409243D01*
X28648774Y-32412050D01*
X28639145Y-32412997D01*
X27612848Y-32412997D01*
X27603219Y-32412050D01*
X27593960Y-32409243D01*
X27585429Y-32404681D01*
X27577951Y-32398545D01*
X27571814Y-32391067D01*
X27567252Y-32382535D01*
X27564446Y-32373277D01*
X27563496Y-32363648D01*
X27563496Y-31757350D01*
X27564446Y-31747721D01*
X27567252Y-31738462D01*
X27571814Y-31729930D01*
X27577951Y-31722453D01*
X27585429Y-31716316D01*
X27593960Y-31711754D01*
X27603219Y-31708948D01*
X27612848Y-31707998D01*
X28639145Y-31707998D01*
X28648774Y-31708948D01*
G37*
G36*
X27323778Y-31708948D02*
G01*
X27333036Y-31711754D01*
X27341568Y-31716316D01*
X27349046Y-31722453D01*
X27355183Y-31729930D01*
X27359745Y-31738462D01*
X27362551Y-31747721D01*
X27363501Y-31757350D01*
X27363501Y-32363648D01*
X27362551Y-32373277D01*
X27359745Y-32382535D01*
X27355183Y-32391067D01*
X27349046Y-32398545D01*
X27341568Y-32404681D01*
X27333036Y-32409243D01*
X27323778Y-32412050D01*
X27314149Y-32412997D01*
X26287852Y-32412997D01*
X26278223Y-32412050D01*
X26268964Y-32409243D01*
X26260433Y-32404681D01*
X26252955Y-32398545D01*
X26246818Y-32391067D01*
X26242256Y-32382535D01*
X26239450Y-32373277D01*
X26238502Y-32363648D01*
X26238502Y-31757350D01*
X26239450Y-31747721D01*
X26242256Y-31738462D01*
X26246818Y-31729930D01*
X26252955Y-31722453D01*
X26260433Y-31716316D01*
X26268964Y-31711754D01*
X26278223Y-31708948D01*
X26287852Y-31707998D01*
X27314149Y-31707998D01*
X27323778Y-31708948D01*
G37*
G36*
X28648774Y-32613947D02*
G01*
X28658033Y-32616754D01*
X28666564Y-32621316D01*
X28674042Y-32627452D01*
X28680179Y-32634930D01*
X28684741Y-32643462D01*
X28687547Y-32652720D01*
X28688495Y-32662349D01*
X28688495Y-33268647D01*
X28687547Y-33278276D01*
X28684741Y-33287535D01*
X28680179Y-33296067D01*
X28674042Y-33303544D01*
X28666564Y-33309681D01*
X28658033Y-33314243D01*
X28648774Y-33317049D01*
X28639145Y-33317997D01*
X27612848Y-33317997D01*
X27603219Y-33317049D01*
X27593960Y-33314243D01*
X27585429Y-33309681D01*
X27577951Y-33303544D01*
X27571814Y-33296067D01*
X27567252Y-33287535D01*
X27564446Y-33278276D01*
X27563496Y-33268647D01*
X27563496Y-32662349D01*
X27564446Y-32652720D01*
X27567252Y-32643462D01*
X27571814Y-32634930D01*
X27577951Y-32627452D01*
X27585429Y-32621316D01*
X27593960Y-32616754D01*
X27603219Y-32613947D01*
X27612848Y-32612997D01*
X28639145Y-32612997D01*
X28648774Y-32613947D01*
G37*
G36*
X27323778Y-32613947D02*
G01*
X27333036Y-32616754D01*
X27341568Y-32621316D01*
X27349046Y-32627452D01*
X27355183Y-32634930D01*
X27359745Y-32643462D01*
X27362551Y-32652720D01*
X27363501Y-32662349D01*
X27363501Y-33268647D01*
X27362551Y-33278276D01*
X27359745Y-33287535D01*
X27355183Y-33296067D01*
X27349046Y-33303544D01*
X27341568Y-33309681D01*
X27333036Y-33314243D01*
X27323778Y-33317049D01*
X27314149Y-33317997D01*
X26287852Y-33317997D01*
X26278223Y-33317049D01*
X26268964Y-33314243D01*
X26260433Y-33309681D01*
X26252955Y-33303544D01*
X26246818Y-33296067D01*
X26242256Y-33287535D01*
X26239450Y-33278276D01*
X26238502Y-33268647D01*
X26238502Y-32662349D01*
X26239450Y-32652720D01*
X26242256Y-32643462D01*
X26246818Y-32634930D01*
X26252955Y-32627452D01*
X26260433Y-32621316D01*
X26268964Y-32616754D01*
X26278223Y-32613947D01*
X26287852Y-32612997D01*
X27314149Y-32612997D01*
X27323778Y-32613947D01*
G37*
G36*
X42643283Y-39223948D02*
G01*
X42652542Y-39226755D01*
X42661073Y-39231317D01*
X42668551Y-39237453D01*
X42674688Y-39244931D01*
X42679250Y-39253463D01*
X42682056Y-39262721D01*
X42683006Y-39272350D01*
X42683006Y-39878648D01*
X42682056Y-39888277D01*
X42679250Y-39897536D01*
X42674688Y-39906068D01*
X42668551Y-39913545D01*
X42661073Y-39919682D01*
X42652542Y-39924244D01*
X42643283Y-39927050D01*
X42633654Y-39928000D01*
X41607357Y-39928000D01*
X41597728Y-39927050D01*
X41588469Y-39924244D01*
X41579938Y-39919682D01*
X41572460Y-39913545D01*
X41566323Y-39906068D01*
X41561761Y-39897536D01*
X41558955Y-39888277D01*
X41558007Y-39878648D01*
X41558007Y-39272350D01*
X41558955Y-39262721D01*
X41561761Y-39253463D01*
X41566323Y-39244931D01*
X41572460Y-39237453D01*
X41579938Y-39231317D01*
X41588469Y-39226755D01*
X41597728Y-39223948D01*
X41607357Y-39223001D01*
X42633654Y-39223001D01*
X42643283Y-39223948D01*
G37*
G36*
X43968279Y-39223948D02*
G01*
X43977538Y-39226755D01*
X43986069Y-39231317D01*
X43993547Y-39237453D01*
X43999684Y-39244931D01*
X44004246Y-39253463D01*
X44007052Y-39262721D01*
X44008000Y-39272350D01*
X44008000Y-39878648D01*
X44007052Y-39888277D01*
X44004246Y-39897536D01*
X43999684Y-39906068D01*
X43993547Y-39913545D01*
X43986069Y-39919682D01*
X43977538Y-39924244D01*
X43968279Y-39927050D01*
X43958650Y-39928000D01*
X42932353Y-39928000D01*
X42922724Y-39927050D01*
X42913466Y-39924244D01*
X42904934Y-39919682D01*
X42897456Y-39913545D01*
X42891319Y-39906068D01*
X42886757Y-39897536D01*
X42883951Y-39888277D01*
X42883001Y-39878648D01*
X42883001Y-39272350D01*
X42883951Y-39262721D01*
X42886757Y-39253463D01*
X42891319Y-39244931D01*
X42897456Y-39237453D01*
X42904934Y-39231317D01*
X42913466Y-39226755D01*
X42922724Y-39223948D01*
X42932353Y-39223001D01*
X43958650Y-39223001D01*
X43968279Y-39223948D01*
G37*
G36*
X42643283Y-38318949D02*
G01*
X42652542Y-38321755D01*
X42661073Y-38326317D01*
X42668551Y-38332454D01*
X42674688Y-38339931D01*
X42679250Y-38348463D01*
X42682056Y-38357722D01*
X42683006Y-38367351D01*
X42683006Y-38973649D01*
X42682056Y-38983278D01*
X42679250Y-38992536D01*
X42674688Y-39001068D01*
X42668551Y-39008546D01*
X42661073Y-39014682D01*
X42652542Y-39019244D01*
X42643283Y-39022051D01*
X42633654Y-39023001D01*
X41607357Y-39023001D01*
X41597728Y-39022051D01*
X41588469Y-39019244D01*
X41579938Y-39014682D01*
X41572460Y-39008546D01*
X41566323Y-39001068D01*
X41561761Y-38992536D01*
X41558955Y-38983278D01*
X41558007Y-38973649D01*
X41558007Y-38367351D01*
X41558955Y-38357722D01*
X41561761Y-38348463D01*
X41566323Y-38339931D01*
X41572460Y-38332454D01*
X41579938Y-38326317D01*
X41588469Y-38321755D01*
X41597728Y-38318949D01*
X41607357Y-38318001D01*
X42633654Y-38318001D01*
X42643283Y-38318949D01*
G37*
G36*
X43968279Y-38318949D02*
G01*
X43977538Y-38321755D01*
X43986069Y-38326317D01*
X43993547Y-38332454D01*
X43999684Y-38339931D01*
X44004246Y-38348463D01*
X44007052Y-38357722D01*
X44008000Y-38367351D01*
X44008000Y-38973649D01*
X44007052Y-38983278D01*
X44004246Y-38992536D01*
X43999684Y-39001068D01*
X43993547Y-39008546D01*
X43986069Y-39014682D01*
X43977538Y-39019244D01*
X43968279Y-39022051D01*
X43958650Y-39023001D01*
X42932353Y-39023001D01*
X42922724Y-39022051D01*
X42913466Y-39019244D01*
X42904934Y-39014682D01*
X42897456Y-39008546D01*
X42891319Y-39001068D01*
X42886757Y-38992536D01*
X42883951Y-38983278D01*
X42883001Y-38973649D01*
X42883001Y-38367351D01*
X42883951Y-38357722D01*
X42886757Y-38348463D01*
X42891319Y-38339931D01*
X42897456Y-38332454D01*
X42904934Y-38326317D01*
X42913466Y-38321755D01*
X42922724Y-38318949D01*
X42932353Y-38318001D01*
X43958650Y-38318001D01*
X43968279Y-38318949D01*
G37*
G36*
X43468279Y-26183944D02*
G01*
X43477538Y-26186750D01*
X43486070Y-26191312D01*
X43493547Y-26197449D01*
X43499684Y-26204927D01*
X43504246Y-26213458D01*
X43507052Y-26222717D01*
X43508002Y-26232346D01*
X43508002Y-27258643D01*
X43507052Y-27268272D01*
X43504246Y-27277531D01*
X43499684Y-27286062D01*
X43493547Y-27293540D01*
X43486070Y-27299677D01*
X43477538Y-27304239D01*
X43468279Y-27307045D01*
X43458650Y-27307993D01*
X42852352Y-27307993D01*
X42842723Y-27307045D01*
X42833465Y-27304239D01*
X42824933Y-27299677D01*
X42817455Y-27293540D01*
X42811319Y-27286062D01*
X42806757Y-27277531D01*
X42803950Y-27268272D01*
X42803003Y-27258643D01*
X42803003Y-26232346D01*
X42803950Y-26222717D01*
X42806757Y-26213458D01*
X42811319Y-26204927D01*
X42817455Y-26197449D01*
X42824933Y-26191312D01*
X42833465Y-26186750D01*
X42842723Y-26183944D01*
X42852352Y-26182994D01*
X43458650Y-26182994D01*
X43468279Y-26183944D01*
G37*
G36*
X43468279Y-24858948D02*
G01*
X43477538Y-24861754D01*
X43486070Y-24866316D01*
X43493547Y-24872453D01*
X43499684Y-24879931D01*
X43504246Y-24888462D01*
X43507052Y-24897721D01*
X43508002Y-24907350D01*
X43508002Y-25933647D01*
X43507052Y-25943276D01*
X43504246Y-25952534D01*
X43499684Y-25961066D01*
X43493547Y-25968544D01*
X43486070Y-25974681D01*
X43477538Y-25979243D01*
X43468279Y-25982049D01*
X43458650Y-25982999D01*
X42852352Y-25982999D01*
X42842723Y-25982049D01*
X42833465Y-25979243D01*
X42824933Y-25974681D01*
X42817455Y-25968544D01*
X42811319Y-25961066D01*
X42806757Y-25952534D01*
X42803950Y-25943276D01*
X42803003Y-25933647D01*
X42803003Y-24907350D01*
X42803950Y-24897721D01*
X42806757Y-24888462D01*
X42811319Y-24879931D01*
X42817455Y-24872453D01*
X42824933Y-24866316D01*
X42833465Y-24861754D01*
X42842723Y-24858948D01*
X42852352Y-24858000D01*
X43458650Y-24858000D01*
X43468279Y-24858948D01*
G37*
G36*
X42563280Y-26183944D02*
G01*
X42572538Y-26186750D01*
X42581070Y-26191312D01*
X42588548Y-26197449D01*
X42594684Y-26204927D01*
X42599246Y-26213458D01*
X42602053Y-26222717D01*
X42603003Y-26232346D01*
X42603003Y-27258643D01*
X42602053Y-27268272D01*
X42599246Y-27277531D01*
X42594684Y-27286062D01*
X42588548Y-27293540D01*
X42581070Y-27299677D01*
X42572538Y-27304239D01*
X42563280Y-27307045D01*
X42553651Y-27307993D01*
X41947353Y-27307993D01*
X41937724Y-27307045D01*
X41928465Y-27304239D01*
X41919933Y-27299677D01*
X41912456Y-27293540D01*
X41906319Y-27286062D01*
X41901757Y-27277531D01*
X41898951Y-27268272D01*
X41898003Y-27258643D01*
X41898003Y-26232346D01*
X41898951Y-26222717D01*
X41901757Y-26213458D01*
X41906319Y-26204927D01*
X41912456Y-26197449D01*
X41919933Y-26191312D01*
X41928465Y-26186750D01*
X41937724Y-26183944D01*
X41947353Y-26182994D01*
X42553651Y-26182994D01*
X42563280Y-26183944D01*
G37*
G36*
X42563280Y-24858948D02*
G01*
X42572538Y-24861754D01*
X42581070Y-24866316D01*
X42588548Y-24872453D01*
X42594684Y-24879931D01*
X42599246Y-24888462D01*
X42602053Y-24897721D01*
X42603003Y-24907350D01*
X42603003Y-25933647D01*
X42602053Y-25943276D01*
X42599246Y-25952534D01*
X42594684Y-25961066D01*
X42588548Y-25968544D01*
X42581070Y-25974681D01*
X42572538Y-25979243D01*
X42563280Y-25982049D01*
X42553651Y-25982999D01*
X41947353Y-25982999D01*
X41937724Y-25982049D01*
X41928465Y-25979243D01*
X41919933Y-25974681D01*
X41912456Y-25968544D01*
X41906319Y-25961066D01*
X41901757Y-25952534D01*
X41898951Y-25943276D01*
X41898003Y-25933647D01*
X41898003Y-24907350D01*
X41898951Y-24897721D01*
X41901757Y-24888462D01*
X41906319Y-24879931D01*
X41912456Y-24872453D01*
X41919933Y-24866316D01*
X41928465Y-24861754D01*
X41937724Y-24858948D01*
X41947353Y-24858000D01*
X42553651Y-24858000D01*
X42563280Y-24858948D01*
G37*
G36*
X27468778Y-24858953D02*
G01*
X27478036Y-24861759D01*
X27486568Y-24866321D01*
X27494046Y-24872458D01*
X27500182Y-24879936D01*
X27504744Y-24888467D01*
X27507551Y-24897726D01*
X27508498Y-24907355D01*
X27508498Y-25933652D01*
X27507551Y-25943281D01*
X27504744Y-25952540D01*
X27500182Y-25961071D01*
X27494046Y-25968549D01*
X27486568Y-25974686D01*
X27478036Y-25979248D01*
X27468778Y-25982054D01*
X27459149Y-25983004D01*
X26852851Y-25983004D01*
X26843222Y-25982054D01*
X26833963Y-25979248D01*
X26825431Y-25974686D01*
X26817954Y-25968549D01*
X26811817Y-25961071D01*
X26807255Y-25952540D01*
X26804449Y-25943281D01*
X26803499Y-25933652D01*
X26803499Y-24907355D01*
X26804449Y-24897726D01*
X26807255Y-24888467D01*
X26811817Y-24879936D01*
X26817954Y-24872458D01*
X26825431Y-24866321D01*
X26833963Y-24861759D01*
X26843222Y-24858953D01*
X26852851Y-24858005D01*
X27459149Y-24858005D01*
X27468778Y-24858953D01*
G37*
G36*
X27468778Y-26183949D02*
G01*
X27478036Y-26186755D01*
X27486568Y-26191317D01*
X27494046Y-26197454D01*
X27500182Y-26204932D01*
X27504744Y-26213464D01*
X27507551Y-26222722D01*
X27508498Y-26232351D01*
X27508498Y-27258648D01*
X27507551Y-27268277D01*
X27504744Y-27277536D01*
X27500182Y-27286067D01*
X27494046Y-27293545D01*
X27486568Y-27299682D01*
X27478036Y-27304244D01*
X27468778Y-27307050D01*
X27459149Y-27307998D01*
X26852851Y-27307998D01*
X26843222Y-27307050D01*
X26833963Y-27304244D01*
X26825431Y-27299682D01*
X26817954Y-27293545D01*
X26811817Y-27286067D01*
X26807255Y-27277536D01*
X26804449Y-27268277D01*
X26803499Y-27258648D01*
X26803499Y-26232351D01*
X26804449Y-26222722D01*
X26807255Y-26213464D01*
X26811817Y-26204932D01*
X26817954Y-26197454D01*
X26825431Y-26191317D01*
X26833963Y-26186755D01*
X26843222Y-26183949D01*
X26852851Y-26182999D01*
X27459149Y-26182999D01*
X27468778Y-26183949D01*
G37*
G36*
X28373777Y-24858953D02*
G01*
X28383036Y-24861759D01*
X28391568Y-24866321D01*
X28399045Y-24872458D01*
X28405182Y-24879936D01*
X28409744Y-24888467D01*
X28412550Y-24897726D01*
X28413498Y-24907355D01*
X28413498Y-25933652D01*
X28412550Y-25943281D01*
X28409744Y-25952540D01*
X28405182Y-25961071D01*
X28399045Y-25968549D01*
X28391568Y-25974686D01*
X28383036Y-25979248D01*
X28373777Y-25982054D01*
X28364148Y-25983004D01*
X27757850Y-25983004D01*
X27748221Y-25982054D01*
X27738963Y-25979248D01*
X27730431Y-25974686D01*
X27722953Y-25968549D01*
X27716817Y-25961071D01*
X27712255Y-25952540D01*
X27709448Y-25943281D01*
X27708498Y-25933652D01*
X27708498Y-24907355D01*
X27709448Y-24897726D01*
X27712255Y-24888467D01*
X27716817Y-24879936D01*
X27722953Y-24872458D01*
X27730431Y-24866321D01*
X27738963Y-24861759D01*
X27748221Y-24858953D01*
X27757850Y-24858005D01*
X28364148Y-24858005D01*
X28373777Y-24858953D01*
G37*
G36*
X28373777Y-26183949D02*
G01*
X28383036Y-26186755D01*
X28391568Y-26191317D01*
X28399045Y-26197454D01*
X28405182Y-26204932D01*
X28409744Y-26213464D01*
X28412550Y-26222722D01*
X28413498Y-26232351D01*
X28413498Y-27258648D01*
X28412550Y-27268277D01*
X28409744Y-27277536D01*
X28405182Y-27286067D01*
X28399045Y-27293545D01*
X28391568Y-27299682D01*
X28383036Y-27304244D01*
X28373777Y-27307050D01*
X28364148Y-27307998D01*
X27757850Y-27307998D01*
X27748221Y-27307050D01*
X27738963Y-27304244D01*
X27730431Y-27299682D01*
X27722953Y-27293545D01*
X27716817Y-27286067D01*
X27712255Y-27277536D01*
X27709448Y-27268277D01*
X27708498Y-27258648D01*
X27708498Y-26232351D01*
X27709448Y-26222722D01*
X27712255Y-26213464D01*
X27716817Y-26204932D01*
X27722953Y-26197454D01*
X27730431Y-26191317D01*
X27738963Y-26186755D01*
X27748221Y-26183949D01*
X27757850Y-26182999D01*
X28364148Y-26182999D01*
X28373777Y-26183949D01*
G37*
G36*
X44033273Y-31708948D02*
G01*
X44042532Y-31711754D01*
X44051063Y-31716316D01*
X44058541Y-31722453D01*
X44064678Y-31729930D01*
X44069240Y-31738462D01*
X44072046Y-31747721D01*
X44072994Y-31757350D01*
X44072994Y-32363648D01*
X44072046Y-32373277D01*
X44069240Y-32382535D01*
X44064678Y-32391067D01*
X44058541Y-32398545D01*
X44051063Y-32404681D01*
X44042532Y-32409243D01*
X44033273Y-32412050D01*
X44023644Y-32412997D01*
X42997347Y-32412997D01*
X42987718Y-32412050D01*
X42978459Y-32409243D01*
X42969928Y-32404681D01*
X42962450Y-32398545D01*
X42956313Y-32391067D01*
X42951751Y-32382535D01*
X42948945Y-32373277D01*
X42947995Y-32363648D01*
X42947995Y-31757350D01*
X42948945Y-31747721D01*
X42951751Y-31738462D01*
X42956313Y-31729930D01*
X42962450Y-31722453D01*
X42969928Y-31716316D01*
X42978459Y-31711754D01*
X42987718Y-31708948D01*
X42997347Y-31707998D01*
X44023644Y-31707998D01*
X44033273Y-31708948D01*
G37*
G36*
X42708277Y-31708948D02*
G01*
X42717535Y-31711754D01*
X42726067Y-31716316D01*
X42733545Y-31722453D01*
X42739682Y-31729930D01*
X42744244Y-31738462D01*
X42747050Y-31747721D01*
X42748000Y-31757350D01*
X42748000Y-32363648D01*
X42747050Y-32373277D01*
X42744244Y-32382535D01*
X42739682Y-32391067D01*
X42733545Y-32398545D01*
X42726067Y-32404681D01*
X42717535Y-32409243D01*
X42708277Y-32412050D01*
X42698648Y-32412997D01*
X41672351Y-32412997D01*
X41662722Y-32412050D01*
X41653463Y-32409243D01*
X41644932Y-32404681D01*
X41637454Y-32398545D01*
X41631317Y-32391067D01*
X41626755Y-32382535D01*
X41623949Y-32373277D01*
X41623001Y-32363648D01*
X41623001Y-31757350D01*
X41623949Y-31747721D01*
X41626755Y-31738462D01*
X41631317Y-31729930D01*
X41637454Y-31722453D01*
X41644932Y-31716316D01*
X41653463Y-31711754D01*
X41662722Y-31708948D01*
X41672351Y-31707998D01*
X42698648Y-31707998D01*
X42708277Y-31708948D01*
G37*
G36*
X44033273Y-32613947D02*
G01*
X44042532Y-32616754D01*
X44051063Y-32621316D01*
X44058541Y-32627452D01*
X44064678Y-32634930D01*
X44069240Y-32643462D01*
X44072046Y-32652720D01*
X44072994Y-32662349D01*
X44072994Y-33268647D01*
X44072046Y-33278276D01*
X44069240Y-33287535D01*
X44064678Y-33296067D01*
X44058541Y-33303544D01*
X44051063Y-33309681D01*
X44042532Y-33314243D01*
X44033273Y-33317049D01*
X44023644Y-33317997D01*
X42997347Y-33317997D01*
X42987718Y-33317049D01*
X42978459Y-33314243D01*
X42969928Y-33309681D01*
X42962450Y-33303544D01*
X42956313Y-33296067D01*
X42951751Y-33287535D01*
X42948945Y-33278276D01*
X42947995Y-33268647D01*
X42947995Y-32662349D01*
X42948945Y-32652720D01*
X42951751Y-32643462D01*
X42956313Y-32634930D01*
X42962450Y-32627452D01*
X42969928Y-32621316D01*
X42978459Y-32616754D01*
X42987718Y-32613947D01*
X42997347Y-32612997D01*
X44023644Y-32612997D01*
X44033273Y-32613947D01*
G37*
G36*
X42708277Y-32613947D02*
G01*
X42717535Y-32616754D01*
X42726067Y-32621316D01*
X42733545Y-32627452D01*
X42739682Y-32634930D01*
X42744244Y-32643462D01*
X42747050Y-32652720D01*
X42748000Y-32662349D01*
X42748000Y-33268647D01*
X42747050Y-33278276D01*
X42744244Y-33287535D01*
X42739682Y-33296067D01*
X42733545Y-33303544D01*
X42726067Y-33309681D01*
X42717535Y-33314243D01*
X42708277Y-33317049D01*
X42698648Y-33317997D01*
X41672351Y-33317997D01*
X41662722Y-33317049D01*
X41653463Y-33314243D01*
X41644932Y-33309681D01*
X41637454Y-33303544D01*
X41631317Y-33296067D01*
X41626755Y-33287535D01*
X41623949Y-33278276D01*
X41623001Y-33268647D01*
X41623001Y-32662349D01*
X41623949Y-32652720D01*
X41626755Y-32643462D01*
X41631317Y-32634930D01*
X41637454Y-32627452D01*
X41644932Y-32621316D01*
X41653463Y-32616754D01*
X41662722Y-32613947D01*
X41672351Y-32612997D01*
X42698648Y-32612997D01*
X42708277Y-32613947D01*
G37*
D10*
X56581000Y-37995666D03*
X63181000Y-37995666D03*
D11*
X56706000Y-65274500D03*
X56706000Y-59099500D03*
D12*
X17482000Y-70033000D03*
X17482000Y-71053000D03*
X34952800Y-49784000D03*
X34952800Y-50804000D03*
D13*
X58818000Y-22796500D03*
X58818000Y-21776500D03*
D14*
X28438503Y-30718000D03*
X27788502Y-30718000D03*
X27138503Y-30718000D03*
X26488502Y-30718000D03*
X26488502Y-33817998D03*
X27138500Y-33817998D03*
X27788502Y-33817998D03*
X28438500Y-33817998D03*
D15*
X17826000Y-3980500D03*
X17826000Y-5555500D03*
D16*
X33233200Y-44632000D03*
X33233200Y-45592000D03*
D17*
X51391000Y-14513000D03*
X54341000Y-14513000D03*
D18*
X37333000Y-33929000D03*
X38293000Y-33929000D03*
D15*
X14145000Y-47812000D03*
X14145000Y-49387000D03*
D13*
X26254332Y-15031000D03*
X26254332Y-14011000D03*
D19*
X20866500Y-34107000D03*
X23791500Y-34107000D03*
D20*
X41683000Y-47001000D03*
X40723000Y-47001000D03*
D16*
X47479000Y-39761000D03*
X47479000Y-40721000D03*
D13*
X50205000Y-65776000D03*
X50205000Y-64756000D03*
X31595600Y-50804000D03*
X31595600Y-49784000D03*
D21*
X45262000Y-64120000D03*
X45262000Y-63180000D03*
X44422000Y-64120000D03*
X44422000Y-63180000D03*
D22*
X46992000Y-64650000D03*
X46992000Y-64150000D03*
X46992000Y-63650000D03*
X46992000Y-63150000D03*
X46992000Y-62650000D03*
X42692000Y-62650000D03*
X42692000Y-63150000D03*
X42692000Y-63650000D03*
X42692000Y-64150000D03*
X42692000Y-64650000D03*
D13*
X56908000Y-22747500D03*
X56908000Y-21727500D03*
D23*
X16068000Y-54755000D03*
X17968000Y-54755000D03*
X17018000Y-52880000D03*
D18*
X46587000Y-25108000D03*
X47547000Y-25108000D03*
X32003000Y-34001000D03*
X32963000Y-34001000D03*
D24*
X14691000Y-75332000D03*
X14691000Y-73757000D03*
D25*
X49574000Y-31896000D03*
X49574000Y-30936000D03*
D16*
X38269000Y-44656000D03*
X38269000Y-45616000D03*
X13875000Y-52300000D03*
X13875000Y-53260000D03*
D26*
X37644000Y-59015000D03*
X36624000Y-59015000D03*
D10*
X56581000Y-30980000D03*
X63181000Y-30980000D03*
D16*
X26917000Y-41615000D03*
X26917000Y-42575000D03*
D10*
X56581000Y-45011332D03*
X63181000Y-45011332D03*
D16*
X51522000Y-39787000D03*
X51522000Y-40747000D03*
D13*
X23642000Y-42605000D03*
X23642000Y-41585000D03*
D27*
X18244000Y-11089000D03*
X18244000Y-8139000D03*
D20*
X18470000Y-32229000D03*
X17510000Y-32229000D03*
D18*
X27140000Y-3909000D03*
X28100000Y-3909000D03*
D19*
X36285000Y-64315000D03*
X39210000Y-64315000D03*
D12*
X25325000Y-41585000D03*
X25325000Y-42605000D03*
D28*
X44325000Y-6589000D03*
X53825000Y-6589000D03*
D23*
X52252000Y-24602500D03*
X54152000Y-24602500D03*
X53202000Y-22727500D03*
D16*
X49567000Y-39735000D03*
X49567000Y-40695000D03*
D13*
X46193500Y-60220000D03*
X46193500Y-59200000D03*
D29*
X34486000Y-37989000D03*
X34486000Y-39389000D03*
X35886000Y-37989000D03*
X35886000Y-39389000D03*
D30*
X33198500Y-37289000D03*
X33198500Y-37689000D03*
X33198500Y-38089000D03*
X33198500Y-38489000D03*
X33198500Y-38889000D03*
X33198500Y-39289000D03*
X33198500Y-39689000D03*
X33198500Y-40089000D03*
D31*
X33786000Y-40676500D03*
X34186000Y-40676500D03*
X34586000Y-40676500D03*
X34986000Y-40676500D03*
X35386000Y-40676500D03*
X35786000Y-40676500D03*
X36186000Y-40676500D03*
X36586000Y-40676500D03*
D30*
X37173500Y-40089000D03*
X37173500Y-39689000D03*
X37173500Y-39289000D03*
X37173500Y-38889000D03*
X37173500Y-38489000D03*
X37173500Y-38089000D03*
X37173500Y-37689000D03*
X37173500Y-37289000D03*
D31*
X36586000Y-36701500D03*
X36186000Y-36701500D03*
X35786000Y-36701500D03*
X35386000Y-36701500D03*
X34986000Y-36701500D03*
X34586000Y-36701500D03*
X34186000Y-36701500D03*
X33786000Y-36701500D03*
D18*
X39374000Y-61383000D03*
X40334000Y-61383000D03*
D25*
X51535500Y-31896000D03*
X51535500Y-30936000D03*
D32*
X54406000Y-18640000D03*
X51456000Y-18640000D03*
D12*
X28570000Y-16844000D03*
X28570000Y-17864000D03*
D33*
X14659000Y-62863000D03*
X21459000Y-62863000D03*
D13*
X23769000Y-37628000D03*
X23769000Y-36608000D03*
D20*
X18469000Y-26382000D03*
X17509000Y-26382000D03*
D12*
X20854000Y-36681000D03*
X20854000Y-37701000D03*
D16*
X33274200Y-49814000D03*
X33274200Y-50774000D03*
D12*
X15824000Y-14281500D03*
X15824000Y-15301500D03*
D10*
X56581000Y-52027000D03*
X63181000Y-52027000D03*
D16*
X30041000Y-44632000D03*
X30041000Y-45592000D03*
D34*
X26855000Y-69184000D03*
X26855000Y-75984000D03*
D15*
X56836000Y-17600000D03*
X56836000Y-19175000D03*
D16*
X18824000Y-36746000D03*
X18824000Y-37706000D03*
D35*
X21094000Y-8139000D03*
X21094000Y-11089000D03*
D17*
X19403000Y-67791000D03*
X22353000Y-67791000D03*
D20*
X18469000Y-30280000D03*
X17509000Y-30280000D03*
D13*
X28575000Y-14975000D03*
X28575000Y-13955000D03*
D24*
X17499000Y-75342500D03*
X17499000Y-73767500D03*
D16*
X20161000Y-52333000D03*
X20161000Y-53293000D03*
D17*
X19368000Y-71008000D03*
X22318000Y-71008000D03*
D12*
X30082000Y-49784000D03*
X30082000Y-50804000D03*
D36*
X49352000Y-75523000D03*
X49352000Y-77073000D03*
D37*
X19331000Y-49627000D03*
X19331000Y-47527000D03*
D14*
X41807999Y-40917998D03*
X42458000Y-40917998D03*
X43107999Y-40917998D03*
X43758000Y-40917998D03*
X43758000Y-37818000D03*
X43108002Y-37818000D03*
X42458000Y-37818000D03*
X41808002Y-37818000D03*
D26*
X7154000Y-34176000D03*
X6134000Y-34176000D03*
D38*
X44498000Y-27058001D03*
X44498000Y-26408000D03*
X44498000Y-25758001D03*
X44498000Y-25108000D03*
X41398002Y-25108000D03*
X41398002Y-25757998D03*
X41398002Y-26408000D03*
X41398002Y-27057998D03*
D26*
X37639000Y-61383000D03*
X36619000Y-61383000D03*
D38*
X25813501Y-25107997D03*
X25813501Y-25757998D03*
X25813501Y-26407997D03*
X25813501Y-27057998D03*
X28913499Y-27057998D03*
X28913499Y-26408000D03*
X28913499Y-25757998D03*
X28913499Y-25108000D03*
D16*
X50205000Y-59381000D03*
X50205000Y-60341000D03*
D25*
X35403000Y-33825000D03*
X35403000Y-32865000D03*
D15*
X21814000Y-47812000D03*
X21814000Y-49387000D03*
D16*
X34911800Y-44656000D03*
X34911800Y-45616000D03*
X48204250Y-59309000D03*
X48204250Y-60269000D03*
D12*
X45792000Y-48838000D03*
X45792000Y-49858000D03*
D18*
X46979000Y-47001000D03*
X47939000Y-47001000D03*
X43921000Y-46992000D03*
X44881000Y-46992000D03*
D39*
X24897000Y-7259000D03*
X24897000Y-8529000D03*
X24897000Y-9799000D03*
X24897000Y-11069000D03*
X30321000Y-11069000D03*
X30321000Y-9799000D03*
X30321000Y-8529000D03*
X30321000Y-7259000D03*
D40*
X27609000Y-9164000D03*
D12*
X21361000Y-14001000D03*
X21361000Y-15021000D03*
D16*
X35186000Y-14159000D03*
X35186000Y-15119000D03*
D12*
X31501000Y-14129000D03*
X31501000Y-15149000D03*
D24*
X15850000Y-18878000D03*
X15850000Y-17303000D03*
D25*
X44182750Y-60238000D03*
X44182750Y-59278000D03*
D34*
X37183000Y-2899000D03*
X37183000Y-9699000D03*
D25*
X50205000Y-63494334D03*
X50205000Y-62534334D03*
D20*
X18470000Y-34178000D03*
X17510000Y-34178000D03*
D24*
X18493000Y-18839500D03*
X18493000Y-17264500D03*
D19*
X43076500Y-44071000D03*
X46001500Y-44071000D03*
D41*
X46077000Y-74239000D03*
X34647000Y-74239000D03*
D25*
X25939000Y-37625000D03*
X25939000Y-36665000D03*
D13*
X25839000Y-61406000D03*
X25839000Y-60386000D03*
D42*
X31486000Y-63464000D03*
X31486000Y-61764000D03*
X29786000Y-63464000D03*
X29786000Y-61764000D03*
D43*
X28381000Y-64519000D03*
X28381000Y-63249000D03*
X28381000Y-61979000D03*
X28381000Y-60709000D03*
D44*
X34186000Y-64519000D03*
X34186000Y-63249000D03*
X34186000Y-61979000D03*
X34186000Y-60709000D03*
D12*
X14663000Y-70137000D03*
X14663000Y-71157000D03*
X23869000Y-14105000D03*
X23869000Y-15125000D03*
D25*
X47612500Y-31896000D03*
X47612500Y-30936000D03*
D45*
X28493500Y-36351000D03*
X30318500Y-36351000D03*
D16*
X36631400Y-49814000D03*
X36631400Y-50774000D03*
D13*
X31554600Y-45622000D03*
X31554600Y-44602000D03*
D26*
X7145000Y-31885000D03*
X6125000Y-31885000D03*
X7211000Y-41119000D03*
X6191000Y-41119000D03*
D25*
X45651000Y-31896000D03*
X45651000Y-30936000D03*
D12*
X38310000Y-49784000D03*
X38310000Y-50804000D03*
D16*
X42182000Y-59217000D03*
X42182000Y-60177000D03*
D13*
X25839000Y-64661000D03*
X25839000Y-63641000D03*
D14*
X43823002Y-30718000D03*
X43173001Y-30718000D03*
X42523002Y-30718000D03*
X41873001Y-30718000D03*
X41873001Y-33817998D03*
X42522999Y-33817998D03*
X43173001Y-33817998D03*
X43822999Y-33817998D03*
D15*
X58797000Y-17625500D03*
X58797000Y-19200500D03*
D20*
X18469000Y-24433000D03*
X17509000Y-24433000D03*
D26*
X7149000Y-36604000D03*
X6129000Y-36604000D03*
D12*
X28582000Y-41585000D03*
X28582000Y-42605000D03*
D25*
X33348500Y-15119000D03*
X33348500Y-14159000D03*
D13*
X43110000Y-49885000D03*
X43110000Y-48865000D03*
D46*
X32161000Y-26082999D03*
X38211000Y-26082999D03*
D26*
X7146000Y-38993000D03*
X6126000Y-38993000D03*
D20*
X23948000Y-27051000D03*
X22988000Y-27051000D03*
D13*
X36590400Y-45646000D03*
X36590400Y-44626000D03*
D26*
X7214000Y-43489000D03*
X6194000Y-43489000D03*
D20*
X18469000Y-28331000D03*
X17509000Y-28331000D03*
D12*
X22074000Y-52356000D03*
X22074000Y-53376000D03*
X18493000Y-14059000D03*
X18493000Y-15079000D03*
D16*
X23804000Y-30934000D03*
X23804000Y-31894000D03*
D37*
X16628000Y-49627000D03*
X16628000Y-47527000D03*
D26*
X7211000Y-45761000D03*
X6191000Y-45761000D03*
M02*
